/* XPM */
static char *_74df6c0b31c43a8da72f02371aead2eJyJVIDRfOApXPfWc[] = {
/* columns rows colors chars-per-pixel */
"64 64 183 2 ",
"   c #030E03",
".  c #061504",
"X  c #0C1604",
"o  c #041C02",
"O  c #0A1D03",
"+  c #141700",
"@  c #1B1000",
"#  c #1C1B01",
"$  c #211600",
"%  c #042501",
"&  c #0C2001",
"*  c #022D00",
"=  c #0A2C02",
"-  c #132402",
";  c #1F2801",
":  c #053301",
">  c #0A3501",
",  c #073903",
"<  c #0C3B02",
"1  c #123D00",
"2  c #1C3900",
"3  c #2D2503",
"4  c #0E4104",
"5  c #134302",
"6  c #1B4501",
"7  c #164A04",
"8  c #1B4B02",
"9  c #13440C",
"0  c #1A4308",
"q  c #194D0A",
"w  c #1D5304",
"e  c #1B5506",
"r  c #1D5308",
"t  c #1F5212",
"y  c #204600",
"u  c #234C00",
"i  c #245302",
"p  c #285502",
"a  c #255903",
"s  c #2B5C03",
"d  c #23550B",
"f  c #2E550C",
"g  c #2A5F0A",
"h  c #315E04",
"j  c #345C0F",
"k  c #23511D",
"l  c #345C10",
"z  c #266206",
"x  c #2E6304",
"c  c #2D6B06",
"v  c #276108",
"b  c #2B6608",
"n  c #2F6D0A",
"m  c #316504",
"M  c #336C05",
"N  c #396B07",
"B  c #356C0A",
"V  c #3A6C09",
"C  c #2F7007",
"Z  c #367206",
"A  c #387607",
"S  c #377807",
"D  c #397A07",
"F  c #377608",
"G  c #3B730B",
"H  c #3B7D08",
"J  c #2B6017",
"K  c #366115",
"L  c #2B5925",
"P  c #305D27",
"I  c #325E2B",
"U  c #325D30",
"Y  c #366724",
"T  c #386C24",
"R  c #35622D",
"E  c #366230",
"W  c #3C6633",
"Q  c #3E6837",
"!  c #41760B",
"~  c #437C0B",
"^  c #487723",
"/  c #426C36",
"(  c #446D3D",
")  c #456946",
"_  c #496A4D",
"`  c #557755",
"'  c #567956",
"]  c #5B7D5C",
"[  c #617E4D",
"{  c #3E8109",
"}  c #43830B",
"|  c #4B850E",
" . c #4C8A0E",
".. c #508D0F",
"X. c #448215",
"o. c #4F8810",
"O. c #508710",
"+. c #538D11",
"@. c #569111",
"#. c #599313",
"$. c #488123",
"%. c #5F815D",
"&. c #68964F",
"*. c #64885E",
"=. c #6D9B53",
"-. c #759E51",
";. c #618264",
":. c #678B61",
">. c #6C8E67",
",. c #6C8E68",
"<. c #77927B",
"1. c #79937C",
"2. c #8BB173",
"3. c #97B977",
"4. c #9DBC7B",
"5. c #7C9780",
"6. c #829C86",
"7. c #849D8A",
"8. c #87A18A",
"9. c #92A38C",
"0. c #94AC96",
"q. c #98AF9D",
"w. c #A0B398",
"e. c #9BAEA2",
"r. c #A3B5AB",
"t. c #A8BAA8",
"y. c #ABBBB3",
"u. c #AEBEB8",
"i. c #B3BFBB",
"p. c #A2C181",
"a. c #AEC3AC",
"s. c #B3C8AF",
"d. c #B3C2B5",
"f. c #BBCEB6",
"g. c #B4C1BD",
"h. c #B6C4C2",
"j. c #BAC6C4",
"k. c #BDC9C8",
"l. c #C2CCCB",
"z. c #C5D1CB",
"x. c #C8D3CE",
"c. c #C6D1D1",
"v. c #CAD5D4",
"b. c #CCD4DA",
"n. c #CFD8D8",
"m. c #D3DAD9",
"M. c #D4DBDA",
"N. c #D6E0DA",
"B. c #DAE2DE",
"V. c #D1D7E1",
"C. c #D6DBE4",
"Z. c #DADEE5",
"A. c #DBDEEA",
"S. c #DDE4E3",
"D. c #DEE2EC",
"F. c #DFE2F0",
"G. c #E2E4ED",
"H. c #E6EAE9",
"J. c #E3E6F2",
"K. c #E6E9F4",
"L. c #EAECF5",
"P. c #E7E9F8",
"I. c #EBEEF9",
"U. c #F0EFF6",
"Y. c #EEF1F5",
"T. c #EEF1FA",
"R. c #EEF1FC",
"E. c #EFF1FC",
"W. c #EEF1FD",
"Q. c #F1F1F6",
"!. c #F1F1FA",
"~. c #F2F5FA",
"^. c #F5F5FA",
"/. c #F1F2FD",
"(. c #F2F5FE",
"). c #F5F5FD",
"_. c #F5F5FF",
"`. c #F6F7FF",
"'. c #F5F9FE",
"]. c #F6F9FE",
"[. c #F9F9FF",
"{. c #FBFDFF",
"}. c #FDFFFF",
/* pixels */
"Y.^.{.~.].{.{.(.D.G.D.J.J.G.J.I.[.!.G.G.U.[._.P.G.U._._._._._.^.U.L.K.Q.}.}.[.^.^.U.H.Q.[.}.^.[.!.L.L.!.(.R./.].K.F.F.F.F.K.R.R.",
"].].].~.].}.{.~.Z.S.A.G.J.J.J.R.[.!.G.G.L.[._.I.L.L.L.U._._._.!.!.L.K.L.}.}.}.[.Q.U.H.U.}.}.[.[.!.L.P.U.(.(.].].K.F.D.D.D.F.R.I.",
"Y.L.Y.Y.~.R.Y.Y.K.L.L.P.L.J.J.P.Q.L.L.I.U.U.r.y.P.I.!._.!.!.U._.!.I.J.L.[.}.^.Y.Q.U.U.Q.[.[.Q.Q.Q.!.I.J.P.R.R.R.P.F.F.K.R.R.R.R.",
"S.S.H.~.Y.D.S.K.{.].].].R.J.D.G.Z.L.`.[.L.i./ >.J.Q.`._.L.G.L._._.!.K.P.^.^.Q.K.L.^.^.!.!.U.K.G.!._._.P.D.K.R.R.F.F.F.].{.].].].",
"H.G.K.Y.L.G.D.K.].(.].].R.P.G.G.G.L.]._.m.R c 2.L.U.).).L.J.U.^.R.T.L.L.~._.L.L.L._.[.!.Y.r.u.I.L./.(.J.D.J.R.R.D.J.P._.].].!.].",
"].].L.G.G.Y.(.L.K.K.R.(./.R.E.I.Y.L.!./.m.$. .4.P.G.G.G.U._.U.P.P.P.L.J.P.L.G.K.K.^.].U.z.Q ,.J.G.P.K.D.D.J.J.D.L./.!.J.J.L.K.G.",
"{.{.R.Z.G.].].T.G.D.L.(./._.`.`.~.R.R.c.*.X.@.4.J.G.A.G.U._.!.A.D.P.L.K.G.G.G.G.G.!._.S.R n 2.S.G.G.G.D.D.D.D.A.R.{./.G.G.G.H.G.",
"{.{.R.D.D.T.(.Y.G.G.L.R.R.!./.!.(.(.(.r.5 } #.-.y.J.P.J.U._._.G.D.K.L.K.K.G.G.L.L._.[.S.$. .4.P.J.J.G.K.J.D.J.I.R.R.Q.L.Q.H.G.L.",
"(.a.g.D.D.G.F.J.G.G.L.R.T.S.D.K.B.N.S.0.r  .#.G Q c.~.[.R.R.I.A.D.K.R.R.D.D.R.}.}.[.v.:.X.@.p.R.T.I.T.T.K.R.{.{.I.D.K.{.}._.Q.L.",
"z.Q ,.F.J.G.F.D.G.K.K.R.K.D.G.v.R k k J S } +. .n I x._./.I.I.F.K.P.I.K.D.D.T.{.[.[.y.5 { #.-.h.I.T.R.K.K.R.].].K.D.J.{.}.~.U.L.",
"R n 2.D.J.R.(.R.K.I.R.].R.K.K.Y.d.L v ~ } +. .} D c / i.P.P.P.F.F.F.F.K.R.(.I.n.v.S.0.w o.#.F W k.J.K.R.R.R.P.P.J.D.J.(.(.~.Q.B.",
"$.| 3.S.F.].{.].I./.R.].].R.k.5.8.T X.@.{ @. .} {  .z ` 5.7.C.F.F.D.D.F.{.].v.U k L J D { @.o.C I g.G.R.{.R.D.D.D.D.J.K.L.^.[.H.",
"{ @.p.P.F.R.].].I.R.R.R.].R.r.W w D +. .{ @.@. .| ..} b t ] V.P.F.K.F.F.].].I.a.L v } { +.| { { c Q y.T.(.R.F.F.F.F.K.P.I.R.v.*.",
"H #.=.h.R.F.F.F.R.R.K.F.F.F.D.a.X.+. .{ { @.| | @.{ { { &.c.F.I.I.].].R.F.d.5.5.T ~ @.} #.+.} {  .b %.<.5.S.R.R.K.A.F.R./.P.e.7 ",
"o.#.G W c.D.D.F.R.I.K.F.F.J.t.^ B D o.o.} @.|  .@.{ ..n 9 ) V.R.R.].].R.F.e.U t D O. .{ #.@. .} @.{ z e ' V.R.R.F.D.C.b.b.v.8.r ",
"{ @.o.n I h.F.K.F.K.j.] %.;./ w r }  .Z v @.~ } #.o.B 4 , 0 ` ] r.K.K.K.S.S.s.{ +. .{ { #.|  .@.{ { S =.b.K.P.K.F.F.j.U k L J S ",
"o. .{ { c Q r.F.Z.D.j.` 4 5 u p , ~ N 5 < | M N O.+.q > 8 i 6 ( d.K.A.D.G.t.^ M H  . .} @.|  .@.{ ..n 9 _ Z.J.F.J.D.D.r.L g ~ { ",
"@.@.} {  .b %.1.6.C.G.d.Y 8 M c 4 b r : < c p u M o.5 8 M m f w.m.y.] ] *./ i w }  .B v +.~ } #. .Z 9 , 0 ` ' e.J.g.<.1.K X.@.} ",
"@.#.o. .o.{ z e ] G.d.K Z D A m z 7 w x s 7 , * 5 S 7 z H D m l f ( ' 9 1 u a < ~ V 5 < | N V O.+.7 , 6 i 0 Q r.J.y.E r H .. .{ ",
"@. . . .{ { { =.H.q.R x M s N  .D Z c M A z > > 8 4 i c m s S m m K W r 8 M M 1 b r : < c p 6 M O.5 8 M m p 9.l.m.P.f.X.+. .{ } ",
"@.| | #.{ @.n 9 _ g.%.8 p V ! ~ A Z ! } H s w 7 w i x M M p m M N p p A A G m s 7 w x s 7 , * 5 D q v { D x j f [ w.^ M H o.o.} ",
"+.~ X.#.o.C 4 , 0 ) R < u ! ~ s s N |  .M i 7 C G } m M Z s p A p 6 s M p ! O.D Z c M A z , < u 4 i x x s n q 8 q d i r } | Z v ",
"| M B O.#.7 , 8 i 6 1 6 h m p u p |  .M i M F  .| O.h p p u m A z 6 7 p N ~ ~ A Z G } D s i a p w x Z M s s w 4 < i a < ~ B 4 4 ",
"c p u m O.5 8 M m i 5 < p r > < s ! S x s v { o.~ N A m 6 < s s 5 , > u ~ ~ s s N |  .M p A M m } m M Z s p c 7 i m M < b w : < ",
"7 , * 5 A 7 z H D m p u u 1 > 8 m M x i i 9 { #.~ 8 B m i 5 5 6 1 > u x x p u i ~ O.Z p m G Z B ..h s p i p p Z S F m s q w x s ",
"a > < e 5 a c x s A m s a < 4 u x i u y 8 e o.#.G 7 r p p u p 7 < , > s w > < s H A m m O.m i p m A m 6 > q s M s V O.D Z c M A ",
"s a a p w x M M p m Z m p r 7 u a 4 4 4 w D { +. .C 5 6 8 6 7 8 a b 8 p 1 > 6 m M m p s ~ r i p p M m i 5 5 8 i N ! ~ Z Z ! } D ",
"p A M h } m M A s p A M i i u i u > , g ~ } .. .{ D c 7 7 6 q a M D M i 1 1 p m a u u p r n Z s u i p p 6 > > i ! ~ h h N |  .M ",
"m D M N  .m p p u m A M i , i i 7 5 r ~ @.} @.@.} {  .b 7 7 i A Z Z ~ s u u p p 5 5 6 p F | ~ s y 7 6 u < > u s m p u p |  .M p ",
"+.G s p N A x 6 < s s 5 , > 5 4 5 q H .. .} @.@. .| @.{ b 7 w c Z | ..M p u p u > * > 8 S +.! s > 6 m q 4 > > s r < > s H A m m ",
"+.! s s p M m p 5 1 > 8 z p i 8 w D .. .{ } @. . .@.{ { { c i Z | ..} D m h p u 6 < : 9 H #.B 0 6 5 8 6 a b u p < > 6 x M h p h ",
"| N h s u i p p y 1 > i A Z A x x M H .. .{ @.}  ...{ @.n 4 < c  .@.{ A m V ! u 6 6 < r +.#.F 7 7 6 8 a M A M p 1 1 p m a u y p ",
"A a p s y 5 6 i i i p a w r e i i r ~  .B v +.~ ~ #.| B 5 : 1 5 r B Z s N | ! 5 4 4 r S { @. .C 4 a M D Z Z H p u u u s 1 1 u i ",
"x 7 r p > 6 s h m x A F e 4 < i p , ~ B 5 < | M V O.#.7 , 8 p 6 7 a 6 i ~ ..Z u 4 g X.{  . .} D c e c M F | +.M p u p u > * > u ",
"u < 1 i 6 u p p m A  .@.~ 7 i m M < c w : < c p u B ..5 q M m p 6 5 > s D b 8 8 z { @.} @.+.} { } c q w b o.} D M s s u y > * > ",
"u 1 y s p u u p m Z | ~ p S D Z m z 7 w x s 5 , * 5 A 7 z H S m p u 6 M A q 4 r H ....{ @.#. . ...} c 7 a +.{ A m V ! p u 6 1 1 ",
"u p s M m p i s M m i w x M s V ..H Z m M A s , < r 5 i M m s Z M s p 7 5 4 w D +.o.{ } @.|  .@.} { H c B  .Z s N | | p p p s p ",
"p s Z ~ M m m M D M u 7 6 p N ! ~ Z Z ! } H s a p p w z M m s m M x p r 4 6 x M H O.o.{ @.}  .@.{ ..B < , b 6 u ! ..M u h A D m ",
"m x ! ..H m Z H { Z i 1 > u ~ ! p s N |  .M p Z M h } m M Z s p A M i i 4 7 i w } | B v +.~ ~ #. .B 9 : 1 4 < w ! M p m A  ...A ",
"x Z ~  ...N M m x p < > u x m p u p |  .M p m D Z N +.h s p u m A Z i : < 8 p < ~ B 1 5 } N V O.@.8 , 6 p 6 4 z A i 5 Z  ...} M ",
"M H D ~ @.m p i s 7 4 , > s r > < s H G m m O.! s p N D m 6 1 s p 6 , < 4 9 e < c w , < c a 8 M o.5 8 M m p 5 M a 5 6 Z +. .M p ",
"D { M M ..h y 5 7 8 a z w p 1 > 6 m M x p s +.! s p p M m u 1 1 > 8 z w p 8 6 q 7 w x s 7 , * 6 F 7 b H A m u u 6 > 8 c O.! p p ",
"A M p p H v 6 7 8 a M A M i 1 6 p m a u u p | N s x u i a p u > > i D A Z m p a c c M A a > < i 4 i M x s D m s p , 4 c H s u i ",
"p s 8 < p 8 8 p M S Z A ~ p u u u s 5 1 6 p A p p x 6 5 6 p i p p x M S D Z Z S S ! } D s a i p w x M M p m Z m p a 7 a 7 > 1 u ",
"5 < , * 1 s w D D M A | ..N p y u u > * > u m 8 8 p > 6 p m x x A { D M m Z H A N |  .M p A M m } m M Z s p A M i i 4 5 * : , < ",
", : : : : 5 8 s p Z  . .} D m h p u y > * > u < 5 u 6 u p p m D  .@. .D m M m p s ~ M p m D Z N +.h s p u x A Z r : 7 < * > > : ",
": < 4 4 4 , , u p M ..@.} Z m ! ~ p u 6 1 1 y 1 6 s p p u p m Z }  . .| 8 u u p m Z x m O.! p p M A m 6 > s p 6 , < 4 4 < 4 7 4 ",
"4 i w 5 i p 7 4 a i V  .M s N O.~ u p p s p u p h M m p u s M x M Z }  .8 1 6 x s s i h +.! x p p M m i 5 5 > 7 z i a 8 6 w M w ",
"i c c i a M w 4 < , w M 6 i ~ ..Z i h A H m i s Z ~ m m x Z D M p p M A p < 5 w , 0 y i | B s x u i p p u > > p A Z Z m i a S Z ",
"Z A Z x 5 4 8 w : 5 8 4 > s H M p x A  ...D m x ~ ..D M Z D { D p u u i 7 8 p i 4 < > < Z a p s 6 5 6 i p u p s M D H M M c F { ",
"{ c x c 7 w 8 8 a 5 : * 4 c A i 5 Z  . .~ M M Z }  ...N M M m D 8 > > > < < > 5 8 6 > 6 x 7 i p > 6 s m m m A { D m m Z D A c A ",
"S w 7 x a 8 a z Z 5 * , < B s 1 6 A +.| M p M D D ! #.m p u 6 x 5 * * 4 7 w 4 , 8 < * > u < 1 u 6 u p p m D ..@...D M M x p p a ",
"S w 6 a 5 6 s Z w 7 4 < < i 4 > u M  .! p i D D M M O.h u 5 * 5 < , > i a M c 7 4 : * , y 1 u s p u y p m N }  . .| w u s m p 7 ",
"z 7 , 6 i i p i 5 i 7 6 a 5 4 , 4 S H x u p D Z p p A M p 6 : * * , 4 4 i a x Z 4 : 5 u u p s M m p p s M m M Z {  .6 1 8 i > > ",
"6 = o * , O O < w p i z A a i 7 7 x 6 > 1 u p p 6 > p m 5 < 6 * , 7 7 : 4 > 6 x i O y m p s A H M m m Z D M p p M A a 4 5 w , % ",
": .   % < % * 6 a 6 w A { A x 8 , 4 * * > < 5 4 , * 1 s 5 > 8 6 4 8 i 6 8 , % - - o f S m x ! ..H m Z H { D p u u i 5 8 p i 4 > ",
"  o * * * : 8 p 8 5 c { Z A i 7 7 4 * , < : : : : : : 7 4 > 8 x a w w p i 7 =   . > w s x Z {  ...V M m x D 8 , > > < < > 4 w 5 ",
"% % : , * 5 i u < c D Z w i 5 w F i > 4 5 4 : 4 4 4 4 , > 7 a S { z 7 i 4 7 5 : 4 8 1 < M H D ~ +.m p u 6 x 5 * * 5 7 w 4 , 8 < ",
"* : , 4 * : % & c w w 8 : 4 b Z p 5 w c C w 4 a w 5 p i 7 4 7 a S Z a 4 : * , < , > * > S H M M O.m u 6 * 5 4 : > i a M c 7 4 : ",
"* < 4 < * * % : 5 w 5 > > 8 z a 7 w M { { Z i M x w a Z x w w s c Z Z i < , 5 8 , 8 6 y A Z p p G M p 1 : * * > 4 4 i p c Z 4 * ",
": 8 w < * 1 5 4 * 6 < , 8 6 7 7 w M z x Z { M Z A x w x Z x w M m M B A b 7 w i , * 1 u p s 8 > p m 6 < 8 * , 7 8 : 4 , 5 x i O ",
"< w p 5 * 1 7 > : 4 > > 8 : , 8 c Z 8 w c S { c c M w w F b 4 Z Z a i x c 7 5 7 < * : 1 5 1 : * 1 s 5 , 7 7 < 8 i 7 8 , % - - o ",
"; ; 1 > * * * * < w 7 , : * , w F a a Z Z a S e 7 x S 7 v z : i M i % . > , * * * : , : , : : : : 8 < > 8 x a w i p i 6 =   o > ",
"$ @ 2 y $ + + - i 7 , * * < : < 5 > c A s 7 S e 6 x S 4 7 i > X X = , > * & + # 3 1 7 4 : < 4 4 4 > , 7 a A { z 7 w 4 7 6 : < 8 "
};
