/* XPM */
static char *collectable11693509693[] = {
/* columns rows colors chars-per-pixel */
"64 64 252 2 ",
"   c #18171C",
".  c #391801",
"X  c #311F3C",
"o  c #2F2B37",
"O  c #222228",
"+  c #4B120F",
"@  c #661117",
"#  c #4E2F0A",
"$  c #693503",
"%  c #7A381C",
"&  c #6D310C",
"*  c #5B192E",
"=  c #483E39",
"-  c #503329",
";  c #682536",
":  c #752A38",
">  c #6F312E",
",  c #771B20",
"<  c #6B461A",
"1  c #79461A",
"2  c #794106",
"3  c #5C4731",
"4  c #6F4F2C",
"5  c #7A652E",
"6  c #341F46",
"7  c #322D43",
"8  c #4F304C",
"9  c #693E59",
"0  c #773849",
"q  c #5C2E53",
"w  c #394257",
"e  c #514F54",
"r  c #6A5050",
"t  c #766351",
"y  c #4D536A",
"u  c #585A69",
"i  c #595D78",
"p  c #56466A",
"a  c #754667",
"s  c #7A5B6B",
"d  c #705770",
"f  c #5A6179",
"g  c #5C636D",
"h  c #656678",
"j  c #796479",
"k  c #746E72",
"l  c #81360F",
"z  c #8A3925",
"x  c #843035",
"c  c #8C5011",
"v  c #A36D1B",
"b  c #874527",
"n  c #885738",
"m  c #995B39",
"M  c #8D512F",
"N  c #A74838",
"B  c #A95739",
"V  c #8B642A",
"C  c #96652A",
"Z  c #986837",
"A  c #926C34",
"S  c #A5672B",
"D  c #B66A28",
"F  c #A86838",
"G  c #B47838",
"H  c #B07730",
"J  c #91651A",
"K  c #C57935",
"L  c #8E374B",
"P  c #A53A54",
"I  c #944F4E",
"U  c #AA5543",
"Y  c #B25748",
"T  c #B75955",
"R  c #AA494E",
"E  c #9C6746",
"W  c #967B48",
"Q  c #896659",
"!  c #92714D",
"~  c #A77B4A",
"^  c #B87E4A",
"/  c #B8675A",
"(  c #AD7659",
")  c #BB7A56",
"_  c #A8664B",
"`  c #984D76",
"'  c #895777",
"]  c #9C537C",
"[  c #955679",
"{  c #954D68",
"}  c #A85572",
"|  c #896577",
" . c #897A77",
".. c #94726C",
"X. c #A97967",
"o. c #B2726B",
"O. c #C46E57",
"+. c #C37558",
"@. c #C66461",
"#. c #7B827A",
"$. c #B08134",
"%. c #D48519",
"&. c #C78A3A",
"*. c #CE902C",
"=. c #E5962B",
"-. c #F7A835",
";. c #F1AA34",
":. c #DAA73C",
">. c #B6854A",
",. c #A88357",
"<. c #B98757",
"1. c #B48F53",
"2. c #96877B",
"3. c #8F8776",
"4. c #B5896B",
"5. c #B89769",
"6. c #B98977",
"7. c #B08F72",
"8. c #BDAC7C",
"9. c #C89449",
"0. c #D2944A",
"q. c #C99457",
"w. c #CC9052",
"e. c #D3A653",
"r. c #ECAF50",
"t. c #C58B78",
"y. c #CE8E70",
"u. c #E8937D",
"i. c #C9A66A",
"p. c #CAA57A",
"a. c #D8AA7C",
"s. c #D5B06C",
"d. c #E9AB62",
"f. c #5E6482",
"g. c #626783",
"h. c #777A94",
"j. c #975C83",
"k. c #8A5E81",
"l. c #A55783",
"z. c #9A6687",
"x. c #8E7B92",
"c. c #B4648C",
"v. c #B56C94",
"b. c #BE6A9B",
"n. c #BC6796",
"m. c #B67499",
"M. c #AB6A91",
"N. c #BD73A4",
"B. c #C45D95",
"V. c #C4679A",
"C. c #C57399",
"Z. c #C87AA3",
"A. c #D778A8",
"S. c #7F82A1",
"D. c #9A8885",
"F. c #908A91",
"G. c #B48981",
"H. c #AA938E",
"J. c #B2A88F",
"K. c #898BA8",
"L. c #9796B7",
"P. c #958EA8",
"I. c #AA96A7",
"U. c #AC91AC",
"Y. c #B8B4B4",
"T. c #9FA1AD",
"R. c #C28C81",
"E. c #C79887",
"W. c #CB9295",
"Q. c #E69484",
"!. c #C7A887",
"~. c #D8A989",
"^. c #D8A896",
"/. c #D9B598",
"(. c #CFB88D",
"). c #ECA88A",
"_. c #E5A894",
"`. c #E3B69B",
"'. c #F9AD96",
"]. c #C986A6",
"[. c #DA8AAD",
"{. c #D294B8",
"}. c #E68FB5",
"|. c #DDB8A6",
" X c #CCB5B4",
".X c #E4BCA3",
"XX c #E6B8AA",
"oX c #EEB9AC",
"OX c #DCC89B",
"+X c #E4C39A",
"@X c #EECA9C",
"#X c #DBC7A5",
"$X c #D4CAB7",
"%X c #E6C5AA",
"&X c #EAD6AD",
"*X c #E7D9B7",
"=X c #F5D9B3",
"-X c #F0CFAE",
";X c #EDE1BD",
":X c #F4E3BB",
">X c #B4B8D6",
",X c #9EA3C3",
"<X c #C8B5C9",
"1X c #D7DADA",
"2X c #D0C9CB",
"3X c #E8D4CB",
"4X c #DCE4DD",
"5X c #F2E6D1",
"6X c #DBDDE5",
"7X c #DCDEEB",
"8X c #D7DBE6",
"9X c #DDDEF5",
"0X c #E3DDEC",
"qX c #E5DDE7",
"wX c #E1DEF1",
"eX c #E8DEF6",
"rX c #DDE2E5",
"tX c #DDE2ED",
"yX c #DBE8EC",
"uX c #DEE4F2",
"iX c #DDE8F5",
"pX c #DDF0EE",
"aX c #E3E4E5",
"sX c #E2E4ED",
"dX c #E9E5EC",
"fX c #E4E9EE",
"gX c #EAEBEE",
"hX c #E9E6E5",
"jX c #F3EEEC",
"kX c #F6E8E9",
"lX c #EBF4EE",
"zX c #FAF5EB",
"xX c #E3E5F2",
"cX c #EAE5F3",
"vX c #E5EAF4",
"bX c #EBECF4",
"nX c #E4E4FA",
"mX c #E5EBFA",
"MX c #EBEDFA",
"NX c #E9E7FC",
"BX c #F2EDF5",
"VX c #F2EDFC",
"CX c #F6E9F7",
"ZX c #EDF1F5",
"AX c #EDF2FC",
"SX c #E7F3F9",
"DX c #F2F2F6",
"FX c #F3F4FD",
"GX c #FBF4FE",
"HX c #F5FAFE",
"JX c #FBFCFF",
"KX c #F9F4F3",
/* pixels */
"ZXHXJXDXHXJXJXDXyXaXaXsXxXtXxXMXJXFXsXaXMXJXGXvXcXBXGXFXFXFXGXDXCXVXvXlXHXHXHXHXFXBXkXGXJXJXHXHXSXvXbXGXFXAXFXHXvXtXuXtXtXvXAXMX",
"HXJXHXDXJXJXJXAX6XtXtXyXxXsXxXMXJXDXsXaXbXGXFXVXvXbXbXZXFXGXHXDXGXbXiXlXHXJXHXHXKXgXdXCXJXJXHXJXZXvXcXbXFXFXFXHXxXuXtX7XtXvXAXMX",
"ZXlXZXDXFXDXZXbXvXvXbXvXMXxXxXMXbXbXbXbXMXbXbXbXcXbXVXFXBXFXDXFXAXMXxXbXJXJXlXDXZXZXbXDXJXJXDXBXZXVXbXbXMXMXAXAXvXtXuXvXMXAXFXAX",
"aXrXfXDXDXrX6XfXJXJXJXHXFXxXtXsXrXbXFXHXVXsXsXvXsXVXJXGXbXsXbXHXFXZXvXbXKXGXjXgXlXDXHXAXCXBXgXdXFXHXFXvXtXvXAXAXvXtXxXFXJXJXFXHX",
"xXsXvXZXbXaXtXvXHXFXHXHXAXvXaXsXfXbXHXHXbX0XxXMXcXVXFXFXMXcXbXHXAXAXvXbXHXGXDXgXfXHXHXHXAXZXbXbXvXFXFXvXtXxXZXAXtXuXvXFXHXHXFXGX",
"HXHXZXtXfXAXHXbXxXvXAXFXFXMXAXAXZXZXZXAXBXsXsXcXbXsXaXvXAXFXbXvXcXMXvXxXgXgXfXdXfXAXHXSXHXFXvXsXsXvXvXaXtXsXxXtXbXFXFXfXsXvXgXvX",
"JXJXZX6XtXFXJXMXaXtXbXFXFXFXHXFXAXAXAXAXMXsXsXxXxXsX7XsXAXJXAXtXxXvXxXsXaXaXrXdXcXVXHXHXHXFXNX7XsXsXtXtXtXtXtXtXFXJXFXxXaXsXaXaX",
"JXJXZXtXsXAXFXZXxXsXbXAXAXAXFXFXFXDXFXAXbXsXxXvXxXxXxXxXAXHXAXaX0XkXkXkXkXhXdXgXbXFXHXFXSXAXVXMXvXxXfXxXxXtXxXvXZXAXMXbXMXcXdXbX",
"FXFXMXtXtXxXxXxXsXvXMXAXbXtXrXAXJXJXGXFXMXxXxXMXAXMXFXFXFXMXxXqXY...+ * + H.H.KXJXJXVXFXSXSXVXFXFXAXAXbXvXAXJXJXZXtXfXJXJXJXBXbX",
"HXFXbXxXxXxXtXuXsXsXvXZXbXtXsXAXJXHXHXFXMXxXxXAXAXAXJXGXMXVXVXY.r r } P , : ; | Q I.GXBXHXpXNXFXAXAXAXbXvXSXHXJXvXtXvXJXJXFXbXDX",
"AXMXvXtXsXZXAXZXvXMXAXFXAXvXvXFXJXGXVXbXxXtXtXvXxXMXCXCXCX0X<Xs * r M @ x P @ L P { | CXyXfXbX7XvXvXvXbXAXAXvXvXuXtXxXDXFXFXGXFX",
"vXvXxX7XtXHXJXJXAXAXHXHXJXAXMXHXJXZXsXyXtXtXtXtXwXcXGXCXU.s s 9 > , + @ , x @ P P R ; ' d 1XdX0XsXrXtXAXJXAXtX7XtXtXxXvXbXFXJXHX",
"xXxXxXxXxXAXFXAXmXMXAXAXAXMXmXAXHXbXxXxXxXsXsXxXxX2Xd 9 x.{.{.].: > : : @ : : R I L C.}.].9 e  XcXvXvXVXFXMXxXuXuXtXxXmXMXAXFXFX",
"xXtXvXAXZXxXtXuXAXAXvXxXvXuXtXxXtXfXSXSXvXuXuXxX0XP.a N.{.{.].} * ; L { ; W.R ; ; Z.}.}.[.].M.' CXJXFXsXsXxXMXAXxX7XxXAXFXvXtXxX",
"tXtXxXAXAXtX7XuXAXAXvXtXxXuXtXxXrXtXSXSXvXyXsXcXeXF.p m.n.V.A.A.V.` * 0 ].[.}.c.Z.].m.v.] [ k.g.GXJXJXsX7XxXAXAXxXtXuXAXMXvXxXtX",
"tXmXvXvXvXxXtXxXvXvXsXuXvXZXMXMXvXZXvXSXiXiXxXeXCXI.a M.c.V.V.V.A.V.b.].[.}.[.A.n.l.j.[ ` j.d ' VXbXVXVXvXvXmXvXxXtXxXvXvXAXAXMX",
"AXAXmXxXxXxXtXsX8XyXtXtXvXJXJXGXGXDXbX8XyXiXvXAXVXU.9 M.m.V.V.V.B.V.b.V.Z.n.] ` ` } ] ` [ z.' j GXvXxXMXFXxXxXxXxX9XxXaX7XbXJXHX",
"mXSXnXuXxXvXxXaXfXxXsXxXvXFXFXGXZXDXdXfXSXtXxXFXMXU.a M.c.C.n.V.B.b.n.n.c.l.` ` l.` ] ] { ' | ' CXnXbXMXMXMXxXxXsXxXxXsXsXbXFXAX",
"iXnXnX7XsXbXZXbXHXSXAXAXFXbXbXMXvXiXMXKXhX6XaXwX9XP.9 m.v.n.V.V.V.V.n.n.l.] ` l.` ] j.` [ [ ' j VXMXnXvXxXxXxX7XxXMXMXAXFXFXAXDX",
"iXiX7X7XxXbXAXHXHXHXHXHXFXMXxXxXuXuXGXGXBXdXaXcXeXP.a M.c.m.c.V.b.b.n.n.l.l.] l.] ` [ [ z.' ' | VXxXvXcXxX7X7X7XMXFXFXHXJXHXDXAX",
"vXxXxXvXvXxXxXAXHXSXSXSXMXFXVXMXmXiXMXMXFX7X7XcXBXP.a N.b.n.V.V.V.B.b.b.l.l.] ] l.` ] [ ' ' [ ' CXMXbXbXxXxXMXMXMXxXMXFXZXAXAXAX",
"tXsXvXAXAXxX7XvXHXHXSXtXxXFXJXHXHXAXnXwXxX9XFXsXbXI.{ M.b.V.V.B.V.V.b.b.l.j.] ] ` ` [ [ [ ' | j GXJXHXxXxXvXMXMXxX7X7XxXtXZXJXHX",
"rXsXnXAXMXnX9XnXHXSXfXyXfXFXGXGXHXFXdXxXyXyXrXgXY.o a b.n.b.B.B.V.V.v.M.l.[ [ [ [ ] [ [ k.a q j eXJXHXxXxXMXMXFXxXtXsXsXxXMXHXHX",
"aXsXbXNXNXnXiXiXvXfXpXrXsXMXbXcXaXjXgXjXKX1X#.1Xk k 8 6 k.M.Z.c.c.N.v.M.z.j.' [ ' [ ' a 6 8 8 7 <XtXvXmXFXMXxXAXMXMXvXxXxXxXsXsX",
"sXyXcXAXVXnX9XnXiXiXtXrXaXqXqXdXaX4XlX2X3.D.2X3.e k F.K.g X 8 r [ v.b.v.j.j.k.d q 8 7 y h.,X>X>Xh.u 2XFXHXMXFXAXMXMXMXxXaXtXtXtX",
"vXvXMXMXMXvXuXnX9XmXxXtXaXjXhX XH.H.3.7.$X*X;X;X$X3.r k s k #.= 8 q d m.z.a q 6 7 f.K.,X>X>XL.S.S.e T.bXMXMXFXMXAXMXMXxXxXvXbXsX",
"MXVXVXVXZXvXtXxXMXMXxXxXgXkX2.Q ,.1.1.A 5.=X*X*X5.A >.1.( t e I.U.x.p 6 6 p x.L.>XL.L.S.f.f.f.y g w P.yXMXMXvXMXMXxXxXbXAXFXFXFX",
"VXFXMXbXZXfXsXxXVXNXVX6XhX$Xt W G &.0.q.G 1.+X1.>.e.&.$.H _ t k P.L.L.K.L.L.x.h.S.f.f g.f.f.f.f.g o P.xXxX7XMXFXxXxXxXMXFXDXHXJX",
"FXFXbXdXgXZXbXAXwXVXbX2X2.3.< 4 S D D G w.C V H 9.K D K B % 3 3.e h.K.g f.f.i f.g.g f f.y w 7 O O h tXnXxXxXxXxXMXAXMXvXfXbXHXJX",
"FXGXbX6XsXFXJXFX1X2X#.3.$X&X3 4 F G S H G G q.$.D S D D F b < #X1XF.g u f.y u f h w o O 7 7 7 y y g tXxXxXuXwX7XAXJXHXaXrXZXJXJX",
"KXJXDXsXxXVXFXDXY.F.*X;X=X%Xp.n 1 < 1 M c F S S c c 1 < 4 n 7.;X*X5X2X2.o e =     o y y y f.f.i u h MXxXNXxXtXxXMXVXAXvXbXDXJXDX",
"JXJXDXZXMXeXwXxXY.J.J.*X5X-X=XOX~.5.1 Z +.B 2 F ^ C n 4./.+X;X&X;X*X#XOX. 4 4 4 3 3 g g.y f.g.i d g FXNXxXAXAXMXxX7XsXHXJXgX4XyX",
"HXHXDXbXBX0X6XbXY.J.J.s.OX=X*X#XW W 5 V ~ V p.V ,.V < $.,.OX=X:XOXOXOX(.# 1.r.r.r.s.4 e h h f g.d s AXvXZXgXgXHXsXtXcXGXJXgX4X4X",
"SXJXZXfXBXCXdXgX>Xt 5.i.s.a.8.5 p.i.1.5 A OX*XOXA 5 1.8.i.5 (.#X+X@Xp.# e.r.;.-.-.:.s.# u g k u . 7.D.lXZXjXsXsXsXsXxXcXbXxXaXyX",
"HXJXZX4XhXBXMXbX1X#.> b ( p.4.A 1.A p.@X*X=X&X&X*X$X8.,.1.$.J./.6.n & ^ r.r.-.-.;.*.c # 3 t 3 < s.e.3 zXJXbXnX9XuXuXwXwX9XwXxXxX",
"FXHXZXyXhXbXZXMXyX3.z z m m E Z $.A /.=X=X&X;X&X;X;X$X,.9.$.A X.! m & d.r.-.r.=.%.%.$.e.i.< ,.e.:.r.< zXGXFXnXiXiXiXnXxXnXnXnXxX",
"fXsXBXJXGXNXxXmXAX3.n O.u.@.& F 1.A a.a.OX&X5X5X*XOX#X,.0.$.& X._.<.b w.r.r.r.e.$.# &.r.0.v =.-.;.*.,.jXZXnX9XiXSXiXAXFXFXMXbXbX",
"aXaXBXJXJXNX9XnXHXD.( Q.Q.z z E >.$ q.a.^.!.#X#XOXOX~.4 &.H c T _.oXA V C J v $ + >.l c *.c ;.-.;.r.< 5XqXnXnXiXSXSXAXHXGXAXcXjX",
"xXsXbXGXBXNXnXmXGX2.^.Q.U U % E <.b % n 7.!.#X#Xp.m x m 0.G I T / ( .X!.,.5.9.J D :.c $ & :.=.K :.r.4 5XCXcX0XAXSXyXNXFXVXMXcXcX",
"tXsXsX0XsXMXSXMXFXx.t.Y N B F F ) & b b E E 4.! ~ M I z 0.H +./ b E.XX|..Xp.m d.d.$.J G % B r.r.:.d.< zXKXGXAXZXiXiXxXMXMXnXnXeX",
"fXyXtXtXvXZXbXFXCXx.N N B y.q.Z >.$ B u.y.B m _ a.a.) l 0.$.~.W.+ XX|.|.XX~.) ).^ y.H 1.4 o.Z q.^ + - GXGXGXFXbXuXuXcXFXFXvXsXvX",
"AXAXpXtXvXvXsXcXGXD.R N O.)._ F +.& y.).O.N Y B <.'._.b $.$.,.Q 3XXX|.XXXXXX).E ~.& q.# . |.`.`.~.7.= bXbXcX7XNXxXtXcXFXFXvXaXyX",
"HXJXSXyXuXxXxXbXGX .I O.'.y.M D ^ C ).O.N R T T / y.oXE e.H 5 4 !.|.|.XXoXXXoXoXXXX.4.!./.XX/.`./...D.sXFXNX9XxXnXxXcXBXFXMXxXiX",
"DXHXvXvXMXxXaXbXJXD.X._.@.T z B w.M O.N N Y Q.O./ @.o.o.w.G n > 6.6.E.^.^.XXXXXXXX.X|.|.%X|./..X`.3.4XMXxXxXxXNXnXwXcXGXHXMXuXuX",
"MXFXHXJXJXsX6XsXJX2XD.Q I I b F O.l N N T u.'._./ T / 4 w.H I > W.R.4.y.t.W.XXXX|.|.XX-X^.oX%X/.(.3 hXvXHXMX7X8XxX7XeXGXJXNXxXuX",
"FXMXAXJXJXgXrXgXHXSXlX3X..I o._ +.& N Y u.).y.oX'.) T % q.,.7.> | 6.G.t.t.t.G.6.6./..XoXoXXXXX.X( - vXSXAXvXtXsXtX0XcXGXFXNXxXvX",
"vXsXiXiXxXCXBXVXiXSXgXzXgX2Xt t ,.& E ).'.@.T @.'.'.( % 5.! r $XkXY.H.3 X.G.6.R.6.t.t.t.{.oXoX^.o.3XeXnXuXAXlXlXlXbXBXNXMXVXFXZX",
"rXtXyX8X9XFXJXFXuXyXKXJXDXfX4X X .3 E.Q.T R @.@.t.`./.3  .$XzXgXaXHXDXzXJ.3 ....6.4.4.6.6.R._.E.Q kXwX9XyXfXJXJXHXJXFX0X7XFXJXJX",
"xXuXuXuXnXMXAXMXiXnXAXFXMXMXbXGXlX2X2.I I R } T { ..2. XjXDXlXbXvXAXFXDXhXkXkXI.- ..G.E.6.6.E.X.- cXvX7X8XAXFXHXFXFXVXxXxXVXJXHX",
"MXvXnXAXSXuXuXiXMXMXnXnXMXFXVXMXfXZXjX3X] 0 o.L .. XKXKXbXZXMXFXFXMXsXHXHXFXKXaXdXkX .- H.W.6.Q 0XDXMXDXaXbXMXFXsXtXxXMXMXvXsXxX",
"mXvXMXFXAXsXuXvXAXAXxX7XxXAXAXvXdXgXKXKXkX$X| 2XhXzXGXKXbXxXxXFXFXbXsXbXDXAXZXbXbXjXzXzXkX .3 e DXBXJXZX6XvXxXMXxX7XtXAXFXvXtXxX",
"AXAXAXvXuXxXuXyXnXbXvXvXbXFXFXBXBXBXJXJXBXgXaXhXhXlXZXbXFXMXMXFXVXVXvXsXAXHXvXaX6XFXhXhXJXJXjXKXaXZXvXtXvXsXxXMXxXtXxXxXxXMXAXMX",
"FXJXAXtXtXfXxXtX7XyXfXvXbXbXFXFXJXDXDXvXpXpXSXrXrXrX6XqXVXJXJXFXJXcXsXxXMXMXxXxXxXiXvXgXZXDXHXHXFXbX8XsXxXxXvXxXxXxXxXtXxXMXJXFX",
"FXHXvXtXvXxXyXvXvXfXfXbXbXZXDXFXGXJXFXSXSXpXyXfXbXcXCXCXGXGXFXFXJXaXaXvXxXxXxXvXZX8XuXZXJXAXSXHXvXsXvXMXsXxXxXxXxXxXxXuXxXMXFXFX",
"HXHXZXMXbXtXtXvXJXHXAXAXDXFXFXKXJXvXHXFXAXfXFXBXGXGXCXCXCXJXGXcXfXtX7XsXxXcXFXFXMXxX7XxX7XbXMXMXFXFXFXJXFXAXnXFXxX9X7XtXtXxXMXAX",
"FXJXFXAXAXxXtXvXJXJXHXZXAXHXHXHXAXJXFXJXbXbXbXGXGXGXGXGXGXGXBXsXtXuX8X7XxX0XNXGXVXeXxXcXwX0XVXxXbXFXHXFXFXFXFXMXxXsXtXtXtXvXMXvX",
"AXHXMXxXnXxXuXvXFXZXAXHXAXZXAXAXMXbXHXJXFXbXbXHXJXHXbXZXJXGXBXgXvXvXmXvXuXxXVXMXVXNXCXcXeXcXVXVXMXMXMXFXFXMXnXMXxXxXxXtX7XnXAXAX",
"FXFXnXxXxXxXtXxX8XuXmXHXFXbXxXsXaXfXDXFXBXdXbXJXJXDXvXfXFXJXDXvXmXSXHXHXtXtXcXMXVXMXVXMXsXdXFXJXMXaX7XMXFXvXxXxXxX9XxX7XtXMXJXJX",
"MXMXbXxXvXxXuXxXuXuXAXFXAXbXMXvXqXsXGXFXbXbXvXJXJXSXbXfXZXFXDXvXmXAXHXAXvXtXbXnXbXvXZXSXxXfXZXJXFXsXtXbXAXxXxXxXxXtXuX7XtXMXSXHX",
"xXxXvXmXMXnXxXuXuXuXnXvXxXxXxXxXsXsXdXxXbXbXfXgXfXZXJXHXZXZXZXsXxXmXmXmXtXxXnXZXSXxXiXvXvXSXSXSXFXFXGXcXxXvXMXMXxXuXxXuXuXxXiXuX",
"7XqXxXMXMXnXxXuXuX9XuX7X7XuXuX7X0X7XaXaXvXBXdXdXaXBXJXJXbXvXxXxXuXvXZXxXtXtXiXAXSXiXtXxXSXSXZXvXbXJXJXfX6XxXVXMXxXuXuXnXuXuXtXtX",
"cXsXMXFXMXMXvXxXuXtXuXxXnXMXMXxXxXxXNXcXBXFXBXBXBXCXGXCXBXNXbXxXvXvXnXvXvXSXvXvXxXxXyXmXHXAXmXcXbXGXJXgXaXgXFXAXvXvXvXxXuXuXiXtX",
"DXbXFXGXHXAXAXmXtXtXuXiXxXMXAXAXAXMXAXAXGXFXJXJXJXDXsXsXMXVXCXNXbXvXtXxXHXJXZXuXxXsXwXMXFXFXcX0XDXJXJXDXbXFXHXFXAXMXAXuX7XuXuXuX",
"ZXbXFXJXAXAXZXvXtXtXuXuXvXAXAXMXAXMXMXbXGXJXJXJXJXZX6X7XVXVXNXVXbXvXtXxXHXJXvXuXxXxXwXVXGXGXeXqXgXJXJXFXcXFXHXHXAXAXmXuX8XuXxXiX"
};
