/* XPM */
static char *_b05cae575564883edb73b23e2ea1fc0oIxBwdH3G6e0XgNH[] = {
/* columns rows colors chars-per-pixel */
"64 64 247 2 ",
"   c #020201",
".  c #050706",
"X  c #1D0504",
"o  c #001401",
"O  c #101216",
"+  c #230101",
"@  c #270304",
"#  c #320804",
"$  c #2C101A",
"%  c #281D1D",
"&  c #06300C",
"*  c #15231D",
"=  c #1D1F23",
"-  c #302C30",
";  c #580304",
":  c #4F1012",
">  c #700F0D",
",  c #7B0A12",
"<  c #7B021A",
"1  c #7A1718",
"2  c #592B18",
"3  c #631F23",
"4  c #443533",
"5  c #742F30",
"6  c #004D01",
"7  c #015605",
"8  c #067C06",
"9  c #0F7010",
"0  c #326D1C",
"q  c #2D7511",
"w  c #4B580B",
"e  c #6B5915",
"r  c #6A423A",
"t  c #5B6A27",
"y  c #584D4C",
"u  c #5E5254",
"i  c #694C55",
"p  c #645556",
"a  c #705155",
"s  c #5C6959",
"d  c #735C62",
"f  c #7B6E72",
"g  c #8D0A0F",
"h  c #87061A",
"j  c #950516",
"k  c #9E0A1C",
"l  c #9B1518",
"z  c #AC0808",
"x  c #B3110D",
"c  c #A70A16",
"v  c #B70A15",
"b  c #AD1816",
"n  c #B31414",
"m  c #B41816",
"M  c #BB131B",
"N  c #B91719",
"B  c #B31B1B",
"V  c #A62C17",
"C  c #B8241C",
"Z  c #991327",
"A  c #B20F20",
"S  c #A81624",
"D  c #BA1922",
"F  c #8E2124",
"G  c #9B2525",
"H  c #AD2629",
"J  c #B92529",
"K  c #B9332D",
"L  c #BB2D36",
"P  c #A93735",
"I  c #BC3735",
"U  c #C60817",
"Y  c #C61418",
"T  c #D61A1A",
"R  c #E31915",
"E  c #E81819",
"W  c #E91E1A",
"Q  c #F81A1E",
"!  c #DC2319",
"~  c #E4231B",
"^  c #E9221E",
"/  c #F3291C",
"(  c #C61C25",
")  c #D71C25",
"_  c #E91724",
"`  c #E61E21",
"'  c #EC1F24",
"]  c #F81C28",
"[  c #C62626",
"{  c #D92729",
"}  c #DC312A",
"|  c #C62833",
" . c #DC2A36",
".. c #C63536",
"X. c #D73C3A",
"o. c #E52322",
"O. c #EC2324",
"+. c #E62729",
"@. c #E32C2C",
"#. c #EB2B2C",
"$. c #F62728",
"%. c #E5312B",
"&. c #E82B33",
"*. c #F42C36",
"=. c #E63739",
"-. c #F9333C",
";. c #98481B",
":. c #9F4C21",
">. c #C7472F",
",. c #E2403E",
"<. c #983041",
"1. c #B53947",
"2. c #CF3548",
"3. c #E53D45",
"4. c #B8484E",
"5. c #836D6A",
"6. c #96777A",
"7. c #A0696B",
"8. c #D34D4B",
"9. c #D34952",
"0. c #C75259",
"q. c #D95458",
"w. c #E34945",
"e. c #ED595A",
"r. c #DA655B",
"t. c #E1635C",
"y. c #DC5F69",
"u. c #D0706D",
"i. c #E97872",
"p. c #008202",
"a. c #048808",
"s. c #07930E",
"d. c #008512",
"f. c #038B13",
"g. c #09891C",
"h. c #13871B",
"j. c #258626",
"k. c #249224",
"l. c #239526",
"z. c #319436",
"x. c #37983B",
"c. c #2CA13E",
"v. c #469A3B",
"b. c #678338",
"n. c #39A345",
"m. c #34A94C",
"M. c #489949",
"N. c #549D4A",
"B. c #5C9D54",
"V. c #48A647",
"C. c #4BAB57",
"Z. c #55A853",
"A. c #6AAC59",
"S. c #5AB062",
"D. c #6BA966",
"F. c #76A969",
"G. c #6DB56B",
"H. c #71B26C",
"J. c #8C917E",
"K. c #85AF7C",
"L. c #D78A7C",
"P. c #A67B8F",
"I. c #E77982",
"U. c #958B85",
"Y. c #B29F8D",
"T. c #93AD88",
"R. c #98BA8B",
"E. c #B5AD95",
"W. c #A2BB97",
"Q. c #A4BBA7",
"!. c #B8BDA6",
"~. c #D38A96",
"^. c #E88B91",
"/. c #CDA69F",
"(. c #E294A1",
"). c #C8A7A9",
"_. c #D2B1B2",
"`. c #EEADB1",
"'. c #F5AEB6",
"]. c #FCB7BB",
"[. c #91C48E",
"{. c #A6C29C",
"}. c #B0C197",
"|. c #AAC5A3",
" X c #B6C6A6",
".X c #A2D1A7",
"XX c #C5C3AD",
"oX c #D1CAAB",
"OX c #C9C6B7",
"+X c #D6C8B5",
"@X c #D2CEB7",
"#X c #D8B8C4",
"$X c #EEBCC3",
"%X c #F6BBC3",
"&X c #BBEFC1",
"*X c #D7C8C3",
"=X c #DBCEC5",
"-X c #D7D2CC",
";X c #EACBCB",
":X c #F9C8CA",
">X c #E7D5CC",
",X c #FAD6CD",
"<X c #EEC9D4",
"1X c #FACBD7",
"2X c #ECD8D8",
"3X c #F1D6DA",
"4X c #FBD8DA",
"5X c #CCE3CB",
"6X c #FBE5DA",
"7X c #D7DCE7",
"8X c #DADDE6",
"9X c #DCDEEB",
"0X c #FDDAE8",
"qX c #FFDFF1",
"wX c #DEE0E7",
"eX c #DEE1ED",
"rX c #DEE2F1",
"tX c #E5E6EA",
"yX c #E2E4EE",
"uX c #FBE6E7",
"iX c #FFE3ED",
"pX c #E6F3ED",
"aX c #E3E5F2",
"sX c #E8E7F5",
"dX c #E6E9F4",
"fX c #EAEBF5",
"gX c #EDEDF6",
"hX c #E6E9F8",
"jX c #EBEDFA",
"kX c #EEEEF9",
"lX c #F9E8F7",
"zX c #FEEDF4",
"xX c #FFEBFC",
"cX c #EEF1F5",
"vX c #EEF1FC",
"bX c #EEF1FD",
"nX c #EFFBF9",
"mX c #F1F1F6",
"MX c #FCF7F6",
"NX c #F1F1FA",
"BX c #F2F4FD",
"VX c #F2F5FE",
"CX c #F5F6FE",
"ZX c #F6F9FE",
"AX c #F6F9FF",
"SX c #F9FAFF",
"DX c #FBFCFF",
/* pixels */
"cXnXDXMXZXDXDXVXeXyXeXyXaXyXaXvXDXNXtXyXlXSXCXfXaXgXVXVXCXCXCXNXNXfXaXcXSXDXDXSXNXfXtXMXSXDXCXCXmXfXfXNXVXvXVXZXdXrXrXrXrXhXvXvX",
"ZXZXZXcXZXDXDXZX8XwXeXeXaXyXaXkXDXNXyXyXfXCXVXlXfXfXmXNXZXZXCXNXvXfXyXcXDXDXDXSXMXtXtXmXDXDXSXSXmXfXhXlXvXVXZXZXaXrXeXeX9XrXvXjX",
"cXpXcXcXVXcXcXcXdXdXcXfXjXaXaXfXfXgXfXkXkXgXfXfXsXkXNXNXNXmXNXNXNXfXaXfXSXDXMXfXmXmXgXmXDXSXmXmXNXNXfXhXdXvXnXvXhXrXeXdXcXvXvXvX",
"tXwXtXVXcXwX8XdXDXZXZXZXvXsX9XyXwXsXZXSXNXyXyXsXyXNXSXCXfXyXgXSXVXvXfXcXCXCXcXfXfXCXZXxXCXmXfXyXvXCXZXaXrXdXjXvXaXeXrXZXDXZXZXZX",
"tXeXdXcXfXtXeXdXZXZXZXZXvXsXyXyXyXgXCXZXfXwXyXjXsXNXBXBXfXsXfXCXvXcXfXfXVXVXcXgXfXZXSXNXNXkXgXjXfXVXVXdXwXaXvXnXeXyXfXVXZXZXVXZX",
"ZXZXcXeXtXvXVXjXaXaXcXVXNXvXvXjXvXgXmXNXfXaXyXsXyXaXyXsXNXCXNXsXhXcXdXaXfXfXyXtXtXBXZXCXCXBXfXyXyXaXdXeXwXyXrXrXkXVXvXaXaXdXfXdX",
"DXDXvX8XwXZXZXcXeXeXfXZXVXVXZXZXNXvXNXNXkXaXyXyXsX9X9XyXNXZXNX9XrXdXhXyXyXyXtXyXyXNXSXCXSXVXfX9XyXyXeXeXrXwXwXeXvXDXVXyXtXyXtXtX",
"DXDXvXeXeXvXnXjXyXyXfXvXcXvXVXvXVXVXNXNXsXyXaXhXsXsXaXaXNXBXNXaXeXhXkXfXaXaXyXfXfXCXSXCXNXvXjXhXdXdXyXdXdXrXrXjXvXvXgXfXvXtXtXtX",
"VXZXjXeXeXyXyXaXyXaXhXvXcXwXwXvXDXDXZXZXjXyXaXjXvXNXCXZXvXvXjXeXeXdXnXjXeXeXNXDXDXZXVXVXNXjXjXNXvXjXvXcXdXvXDXDXcXeXdXDXDXSXgXmX",
"ZXZXfXaXaXaXeXrXyXaXhXcXhXeXeXvXZXZXZXZXjXaXaXjXjXNXZXZXjXjXjXaXrXjXjXhX9XyXNXDXDXDXCXVXjXjXNXjXjXvXvXhXdXvXZXZXhXeXaXDXDXCXgXmX",
"vXjXdXeXaXcXnXvXcXhXvXZXvXdXdXZXZXZXcXdXaXeXeXsXhXjXNXNXhXhXsXrXrXrXrXrXVXVXVXVXNXZXSXNXsXhXhXhXdXdXdXcXnXvXhXhXrXwXdXnXCXNXmXCX",
"dXdXrX9XrXZXDXZXcXvXnXZXZXvXcXZXDXvXaXeXeXeXeXeXrXhXjXjXhXaXrXrXrXeXeXdXDXDXVXaXkXZXZXkXyXrXrXaXrXwXeXvXZXvXeXeXeXrXrXdXfXCXSXSX",
"dXrXdXdXrXvXZXnXjXjXvXvXnXvXhXvXZXcXdXaXsXrXrXrXaXhXjXhXdXrXaXhXrXpXrXaXvXZXcXcXkXNXvXkXsXaXhXaXdXdXdXcXZXcXrXrXrXrXdXhXjXvXCXNX",
"rXwXdXvXvXrXrXdXvXvXdXrXrXrXrXdXeXaXcXvXhXsXrXsXrXrXrXrXrXrXaXjXhXnXnXvXaXeXdXVXkXaXyXfXvXjXjXjXvXDXZXyXeXdXvXvXrXwXrXvXVXhXyXyX",
"eXeXrXvXnXrXeXdXvXvXdXrXrXrXrXrXwXeXhXjXhXrXrXrXrXrXrX9XrXeXdXvXvXnXZXnXeXwXpXvXdXyXyXaXjXBXvXvXNXSXVXaX7XrXvXvXrXeXrXvXhXdXrXeX",
"rXhXdXdXdXrXrXrXhXrXdXrXhXvXcXhXjXsXfXsXhXsXfXhXhXjXhXhXhXrXrXnXvXhXjXdXeXeXhXfXfXfXsXsXhXhXjXNXNXkXvXvXdXdXjXhXrXrXrXdXhXvXvXcX",
"vXvXhXrXrXdXrXrXwXeXwXeXdXZXDXVXSXCXfXeXyXyXaXNXvXVXDXCXfX5.O * = * % 4 yXyXtXmXkXaXsXfXyXsXNXZXNXhXsXjXVXkXaXyXaX9XyXeX8XfXDXZX",
"jXvXhXrXrXhXaXrXaXyXaXaXfXVXCXCXNXvXaXaXaXaXsXkXvXvXZXi d 5 g > , h : 6 B.F.D.F.F.fXkXfXyXyXVXZXjXjXhXkXhXsXaXaXrXsXhXyXyXfXcXVX",
"rXhXrX9XrXvXvXvXVXvXVXVXVXgXfXmXaXfXcXvXjXaXeXaXyXcXU.o . 2 ,.*.>.>.:.j.q q 9 7 7 F.VXfXwXtXNXVXfXhXhXsXaXyXaX9XsXjXNXkXVXVXvXVX",
"rXhXrXeXrXjXvXnXZXZXZXZXCXfXyXyX9XdXVXSXjXF.p.a.p.a.a.s.h.s.q %.p.s.t $.+.$.G O @ 6 Z.lXyXyXgXNXkXsXaXsXaX9X9XyXhXjXCXZXZXZXcXVX",
"aXaXaXhXhXaXaXvXZXvXvXvXkXNXNXfXfXfXmXmXA.6   X 5XDXcXnXMXL.V h...! } -.].1X:X_.;XZ.7 % fXfXgXkXcXjXkXaXaXaXhXhXhXaXjXNXcXcXvXvX",
"aXaXhXvXvXrXwXdXZXZXjXeXsXCXSXSXDXNXyXp & s J.6 S.G.H.S.G.t w f.@.;.w t D.Z.W.iXiXV.0 P.a y fXtXvXZXZXaX9XfXvXjXaX9XeXaXyXcXDXZX",
"rXeXdXvXnXrXeXrXZXvXsXyXaXVXZXBXZXE.6.@ @ J.&XC.n.x.x.x.c.C.c.a.;.b.m.n.x.x.A. X0XF.G.@X$ @ r fXcXCXVXfXyXfXjXjXaXyXyXaXaXjXZXZX",
"yXaXdXhXvXrXrXhXhXaXaXyXaXfXhXeX% . # -.-.e c.ZXMXDXDXDXMXDX5X8 p.E.uX1X0XiXE.f.;X0XW.8 &.3.G     fXyXkXVXvXjXvXjXkXhXyXaXaXeXaX",
"yXyXaXvXvXaXeXdXrXrXrXrXaXU.. * J | { *.q e 3.3.xX[.d.s.p. X;Xp.p. XoX8 k.p.Z.2Xw.,.=...@.%.@.[ | : O - SXCXNXjXjXvXjXsXeXeXeXeX",
"yXfXjXkXjXsXrXaXaXhXrXeX5.5 F g { *.-.} :.e t w N.K.R.W.E.K.x.p.8 l.A.{.{.R.Y.e.T #.#.#.#.#.+.&.*.H > F u jXjXjXjXjXhXaXaXfXfXaX",
"fXNXkXkXjXsXrXaXhXjXdX9X= ; $.' %.@.{ %.$.;.j.C.z.!.6XXX+XG.z.N.B.x.D.XXXX6X].t.i.=.%.^ %.@.&.@.%.{ $.)   aXjXBXhXaXaXfXvXVXVXVX",
"NXNXgXkXjXhXaXhXvXvXdXrX- ; U v ! =.&.{  .*.w.0X4XuX X8 p.[.qX0X2XxXXXp.p..XDXSXZXI.{ =.#.^ @.=.=.Y U j   aXhXjXsXaXaXjXVXVXCXDX",
"CXCXfXtXsXkXjXjXhXhXaXrX- : w.9.U U U +.'.:X:XuXx.8 N.,X@X>X0X6X6XuXzXpXVXS.p.k.DXzXuX,X&.#.+.U v J | G   aXhXaXcXvXvXaXyXcXZXDX",
"cXSXfX8XyXVXSXjX9XrXrXhX- 3 e.q.X.K 4.L./.:X>XB.T.R.}.4X0XzX:Xt.e.<XDXpXMX5X.X.XC.5XDXnX~...M J N J K P   rXrX7XvXDXZXeXeXVXDXDX",
"SXDXmXtXyXkXNXjXrXhXaXrX- # <.I 0.8.t._._._.K.z.2XuX0X4X'.`.i.W W ^.:X:XMXDXZXZXZ.[.5XtX@X4.m I L S G > . aXaXaXjXvXvXcXdXcXZXVX",
"DXDXCXmXfXaXaXhXZXvXhXrX4 . $ h 2.3.r.0XzXA.h._.;X,X,X%X,.~ ^ @.#.~ ! @.,XMXpXMXSXV.j./.0Xy.J H J Z : o . jXvXvXaX9XyXZXZXdXwXtX",
"DXDXVXvXkXeX9XhXDXNXhXrXyXrXaX  , j <.4XqXH.l.1X*X4.) w.=.+.@.+.} { *.%.=.=.t.)._.0 S.0X6Xy.S h c X u hXfXfXjXvXaX9XsXCXZXfXeXwX",
"ZXDXVXaXfXgXaXhXhXhXaXaXsXaXsX  k Y 2.#X'.N.x.0X>Xu.( U U ) =.#.#.&.&.@.Y U 9.-X<Xv.V.qX*X4.j c n + p vXvXjXdXhXaXrXrXsXhXaXyXyX",
"ZXDXvX8XaXvXjXfX9X9XrXaXaXrXaX  B Q *.u._.B.l.1XuX^...( [ ) T { { _ ) ) ( z 0.uXiXv.M.<X7.G k A D + u ZXZXNXaXrXaXrX9X9XeXeXyXyX",
"VXZXgXyXaXjXkXfXyXsXaXaXsXaXaX  Y / T _ 1X[.j.Y.2X^.0.8.q.{ v v z v v v D H u.4X3XM.M./.( n C b ( + y ZXCXjXsXaXaXaXsXaXyXyXdXyX",
"dXdXcXZXZXfXyXfXNXCXvXjXvXjXvX. M / o.o.].iX Xh.E.).~.q.q.9.8.w.Y D L J I L 0.E.h.!.6X:XJ v n b N @ u dXdXdXaXaXjXjXvXVXZXkXhXfX",
"tXwXcXDXSXhXeXhXSXCXNXNXVXNXNX  N O.W ~ %XxX-Xp.XX3X/.k Z 2.q.8.U J L P l g 4.>Xa.Q.xX;XJ n b n N @ p aXeXtXrXaXjXjXvXSXZXvXhXjX",
"dXyXdXVXkXhXfXjXVXvXjXhXhXjXhX  B ] o.~ %XxXXXd.=XzX`.c c D L L k A H S l 1.~.0Xa.Q.xX;XV n b A ( @ p jXjXfXsXhXjXhXhXNXVXfXaXaX",
"tXyXyXeXaXjXjXkXvXjXsXaXaXaXyX  m / E O.%XlXOXg.-XiX'._ $.v h j j h h k c (.CX2Xf.W.lX1XJ n B n N + y NXZXBXjXvXaXaXaXjXjXhXaXyX",
"yXyXwXeXdXdXcXvXvXvXaXeXsXaXyX  C Q +.#.%XzXOXd.=XxX'.R ' R ^ ` < Z N B z (.MX3Xh.{.uX:XH A n n Y + u vXZXCXjXvXaXrXsXjXNXhXaXaX",
"vXZXcXrXdXdXhXdXCXCXfXeXaXeXyX  Y #.+.E %XxXOXf.=XxX'.R ' W ^ ` < k B B z (.zX2Xa.{.CX:XS n B b V X i jXjXhXaXaXaXrXhXNXNXjXaXaX",
"ZXZXjXwXyXaXyXhXZXVXdXeXyXyXyX. B $.^ ~ %XiXXXa.=XxX'.R ' W ^ ` < k N m z (.zX3Xf.Q.xX:XH n B x Y @ p hXjXaXeXaXaXyXsXNXCXkXrXeX",
"vXZXcXaXfXyXeXfXZXZXdXyXhXfXfX. | ^ R ~ $XmX@Xd.=XxX'.R ' W ^ ` < k m m z (.zX3Xf.W.xX:X( x b N D + i hXkXfXeXaXyXrXaXNXZXhXaXyX",
"jXNXZXDXDXaXwXyXDXZXfXyXfXZXZX  ( ] ^ ] $XNX*Xg.=XxX'.R ' W ^ ` < k m b z (.zX3Xa.!.lX<XH b B A | + y dXvXhX8XwXeX8XyXZXSXjXeXaX",
"vXkXVXDXDXdXwXdXZXVXjXaXjXZXZXvX: @ ; ] :XxXOX8 =XxX'.R ' W ^ ` < k m B z (.zX3Xa.{.lX1X..( g X + 5.rXhXvXdXyXyXyXyXaXVXCXfXyXaX",
"hXaXhXaXdXdXvXcXfXdXcXvXcXcXvXcXf u a , d #X5Xa.=XxX'.R ' W ` ` < k m B z (.zX3Xs.|.xX<X1 ; 3 s p yXeXdXaXcXvXZXvXcXfXdXfXvXNXVX",
"9X9XeX7XwXZXDXvXeXaXvXSXNXhXcXvXZXZXyX* . P.!.9 =XxX'.E O.W W ` < k m N z (.zX3Xh.T.<X+X= O f DXcXyXyXeX8XfXDXDXDXDXVXeXwXVXDXDX",
"aXeXrXaXrXvXvXvXrXhXjXvXvXjXjXvXNXNXhXfXkXd .   :XDX].~ ^ _ $.W h c b b v ^.zXiXl.& . $ SXCXmXmXdXfXyXwXtXfXVXZXVXNXjXsXaXjXZXSX",
"vXhXhXvXvXrXrXrXvXhXrXpXvXvXvXjXfXlXCXNXfXsXsXsX4 - 5 $.' ] R W < g C C c '.OX= o 5.kXSXDXSXfXtXpXZXZXfXyXaXvXVXaX9XsXjXjXsXyXaX",
"dXdXhXVXvXrXrXdXvXhXhXrXhXNXNXhXaXfXCXZXmXwXyXgXpXu r , > J $.#.< k N Y ; a f a p VXNXVXDXDXyXeXdXVXVXfXyXaXhXjXaX7XaXjXNXhXeXaX",
"cXvXvXhXrXpXrXrXhXhXhXrXhXNXNXNXNXNXNXVXNXsXtXsXtXfXcXX * 1 T N < 1 l l % . a fXtXfXtXfXDXDXlXNXcXcXdXtXaXsXhXhXaXaXyXaXfXjXvXjX",
"ZXZXvXeXwXrXrXeXwXwXyXdXfXkXNXCXSXCXNXkXmXfXyXtXtXwXwXtXNXa   . .     o fXhXaX9XyXtXtXfXDXSXCXSXcXaXeXyXaXyXrXaXrXaXaXrXrXjXCXCX",
"vXZXfXeXdXdXrXhXcXdXdXdXfXcXcXVXCXCXCXlXfXfXfXtXfXsXsXtXNXDXCXvXNXsX9XaXfXhXfXaXfXyXyXkXCXNXNXCXvXaXaXhXhXaXaXaXhXaXaXrXaXjXCXZX",
"ZXZXvXjXcXrXwXdXZXZXVXvXVXZXZXVXNXCXCXCXmXtXfXmXNXmXCXmXZXCXNXsXaXaX9XsXsXaXhXCXNXyX9XaXaXyXsXkXvXNXVXZXVXNXjXvXaXrX9X9XeXdXjXvX",
"ZXZXVXvXvXrXeXdXDXZXVXvXcXZXZXCXSXCXSXSXCXtXfXMXCXDXZXSXDXSXlXyXaX9X9X9X9XaXkXSXNXaXyXyXyXsXsXsXcXVXSXZXCXCXVXjXaXrXrXeXrXdXdXaX",
"NXVXhXsXhXaXrXhXnXjXvXnXvXcXcXvXlXfXCXSXNXfXfXCXSXCXmXkXSXZXgXsXsXaXjXdXeXdXvXjXjXhXjXfXaXsXNXNXjXkXjXvXNXjXjXhXaXaXrXrXrXhXNXjX",
"NXvXhXrXrXrXrXhX9XrXjXZXvXjXaXaXyXsXBXCXNXtXmXDXDXCXsXtXVXSXNXsXhXvXZXvXrXeXhXhXjXjXvXjXyXaXNXZXNXyX9XjXNXhXrXaXrXrXrX9XrXhXZXZX",
"jXjXhXhXhXrXhXrXrXrXvXZXvXjXhXhXyXyXNXNXfXsXfXSXDXMXfXfXNXCXvXsXhXvXZXvXaXrXaXfXhXjXjXhXaXsXNXZXNXyXtXfXvXhXaXsXsXrXrXrXrXhXVXVX",
"aXfXhXjXhXhXrXrXrXrXrXhXrXaXaXaXyXyXsXsXfXmXfXtXdXcXSXZXkXlXhXyXaXhXcXhXeXyXhXvXfXhXsXsXhXjXjXNXNXVXCXaXyXsXjXjXaXrXrXrXrXaXdXrX",
"9X9XyXjXvXhXrXrXrXrXrXrXeXrXrXrX9X9XeXyXsXmXsXtXtXfXDXDXNXfXsXaXrXdXjXaXeXwXdXvXhXaXaXaXjXNXjXkXfXDXDXyX8XyXNXjXrXrXrXrXrXrXrXrX",
"aXyXgXVXvXhXhXrXrXrXrXhXaXjXhXhXsXsXsXsXgXNXmXmXfXfXVXMXkXhXsXsXrXdXdXdXdXjXdXhXsXaXaXhXVXNXhXsXgXSXDXfXyXfXNXvXhXhXhXhXrXrXrXrX",
"mXgXVXZXnXvXvXvXrXrXrXrXhXjXvXjXjXjXNXNXNXSXZXSXDXmXtXtXkXNXjXhXjXrXeXpXZXZXjXrXaXeXaXjXCXNXaXyXmXSXDXNXkXNXnXnXnXvXhXrXrXrXrXrX",
"mXgXNXDXnXvXjXrXeXrXrXrXrXjXvXjXlXkXkXNXBXSXDXDXDXgX8X8XjXNXjXcXhXpXrXrXZXZXjXrXaXaXeXjXDXCXyX9XfXDXDXMXfXvXCXnXvXvXvXrX7XrXhXrX"
};
