/* XPM */
static char *_cbfd34b8c094bf5fef1729aedf99716qWAa1rC1YywqUcBr[] = {
/* columns rows colors chars-per-pixel */
"64 64 155 2 ",
"   c #DBDDE6",
".  c #D7DDEB",
"X  c #DCDEEB",
"o  c #DCDFF0",
"O  c #DEE1E7",
"+  c #DEE1ED",
"@  c #DEE2F1",
"#  c #E0E1E6",
"$  c #E2E3EE",
"%  c #E5E8EF",
"&  c #E9E9EF",
"*  c #E3E5F2",
"=  c #E8E7F6",
"-  c #E6E9F4",
";  c #EAEBF5",
":  c #E5E7F8",
">  c #E7E9F8",
",  c #EBEDFA",
"<  c #EBEFFA",
"1  c #EBEFFB",
"2  c #EAEDF9",
"3  c #ECECF8",
"4  c #EDEDF9",
"5  c #ECEFF8",
"6  c #EEEEF8",
"7  c #EFEFF9",
"8  c #ECEEFA",
"9  c #ECEEFB",
"0  c #EDEFFB",
"q  c #EEEEFA",
"w  c #ECEDFA",
"e  c #F0EFF5",
"r  c #F0EEF9",
"t  c #F0EFFD",
"y  c #EFF0F5",
"u  c #EFF3F4",
"i  c #EEF2F5",
"p  c #EDF0F7",
"a  c #EFF2F7",
"s  c #EEF0F5",
"d  c #ECF0F9",
"f  c #EDF0F9",
"g  c #EFF2F9",
"h  c #EDF1FA",
"j  c #ECF0FB",
"k  c #EEF1FA",
"l  c #EFF2FB",
"z  c #ECF0FC",
"x  c #EDF1FC",
"c  c #EDF1FD",
"v  c #EEF0FC",
"b  c #EEF0FD",
"n  c #EFF1FD",
"m  c #EFF1FE",
"M  c #EEF2FE",
"N  c #EFF3FE",
"B  c #EFF3FF",
"V  c #EEF1FC",
"C  c #F1F0F5",
"Z  c #F1F0F6",
"A  c #F1F2F7",
"S  c #F0F1F6",
"D  c #F0F0F8",
"F  c #F1F1F9",
"G  c #F0F3F8",
"H  c #F2F3F8",
"J  c #F0F0FA",
"K  c #F1F1FB",
"L  c #F2F0FB",
"P  c #F0F3FA",
"I  c #F2F2FA",
"U  c #F4F3F8",
"Y  c #F1F5F8",
"T  c #F1F4F9",
"R  c #F3F4F9",
"E  c #F1F4FB",
"W  c #F2F5FA",
"Q  c #F3F7FA",
"!  c #F3F6FB",
"~  c #F5F4F9",
"^  c #F4F5FA",
"/  c #F6F5FB",
"(  c #F5F6FB",
")  c #F6F7FB",
"_  c #F0F0FC",
"`  c #F1F1FD",
"'  c #F0F3FC",
"]  c #F2F2FC",
"[  c #F3F3FD",
"{  c #F0F2FE",
"}  c #F0F2FF",
"|  c #F1F3FF",
" . c #F1F4FD",
".. c #F2F5FC",
"X. c #F3F6FD",
"o. c #F0F4FF",
"O. c #F2F5FE",
"+. c #F2F4FF",
"@. c #F3F5FF",
"#. c #F2F6FF",
"$. c #F3F6FF",
"%. c #F4F4FC",
"&. c #F5F5FD",
"*. c #F4F4FE",
"=. c #F4F4FF",
"-. c #F5F5FF",
";. c #F4F6FF",
":. c #F4F7FF",
">. c #F5F7FF",
",. c #F6F6FE",
"<. c #F6F6FF",
"1. c #F7F7FF",
"2. c #F3F4FD",
"3. c #F5F9FA",
"4. c #F5F9FC",
"5. c #F5F8FD",
"6. c #F7F8FC",
"7. c #F7F8FD",
"8. c #F7FBFC",
"9. c #F4F8FF",
"0. c #F5F8FF",
"q. c #F5F9FF",
"w. c #F6F9FE",
"e. c #F6F8FF",
"r. c #F6F9FF",
"t. c #F7F9FF",
"y. c #F7FBFE",
"u. c #F7FAFF",
"i. c #F7FBFF",
"p. c #F6F9FF",
"a. c #F8F9FE",
"s. c GhostWhite",
"d. c #F9F9FF",
"f. c #F9FAFE",
"g. c #F8FAFF",
"h. c #F9FAFF",
"j. c #F8FBFF",
"k. c #FAFAFF",
"l. c #FAFBFF",
"z. c #F9FCFF",
"x. c #F9FDFF",
"c. c #FAFCFF",
"v. c #FBFCFF",
"b. c #FAFDFF",
"n. c #FAFEFF",
"m. c #FBFEFF",
"M. c #FBFFFF",
"N. c #FCFCFF",
"B. c #FCFDFF",
"V. c #FDFDFF",
"C. c #FCFEFF",
"Z. c #FCFFFF",
"A. c #FEFEFF",
"S. c #FEFFFF",
"D. c #FAFBFF",
/* pixels */
"u 3.8.! >.n.n.! $ $ $ * * @ * t k.r & $ r k.%.= = e U %.U %.%._ _ ; % p n.Z.f.) ~ & & ~ f.A.) j.r ; = %.M v M i.- @ @ @ @ - v z ",
"3.8.3.! 8.Z.n. .    X + * @ * 5 k.U $ $ ; -.d.r - ; 3 t d.d.>.G v ; % p n.Z.f.f.~ & & e A.A.k.j.r ; = r M 4.i.i.: @ . + . - z 1 ",
"u & ; ! ! G j u - - ; , 3 * * = ; ; ; 3 e r ; = = 3 r %.U r G G  .2 * ; j.j.~ C e e ; r f.k.Z 5 r r r = - z #.N - + + - , 9 M v ",
"# O $ ! u O   % n.j.8.8.v - X $ # = d.d.r $ $ = = t j.d.; $ ; >.4.v - p d.8.Z & e ) j.%.U ; & & G d.>.* + - d M @ + - 4.n.8.8.n.",
"% % % u ; $ $ - 8. .8.8._ - * $ % ; -.d.3 # * 3 = 5 %.%.3 = 5 >.v d 3 ; _  .5 ; ; -.k.U r 5 5 ; 3 _ 4.* + * d x + * 3 _ 8.>._ j.",
"4.4.5 + % j  .2 * - 5  ._ v j j e 5 r %.; $ $ = = $ $ = r %.r - > > - * ; 3 % & & U -.U >.>.; $ $ - - + + @ - @ ;  .9 % * - = & ",
"n.n.v   +  .8.5 $ $ ;  . .>.j.>.G 5 j _ 3 * + * * + X # _ j.5 + + > - $ $ $ # $ * r >.d.j.>.- X $ @ + + + + + +  .n.%.$ $ $ $ # ",
"n.n.j $ $ u  .5 $ $ ; G j G  .j  .! >.r = * * - % * = * v 8._ * + > 3 3 * * * ; ; >.j.>._ _ 2 , - * % - % + @ - z M 5 ; e & & & ",
" .8.d + + $ * * * * 2 v 2 O + j n.n.>. .2 * * , v v >.>._ _ 2 + @ - N d + + G k.Z.d.%.%._ 9 9 _ d d v 2 * j n.n.d + - n.Z.d.e e ",
"j. .2 @ * * + + $ * - d ; + + l n.8.8.>.5 * - 9 9 v 8.8.v 2 2 + - > d - + + _ Z.k.k.d._ 9 9 _ 9 d l M ; > l i.i.> + * n.Z.G 5 e ",
"v 1 - + @ v 4.z > > l #.M - - 4.n. .u > * $ * - : ,  .v : - - * @ @ @ - v  .Y #.t d.d.9 - - - : - - - 5 M M > > * + * M >.G U U ",
"- - @ + + i.n.i.d M 4.i.i.v z 4.n.v $ + X X X X * : v 9 - : * + @ O O - n.n.#.- 3 d.j.5 * X @ * + + + M n.l + + + + % * , >.k.j.",
"- * - * @ N i.#.2 2 M M M x 2 M 4.d - - * * * @ * : , , - * @ : @ @ @ @ 9.9.x d 5 _ _ 2 - * : - - - 3 5  .j * @ + + * > , _ >._ ",
"@ + - M Y @ @ @ M z - * * @ + @ + * 2 z > * @ * o * o o @ @ : 2 < 9.9.h @ O - Y j * $ - v 9 1 1 j j.%.% + - d z - + @ M _ - $ * ",
"+ + @ M N @ + @ M z * + * @ @ @ O + > d : * @ * o * o o + + :  .1 #.9.Q @ O % d 5 $ + - 9 v v v %.d.>.* O @ x x @ + @ d z - + @ ",
"@ - > * - @ @ - @ - * @ > d d d p > ; - : : : : , 9 , : > @ $ v B < < @ O @ i i ; ; - - 3 - 9 _ t 3 t r - > - > @ @ @ : - d v 2 ",
"M M : * * @ + * . + + + > 8.k.-.d.%.* X * $ * t v  .j. .; + ; 3.d.= X # * $ = 3 3 = = = $ $ %.>.%.- - 9 _ 5 * @ * X * +   ; n.8.",
"1 v : * * - - @ * * $ % 5 _ -.%._ 9 - * - * * 9 v  .>._ - % - ! U e $ ; * $ * 3 r ; e = $ = %.d.3 , > , , = * * * * - $ $ ; j ! ",
": : + . @ 2 x d  .M _  .G ; ; e - ; j G , * X * * ; v  .! ! j j e U -.r * $ ; d.%.%.t r # * e %.3 > > - * @ + + * 9 v 5  . .G ! ",
"@ : + . * 2 M #.8.8.8.8.>.; = $   - >.j., $ $ * + ; j _ 4.8.8.u ; %.k.L = $ 5 k.%.j.d.e $ $ e r 5 - * * - X X + 3 t >.>.n.>.G j ",
"* * * - - @ - M  . .v 2 r r r ; ; - u j - * * - 3 2 v v  .8.8.j %.t r ; 3 3 3 r t %.d.r ; ; e ; 5 5 ; - * * : , , * , t 5 5  .j ",
"@ % > M M @ + - 8.4.2 * = d.Z.d.Z.j * $ X $ * * - 5 >.8.n.Z.n.8.d.r - ; %.d.t = 3 %.%.%.%.r = & 5 j.j.- X = v 9 *   X * $ 5 n.j.",
"+ $ - M #.@ + @ 8.v - $ * _ j.%.8._ % + * * * 3 - 5  .j.Z.Z.i. .d.; = ; >.d.t 3 5 %._ %.d.r e ; 5 >. .- % 3 9 2 - X + * * 5 >.>.",
"$ * - - d @ @ - * : * $ * 5 ; $ $ ; ; 5 >.5 5 j.n.8._ 5 5 5 ; - = = $ = * = 3 %.r t ; r -.d.r -._ - * 5 _ 9 9 v , 9 - * * * $ * ",
"$ $ % 5 9 - X * + @ + + $ X + * $ % ; 4.4.4.8.n.n.8.v j ; 3 * * # $ = $ $ $ e / -.; ; r k.k.k.d.u + $  .j.>.9 9 t 9 , * + X X $ ",
"- - 3 5 5 - * : : - @ + * , 3 * > ; > d p p M n.Z. .; ; 3 - * * * $ $ = = = L / -.* = & t e %.-.j % * 5 9 9 9 t 9 9 3 * * 3 3 - ",
"5 Z t r 2 - @ * 1 1 - + - >.8.v d p % + % + % l 8.j ; * $ $ X * = o $ = %.d.k.k.k.& $ $ & $ r k.j 3 * * * 3 , 9 : * * , _  ._  .",
"U r 5 5 2 : : : 1 z : @ - >.>. .j a % + % + % p  .u - - * * * * $ $ = = t k.k.k.k.& # # $ $ / k.G - * * $ * , 3 - * * 5  . . .n.",
"U U ; $ = 5 9 1 : : - @ : - 3 2 4. .% % p ; ; Q 8.j ; - j  .5 - = r t t 3 ; t k.d.= & ; >.r %.%.v * * * * * * - 5 _ j - - u 8.n.",
"U j.e   $ %.8._ . @ @ @ - + $ 2 8. .- - a l l 8.n.G % > _ n.>.: 4 -.k.t = $ ; d.U ; = e k.d.k.-.5 * + * * @ X X v Z.>.$ + j Z.n.",
"j.k.U $ * 9 _ 1 : : : * @ @ - j 8._ 2 ; p ; s p j u 3 ; _  .v - = t t r = $ r d.%.; e e e U >.G 5 : - - * * * * , v j - - G >.>.",
"Z.k.%.r 3 $ @ - 8._ : @ + @ * j 8.v  .M - % + % $ 5  . .j - - * o = * $ $ = r %.d.U >.; = $ = $ 9 _ _ 5 - 9 _ 9 * X * >.n.- O # ",
"Z.Z. .5 2 $ X - k.%.* @ o * * 9 k.t t %.; $ $ $ $ = d.d.= * = * * + * = X $ _ >.! ( ! ; + $ * * ; 8. .; 3 3 : _ * X * >.j.3   O ",
">.n._ - , 2 * 3 3 > : * : * : 2 %.%.-.-.e ; = ; r ; r r t r e $ = $ @ = 3 3 2 u u j.n.! 2 2 : + ; ! ! ! _ 5 - - : + * - 3 * + $ ",
">.Z.5 X * 5 5 :   X @ * - * * - t d.d.-.r ; ; e t e $ & -.d.e $ $ * + * >.8.2 ; ; Z.Z.8.8. ., + ;  .! 8.j.t * o * @ X X + + $ $ ",
"_ 8.5 $ * 5 , , @ * * * : @ : , %.%.U r r e ; r %.U ; ; d.k.e = * * $ =  .>.2 ; - Z.Z.! _  .: * ;  .8. .>.9 - * * * : * * * * % ",
"- - u j.j.3 $ - %.%.t 9 v 9 9  .d.U % $ e ( ( j.d.k.) ( Z.Z.) %. .v 9 9 - : 3 + $ 8.8.- * = * : u i.8.- - - * * , , 9 >. .5 3 - ",
"$ + j n.k.- X 3 j.d._ _  ._ _ >.j.e % # 5 d.j.Z.Z.k.d.( Z.Z.Z.d.8._  .9 X X * $ $ >. .- @ * : = 2 8. .$ + * o - 9 , _ j.j.v - , ",
"% $ - ! 5 - - 5  ._ 1 : , - = 3 Z ; & e e G >.( j.( ( ( ) k.-.e 2 5 v 2 - 3 2 3 ; 8.d.; * * : = 2 l j 2 2 2 - , , : : _ _ , - - ",
"+ $ $ $ * 9 _ 9 v 5 - * * * * * # & U f.U G U e e e d.j.U r ; # + , - : _  .5 v _ >.>.r @ @ : @ * * - _ j._ , 9 : * * , 9 - * @ ",
"% $ + $ - ; ;  .9 _ - + - * X - $ ; r d.%.e r %.t r -.k.%.%.r $ $ - 5 2 , 9  .5 j  .8.; * * @ : * 3 , 9 >.>.9 9 * o * v _ : * * ",
"l  .- $ - - - - >. .3 X * $ * 5 %.U -.-.t = * = = r %.t t %.t $ % 2  .v - * 3 * - - j ; - - @ * : _ _ 5 9 , * * * * , _  .2 * * ",
"8.i.; + $ * $ - 8. .- + * + $ 9 d.d.-.%.r * $ = = = t *.%.d.t * $ 5 8.v * + * @ % $ 3 - , , * * 2 8. ., 3 * + * * * - _ >., $ + ",
"v 4.d - , * + 2 8. .3 + * , , 5 -.%.%.-.= $ * r 4 r r t t %.t = % G n. .- $ - ; d p j ; - , * * * v 5 , 5 - + * + X * _ >., * $ ",
"v _  .Z.n.-   % j.>.3 $ ; >.8.v %.t -.-.r + = t k.r * $ = = 3 >.( n.Z.8.2 3 v  . .8.8.d - - * * $ - - 3  .- X X +   * >.j.3 + $ ",
"v 5 _ Z.n.* X % 8. .; - 2 >.8._ t r e r 3 * * r -.r $ $ = = 3 >.8.n.Z.>.- - v 8.4. .4.p ; - * - - X * - j > $ $ $ $ * >.>.3 * * ",
"3 * * 3 3 ; j u 5 3 j j d j 5 5 -.r ; = e r e e ; & $ $ Z %.r e ; Y 8.G $ % u 8. .; - s v v 1 9 , $ X * $ ;  . .5 5 5 - ; j v  .",
". X .   X  .Z.9 X * G n._ - 3 t d.%.* $ 3 k.-.* $ $ $ $ %.j.U - % u 8.j $ + ; 4. .$ O ; 8.8. .Z.3 % $ +   3 Z.Z.n.Z.G + + j Z.Z.",
"* * @ : > z M z @ > z N M 1 2 9 %.t 3 3 5 %.r = = * $ ; t %.r 3 - u ! j & % ; ( r ; # e j.d.r G - - %   $ ; >.8. ._ 9 - * 9 j.d.",
"9 : : 1 1 @ @ @ 1 1 > @ 1 M %.9 ; r _ _ 3 - & = * ; %.-.r ; 5 r  .; - d >.>.e & ; e U k.Z.k.& # ; Q 8.& $ * v  .- X * 9 9 - + * ",
"> - 2 M 1 @ @ % 1 1 @ @ - v t = * 5 >.d.3 $ $ ; ; r k.-.; = ; G ! - $ ; >.8.r = & U r ) Z.k.= # % ! 4.> X * , 1 *   * 9 9 , $ * ",
"d M v - @ % @ @ > > > - , _ %.r r r r %.r = & = & = e r r t %.r  .; $ 3 5 5 ; - & ; $ ; k.k.e r p p > % * - - - * X * * - 3 9 , ",
"4.i.j + + * % @ + + * > ; p G >.d.-.r r e & & # $ # # $ r k.j.d.n.2 + * , , * X $ $ $ e k.k.-.k.j * X + * * * * @ * * * * 9 >.%.",
"4. .; * * * @ - - % - ; ; p Z G d.-.%.t ; ; = & & = % = r k.d.r  .- X * = , * * = $ $ ; -.t r d.2 - * 3 : $ + : - * * * * , >.>.",
"8.8.9 9 x @ O - n.i.v M G >.>.! %.%.d.%.e ; & U U U G r d.>.r = * $ + * * * , %.r $ $ * = * 3 3 j _ >.>.>._ v v * o . . + : 2 v ",
" .8._ v x @ + > n.i.8.j v 8.j. .d.-.-.d.r & ; ) d.d.d.d.d.d.e $ * X X X X * 3 d.t = $ $ # * 3 * 5 >.8.8. .>._ v * o @ + + - - - ",
"_ >.1 - : - @ - M d M #.z d d j e e *./ *.& & k.k.) ; e d.d.5 = - - 2 > + * 2 1 , > , = * = t t t r 5 _ _ 9 , : * : * o X - v v ",
"v _ : @ @ @ @ : X + 1 i.M d - $ $ $ *.-.e ; e k.Z.-.& & %.d.U - , v i. .* + - 2 , , 9 , $ * %.d.5 $ X 5 >.> @ * * o @ o * , 8.8.",
"9 9 : - : : @ : + @ z 4.v 2 > - $ = r t & = ; / k.U ; ; 5 -.t - : v 8.M - @ - : , , 9 3 * = t d.t $ $ ; 9 = * * * @ o o @ > M M ",
"* - - : 1 - @ @ @ @ @ > * @ * - * $ = & e e & & & e j.d.r r , $ * : 1 - + + , 9 , * - - > , 9 t r -.G = $ - , 5 : o * @ @ - - @ ",
"X $ * r d - @ + @ @ @ @ + @ @ + + X $ $ = r & & # e Z.Z.r = = $ @ - - * + + * M , * @ * v _ , , e k.j.%   & 5 5 @ @ @ @ @ @ @ @ ",
"$ $ ; t M > > * @ @ @ @ : : 1 : * * = = 5 U e e ; e U U 3 ; 3 * - - - - - > > > * * * =  .9 , - e d.k.; $ 5 t t z @ 1 @ @ @ @ @ ",
"e ; %.k.#.M z 1 @ @ @ @ : 1 v 1 t t _ t G d.d.k.k.r * $ 5 9 p > - - + * i.i.p @ * @ * , >._ - + e f.k.U u j 4.#.N z z @ @ @ @ @ ",
"e 5 U k.#.M z @ O @ @ @ : 1 v 1 _ 3 t r t d.k.k.Z.e     v  .2 d - - @ - i.i.- + * * X 5 n.>.*   & A.Z.~ - j i.9.N N z @ . @ @ @ "
};
