/* XPM */
static char *hole1693491517[] = {
/* columns rows colors chars-per-pixel */
"64 64 185 2 ",
"   c #000614",
".  c #040A15",
"X  c #050D1C",
"o  c #090F1D",
"O  c #0A1117",
"+  c #07111D",
"@  c #0A131E",
"#  c #060E21",
"$  c #061121",
"%  c #0C1423",
"&  c #0E1824",
"*  c #0C1629",
"=  c #0E1A2A",
"-  c #101724",
";  c #111925",
":  c #101729",
">  c #131C2B",
",  c #181F2F",
"<  c #141E31",
"1  c #16202F",
"2  c #1C242F",
"3  c #162233",
"4  c #1A2434",
"5  c #1E2935",
"6  c #17213A",
"7  c #1B2639",
"8  c #1D293B",
"9  c #232936",
"0  c #222C3C",
"q  c #2A313E",
"w  c #26323E",
"e  c #1E2A41",
"r  c #222E42",
"t  c #253144",
"y  c #2B3444",
"u  c #26334B",
"i  c #2B364A",
"p  c #2D394D",
"a  c #333B4C",
"s  c #373B49",
"d  c #283650",
"f  c #2E3B52",
"g  c #333E53",
"h  c #303E59",
"j  c #3C434D",
"k  c #354155",
"l  c #3C4454",
"z  c #35435B",
"x  c #3A455B",
"c  c #3C495C",
"v  c #374561",
"b  c #394661",
"n  c #3D4A63",
"m  c #414755",
"M  c #434B56",
"N  c #434C5C",
"B  c #484D53",
"V  c #4A5157",
"C  c #47505F",
"Z  c #4B515D",
"A  c #50545D",
"S  c #434E63",
"D  c #455063",
"F  c #4B5363",
"G  c #45526A",
"H  c #4B566B",
"J  c #4D596C",
"K  c #515560",
"L  c #535C6B",
"P  c #595E6C",
"I  c #555962",
"U  c #475570",
"Y  c #4E5B72",
"T  c #525D73",
"R  c #56606F",
"E  c #5B616E",
"W  c #556174",
"Q  c #5C6374",
"!  c #556279",
"~  c #5A647A",
"^  c #5B687D",
"/  c #5C6876",
"(  c #616673",
")  c #626976",
"_  c #61677D",
"`  c #636C7E",
"'  c #6C717D",
"]  c #5D6780",
"[  c #5C6C81",
"{  c #636E84",
"}  c #657184",
"|  c #6A7385",
" . c #667289",
".. c #6B768A",
"X. c #6D7A8D",
"o. c #727986",
"O. c #737B8B",
"+. c #787F8E",
"@. c #777A84",
"#. c #6F7B91",
"$. c #727D92",
"%. c #77808F",
"&. c #7C818D",
"*. c #758193",
"=. c #7C8494",
"-. c #7F8897",
";. c #7C8699",
":. c #7D899B",
">. c #818693",
",. c #838A96",
"<. c #838C9C",
"1. c #87909F",
"2. c #8C929E",
"3. c #92959D",
"4. c #838EA2",
"5. c #8692A3",
"6. c #8B93A2",
"7. c #8F98A7",
"8. c #8F96A8",
"9. c #9297A4",
"0. c #9399A5",
"q. c #949CAB",
"w. c #999EAC",
"e. c #919CB0",
"r. c #97A0A9",
"t. c #9EA4AF",
"y. c #96A2B0",
"u. c #9CA5B3",
"i. c #A0A4AF",
"p. c #A5A8AD",
"a. c #A1A5B0",
"s. c #A6AAB6",
"d. c #A5ACBA",
"f. c #AAAFBC",
"g. c #A9ADB6",
"h. c #A7B1BD",
"j. c #ADB1BD",
"k. c #B4B7BE",
"l. c #ACB4C2",
"z. c #A6B2C2",
"x. c #B2B6C4",
"c. c #B3BAC4",
"v. c #BABEC7",
"b. c #B5BCCA",
"n. c #BABECA",
"m. c #BEC1CD",
"M. c #BEC4D2",
"N. c #C2C4CD",
"B. c #C2C6D3",
"V. c #C5C9D5",
"C. c #CACCD5",
"Z. c #C6CCDA",
"A. c #CBCEDA",
"S. c #CCD2DD",
"D. c #D2D5DD",
"F. c #D6D9DF",
"G. c #CFD3E2",
"H. c #D2D6E2",
"J. c #D5D9E5",
"K. c #DBDDE5",
"L. c #D6DCE9",
"P. c #DBDEEA",
"I. c #DEE1E6",
"U. c #DEE2ED",
"Y. c #DEE3F1",
"T. c #E1E2E7",
"R. c #E2E4ED",
"E. c #E5E8EE",
"W. c #E9EAEE",
"Q. c #E3E5F2",
"!. c #E8E6F1",
"~. c #E6E9F4",
"^. c #EAECF5",
"/. c #E6E7F9",
"(. c #E6EAF9",
"). c #EBEDFA",
"_. c #F0EFF5",
"`. c #F0EFFD",
"'. c #EEF1F5",
"]. c #EEF1FC",
"[. c #F1F2F6",
"{. c #F3F4FD",
"}. c #F8F6FD",
"|. c #F6F9FF",
" X c #FAFCFF",
/* pixels */
"'.|. X[. X X|.[.I.E.U.R.~.U.Q.]. X_.!.R._. X}.!.!.`.}.}.[.}.[._.{.(.R.'. X X X}.[.W.W.[. X X}.}.[.W.^.[.{.].].|.~.U.Y.Y.U.Y.].].",
"|. X X[.|. X X{.I.I.I.U.~.U.Q.). X[.!.T.^.}.}._.!./._.`.}. X X[.{.^.E.'. X X X X}.W.W._. X X X X[.W.(._.].{.|.|.~.Y.U.U.U.~.].(.",
"'.'.'.'.{.'.'.'.E.^.'.^.).Q.Q.(.^.^.)._._.^.^.!.!.^._.`.[._.[.[.{.'.E.'. X X[.[.[.[.^.[. X X[.W.[.'._.!.~.].{.{.~.U.U.~.).].].].",
"I.I.E.[.'.I.I.E.|.|.|.|.].!.U.R.T.!.}.|.`.!.R.!.!.`. X}.^.E.^.|.|.).E.~. X X'.W.W.}. X{.[._.W.W.).}.|.!.U.~.].].~.U.Y.|. X|.|. X",
"E.I.E.'.^.U.U.~.|.{.|.|.'.~.R.U.E.^.}.}._.T.R.).!.`.{.{._.(.).{.{.'.~.W.'.{.[.^.!.|.|.[.[.).^.^.).{.{.~.U.~.(.].U.Q.~.{.|.|.}.}.",
"|.|.'.U.E.{.{.).~.~.'.|.{.].].'.).)._.[.^.R.R.(.!.!.T.!.`._.W.P.U.~.).(.!.W.E.E.!.[.|.}.}.|.^.R.R.~.E.U.U.U.~.U.).{.].Q.E.~.~.!.",
" X X'.I.U.|.|.'.U.U.^.].{.{.|.|.'.'.).{.^.Q.U.Q./.P.P.U.).'.R.A.A.P.!.Q.R.R.T.R.!.].{.}.|.{.~.P.Q.U.U.U.U.U.U.L.]. X}.R.T.R.R.T.",
" X X'.U.U.'.{.'.R.R.).].'.{.{.'.{.{.}._.(.Q.R.~.R.!./.!.{.{.!.G.Z.H.J.H.L.Q.~.^.^.}.|.}.].'.!./.~.~.E.E.Q.U.~.^.].]._.^._.E.E.^.",
"{.|.).U.U.R.Y.^.R.~.(.].).I.U.'. X X|.{.(.~./.).{.].|.|.).].).L.S.Z.V.B.V.P.}. X X}.`.}.{.).~.(.'.).'.(.~.].|. X'.I.E.|. X|.[._.",
"|.{.^.Y.Q.~.U.U.U.E.^.'.).I.U.].|.|.|.^.U.U.Q.].).).|.|.).).).Y.Q.L.H.G.A.J.). X X X}.`.).).).).).].(.^.~.|.|.|.^.U.~. X X{._._.",
"].).~.U.Q.'.{.(.^.(.].{.].~.~.{.|.'.Y.J.S.H.U.~.Q.(.].{.(.!.Q.Y.Y.L.L.Q.(.).`.{.{.|.}.).Q././.!.U.Y.E.'.].].^.~.Y.U.Y.].}.[.[.{.",
"~.~.~.L.U.|. X|.'.].|.|.|.].].|. X'.I.D.S.D.L.U.Y.~.].].~.Q./.P.L.J.H.P.{.}.).!._.}.|.).R.U.Y.Q.U.I.U.]. X].U.P.U.U.~.E.(.{. X X",
"~.Q.~.~.Y.].|.].).(.'.].{.].(.].|.^.~.Y.U.J.L.Q.Y./.(.(.Q./.Y.J.S.S.A.G.L.P.!./.).).).^./.~.(.~.^.^.~.^.{.(.Q.Y.Y.U.Q.(.).{.{.{.",
"U.U.~.].'.Y.U.Y.].].(.~.Y.Y.Y.Y.U.E.^.].~.P.L.Y.U.Y.U.L.L.U.L.J.n.b.n.V.A.A.J./.{.(.!./.`.`.].).]. X{.U.J.Q.).].~.U.Y.].{.(.Y.R.",
"U.U.Y.].].U.U.Y.].].~.U.Y.Y.Y.Y.K.R.).).~.U.J.G.G.A.V.V.Z.S.G.L.Z.z.z.m.V.G.P.!.Q.U.P.~.)._.{.].}.|.{.U.H.P.(.'.Q.L.Y.].).~.Q.P.",
"U.(.~.~.^.Y.U.~.Y.~.Y.Q.(.'.'.'.^.'.^.~.~.~.L.V.x.l.s.z.z.z.m.M.b.e.>.<.8.f.m.m.B.S.P.~.(.(.].}.{.)._.).R.Y.~.Q.Y.Q.Q.(.~.].].).",
"].).(.Y.Y.U.U.E.U.K.K.T.(.}. X[.}.|.I.I.E.U.S.m.0.-.%.-.1.r.z.m.d.;.P F H } <.q.u.z.Z.P.U.Q.{.|.`.!.Q.).`.^.Q.P.Q.P.R.U.J.^. X|.",
"(.).(.Y.Y.~.E.Y.U.E.~.~.(.{. X}.{.[.'.'.'.S.z.y.1.` R / *.y.l.l.e...D p p N ! O.5.e.u.l.Z.P././.!.Q.(.)././.~.Q.Q.Q./.Q.R.^.{.].",
"Y.(.Y.L.Y.).].).].|.].].[.(.~.).W.'.'.{.I.m.r.:.*.L k N ^ q.z.u.;.T g 0 4 r c { ;.4.<.,.w.b.A.L.R.!.~./.Q.Y.U.Q.!.`.).).].|.].{.",
"Y.Y.Y.U.Y.).].{.|.|.{.|.{.L.A.H.K.S.C.V.m.r.-.-...N i z W :.e.:...L a 7 < 4 x ..;.5.=.| | $.d.H.(.(.(.~.~.U.P.R./.`.}.}. X|.].[.",
"Y.~.Y.Y.~.E.~.].{.{.(.U.A.f.w.w.j.i.0.2.:.:.*.*.{ f 7 g J ..*.} Q S s 7 = < g ..;.4.;.{ F F =.B.R.[.[.~.~.^./.(.).Q.'.].'.].].].",
"~.Y.^.].].Y.U.~.|.{.L.h.<.o.Q L P ' &.| ` } } *.{ f < d n Y ^ J F g y 7 = < g X.4.;.$.{ J c { y.S.[. X!.R./.).{.~.P.U.~.Y.'. X|.",
"U.Y.~.'.{.Y.U.Y.].P.l.O.K N g 9 ; m ` Q F J / .. .z 8 u k c x x g p r , 3 4 z $.:.$...{ Y S ! =.c.!.}.!.!.).{.).~.Q.Y.Y.Y.).|.|.",
"U.~.~.).].'.Y.Y.H.a.| l y 0 4 X @ s L C C W [ *.[ x e u p p k k g t , < 3 4 k X.*.X. .^ H S ! O.g.S.^._.}.{.).{.).{.).Y.E.~.Y.Y.",
"R.R.E.).{.(.Q.Q.b.O.l 9 < * % X % q N C c L X.#. .n u r e r u i y 0 > 3 3 8 c } X.} ~ Y Y H T } 2.m.U.].|.|.{.|.|.).{.Q.~.U.U.U.",
"E.^.)._.{.).Q.U.l.' s 4 : $ # X % y Z N l W $.$. .S i 8 6 8 t t 0 3 3 4 8 r S ..X.~ T J G G G ! ,.s.m.Z.Y.(.|.|.].Q.Q.J.Y.(.~.~.",
"_.[.[._.).).Q.U.f.| g 9 % X % X + a F N x ! $.#. .U f 8 3 8 e 8 6 3 7 e t i S | ^ N c S S n D J %.2.q.t.M.I.Y.Y.G.A.Z.A.~.{.].|.",
"[.[.).^.).(.Q./.N.>.F y % X % X + y D c S [ #.#.[ J g r 8 3 8 8 8 r t u y i D } L y t k x c D J %.7.7.5.y.h.u.r.6.6.9.j.U.{.|.|.",
"}.[.!.R.!._.{.).H.a.( y @ X - . % 8 k c D ~ {  .^ G k u e 6 3 8 u f f u r i F ` S 4 4 t w k l c } 1.:.*.5.7.../ %.-.%.0.Z.].|.|.",
"_. X_.K.!.}.|.`.Y.x.( y @ o - o $ 4 u g n H Y ! ! G z f d 3 3 u f z g r 8 i S _ Z 4 : 4 = 3 w k Y } ` ` :.5.../ r.l.3.3.B.'.|.|.",
"}. X}.!.!._.{.`.).x.P 0 - o - o # < r g x n n G U n v k u 3 6 d x z h r 7 r N Q D 4 & = & $ 1 w J [ ^ W *.:.} ^ z.J.m.h.H.'.|.|.",
" X X}._.^.R.Q.(.{.x.F , - O o o # 7 i h n n b n b n z d 8 = = d b v f r 4 7 g L M 1 % = $ & = k G ^ ^ Y } ..Y Y m.].Y.).|.E.I.I.",
" X X[.[.'.U.U.(.(.r.k = & + @ O $ 3 r z z v v v b b g e 3 $ 3 u x x f e 3 4 t S a , % % % : 4 w c J J D T ] G T V.(.|.|. XE.R.P.",
"[. X[.W.'.^.~.~.M...5 = & + & + $ = 6 r u k v v x h u 3 * = 5 u x x p 8 < > 9 y 9 - # % : , 4 5 t k k k T { H | Z.).].^.).E.!.R.",
"|. X).T.E.[.].Y.h.Y 3 = = & @ + + $ = 6 e u f v g f 8 = $ = 5 u k z d 3 < < , , , % % % > 9 4 3 3 8 8 u G ~ T :.A.].).R.R.R.!.R.",
"{.|.).E.!.).(.S.-.k = = * & % + @ & = = < e u k g t 6 = = = 3 r f k i 7 < , , 7 > # % @ - , 3 > 3 5 0 k x S _ 7.A.(.].~.!.R.Q.Q.",
"E.R.[. X}.).P.n.` k 5 = + + . . O @ @ & = 3 e u i 0 < , 1 = > w u y u , < 6 4 , : % @ % @ ; ; ; 3 8 y k j i } q.M.L.).{.{._./._.",
"R.U.[. X X).J.c.` c a 8 & +   . . O @ & = 3 r r r , > 4 4 = = w r r < 7 0 0 0 : : X @ % @ ; ; 1 5 w w w 5 k -.h.B.J.^. X X`./.`.",
"!.R.(.[.).(.R.B.%.H l D D C V A B V j 5 = 3 8 3 4 < > 3 4 > < 8 7 < < r 0 9 7 , ; @ @ @ ; ; - 1 5 5 5 w J =.h.G.L.P./.{.}./.Q.!.",
"R.R.R.T.R.).].S.s.o.R =.d.c.m.m.k.k.,.l = $ = 3 > 1 1 4 7 4 3 3 9 < , r , , , , > % @ @ @ ; ; ; & O & w t.~.(.|.^./.~./._./.R.Q.",
"R.R.T.E.W.^.W.).S.m.u.m.L.~.U.E.I.F.i.M % $ * = > , , , , , 7 4 < < , 7 > 4 4 > > % % % @ - @ ; & ; c -.J.|.].|.Q.R.~.{.].(.Q.!.",
"].{.^.T.W.W.E.!.|.].Y.~.].E.Y.|.'.F.r.M @ X = > : , , , 9 0 r 9 , < < > < 4 > , % @ @ % ; ; @ - O s r.E.].'.Y.).Q.Q.(.].{.(.Q.R.",
"|.|.W.I.T.E.E.'.].|.].'.'.'.'.|. XI.s.R 4 : % X % 4 y m g y 9 : % : : - > 4 ; : : & % @ @ @ - 9 j R M.|.].E.U.E.~.Q.(.{.{.^.Q.U.",
"].|.'.W.W.E.I.'.|.].~.U.~.].'.'.{.I.m.&.N 0 # # % s ( @.@.P g 2 - - : % & > & & & & ; ; - - 2 j E 0.L.'.].E.I.'.~.R.(.}.}.^.R.R.",
"].'.}. X XW.F.W. X|.].Y._.}. X}.}.!.V.w.) 9 . 9 Z >.k.n.n.k.w.>.F 2 O @ % & > : : & @ % 2 m ( >.0.m.U.W.[.'.F.I.!.R.(.|.|.).T.R.",
"].).}. X XW.T.^.{.{.].)._.}. X}. X_.D.k.&.s 9 P s.F.^._.`.[.(.P.t.V , > & = > ; > & % 2 Z 2.b.S.I.S.F.U.'.'.E.I.R.E.(.{.}.(.R.~.",
").Q.!.~.E.^.{.'.].).).{.`.{._._._.T.D.v.i.,.,.g.F.'._.^.[.}.).E.A.6.) Z y 0 9 ; % ; l O.s.H.~.'.].U.U.E.T.W. X{.).'.).(.~.'.{.'.",
"P.L.U.J.P.|. X'.Y.Q.{.}.{./.`._._.!.K.N.v.H.E.!.^.{.W.E.[.{.(.U.J.S.b.,.L M q > : q =.K.|. X|. X].Y.I.I.F.E.|. X X X{.P.P.{. X X",
"/.Y.Y.Y.Y.].].].Y.(.].].).).).`.{._.H.N.D.^.`._.`._.~.^._.{._.Q.U.U.J.v.3.' A j A 3.C.W. X X[.}.^.~.U.I.I.~.|.|.{.{.)./.R.).|. X",
").(.(.].].Y.Y.Y.].(.(.~.(.{.`.`.`.^.K.C.A.K.!.`.~.`.}.`._.^.^.^.~.I.K.H.C.k.3.@.p.I. X X X X[.K.'.{.|.E.R.~.'.{.Q.P.Q.).)./.R.R.",
"(.Q.(.{.].Y.U.~.].].Y.Y./.`.{./.~.~.!.T.T.T.!.!.~.}. X X_.~.^.).U.K.F.U.W.R.S.C.F.|. X}. X XW.T.E.].|.).E.~.(.).Q.L.Q.`.{.(.Q.R.",
"].].].~.E.Y.Y.U.Y.].~.Y.(.`.}.[.`._.^.).`._.!.!.^._.{._.`.{.{.{.(.U.K.E.^.^.^.'.E.'.W.[. X X^.}.'.'.'.~.!.!.(./.Q.U.Q.Q.!.(.].).",
"{. X'.U.U.~.Y.U.I.U.Y.'.^.).[.|.|.}._.^._.^.!.R.R.T.E.!.{. X X[.|.^.U.~.).).!.~.E.^.E.^. X X}. X].E.U.Q.~.Q.Q.Q.U.Q./.U.Q.).|.}.",
"{.|.^.Y.~.U.Y.^.~.E.E.'.W.'.[.[.}.}.{._.).W.!.W.!.!.!._.[. X{.).).Y.U.Q.(.).!.E.R.E.R.W.}.`._.}.'.~.~.(.^.Q.Q.Q.!.Q.Q.Y.R.(.}.|.",
"|.|.].'.'.Y.U.~.|.|.].].[.|.{.{.[.}.}.}.[.W.W.[.[.[.[.^.^.!.!.R.!.Q.Q.Q.Q./.).}.{./.R.^.^.!.~._.'.].|.|.}.].].].Q.U.P.U.U.Q.).].",
"{.|.{.].].Y.U.~. X|.|.'.'.|. X|.|.|.}.}.[.W.W. X X}.[.!.T.K.T.T.Q.Y.U.Q.Q.Q.).}.).Q.R.R.T.R.^.!.).].|.|.{.{.].).Q.Y.Y.U.U.~.(.Q.",
"{.{.)./.~.Q.Y.Q.{.'.].{.].'.].]./._.}.}._.!.W. X X XW.E.^.!.!.Q.~.~.(.(.R./.).).`./.^.~.Q.!.`.`.`._.(.{.{.).(.(.Q.Q.!.P.P./.{.).",
").].~.Q.Q.Y.U.Q.U.Y.).|.{.(.~.Y.P.!.}.}._.^.W. X X[.!.!._.}._.~.(.].|.{.Q.P.~.^.).).`.`.Q.!.`.}.).R.P.).{./.Q.Q.Y.Y.Y.P.Y.).|.|.",
").).(.Q.(.Q.Y./.U.Y.).{.].'.).E.R.!.`.}.^.!._.}. X[._.^.{.}.}.Q.(.].|.{.Q.Q./.(./.^.`./.Q.!.`. X`.R.R.^.)./.!./.Q.Y.Y.Y.Y.(.{.].",
"!.Q.(.(.).(.Q.Y.Y.Y.Y.(.Y.Y.Y.~.R.R.^.!.^._.!.W.W.[. X}.)._./.Y./.~.).~.Y.Q.^.).`.!.!./.!.`.`.`._.}.{.~.R.!.(.).Q.Y.Y.Y.U.~.~.Y.",
"P.P.!./.).~.Y.Y.Y.Y.U.Y.U.Y.Y.U.P.P.R.R.^._.W.E.T._. X X_././.Q.R.~.(.Q.P.P.~.`./.!.R.!.`.`.`.).^. X X!.K.E.'.).Y.U.(.Y.Y.Y.Y.U.",
"Q.R.^.`.].(.(.Q.Y.Y.Y.Y.~.(.(./.!.Q.!./.^.[.[.[.^.[.}.[.^.^.^.!.Q.~./.!.~.^.^./.Q.Q.Q.!.}.`.^.!._.|. XW.R.^.{.].(.~.(.Y.Y.Y.Y.Y.",
"R.R._. X|.].).(.Y.U.Y.Y.Y.].].].`.`.`.`.[.}.|. X|._.T.!.^.`.(.~.(.!.U.!.}.|.^.Y.R.Q.Q.^.}.{.!.T.[. X X{.'.'.{.|.].].(.Y.Y.Y.Y.Y.",
"K.K._. X|.].(.~.U.Y.Y.Y.~.].].).`.)._.`.{. X X X X_.K.K.).{.`.).~.~.R.(.}.}./.R.Q.Y.Q._. X{.R.T.W. X X[.^.].|.|.].].(.Y.U.Y.Y.Y."
};
