/* XPM */
static char *_0fa140f07014531e5096047b4bc6497GzcvkRX2r36MFImG[] = {
/* columns rows colors chars-per-pixel */
"64 64 246 2 ",
"   c #001C00",
".  c #051700",
"X  c #131E00",
"o  c #181800",
"O  c #000F00",
"+  c #241C02",
"@  c #2C1B09",
"#  c #311D05",
"$  c #012400",
"%  c #0B2300",
"&  c #012C00",
"*  c #0A2B02",
"=  c #0C270C",
"-  c #1C2300",
";  c #172901",
":  c #043400",
">  c #0A3501",
",  c #053A00",
"<  c #0B3C01",
"1  c #0B3409",
"2  c #0D3B0A",
"3  c #123301",
"4  c #113D01",
"5  c #193D02",
"6  c #123D0A",
"7  c #183708",
"8  c #0F3911",
"9  c #183813",
"0  c #282404",
"q  c #213A04",
"w  c #283909",
"e  c #372A17",
"r  c #35361A",
"t  c #2F2A0F",
"y  c #253A29",
"u  c #443617",
"i  c #4C3717",
"p  c #4A3929",
"a  c #0D4200",
"s  c #0E4A00",
"d  c #134401",
"f  c #1A4501",
"g  c #154A01",
"h  c #1B4C02",
"j  c #14430A",
"k  c #1A450A",
"l  c #1B4C0A",
"z  c #144C0D",
"x  c #1D5301",
"c  c #1E5900",
"v  c #1E5209",
"b  c #175100",
"n  c #1B4311",
"m  c #1C4B13",
"M  c #1A4816",
"N  c #1D5215",
"B  c #224E03",
"V  c #214D0C",
"C  c #28480A",
"Z  c #225402",
"A  c #2A5503",
"S  c #255A01",
"D  c #2A5D02",
"F  c #24540B",
"G  c #29540C",
"H  c #255A0A",
"J  c #2B5C0B",
"K  c #315D0D",
"L  c #315C04",
"P  c #264917",
"I  c #314E16",
"U  c #235412",
"Y  c #275A12",
"T  c #2C5D13",
"R  c #295217",
"E  c #325C13",
"W  c #355916",
"Q  c #31490D",
"!  c #1F6000",
"~  c #256300",
"^  c #2C6302",
"/  c #2F6B02",
"(  c #2D630B",
")  c #2E6A0C",
"_  c #316503",
"`  c #346B03",
"'  c #396E05",
"]  c #33650B",
"[  c #346A0B",
"{  c #396D0C",
"}  c #38660E",
"|  c #367105",
" . c #3B7304",
".. c #35700C",
"X. c #3C730C",
"o. c #3E7A0C",
"O. c #3E7B02",
"+. c #2D6313",
"@. c #2E6418",
"#. c #326414",
"$. c #356A14",
"%. c #3A6D13",
"&. c #32651B",
"*. c #366C1B",
"=. c #3A6D1B",
"-. c #396419",
";. c #377111",
":. c #3C7313",
">. c #3E7A13",
",. c #3E731A",
"<. c #3E7B1B",
"1. c #324B2B",
"2. c #395D24",
"3. c #324B32",
"4. c #31522C",
"5. c #366922",
"6. c #3C7422",
"7. c #41750C",
"8. c #437C0C",
"9. c #437D08",
"0. c #417414",
"q. c #437B14",
"w. c #4A7D14",
"e. c #41761C",
"r. c #447B1B",
"t. c #4A7D1A",
"y. c #426F12",
"u. c #48412A",
"i. c #52472F",
"p. c #604F3D",
"a. c #427623",
"s. c #497D23",
"d. c #487927",
"f. c #4B6831",
"g. c #455A46",
"h. c #565749",
"j. c #536E4A",
"k. c #6F6E59",
"l. c #5B7662",
"z. c #6A7769",
"x. c #695D51",
"c. c #887E6B",
"v. c #3F8105",
"b. c #438205",
"n. c #45820C",
"m. c #4B860D",
"M. c #4B8A0C",
"N. c #498807",
"B. c #508B0E",
"V. c #458212",
"C. c #4B8414",
"Z. c #4D8A13",
"A. c #4C841C",
"S. c #4F8A1A",
"D. c #46841B",
"F. c #528B15",
"G. c #51841B",
"H. c #528B1B",
"J. c #539215",
"K. c #54921B",
"L. c #59951C",
"P. c #599819",
"I. c #4F910F",
"U. c #4C8422",
"Y. c #4E832A",
"T. c #4A8522",
"R. c #528624",
"E. c #548C23",
"W. c #538A2A",
"Q. c #599223",
"!. c #569125",
"~. c #558733",
"^. c #528A31",
"/. c #789857",
"(. c #698551",
"). c #6B826C",
"_. c #778979",
"`. c #779068",
"'. c #838D79",
"]. c #8BAE76",
"[. c #7B8F81",
"{. c #7CA182",
"}. c #8D9388",
"|. c #98AD96",
" X c #99B297",
".X c #99AE8A",
"XX c #ABA59B",
"oX c #9EAEA5",
"OX c #AAB8A4",
"+X c #BCB9AE",
"@X c #ACAAA7",
"#X c #A69C90",
"$X c #C4BCAF",
"%X c #ABCAA2",
"&X c #B4C5B9",
"*X c #AED0AF",
"=X c #ACD498",
"-X c #C9C3B5",
";X c #C2D5B9",
":X c #C8E2BA",
">X c #BDCCC2",
",X c #C9C9C4",
"<X c #C6D8C9",
"1X c #D4DADA",
"2X c #D4D6D2",
"3X c #E2DAD9",
"4X c #E5D7CC",
"5X c #D7E6DA",
"6X c #D1E7CC",
"7X c #E8E8DE",
"8X c #DBDDE4",
"9X c #DCDEED",
"0X c #D4DDE5",
"qX c #DBDCF2",
"wX c #E1DEEA",
"eX c #DCE2E6",
"rX c #DDE3EC",
"tX c #DCE9E8",
"yX c #DDF2E4",
"uX c #DEE2F2",
"iX c #DFE9F5",
"pX c #E2E3E6",
"aX c #E2E4EC",
"sX c #E3EBEC",
"dX c #E9E9E9",
"fX c #F4ECEA",
"gX c #ECF4ED",
"hX c #E1F0ED",
"jX c #F2F2EE",
"kX c #E3E5F3",
"lX c #E5E9F4",
"zX c #EAECF4",
"xX c #E4E5F9",
"cX c #E5EAFB",
"vX c #EDEDFB",
"bX c #E9E7F5",
"nX c #F2EFF9",
"mX c #E5F3F5",
"MX c #EDF3F4",
"NX c #EDF2FC",
"BX c #ECFCFC",
"VX c #F2F2F2",
"CX c #F2F4FD",
"ZX c #FBF7FD",
"AX c #F5F9FE",
"SX c #FBFDFF",
/* pixels */
"v : , @.6.c s c / ) c s v v s v Z g d d U F 4 h e.,.] ^ ` F.A.[ Z ..{ D A.^ | | D Z 0.} G 2.5XBXBXuXlXMXVXAXvXAXxXuXrXrXtXlXNXvX",
", a l @.v a c [ >.>...c ) @.c H ,.D B f 4 < d #.$.Z d S w.V.{ D ` 7.{ { G.^ ~ S Z ( } } C f *XyXtXmXsXMXSXzXSXCXcXuX9XeX8XlXNXvX",
", k d d g x $.~ c ^ >.[ >...^ b ( $.#.Z < , < H Z a a A C.X.^ _ t.7.D Z %.%.] d < Z F f d 4 4.3.[.gXhXdXpXMXCXCXcXuXuXiXvXvXNXCX",
"2 j , , v &.$.x b ~  .o.` ~ [ S g Z f d T E Z G > > g ^ { D A D H.w.D A Z #.&.F d g g d F G C P 1._.gXdX8XvXbXvXkX9XkXAXSXAXAXZX",
"2 & & : U 5.H s [ :.~ >.Z b [ D g g h S %.=.] Z d d Z ] B B Z Z G.' D } Z Z F F h ( D D 0.%.y.E f.[.yXpXkXkXvXvXrXaXsXCXAXAXCXZX",
"& & 2 2 j a s $.T.,.h ,.x d J D g F :.X.] 0.t.D Z h A J d 4 f A y.A B L d k h x ( A.>.~ ` X.8.` (.6XhXeXrXkXbXkXzXAXVXaXsXsXdXdX",
"2 & & & : : a e.^.:.> T d > k T &.e.0.{ ` C.H._ Z A h f 3 & > C A B B F > d v S V.Z.Z.o.0.` ~ 8.d.(.;X5XrX9X9X9XCXSXAXaXaXaXaXaX",
"> & $ & : & g <.W.^ : j ,   & m l H Z ' F.F.w.8._ _ D B P : & 4 B 4 d F g h h g O.L.b.V.T.X.) ` K I j.,XtXuXbXbXMXCXzXzXvXbXbXzX",
"& M 2 : & & x S.Q.>.< , $ .   M j < Z [ C.Q.7. ._ ' w.B C f 4 d B f h G H h g Z M.L. .b 6.^.b b d.].|.5XuXNXSXAXzXpXsXSXSXZXjXjX",
"9 : * j < Z X.8.H.H.( d & $ & & & < F x  .C.7.~ ' C.0.Z B G K B B B A d h d S | 9.L.Z.;.b 6.s a d.=X%X6XmXBXNXSXzX8XaXSXSXCXdXjX",
"* : > d S >.V.B.M.b.o.] d > 1 1 > d < < ~ ( h Z w.G.{ S D { w.L Z ( =.$.g Z e.C.K.v.v.<.( b b s j l 9  X5X0XmXuXaX9XkXCXCXCXCXAX",
"$ 1 4 h w.Q.9.J.J.b.b.S._ d 2 2 z d < < d g : H 0.{ Z _ 7.C.F.9._ S Z ] Z U.!.V.K.J.n.V.D.) b a h v 8 P y z.1XuXaXuXkXbXvXCXZXZX",
"* 3 Z 0.H.F.9.P.J.M.M.M.8.( l < z d &.d : : d &.=.x g { S.F.8.' ^ ^ x x q.E.C.9.J.J.M.N.J.9.~ b d , n 9 ).>XtXuXkXqXkXcXvXCXAXMX",
"& h y.R.C.b.9.K.n.M.M.v.S.e.F a H @.5.< , , , 5.Y d g :.H.C.^ ~ { q.>.X.A.S.n.n.K.M.M.N.N.n.>.@.a 2 N 8 g.oXiXNXxX9XkXCXNXlXaXaX",
"3 T } w.H.Z.v.K.M.n.J.M.V.( g < J *.x g j < , H a , d %.U.q.Z S :...~ ..o.K.Z.b.Z.F.M.P.O.E.( a a z 2 * 9 z.sXCXxXqXuXNXMXkXkXuX",
"f A Z 0.A.) / T.<.v.K.S.$.g , a g d g v l d Z g a , g $.a.( a g x c c c V.n.| ~ K. .n.K.H.%.a , < N < 1 `.yXtXxXuXxXxXbXxXNXNXvX",
"Z Z < a.$.a a Y.$.[ S.W.a a g S g a x H Z ( [ S x h g 5.d , d < a x H a <.[ a d D.{ ;.Y.^.x , h F f n $ [.mXtXrXlX9XkXwX8XzXSXCX",
"( [ a +.v : a @.v c / W.l z [ _ Z Z h g S ..>.>.~ x , , : : 4 g F @.+., ] c , a ( c h @.^.a b [ #.Z 7 $ ).yXtXiXrXbXbXkXbXkXMXAX",
"[ %.~ h c ^ H h , : g $.h J q. .^ Z x h ~ e.X.` c h Y < & a Z %.:.%.X.^ h S D S g , : h &.g [ X.q.L B C 2.oX5X9XuXCXvXbXSXCXCXAX",
"{ t.>.` ` ` ,.F , a x h x ( / ~ 0.^ ( Z h x x x d v 5.U > v H ] ~ | V.X...^ { X.H > a h g Z ] _ Z w.D K I 9 g.oXmXCXZXCXSXCXMXMX",
"w.q. . .O.q.a.K A S D Z ~ { _ S ] [ ( x v d : g &.&.Z d h F d S _ 8.8.' 7.7.8.w.J F S A Z L { ` _ _ X.} B I ).<XcXqXCXNXvXMXCXNX",
"7.D ^ ` 8.Q.} A ' ` ^ A._ [ $.( Z { =.H v d a d Y Y g H J F < x w.8.L _ _ G.G._ S =.] [ t.D { %.Z Z ..] G W :XhXlX0X9XbXaXvXSXSX",
"A h A G.G._ S _ 7.' _ R._ D Z B ^ :.*.U : & z k g g v v < < g #.] Z h h G.G.` A ` q.{ ` G._ ^ Z Z #.=.=.B 5 %X6X1XmX9XuXkXzXCXMX",
"a > D 0.0._ ^ G.9.~ A { { [ d < J J < , a < d < , B @.g a < , H B , 5 #.0.y._ ` G. .D A 7.{ _ g < H J g , 5 R 4.[.mXlXbXkXkXlXpX",
"> h E } J Z _ H.7.D A S } ] H d < < g ( x S h f > h l g H J x Z 4 : h W #.J Z ] E.7.L D A ] _ Z d < < d J G V C 1._.tXaXbX9XeXeX",
"j h W J G h A V.` L #.h h x Z g d < S { X.{ ~ g a d h H %.%.^ S d f A E Y G h Z s.{ D _ h A Z S h a a x ,.y.=.E 5._.5XsXuXvXaXgX",
"B B T 4 4 f A %.J F T d g Z S D x h ~ ' O. . .D Z D $.$.[ q.q.D g Z B H d 4 f G =.J Z J d d Z A S h h ~ >.X.{ y./.:X6XhXCXNXAXzX",
"B Z Z > : > h ] h f F h ] [ ~ ~ [ >.X.8.` ' { X.[ =.,.:.{ D.S.` A Z x B < : > V G h B A 4 f A D ^ / >.q. .` _ y.d.k.6XgXNXAXzXSX",
"D D f h > & > Z < d Z [ T.q.D ^  .E.H.H. .^ ] =.H Z D ` V.H.A.0._ A D h h < & < B 4 d Z d h A Z ] X.E.Q.C. .^ [ -.W j.&XsXzXAXSX",
"{ 0.Z Z d 4 d g d f x ,.E.X.c / ` V.H.S.A.S h h 4 d x / A.Q.q.X.` ' w.Z B f 4 < B d f J A Z Z A _ ` V.H.S.A.D x f. X.X<XsXMXAXSX",
"t.t.A Z Z _ A h F F h e.Q.O.c [ / ` | o.T.h d 4 d d F D ..A.` ~ ` w.t.B B D D A B Z H { _ A Z J [ _ ` ` 8.r.Z < j.=X%X5X5XMXSXCX",
"W.y.Z D 7.7.^ v Z ( b E.Q. .b [ ^ ~ x %.a.v < d V : , > x #.c b w.R.%.Z ] 0.X.] B ` { 0.` ` _ %.X./ D S ^ a.F d j R 9  X5X1X8XkX",
"=.Z _ | S.q.g a a ( o.v.P.D./ c ^ ~ h m R j l F v , < 2 > , , H 0.{ x _ ..R.H.X.^ ^ 8.H.q.` ` 8.v.>.c h A F d l U N j M 3.l.0XrX",
"h g ' Z.n.q.( g +.v.n.v.I.v.| / S h , : : , < , a v j 2 : 2 d *.,.x g ..E.H.8.| / ` V.C.U.[ ` / ~ D.b , > 4 > > , a N M j.&XtX8X",
"d x ` K.O.c b x v.W.Z.I.Z.D.v.T./ h , , j z v g , v < > & : , $.S a x [ E.V./ ~ ` X.V.X.W.] D x a 5.a : & d f v a , z 3 3.|.5XaX",
"> g [ E.` g c q.Z.Z.v.J.J.Z.M.S.q.~ h g l U #.#.g a & : , a , Z a < g $.R.q.D x 8.7.{ [ W.^ x a : 6 2 : > U H *.*.l 4 > 9 _.eXbX",
"< a ,.e.Z H o.Z.Z.n.v.S.S.M.Z.n.D.<.H a a x J #.-.l & > v h b b d < < a.0.D x x X.%.Z F a.#.B d > $ > 1 d d l F T -.C * _.mXcXcX",
"g d +.g h +.( V.Z.Z.D.!.C.n.P.v.T.) g : > d 4 d W U & < N c ,.c v g a @.h , a F H H d a F &.h < j * : j j : g < f W I   _.AXcXcX",
"d d d : l U d r.V.` / W.>.n.K.Z.*.a , , d 5 > & & * $ , v *.T.;.+.v < d : : < , a a 2 & < H d , h h d h v d v > & > $ = }.tXcXxX",
"h a d a l U s ,...s , Y.) ..S.!.b , z F f f f &   $ > < H d.#.:.F g x a & > < : > & , : : h a < h D J h F T v d *     = l.&X0XlX",
"Z $.h x $.#.a ( x , a @.v x ( R.a b &.#.F g B 5 * n n 4 4 *.c b d x $.F < a d d : < < j d : , g ~ ..s.H g l < k a , 6 P 9 h.iXiX",
"^ x ] s.[ ( ( h Z ] S h , : a ,.b +.e.,.] h B k 4 > : , , v a a +.#.D h h &.&.S a U Y a F F g s s ! :.$.J f : , > < 2 1 = g.0XtX",
"x ] :.^ X.A.e._ ` ` { ~ , a x d b ~ ` ^ { } J G 4 < 4 z > , < k @.Z s c #.d.q...H +.( x J 6.( b c ! ^ :.%.Z < , d z 8 {.&X&XtXsX",
"a h x ~ q.w..... .m.8.^ F Z H x ^ ..` Z ^ } ] Z F 5 > < > < z l g g h [ ( ^ | q.[ %.:.[ s ( $.( c ) [ [ { %.#.B d 4.1 l.<XhXeX9X",
"d > A a.0.D S  .C.F._ Z %.} _ t._  .X.S D [ %.Z h a : > 6 > 6 : , v $.*.c c ` | o.` ~ { x x :.( g *.=.F Z #.-.f 5 R 9 3.oXsXbXxX",
", f T ] Z h A w.F.' A ` :.{ { S.^ D A x ( ,.*.b , , < m n > : & : h Y v S ) ;.~ <.c h ~ <.g H J & F 5.F & $ > 3 * . 9 OXBXAXuXxX",
"< < F F < 4 ( 0.' ^ } Y.0.A S ' 0.L d 4 J Y h , a a < j 4 : * , , g g a ) ;.J g *.x b ( a.< g H 3 %   > 1 > * * . ; t -XdXdXMXAX",
"#.h H < > d #.$.] Z L ~.:.^ A S } -.F a d , a ( x H h d < > & & g @.T : H F < < T d > g @.@.+.k *     $ 2 m m 3 . X r h.XXVXSXSX",
"{ %.B 4 d B K G C B A t.} L D Z B G G g 4 < Z ,...>.J g , , > & ] U.H , f 2     n 3   $ R -.P 1 * 8 $ & 2 z m 4 % - p x.@XnXSXAX",
" .7.D B B G K 4 5 f A 0.D L D f d B F Z Z Z ~ ` q...[ H a : 2 d ..H.#.a 2 $ .   =   O & C d $   & 1 1 & : < a : 3 0 i.$XfXfXrXkX",
"B.m.` A x h B 5 > > h E f g G < f B J ] ` X.q. ./ ^ >.,.T l < d T.E.$.a : $ & & $ $ $ * * & $ & : , j , : , > ; 0 t p $XfXfXeXrX",
"B.m.7.` D A h g > : 3 Z 4 4 A f V Z D _ | Z.Q.S.X.` [ ~ H g , x T.W.;.d : , 2 1   & 1 : & & 1 , : , z z > > ; - - o t h.XXjXCXzX",
"H.w.O.^ X.0.B B d d 4 h f g H H h h Z ^  .m.H.Z.A.S h s a a x >.V.K.v.@.s < 2 : : & 2 2 : , , , : a v v h q 0 + @ e u k.+XjXCXZX",
"R.` ~ ^ G.A.Z Z A ] V h Z D } ] A A D ` ` ` | 8.A.s < d a ~ q.n.M.I.D.v.( s , : : 2 j , : < g a , a x F Q w 0 # u p e $XdXgXCXSX",
"&.h S q.R.X.Z D 7.7.#.A A %.t.[ _ ` X.7._ c S [ 6.x a g c r.K.v.J.I.v.v.V.) h < : k N < & 2 l Z a d > 3 q 0 + # u e p +X1XbXvXvX",
"2 < x q.$.Z _ 7.F.B.0.` ~ 7.!. ._ { 0.r.:.D h h h g a v ,.S.F.b.I.P.I.D.K.q.^ g d B G B 3 7 C I F P 3 % X o # i i p $X3XbXcXcXbX",
"1 a *.:.S a | H.Z.7.| ^ ` q.S.Z.X.} ] ^ d.g : , , < h ,.W.A.8.9.P.v.N.M.V.q.t.A > 4 B Q ; ; ; I I 7 X o + 0 # u i p.3XdXwXxXCXvX",
": , $.c a h ` E.C.` D ` 8. .n.H.D Z x d E f , : a v J ( r.S.U.D.!.M.J.K.8.A.y.4 $ % ; C X . - ; q X 0 + @ p k.c.z.c.2XwXwXnXCXAX",
"a , c a , h :.Y.r.S Z 0.r./ ` A.] B d , 4 d < > d v Z c T.Y.) ~ Z.m.9.H.W.%.4 4 5 3 q Q X o - X o o @ p p.k.,XnXvXwXbXpXpXcXCXNX",
"s c g a a s ,.=.H h S %.=.S D :.#.h 4 > & : < 4 d Z x s ,.) a s T./ [ R.~.g > f Q 5 q w o r r e r + # c.4X3XCXcXxXuX8XpXpXkXcXcX",
"~ ..c Z h < +.h > 4 B H F d s F @.d 4 j > > d Z x ^ ` g ~ c , , [ x c &.W.a Z $.L L './.r .X,X}.e e #X2X3XwXnXbXxXqXbXlXaXrX9X9X",
"o.q.,.( h a a : : > < 4 d : : < T d > l j d F =.q.[ ..x h c ~ ( g a & a =.h ( e.y._ } Q f.6X5X,X}.XX7XwXdXCXvXZXvXrXxXuX9XuXiXrX",
"9...&.v h F < & > < > , , : & : l < > f F B A $.D ] S.C.| / ..;.S , a b b b ( / ^ { K K K f.j.@XfXZXZXZXMXlXCXCXMXvXcXkXiXuXuXrX",
"` D v a v *.F 4 < k < , > j 8 j , < g G &.F h F $.t.8.`  .>.q.<.( x +.v z @.) / A _ y.K A Q (.+XfXZXSXCXcXNXZXZXnXZXlXrXrXuXxXiX"
};
