/* XPM */
static char *ca9b0cdd9f294e57c0195b0849362300rLjwdXMH99ar35lZ[] = {
/* columns rows colors chars-per-pixel */
"64 64 153 2 ",
"   c #030B03",
".  c #031303",
"X  c #041C03",
"o  c #0A1E02",
"O  c #121700",
"+  c #181600",
"@  c #121B00",
"#  c #191F00",
"$  c #052301",
"%  c #0A2301",
"&  c #022D00",
"*  c #092D02",
"=  c #132202",
"-  c #112B02",
";  c #1D2801",
":  c #053301",
">  c #0A3501",
",  c #073803",
"<  c #0C3C02",
"1  c #143402",
"2  c #1B3301",
"3  c #123C00",
"4  c #143C0B",
"5  c #163F14",
"6  c #203B02",
"7  c #0E4104",
"8  c #134402",
"9  c #1B4500",
"0  c #164903",
"q  c #1B4C02",
"w  c #13450C",
"e  c #1A4308",
"r  c #144809",
"t  c #1D4C0B",
"y  c #1D5304",
"u  c #1E5906",
"i  c #1D5308",
"p  c #1E5111",
"a  c #234702",
"s  c #234C00",
"d  c #314103",
"f  c #245302",
"g  c #285501",
"h  c #255A03",
"j  c #2B5C03",
"k  c #20550E",
"l  c #2E540D",
"z  c #235A0A",
"x  c #2A5F0A",
"c  c #315E04",
"v  c #335B0F",
"b  c #22511D",
"n  c #266206",
"m  c #2D6304",
"M  c #2D6A06",
"N  c #276108",
"B  c #2B6708",
"V  c #316504",
"C  c #336C05",
"Z  c #396B07",
"A  c #356C0A",
"S  c #3A6C09",
"D  c #367206",
"F  c #387607",
"G  c #377807",
"H  c #3A7A07",
"J  c #377508",
"K  c #3C720A",
"L  c #377908",
"P  c #3B7C08",
"I  c #2B6017",
"U  c #366419",
"Y  c #275423",
"T  c #325E2E",
"R  c #3F7522",
"E  c #3D6932",
"W  c #41760A",
"Q  c #437B0C",
"!  c #487F0D",
"~  c #437615",
"^  c #436348",
"/  c #527B4A",
"(  c #5D7B48",
")  c #557A57",
"_  c #5A7D5B",
"`  c #3D8108",
"'  c #43830B",
"]  c #4B850E",
"[  c #4D8A0E",
"{  c #508D0F",
"}  c #4F8810",
"|  c #508710",
" . c #548D11",
".. c #50801D",
"X. c #569111",
"o. c #599313",
"O. c #598A3B",
"+. c #668A60",
"@. c #698B62",
"#. c #729071",
"$. c #7D9883",
"%. c #809A84",
"&. c #86A08D",
"*. c #90A991",
"=. c #95AA9A",
"-. c #9AAD9D",
";. c #9CB19D",
":. c #9CAEA5",
">. c #9DAEA8",
",. c #A8BAAD",
"<. c #AABAB1",
"1. c #B3C1B8",
"2. c #C3CCD0",
"3. c #CAD5D6",
"4. c #CED7DC",
"5. c #DAE1DD",
"6. c #D7DEE5",
"7. c #D9DDE9",
"8. c #DBDFEC",
"9. c #DDE1EC",
"0. c #DEE2EF",
"q. c #DEE1F0",
"w. c #DFE3F0",
"e. c #E3EBE4",
"r. c #E3E4ED",
"t. c #E0E4EF",
"y. c #E0E3F2",
"u. c #E2E6F1",
"i. c #E3E7F2",
"p. c #E5E7F3",
"a. c #E5E8F3",
"s. c #E7ECF2",
"d. c #E4E8F5",
"f. c #E7EAF6",
"g. c #EAEAF5",
"h. c #EAECF4",
"j. c #EBEEF9",
"k. c #EAEEFA",
"l. c #EDEEF9",
"z. c #F0EFF6",
"x. c #ECF2F2",
"c. c #EDF1FD",
"v. c #EEF0FD",
"b. c #EEF2FE",
"n. c #F0F0FA",
"m. c #F1F2FE",
"M. c #F3F4FD",
"N. c #F2F4FF",
"B. c #F4F7FF",
"V. c #F6F7FF",
"C. c #F4F8FF",
"Z. c #F9FAFF",
"A. c #FCFEFF",
/* pixels */
"q : < B C f 8 q C D y 7 h y 8 f f 0 7 0 f y > s Q Q j j Z ] ] C g G C V ' V C Z j g G C g U 5.<.1.h.h.m.m.c.N.C.d.y.0.w.w.d.c.c.",
"< < q m h 0 y D ` P D f M M f j C m y s < > s m V g a g [ ] C g V H D Z { c j g s m F C s 5 -.E @.h.h.l.m.C.C.C.g.0.9.0.8.d.c.l.",
": q 9 0 0 y M B n D M n D D n y M D m 0 < < > j y < < j Q F V V | K j g C H V 9 > j j 8 : 7 r M O.n.l.p.d.c.N.c.d.0.0.d.j.m.c.m.",
"< q : : q C D q y m y n m M C y q q 0 q h B q f < > 9 V C j g c  .W c g g C V s 9 3 > q n h J ' ~ #.s.p.0.s.c.c.u.0.u.N.A.C.B.Z.",
": & & , u J f h M 0 M ` y 0 m M 8 8 q j C F C s 3 3 g V g s s g ] A j m s g f g 9 3 : f C u P X.~ %.s.s.0.u.c.c.r.r.g.m.C.C.C.B.",
"& & , : < 8 < M G D ] ] u 0 n h q g C H D F Q j s s s j 8 8 9 g D j g j 9 8 q g g g g j h r ` o...,.a.0.0.0.u.9.h.N.v.u.r.a.a.a.",
": & X * , : & u y G X.! 8 : q m M H P C D ]  .C g s s s > & > s m 0 f f : 9 g V n m D G n i } o.K k ,.7.9.0.0.9.c.Z.B.r.r.r.r.r.",
", : X * & X : 8 r P o.S : X % 0 y g h D ] { ' P V c c s 9 > & > s < 3 s 9 s g g m 0 7 r u H ' X.[ M t ;.u.0.a.d.m.c.z.z.z.r.e.h.",
": 7 , : $ $ < 7 y } o.K 7 . o 0 8 1 g C [  .` D V S W s s 9 3 3 s 9 9 j g s s g V m 8 N ' ` [ ' ` ` M E <.c.Z.Z.j.0.a.Z.A.B.z.z.",
"7 , : : , , 7 i L ` X.[ M 7 & : & > f u K } D j Z ] ] g s j j g s s j C V g g f i y u ! X.' o.X.` ` [ M / $.*.x.d.9.s.Z.A.N.z.s.",
"& = & : w < N Q ` [ ] ' ` M 8 : : 8 < : u C q g ! [ C g c F P V g j K P C V V n 0 i K X.[ ' o.o.} [ } ' n p _ 6.u.9.r.m.B.n.z.5.",
"o + 3 8 r u ' o.' o.X.` ` ] B r 7 q : 8 9 < > g H Z g V F [ { H V V Q { P V D P P P { [ ` ` X.' [ X.` ` ` R 2.7.0.0.u.s.s.B.Z.e.",
"+ = 9 8 y L  .[ ` o.X.} ' X.` B r 7 n 8 : : 7 D F f 8 G [ [ ' C V C ` ] [ F C V M M P { [ ' o.] ' o.` X.A w ^ 4.w.0.i.j.l.v.3.+.",
"# , & 0 L  .] ` ` X.[ [ X.` ` P M h D 7 : : , C g 8 8 D  .] C g C H P J x q 0 q g y Q [ A N  .Q ' o.} A 8 : e _ ) =.w.m.B.h.:.8 ",
"@ & 2 j C P } } ` X.' } X.` { A < 8 y 0 7 < < f < > s C [ W g g P P C V z 7 7 s f < Q J 8 < ] Z A } X.r < 9 f e E >.7.4.3.3.%.k ",
"1 1 e f i ' ] J N o.Q ' o.} A 7 : 8 7 7 0 r f 0 7 > < G P m a g F C g g C q f B M 7 n y : < M f s C } 8 q C C g =.2.<.T b b I H ",
"< 3 f f < P A 8 7 ] C S |  .r > q g 8 8 y j G f f 0 8 m 0 : 3 s g g q 3 g D P K B m q y B h 0 : & 8 F 0 h ` H V v l ( -.Y x Q ` ",
"t f V C < B i : 7 M f s A | 8 q C m g 9 f D ` D m q 7 8 & : : < 8 8 : 0 m C j S [ L D V C G j > < i 7 f B V j F C f t Y z ' o.' ",
"J L J V m 0 f m h 0 > & 8 G 0 n P H V g g j D D h q y < & : < : < : : < 9 f Z W Q F F W ' H j h h g y B D C j V C h 0 i ` } [ ` ",
"C j S [ L D B C G j > < y 8 f B V j F V j h 8 7 < y G f < < r 7 : 8 7 > < s W Q j j Z ] [ C g F C j ] V C A j g F C g P } } ` ` ",
"g Z W Q F D W ' P j h h f f m D C j V C m g f 7 h C h 7 y M D f 7 g < : q m V g a g | [ C g V H D Z | c j j s m H C m C ` } } ' ",
"s W Q j j S ] [ C g F C V ' V C C j g F C f f y m h 0 y C P ` C j 0 < > > j i > > j H F V V | K j g C H V 3 < 0 0 8 g y ' ] J N ",
"c V g s g ] ] C g V H C Z | c j j s m F D y : 8 0 0 y M n M M y 0 q h B s g 3 > 9 V C V s c o.K m j g C V s < < 8 q h < Q S 7 7 ",
"j i < > j Q F B V | W j g C F m 9 > j j 8 : < < < 8 C D y q y 8 q j C G C g 3 3 g V f s s g ] S j j s f g j s 0 s C M < B y : < ",
"g 3 > 9 m C m g j  .W c j g C V g 3 < < q n h f q 9 u f h h q g C H D F Q g s s s c 8 3 q g D g g j 9 8 q s g G P D V j q y m j ",
"s 3 3 g m h s s g ] S j c s f f s 0 8 : f F D D m q 7 < M C B H H C D '  .C g s s s > & > s V 0 i g : 9 q q j C j Z | H J B C G ",
"j s s g j 8 3 a g G g f j q 8 q 8 M C g m C G P D h < & h q q g g G ] { ' H V c j s a > & > s > 3 g 9 s s q 9 f Z Q Q F D H ! P ",
"Z g s s s > & > s j q i g : 9 j D [ ! F P H C V G P M < q > * 1 g C [ X.P G V K W s s 9 3 3 a 9 q g j s 9 9 < s Q W c j Z ] ] C ",
"H V c j s a > & > s 3 3 s 9 9 q L  .} } o.} H V C m g s 7 $   * f f K ] D j Z ] ] s g j g g s g j Z V s < : s c m g a g ] [ C g ",
"F V S W s s 9 3 3 s 3 q j j q 8 Q o.Q J [ [ ] i s s 1 8 > & > 7 < : u M s s ! [ C g j H H V g j F H V 0 7 , > j i < < j Q F V V ",
"j Z ] ] g s j j g s s j B j i i [ o.K i M ` ] q < 9 q : < < 0 y : 8 9 7 > h F Z g m H [ { H B c A h 0 q h B s g < : 9 V C j g j ",
"s ! { C g j F P m g g 0 8 7 u L ` X.} M 0 n G h < 3 f : : 0 q 0 n 8 : : 7 D F f 8 F [ [ Q C m B f 8 i g Z G C g 3 3 g m j s s g ",
"h P Z g m H [ [ L V m M r x ' ` [ [ ` ` M 0 q r q g f < > 8 h h C 8 : : 7 M h 8 8 D X.] C j C h y g C L D C ' j s a g c 8 3 a g ",
"D F f 8 G [ [ Q C h u n u ] o.' o.X.' ' [ N 0 < < < 7 q < 9 m D f 0 7 < < f < > s C | W g g L L C P P C G '  .C g s s s : & > s ",
"C h 3 8 D X.] C j j i q P { [ ` X.o.[ ' { ` n 0 8 7 : q q f g f 8 f q 0 f 8 7 , 7 G P m a g F f y g g G ] { ' P V j j s a > & > ",
"f < > s C | W g g P G P  .[ ` ` o.' [ o.` ` P M M M 8 : > % o < y h f h G h f 0 8 B 8 : < s g f 8 9 g C [ X.` F V K W s s 9 3 3 ",
"0 7 : 7 F P m s g C C C H  .} ' o.' ] o.' X.A 7 < m M , & X % q f 8 f G ` D m y 7 8 & : > < 8 8 > < f u K ] C j Z ] ] s s j j g ",
"h f 0 8 B 8 < < 8 q g q ! ] A N X.P ' o.| A 7 : 3 8 0 q % * q h q 0 B ` D D f q y < & : < : : : < 7 < : u C s s Q { D g m F H V ",
"D m q 7 7 : , < < f f < H S 3 7 ] S S |  .r > q g 9 < - $ 8 g e < B H C f f 8 y D f < < r 7 < 7 8 q : 9 q 7 > h K Z g m F [ { F ",
"D h 0 y < : < r f C M < B u : < M f s C } 8 q C V s * % > 4 $ @ M y y y : 7 n D h 8 q M D y 7 q q q n 8 & : < D F f 3 F [ { ' C ",
"f 8 y F f 8 s G F F V j q f m j r : : 8 F 0 n ` F V s s s > & > 8 y 8 > < q m h 8 0 D ` ` C 8 g h n C 8 : : < C h 8 8 D X.] V j ",
"7 n C h 7 q j C j W | F J M C F h < < y 8 y B V j F V j f < 7 < & 8 < : q 8 q 8 0 h n n D G 8 8 m D f 8 7 , < h 7 > s C { W g g ",
"y m f 8 q y q g Z W Q F D K ' P j h h g y m C C j V F V g u 8 < : 7 < < 0 & , r M H y y C D h g f f 8 y q 0 h 8 7 : 7 G P j a g ",
"8 q 0 y m 0 > s Q W j j A ] [ C g F C j ' V C F j g F C f f : & < y q : : & 7 M ] Q h D n > : % o < f h h h D h f 0 8 V 0 : 3 s ",
": , y f < > s m V g s g ! [ C g V F C Z { c j j s m F C s > o ; s 0 < & & , 7 P { S M F f < f $ $ q g 8 y G ` D m q 7 < & : > < ",
"& < j 0 < , < g i < > j Q F V V | W j j Z F V 3 < j j 8 : < < < 7 : , : & $ r P o.A u f < < f < q h q 8 M ` D D h q y < & , < : ",
", < 0 q h B y g 3 > 9 m C m g j X.W j j g C V s 3 3 > 0 N f f q 8 : : , : * i } o.K 0 > X $ : 8 g 9 < B H C f f 8 y G f < < 8 7 ",
"< 8 q j C F C s 3 3 g V h s a g ] Z j j s g g j s < > h K J F V a : < 7 < i L ` X.[ M 7 .   * & X % C y y y : 7 n C h 8 q M D f ",
"e g C H D D P j s s g j 8 3 s g G j g j 9 8 q s g s g c C H H C g ; > , N Q ' | [ ` ` M 8 &   & & > 8 q 8 > < q m h 8 f C P ` D ",
"u H P C D ]  .C g s s s > & : s j q q h > 9 g V V V F ` H C V F C u 7 i ] X.' o.{ ` ` } B 8 : < 8 < & 8 < : q 8 8 q y M n M D P ",
"q j g D ] { ' P V c j s a > & > s < 3 s 9 s s g V H [ o.[ H V C h 8 y L } ] ' X.X.{ ] { ' N r 7 0 , : 7 < < q : , y C G q y M G ",
": 8 g C [ X.` G V S W s s 9 3 3 s 3 a j j s s g m D ] [ [ ] i s s e G X.[ ` ' X.' [ X.` ` P h & & & < f q : & & : u D f h D D j ",
"3 q h f K } C j Z ] ] s s g j g s s V C V g g j C V C D P [ 0 3 a c C P { [ ' X.[ } X.`  .C < & O = f 0 , & & , : , 7 < M D h q ",
"8 8 < : u M s s Q [ Z g c H H V g j F H V V V D H C g g j u 0 < q s i ! [ C N  .P ' o.} A 7 : 3 1 3 7 : : : & X * , : & h f < < ",
"0 q : 3 q < > h H Z g m F [ { H V m Q X.H V D P P P g s s 8 7 < f f < Q A 8 4 ' S S  .X.e < q g e < & $ : , : X : * $ : 9 > X $ ",
"q q m 8 : : < D F f 8 F [ [ ' C m D ` ] { Z C V m P q > > < 0 f C M < B y : < M f q C } 8 q C V g 1 # - & : 7 < : X . < < $     ",
"h n C 8 : : < M h 8 8 D  .] C j C P P Q X.V j s 9 m 8 & < s G P D B m 0 f j j r : & 8 L 0 n H F V s s 6 - < < : & & & < : & & $ ",
"m D f 0 7 < < h 8 > s C | W g g H ` C C { c s 3 & 8 7 , 8 j C j Z [ H D M C G n > < y 8 f B V j F C j f < , * $ : 8 0 : & : , , ",
"f f 8 y 0 0 h 8 7 , < G P j a g H C g g H V g 8 & & & , 8 q g Z W Q F C W ' P j f h g f B C C j V Z V f f 1 # 3 0 q 0 : , < 7 : ",
"X < f h f j D h f 8 8 C 0 : 3 s g g q > g V 9 3 q & < 9 < > s W W c c Z [ [ C g F C c ' V C F j g F A f f = ; e f 0 7 0 r 7 , : ",
"$ q g 8 y G ` D m q < 8 & : : < 8 8 : & 3 j 0 : q 9 q 3 > s j m g s s | ] C g V F D C { c g g s m F D s * % < * , 7 8 g f 0 < < ",
"q g q 0 M ` D D h q y < & , < : : : : : : q < , y m 0 < , > j u , 3 j H F m V { Q j g C F V 9 < j j 8 : < < < > $ : 0 h 0 , : 7 ",
"g a < B P C f f 7 y G f < < r 7 : < 7 7 7 : , 8 0 0 q h B s g < > e V C j g c  .W j g f C V f 3 < > q n h f q 3 < 7 q < : : : : ",
"X % M y y q : 7 M C f 8 q M D f 7 h u 8 f f 8 8 0 q j C F C s 3 9 g m j s a g ] Z j m g f g g s 3 > f H C F V s 1 2 d % X X $ o "
};
