/* XPM */
static char *lr_corner1693428976[] = {
/* columns rows colors chars-per-pixel */
"64 64 142 2 ",
"   c #020703",
".  c #030F03",
"X  c #041603",
"o  c #041C02",
"O  c #0A1D03",
"+  c #1A1200",
"@  c #101F00",
"#  c #211600",
"$  c #241800",
"%  c #042502",
"&  c #092202",
"*  c #022D00",
"=  c #092C02",
"-  c #132402",
";  c #132802",
":  c #053301",
">  c #0A3500",
",  c #073802",
"<  c #0C3C02",
"1  c #0E390A",
"2  c #163202",
"3  c #1C3301",
"4  c #123D00",
"5  c #133C13",
"6  c #212901",
"7  c #0E4104",
"8  c #134402",
"9  c #1B4500",
"0  c #164A04",
"q  c #1B4B02",
"w  c #15460E",
"e  c #1D4E0D",
"r  c #1D5204",
"t  c #1F5906",
"y  c #1E4A1C",
"u  c #1F5212",
"i  c #234200",
"p  c #234C00",
"a  c #284E00",
"s  c #245302",
"d  c #285501",
"f  c #255A04",
"g  c #2B5C03",
"h  c #2B5509",
"j  c #235908",
"k  c #2A5F0A",
"l  c #315E04",
"z  c #285217",
"x  c #22501C",
"c  c #266206",
"v  c #2D6304",
"b  c #2D6A06",
"n  c #276108",
"m  c #2B6508",
"M  c #2F6C0A",
"N  c #316504",
"B  c #336C05",
"V  c #386B07",
"C  c #356C0A",
"Z  c #3B6D09",
"A  c #367206",
"S  c #387607",
"D  c #377807",
"F  c #397A07",
"G  c #377708",
"H  c #3C730A",
"J  c #3B7C08",
"K  c #346218",
"L  c #285524",
"P  c #2F522E",
"I  c #315C2C",
"U  c #3B6223",
"Y  c #34622D",
"T  c #3C6733",
"R  c #41760A",
"E  c #437C0C",
"W  c #487D0E",
"Q  c #496C3A",
"!  c #527336",
"~  c #3F6243",
"^  c #476E43",
"/  c #496A4D",
"(  c #517A49",
")  c #557858",
"_  c #5C7961",
"`  c #647962",
"'  c #647E6B",
"]  c #3E8109",
"[  c #43830B",
"{  c #4B850E",
"}  c #4C8A0E",
"|  c #508D0F",
" . c #428214",
".. c #4F8810",
"X. c #508710",
"o. c #538D11",
"O. c #569111",
"+. c #599313",
"@. c #488023",
"#. c #63983D",
"$. c #5E815E",
"%. c #6D954F",
"&. c #6D9C53",
"*. c #749D50",
"=. c #6C8E68",
"-. c #77927C",
";. c #78927D",
":. c #89B072",
">. c #97B977",
",. c #849D89",
"<. c #8FA185",
"1. c #8CA28A",
"2. c #90A188",
"3. c #95AD9A",
"4. c #9EB0A6",
"5. c #A0AFA9",
"6. c #A3B3AD",
"7. c #AABAA9",
"8. c #AEBEB8",
"9. c #AEC0B7",
"0. c #B5C1BC",
"q. c #B6C4C2",
"w. c #BAC5C3",
"e. c #BDC8CA",
"r. c #C5CFC7",
"t. c #C6D2CB",
"y. c #D5DDDA",
"u. c #DADEE5",
"i. c #DBDEEA",
"p. c #DDE4E5",
"a. c #DEE2EC",
"s. c #E1E4ED",
"d. c #E8EDEB",
"f. c #E2E5F1",
"g. c #E6E9F3",
"h. c #EAEDF6",
"j. c #EBEEF9",
"k. c #EDF1F5",
"l. c #EEF1FC",
"z. c #F2F5FD",
"x. c #F6F9FE",
"c. c #FAFDFF",
/* pixels */
"k.x.x.x.x.c.c.z.s.s.s.s.f.s.f.l.c.y.K s B S s g A V N [ k B S d B } { V g g E R p < r s 8 7 0 s s 8 r f 7 s A b q 8 s B c 7 : q ",
"x.x.x.k.x.c.c.z.u.a.i.s.f.f.f.s.d.0.5 s B S v p g g l | V A H N d A } { d i d N v p > 4 p s v A g r f c s B ] ] A r 0 f v r < > ",
"k.k.k.k.x.k.k.h.g.g.h.j.h.f.s.;.L L < , 8 g s > 4 N S B d g R X.N N S E g < < r g > , 7 0 m B v 0 c r f A ] S c c b r 0 q 8 q , ",
"s.y.d.x.k.a.u.d.c.x.x.x.l.u.' z q s j c q > 0 0 d N B d d g R o.l s g B N 9 , 4 s r c f 8 q r q r 0 b D J S b r r A N r , : q > ",
"d.s.d.j.h.s.s.g.x.z.x.x.l.i.;.U v A S S r 7 B B d d s p k g B { d p s f N d 4 4 p V S V g q 8 8 b A ..H J k A A f f G t , * * , ",
"z.z.h.s.s.z.z.h.g.g.j.z.z.l.y.%.A F S V m B { R s p 4 9 v d g A d 9 4 8 g p p a g ] A A F B g 0 r D O.J G 0 f S b , 8 , : , * * ",
"c.c.z.u.s.z.c.j.s.s.h.z.z.p.#.E A N B M c J O. .N g 9 > s r q v p > * > p p a d C o.[ A B F F t 7 J +.H r < < s f * : , * O * : ",
"c.c.j.s.s.j.z.j.s.s.h.k.r.! d N B N S H 0 J O.E p p p 9 s 4 < p > * > i p g g N J [ | { B s j 0 t } +.H 0 % X > 9 , o * = O * , ",
"l.9.8.a.a.f.f.f.s.f.h.l.y.<.2.! q q [ C e ..+.J 0 9 p g g 9 4 p 4 4 9 p a R H N A ] O.E 0 7 7 r F ] O.| M 1 . % < < X o : < 7 : ",
"t.T =.f.f.f.a.a.f.g.h.j.i.5.7.Q 7 7 8 t F ] O...b 0 s m V l d p d g d a p { { V g V } H 0 7 n E ] ..} ] F b 7 : : 7 : * * * , 7 ",
"Y M :.a.f.l.z.l.g.h.u.a.4.1 s 8 7 7 k ] ] | [ [ J b r f J S g d N J F l d A } W p p c 0 , t [ +.] +.| [ ] } m 0 : , 0 8 , % & > ",
"@.} >.a.a.x.c.x.j.j._ y x 7 q 9 7 t W O.[ +.O.[ ] } m f m v g v S | } S v d V F f > 7 7 r J ..} ] +.+.| [ | [ n 0 , 0 q q 4 + - ",
"] O.3.d.f.l.x.l.j.j.e.) 8 q 7 7 r F o.} ] +.+.} { o.] c 0 t B m V [ | } S 4 j A B 7 : 8 G o.} ] ] +.} } O.] ] J b 8 7 0 s 9 ; 4 ",
"] +.*.0.l.f.a.f.l.j.5.~ 7 q , r G o...] [ +.[ { O.] ] ] D A J A g b { o.S 8 8 f B < 8 v B J ....[ +.[ [ +.] O.M 7 > 7 7 , * , 0 ",
"..+.J T e.f.i.f.l.g.' 5 : 7 r v B J ....] +.{ } O.] O.b 7 < G J d d R | B p < < 0 < 0 s r W { C n o.[ [ +...C 8 , 4 7 < = @ , e ",
"] O...M I q.f.f.f.g.q.I , 7 s s r [ } A c O.E  .+...C 7 , 4 r r 9 p v J S < > 7 < 7 r s < J C 8 8 [ C Z X.O.0 > 9 s 0 7 < < r F ",
"O.} [ ] b T 6.g.i.a.w.P < 8 q f < E Z 4 7 { V B X.o.0 , q h 9 8 9 < , 0 m 8 8 s 0 r B B < m r , < b s q B } 8 q V m s 9 > k E [ ",
"+.| [ ] } m ( -.,.y.a.` 8 r B B < m r : < b s p B } 8 q B N d 9 4 < * * 8 7 q d S J A N v 0 s v g 0 , * 8 S 0 n ] B r q j E +.] ",
"+.+.} [ | ] c u $.p.1.h A J A N v 0 r v f 0 , * 0 S 0 c J S N s p 9 > : < 0 q v N v V { J A N N F g > < r 8 j m v s 0 r J O.} ] ",
"O.[ } O.] ] ] &.s.3.e k B g V } F A b B G g > < r 7 s v N g S N k d < < r m 8 q s V E E A A R [ J k s f d r v A N g b J ..} ] ] ",
"+.[ } o.] o.M w / 8.x q a V R E S S H [ J g f f d r v A B g N B N d s 0 8 p r < p R E g g Z { } B s S B g [ N B A v v B ] ....[ ",
"o.E W +.| A 7 , w ^ L 4 p W R g g V { } A s S V l [ N V V g d S B d f b s < > 9 v N g i a X.} B d N S A V W q 0 8 q s r [ { A n ",
"{ V V X.O.w , q s 9 < 9 k N d p d { { V d N D A V o.l g g p k S B s < v q < > > g r > < g F S m N X.R g d N r < 8 p j > E C 7 < ",
"b s p C X.8 q C N d 4 4 g r < < g J S N N X.S g d B S v 9 > g g 8 , < q q f c r d < > 9 N B N p l O.R g g d m q p B A 4 c r , < ",
"0 , * 8 D 0 c ] F v d p p 4 , q N V v s l o.R k d d V N s 4 4 > 0 q 8 q g V S B a 4 4 d N s s p s { V v v p s A F S N g q r v g ",
"c > < r 7 s b N g S N g f < < p l f p p d { V g l a q r g i 4 > 0 q g B F A A J g p a a k 7 8 9 s A g s r q g B g C | H A b B S ",
"g s f d r v V B g N A N s s q p g 8 4 9 s A g d g 9 0 0 a s s d g B J F B A [ o.V d p p i 0 7 > p N q q s < q s V W E S S H [ F ",
"f S B l [ N B A g s D V s j p p p > * > p v 0 r f 7 b A v N N S n r f g A } O.[ F B k s 0 b f * > p < 4 p 4 > p E R g g V { } B ",
"N F B V | l g d p v S B r > s d p 9 > * > p < 4 s B { R g m D } E B v g N { +.] S N H R B ..Z < 4 p 9 p < > p v m g i s { } V s ",
"| H g d V S l 9 < g g 9 , < 8 0 9 p 9 4 4 i 4 9 r F o.W d N A { ..{ C f r G } V g B H v F o.W g d a g 0 7 , > g r > < v J H N N ",
"o.R l g d B N s 4 4 > 0 f s f q 9 0 d g d p s j 0 J +.H s B m N b m 8 < : f B 9 p W H 0 ] O.E b g 0 q 9 f c p d 4 , 9 N V g s l ",
"{ V g l p s f d p 4 > s F A A v s q G F v p g f r ..+.H 0 A m 8 7 0 q : 8 q 7 > j G t e o.+.H e q 0 q f B S V d 4 4 d v f p p d ",
"A f s v i 8 9 p a s d v B D J B B F } W w 7 7 t J ] O.| M r M r r q 0 c 8 : : 7 8 7 r J ] O...M 0 r B D A A J d a p s g 8 4 9 d ",
"v q r s > 9 g N N N S ] F B N S J ] } J c 8 n ] ] | [ ] ] b r < 9 s c B 8 : : < 7 k  .] } } ] F b t b B A { o.B d p a p > * > p ",
"p < 4 s 9 p p g N F | +.} F B N m d s r r f [ +.[ +.| [ ] [ b 0 8 r A r 0 7 < < t [ O.[ O.o.[ ] } m r t b ..[ J N g g p i > * > ",
"p 4 9 g g p p s N A [ } } { r p g Z k 7 r J | } ] +.O.} } | [ n 0 8 s 8 r 0 7 t J | } ] +.O.} } | [ c 0 j o.J S N H R a p 9 4 4 ",
"a a g V N d d g B v B A J } 9 4 s A s s J o...] ] +.[ ..O.] ] J f & > s f s v F | } ] [ +.[ } O.] ] J b C { A g V { { p d g g d ",
"d g S J N N N V F B s d B S g < 4 s 8 g B J ....[ +.[ } +.] O.b < * 8 f 8 f N B ] } } [ +.[ } O.] O.C < , b p p W } V d g F F N ",
"N N E | F B A ] ] J d p s s 0 8 0 8 0 s r E { C n o.] { +...C 8 > 4 8 7 7 r s r W { C c o.E W +.} C 8 : 4 < < r F V d v S } | H ",
"N A J } | A N N v J 9 > > > , < < < s s < E Z < 8 [ V C o.O.w > 9 s 8 7 7 p f < E C 8 < { V V X.O.0 , q s 0 7 n S s 8 S } } [ B ",
"B F F E +.N d p 9 v 8 * * 4 q q 0 s N B < c r > 7 b f 9 B X.8 q V m s q p N M < m r , < b s q B ..8 q B N s 8 B f 8 9 A O.{ N g ",
"F J B B | l a 4 * 8 < , > s s d G F S N v 0 r v g 0 , * 8 G 0 c ] F N g p g N g 0 t v g 0 , : 8 G 0 c J F N a p 9 > q B | R d s ",
"S B g d F B d 4 * * * , 7 7 0 v b g Z X.F A B B S f > < r 8 s N N g S N g f r 0 c b B S g > < r 8 r b N g S N g f < 7 m F k p d ",
"d g 9 < d N 9 4 q : , q q : 7 0 s V E E S A R [ J g f f d r c A B d N A B s t f m R [ J g f s g s m V N g N A b d r 8 c 8 > 4 p ",
"8 8 , * < g 8 : 0 8 7 q s 8 4 > p R R g g V { { B d S B l [ N B A g d S B s s g V { } B f A B g [ N V A g d S B s s 7 8 : : , > ",
", : * : : q 8 > q v f r p 4 > p N N d p s { } V d N S V Z X.l g g p N S V p , 9 W { V d N F A V | l g g p N S V q , 0 < * > > : ",
"* < 8 7 7 , , 8 f S J v q < < > g r < < v E S m N X.R g d B G v 9 < g g 8 , < 7 0 f v N X.H g d V S v 8 > g g 8 > < 8 7 7 , 0 7 ",
"7 f r 8 s s 0 7 0 r r 0 q f c q d < > 9 v B g s l O.R g g d B N p 4 4 > q c s f q 9 0 g o.R l g d B N p 8 4 > 0 n f f q 8 r A s ",
"s b b s f A v q q q 8 q g V S B a 4 9 d N s p p d { V g N p s g d i 4 > s F A S v p 8 s { B v g p s f d i < > s F S A v s f J A ",
"A A A v q b A c 0 q g B F A A ] g p p p g 8 8 i s S g s g 9 8 9 d d p d v B F J V g s d A g d k 9 8 9 d d s d g V F F A b b A ] ",
"] v v A r r A m 8 A F F B A [ o.V s p a p > * > p v 0 q s > 9 g v N N S ] F N N S J b s k q s s > 9 g N N N F ] F N N S J S b S ",
"D r 0 v D 0 c c > q f g A } o.[ J N l d p 9 > * > p < 4 a 9 p p d N F } O.} F N B v g i p < 4 p 9 p a d N F } +.} F N B v d d f ",
"D t 0 v F < q f < = 3 d B { O.] S N Z R a p 9 4 8 p 4 p d g p p d N A [ } } { r p s 4 i p 4 9 g g p p d N V [ } } { q s g N s q ",
"v 7 > 0 v v g 9 : o % j r H } B k B { { d a d g d p a l B N g s g B N B A E } q < p g 9 p p N B N d s g B v N A [ } 0 4 q s , > ",
"0 = X & f b s > * , 8 < : r B p p W } V d g F F N d g S J N N N A J N d d N D g < 8 s , q g A J N N N A J N s d B S g < 8 s , % ",
": o   O q 7 O , < 0 q > 8 q < , g F A d N S { | S N g E o.J B V J J F g p s s 8 q s s < 7 > 0 ..J B V J ] J g p s p 8 0 s s 7 > ",
"X o * * * * * : 0 q 0 c 8 : : < A S s 8 A } | [ B N A ] } | V B N N J q > > > < < > 7 r 8 0 B { | V B B v J q : > > , < > 8 q 8 ",
"% % : , * * : : 9 s c A 7 : : < b f 8 8 A o.{ N g B J F E +.N d p 9 m 8 * * 8 0 r 7 , q < 8 v J O.N d p 9 v 8 * * 4 0 r 7 , q 7 ",
"* : < < * : 7 > 9 v A s 0 7 , < s 7 > q B } E d d F J B B | l p 4 * 9 4 , > s s B b 0 7 : : 8 B o.l p 4 * 8 < , > s g A b 0 7 : ",
"* < 7 , : > 8 q s s s 8 r q 0 f 0 7 > 7 S J k p s S A d d H B d 8 * * * , 7 7 s f v A 7 : 0 d g J N d 9 * * * , 7 7 s s m A 7 * ",
": q r < * , > , & O < q d s v A f s 0 8 m 8 > < p d g 9 < d N 8 < q : , 0 q : 7 > 0 v s O 2 9 > d N 8 4 q : : 0 q , 7 > 0 v s O ",
"< q d r < < 4 9 & = 9 g 8 s A ] A v r < 8 * : , 4 8 4 > * < g 8 , 0 8 7 q s 0 q > % ; - O = , * 4 g 8 : 0 8 7 q s 8 r > % ; ; o ",
"6 6 i a 6 - 4 8 8 q f q 0 c ] A A s q r < * : , : , : : : : q 7 > q v f r r g s 8 = X X > , : : : q 4 > r v f r s g s 8 = . X > ",
"# + 3 p $ + - * 8 s q 7 c D A s s 8 r A s < < 0 7 : < 7 7 7 > > 8 f A ] c 0 s < q 9 * 7 q < : 7 7 > , 8 f A ] v 0 q 7 q 8 : 7 9 "
};
