/* XPM */
static char *_b55926e478646c6dce29d3858603f853kb6XZczffGE3pG4[] = {
/* columns rows colors chars-per-pixel */
"64 64 77 1 ",
"  c #1E1D24",
". c #1F1D2A",
"X c #201F27",
"o c #211E2A",
"O c #1F2025",
"+ c #1F2229",
"@ c #222126",
"# c #23232B",
"$ c #28272F",
"% c #25282E",
"& c #262932",
"* c #2B2B33",
"= c #272D39",
"- c #2C2E3A",
"; c #2C303C",
": c #32333D",
"> c #38373F",
", c #3A3941",
"< c #3C3C4A",
"1 c #595D6C",
"2 c #595E71",
"3 c #5C6377",
"4 c #5E6679",
"5 c #5F6879",
"6 c #606277",
"7 c #616679",
"8 c #636B7D",
"9 c #696F7F",
"0 c #676E81",
"q c #696E81",
"w c #6C7485",
"e c #6F748A",
"r c #717986",
"t c #71768A",
"y c #757B8E",
"u c #767E91",
"i c #778091",
"p c #7A8395",
"a c #7E8698",
"s c #818799",
"d c #83899D",
"f c #ADAFBB",
"g c #ABB1B8",
"h c #B5B5B5",
"j c #B1B1BD",
"k c #BBBBBB",
"l c #B3B7C2",
"z c #B3BAC5",
"x c #B9BDC6",
"c c #B5BDCA",
"v c #BABECA",
"b c #B7C0C7",
"n c #BDC0C7",
"m c #BCC2CC",
"M c #BBC3D0",
"N c #C1C1C1",
"B c #C1C5CF",
"V c gray81",
"C c #C3C7D0",
"Z c #C5CCD5",
"A c #C9CED4",
"S c #C7CED8",
"D c #CACED8",
"F c #CDD1D6",
"G c #CDD2DA",
"H c #D7D7D7",
"J c #D2D5DB",
"K c #D4D9DF",
"L c #D5DAE0",
"P c #D8DCE0",
"I c gray90",
"U c #E4E6EB",
"Y c #E7E8EC",
"T c #F5F5F5",
"R c #F4F6FA",
"E c #F6FAFB",
"W c #FEFEFE",
/* pixels */
"WWEWWWWWWWWWWWWWWWWWWWWWTWWWWWWWWWWEWWWWWWWWWWWEWWWWWWWWWWWWWWWW",
"WWWWWWWWWWWWWWWWWWWWWWWWWWWWWWWWWWWWWWWWWWWWWWWWWWWWWWWWWEWWWWWW",
"EWWWWWWWWWWWWWWWWWWWWWWEWWWWWWWWWWWWWWWWWWWWWWWWWWWWWWWWWWWWWWWW",
"WWWWWWWWWWWWWWWWWWWWWWWWWWWWWWWWWWWWWWWWWWWWEWWWWWWWWWWWWWWWWWWW",
"WWWWWWWWWWWWWWWWWWWWWWWWWWWWWWWWWWWWWWWWWWWWWWWWWWWWWWWWWWWWWWWW",
"WWWWWWWWWEWWWWWWWWWWWWWWWWWWWWWEWWWWWWWWWWWWWWWWWWWWWWWWWWWWWWWW",
"WWWWWWWWWEWWWWWWWWWWWWWWWWWWWWWWWWWWWWWWWWWWWWWWWWWWWWWWWWWWWWWW",
"WWWWWWWEWWWWWWWWWEWWWWWWWWWWWEWWWWWWWWWWWWWWWWWWWWWWEWWWWWWWWWWW",
"WWWWWWWWWWWWWWWWEWWWWWWWWWWWWWWWWWWWWWEWWWWWWWWWWEWWWWWWWWWWEWWW",
"WWWWEEWWWWWWWWWWWWWWWWWWWWEWWWWWWWWWWWWWWWWWWWWWWWWWWWWWWWWWWWWW",
"WWWTWWWWWWWWWWWEWWWWWWWWWWEWWWWWWWWWEWWWWWWWWWWWWWWWWWWWWWEWWWWW",
"WWWWWWWWWWWWWWWWWWWWWWWWWWWWWWWWWWWWWWWWWWWWWWWEWWWWWWWWWWWWWWWW",
"WWWWWWWWWWWWWWWWWWWWWWWWWWWWWWWWWWWWWWWWWWWWWWWWWWWWWWWWEWWWWWWW",
"WWWWWWWWWWWWEWWWWWWWWWWWWWWWWWWWWWEWWWWWWWWWWWWWWWWWWWWWWWWWWWWW",
"WWWWWWWWWWWWWWWWWWWWWWWWWWWWWWWWWWWWWWWWWWWWWWWWWWWWWWWWWWWWWWWW",
"WWWWWWWWWWWWWWWWWWWWWWWWWWWWWWWWWWWWWWWWWWWWWWWWWWWWWWWWWWWWWWWW",
"WWWWWWWWWWWWWWWWWWWWTWWWWWWWWWWWWWWWWWWWWWWWWWWWWWWWWWWWWWWWWWWE",
"WWWWWWWWWWWWWWWWWWWEWWWWWWWWWWWWWWWWWWWWWEWWWWWWWWWWWWWWWWWWWWWW",
"WWWWWWWEWWWWWWWWWWWWWWWWWWWWWEWWWWWWWWWTWWWWWWWWWWWWWWWWWWWWWWWW",
"WWWWWWWWWWWWWWWWEWWWWWWWWWWWWWWWWWWWWWWWWWWWWWWWWEWWWWWWWWWWTEWW",
"WWWWWWWWWWWWWWWWEWWWWWWWWWWWWWWWWWWWWWTWWWWWWWWWEWWWWWWWWWWWWWWW",
"WWWWEWWWWWWWWWWEWWWWWWWWWWWTWWWWWWWWWEWWWWWWWWWWWWWWWWWWWEWEWWWW",
"WWWWWWWWWWWWWWWWWWWWWWWWWWWWWWWWWWWWWWWWWWWWWWWEWWWWWWWWWWWWWWWW",
"WWEWWWWWWWWWWWWWWWWWWWWWETWWEWWWWWWEWEWEWWWWWEWWWWWWWWWWWWWWWWWW",
"WWWWWWWWWWWWWWWWWWWWWWWRFAUUUUUYUUGSZSSGWWEWWWWWWWWWWWWWWWWWWWWW",
"WWWWWWWWWWWWWWWWWWWWWWWRmmLLPKKHKJmmmMbmEEEWTEWWWWWWWWWWWWWWWWWW",
"WWWWWWWWWEEWWWWWWWWWACDMe0wwssddddssapwrBGZFWWWWWWWWWWWWWWWWWWWW",
"WWWWWWWWWWWWWWWWWWRRBmMc0444ppppyppupi50cmbBTWWWWWWWEWWWWWWWWWWW",
"WWWWWWWWWWWWWWWWWWJmr90w4089paspaappap05w89eCJWWWWWWWWWWWWWWWWWW",
"WWWWWWWWWWWWWWWWRRmz94444477tyuyyyyuut558450cMREWWWEWWWWWWWWWWWW",
"WWWWWWWEWWWWWWWWDMe98504&++&*&#+#%#%#*&*49480rmJWEWWWWWWWWWWWWWW",
"WWWWWEWWWWWWWWWEZc953342o.##X      . X#%274387vCTWWWWWWWWWWWEWWW",
"WWWWWWWWWWWWWWWTSmw3&X##X#%#XX XXX ##oXX#@#*2tcZEWWWWWWWWWWEWWWW",
"WWWWWWWWWWWWEWWWZmq1%  . XX  X X X###XXXo  X1qvSEWWWWWWWWWWWWWWW",
"WWWWWWWWWWWWWWWEGl;+  XoXX  XXX  X##XXX XX @ =lSWWWWWWWWEEWWWWWW",
"WWWWWWWWWWWWWWWWGv;#@  XXX X  X XX##  XXXX X&,vDEWWWWWWEWWWWWWWW",
"WWWWWWWWWWWWWWWWETnj* X X  X  XXXXX  X X   #gbTTWWWWWWWWWWWWWWWW",
"WWWWWWWWWWWWWWWWEWHm<-*#oXXX  XX XXXXX X*%-<vHWWWWWWWWWWWWWWWWWW",
"WWWWWWWWWWWWWWWWWWTExlvgX X       X X  #gmlxEWWWWWWWWWWWWWWWWWWW",
"WWWWWWWWEWWWWWWWWEWEFDFv>$***:*******$$,bGAJEEWWWWWWWWWWWWWWWWWE",
"WWWWWWWEWWWWWWWWWWWEWWTTbzzzzbJJFJJJxlzbTTWEWWWWWWEWWWWWWWWWWWWW",
"WWWWWEWWWWWWWWWWEWWWWWWWFFSZSFIYYYUUFASFWWWWWWWWWWWWWWWWWWWWWEWW",
"WWWWEWWWWWWWWWWEWWWWWWWWTEEEEEWEWEWWTTTEWWWWWWWWTWWWWWWWWWWWWWWW",
"WWWWWWWWWWWWWWWWWWWWWWWWWWWWWWWWWWWWWWWWWWWWWWWWWWWWWWWWWWWEEWWW",
"WWEWWWWWWWWWWWWWWWWWWWWWWWTWWWWWWWWWWWWWWWWWWWWEWWWWWWWWWWWWWWWW",
"WWWWWWWWWWWWWWWWWWWWWWWWTWWWWWWWWWWWWWWWWWWWWEEWWWWWWWWWWWWWWWWW",
"WWWWWWWWWWWWWWWWWWWWWWWWWWWWWWWWWWWWWWWWWWWWWWWWWWWWWWWWWWWWWWWW",
"WWWWWWWWWWEWWWWWWWWWWWWWWWWWWWWWWWWWWWWWWWWWWWWWWWWWWWWWWWWWWWWW",
"WIWWWWWWWWEWWWWWWWWWWWWWWWWWWWWWWWWWWWWWWWWWWWWWWWWWWWWWWWWWWWWW",
"TkEWWWWWWEWWWWWWWWWWWWWWWWWWWWWEWWWWWWWWWWWWWWWWWWWWEWWWWWWWWWWW",
"TkTWWTWWWWWWWWWWWWEWWWWWWWWWEWWWWWWWWWWWWWWWWWWWWWWWWWWWWWWWWWWW",
"EhWWWWWWWWWWWWWWWWWWWWWWWWWWWWWWWWWWWWWTEWWWWWWWWWWEWWWWWWWWWEWW",
"ThWWWWWEWWWWWWWWEWWWWWWWWWWWWWWWWWWWWWEWWWWWWWWWWEWWWWWWWWWWEWWW",
"TkEWWTWWWWWWWWWWWWWWWWWWWWEWWWWWWWWWWWWWWWWWWWWWWWWWWWWWWWWWWWWW",
"ThWWWWWWWWWWWWEWWWWWWWWWWWWWWWWWWWWWWWWWWWWWWWWWWWWWWWWWWWWEWWWW",
"THWWWWWWWWWWWEWWWWWWWWWWWWWWWWWWWWWEEWWWWWWWWWWWWWWWWWWWWEWWWWWW",
"TNEWWWWWWWWWWWWWWWWWWWWWWWWWWWWWWWWEWWWWWWWWWWWWWWWWWWWWWWWWWWWW",
"WNTWWWWWWWWWWWWWWWWWWWWWWWWWWWWWWWWWWWWWWWWWWWWWWWWWWWWWWWWWWWWW",
"ThWWWWWWWWWWWWWWWWWWWWWWWWWWWWWWWWWWWWWWWWWWWWWWWWWWWWWWWWWWWWWW",
"WVTWWWWWWWWWWWWWWWWWWEWWWWWWWWWWWWWWWWWWWWWEWWWWWWWWWWWWWWWWWWWW",
"ThTWWWWWEWWWWWWWWWWWWWWWWWWWWWEWWWWWWWWWWWWWWWWWWWWWWWWWWWWWWWWE",
"WhEWWWTWWWWWWWWWWWEWWWWWWWWWWWWWWWWWWWWWEWWWWWWWWWWWWWWWWWWWWWWW",
"TkWWWWEWWWWWWWWWWWWWWWWWWWWWWWWWWWWWWWWWWWWWWWWWWWWWWWWWWWWWWWWW",
"WTWWWEWWWWWWWWWWWEWWWWWWWWWWEWWWWWWWWWWEWWWWWWWWWWEWWWWWWWWTWEWW"
};
