/* XPM */
static char *player_ds1693492153[] = {
/* columns rows colors chars-per-pixel */
"64 64 120 2 ",
"   c #14657C",
".  c #4A4A4A",
"X  c #646464",
"o  c #75767B",
"O  c #77797D",
"+  c #B53939",
"@  c #B93E3E",
"#  c #A74A4B",
"$  c #BC4141",
"%  c #BC4B4B",
"&  c #BC5D5D",
"*  c #C64E4E",
"=  c #C84E4E",
"-  c #CD5454",
";  c #C35B5B",
":  c #CC5B5B",
">  c #D35B5B",
",  c #CE6262",
"<  c #D46464",
"1  c #DB6464",
"2  c #DA6B6B",
"3  c #DF7373",
"4  c #8E8318",
"5  c #EAD61A",
"6  c #7C7D82",
"7  c #1A87A5",
"8  c #7E8085",
"9  c #36BADF",
"0  c #818286",
"q  c #84858B",
"w  c #87888D",
"e  c #8A8A8F",
"r  c #8E8E95",
"t  c #8E9096",
"y  c #909297",
"u  c #93949A",
"i  c #97999F",
"p  c #999B9D",
"a  c #B09484",
"s  c #BB9985",
"d  c #B29788",
"f  c #BA9C8A",
"g  c #A48D92",
"h  c #A79196",
"j  c #AA959A",
"k  c #AD999E",
"l  c #9A9BA3",
"z  c #9F9EA8",
"x  c #AD9BA2",
"c  c #B19DA2",
"v  c #9FA0A5",
"b  c #A3A4AC",
"n  c #A7A9AF",
"m  c #B1A5AD",
"M  c #B7AEAE",
"N  c #ABACB4",
"B  c #AEB0B5",
"V  c #B2B4B6",
"C  c #BAB3B3",
"Z  c #B3B3BB",
"A  c #BDB6BF",
"S  c #C8A48E",
"D  c #C2A493",
"F  c #E5BCA5",
"G  c #F7CDB5",
"H  c #FCCFB4",
"J  c #FFD1B6",
"K  c #FDD4BB",
"L  c #BAB7C3",
"P  c #BCBDC5",
"I  c #BEBFC9",
"U  c #C0BBC5",
"Y  c #C1BFCA",
"T  c #BEC1C7",
"R  c #BFC0CA",
"E  c #C2C0C7",
"W  c #C3C4CC",
"Q  c #CAC8CE",
"!  c #D4CACA",
"~  c #D7D2CF",
"^  c #DED2CB",
"/  c #C5C5D1",
"(  c #C8C6D1",
")  c #C7C9D5",
"_  c #CBCBD4",
"`  c #CDCEDA",
"'  c #CFD0DD",
"]  c #D4D4D3",
"[  c #D3D4DB",
"{  c #D5D8DD",
"}  c #DCDCDC",
"|  c #E9D1C4",
" . c #E0D2CA",
".. c #D6D7E6",
"X. c #D8D7E3",
"o. c #D6D8E4",
"O. c #DBDDE5",
"+. c #D6D7E8",
"@. c #DCDEEB",
"#. c #DEE0E7",
"$. c #DEE1ED",
"%. c #DEE3F1",
"&. c #E0E1E7",
"*. c #E2E4EE",
"=. c #E7E9EE",
"-. c #ECECEC",
";. c #E3E5F2",
":. c #E8E7F5",
">. c #E6E9F4",
",. c #EAEBF5",
"<. c #E7E9F8",
"1. c #ECEDFA",
"2. c #F0EFF6",
"3. c #EEF1F6",
"4. c #EEF1FC",
"5. c #F0F1F7",
"6. c #FBF3F3",
"7. c #F2F4FD",
"8. c #F6F9FF",
"9. c #FBFCFF",
/* pixels */
"3.8.9.5.8.9.9.4.$.$.$.%.>.$.;.7.9.5.;.*.2.9.7.:.:.2.7.7.4.7.9.4.4.2.>.,.9.9.9.8.6.,.=.6.9.9.5.9.2.:.:.7.7.4.4.8.%.%.%.%.$.>.4.4.",
"8.8.9.5.8.8.9.8.#.#.#.$.>.$.;.1.9.4.*.*.:.7.9.2.:.:.2.2.9.9.7.2.4.,.=.3.9.9.9.8.2.2.=.2.9.9.9.9.2.1.:.2.7.8.8.8.>.%.$.$.$.%.4.1.",
"3.-.-.5.7.3.3.3.>.>.3.,.:.;.;.:.,.2.:.,.2.2.:.:.:.:.7.2.2.2.5.4.7.1.>.,.9.9.6.3.2.2.2.5.9.9.5.,.2.1.1.:.<.7.7.4.1.%.$.<.<.4.4.4.",
"=.#.$.8.3.#.#.>.8.9.8.8.7.>.$.*.&.,.7.9.7.*.*.:.:.1.9.9.:.*.2.7.7.h g :.8.8.3.,.,.5.9.7.7.2.,.=.4.9.7.>.$.%.4.4.%.$.%.8.9.8.8.8.",
"=.#.=.3.,.$.$.>.8.4.8.8.4.>.;.$.>.,.8.8.1.&.*.1.:.2.7.7.2.;.2.c k $ $ h k k j j j c 9.5.2.1.,.,.,.7.4.>.$.>.3.4.$.%.,.7.8.8.7.8.",
"8.8.3.$.>.3.7.,.>.=.4.8.7.4.5.1.5.,.2.7.,.*.*.>.:.;.$.:.4.c c $ $ - - * @ $ $ $ $ $ x 4.8.8.,.*.*.:.>.%.$.$.%.$.4.7.4.>.=.>.>.=.",
"8.9.3.#.$.8.8.4.$.$.,.7.7.7.8.8.4.4.2.7.1.;.*.;.;.*.X.x m $ $ > - 1 1 - - > - - - - $ c 7.8.>.@.*.$.$.#.$.$.$.#.4.8.7.*.&.*.&.&.",
"9.8.4.$.$.3.7.3.=.$.1.3.4.4.7.4.7.7.7.2.:.*.;.<.;.:.m $ $ - - 1 1 1 1 1 1 1 > 1 1 1 > $ c A ;.1.>.>.=.>.%.%.>.,.3.7.5.,.,.,.=.,.",
"8.8.3.$.$.=.%.$.%.=.,.4.,.#.$.4.9.9.8.8.,.;.;.1.1.C * = - 1 1 1 1 1 1 1 1 > = > > 1 1 - $ + / 7.4.<.4.1.>.4.9.8.4.$.=.8.9.9.3.,.",
"8.8.<.%.%.%.%.$.$.>.>.4.<.$.$.7.8.8.8.8.4.;.;.1.U + 1 = 1 1 1 1 1 1 1 1 1 - = @ @ - 1 1 = @ ( 1.4.4.4.1.>.4.8.8.>.$.>.8.9.7.2.5.",
"4.<.>.$.%.7.8.4.,.<.4.8.4.%.=.8.8.7.3.,.*.$.%.<.+ $ 1 1 1 1 1 1 1 1 1 1 1 1 = = = + > 1 - @ Y >.>.>.,.3.7.4.<.<.%.$.%.7.8.1.5.9.",
">.,.%.#.%.8.8.8.4.4.7.8.8.4.4.8.9.7.%.%.#.$.@.R ; 1 = 1 = 1 1 1 2 1 1 1 1 1 = = = ; # > 1 $ L ;.$.#.$.4.8.4.$.#.$.$.>.>.:.7.9.9.",
"%.>.<.%.%.4.8.4.1.4.4.4.4.4.4.4.7.3.>.>.>.;._ ] 9.1 = 1 1 1 = 1 1 1 > 1 1 = = = < 6.W # > $ L >.>.>.>.3.7.4.%.%.%.$.>.<.1.7.7.7.",
"%.$.%.8.4.%.%.>.4.4.<.%.>.%.%.%.$.=.<.4.1.[ ] ] 9.< 1 = 1 1 1 1 = 1 = = = = = = 6.9.} & 2 % I 4.3.8.8.>.$.>.4.4.>.@.%.4.7.>.;.%.",
"$.$.%.8.4.%.$.%.4.1.>.$.%.%.%.%.#.%.<.4.>.] -.] 9.9.3 1 = - 1 1 1 = = = = = = , 6.8.} ] 9.} Q 4.7.9.7.;.@.%.4.4.%.$.%.4.4.>.$.$.",
"%.3.<.%.>.%.%.>.>.>.%.%.<.4.4.<.<.,.,.>.;.] -.} ] 9.9.: 2 1 = = = = = = = > : 6.9.} -.6.9.9./ 4.7.,.4.4.>.>.<.<.%.%.;.%.>.1.4.1.",
"4.4.<.%.%.%.%.>.#.#.$.$.>.8.9.4.9.7.>.@.*.] -.} -.] 9.9.9.: : : : : : : > 6.9.8.} } -.] -.] W 9.7.>.>.1.7.1.$.$.;.$.;.@.O.:.9.8.",
"1.4.<.%.%.<.>.%.%.>.%.>.,.7.9.7.7.1.>.;.>.] -.-.-.} ] ] 9.9.9.9.9.9.9.9.9.9.] ] -.-.-.} Y :.4.7.1.<.1.1.1.>.;.;.$.;.>.*.*.,.7.7.",
"%.<.%.$.%.1.3.1.8.4.4.7.7.,.,.,.;.:.4.1.1.] -.-.} -.-.-.~ ~ ] ] ~ ~ ~ ] ~ ] -.-.} -.-.] Y =.2.7.1.1.>.;.;.;.@.;.<.1.4.1.4.8.3.7.",
"%.%.%.%.%.4.4.7.8.8.8.8.7.,.=.=.@.=.8.9.1.] -.-.} -.-.] J J J J J J J J J ] -.-.} -.-.{ U =.2.4.1.;.;.>.>.@.@.@.1.4.7.9.8.8.3.7.",
"<.%.%.>.1.%.%.4.8.4.4.4.1.4.2.:.,.,.4.4.:.] -.-.-.-.-.] J J J J J J J J J ] -.-.-.-.-.] W :.2.2.1.1.1.>.*.;.1.<.1.;.1.4.3.4.7.3.",
"%.=.<.4.4.%.$.<.8.8.1.$.:.9.9.9.8.4.=.$.*.] -.-.-.-.] J J J J J J J J J J J ~ -.-.-.-.] ` 2.:.-.,.9.8.>.$.>.1.1.;.O.$.;.$.4.9.8.",
"$.%.<.4.4.%.$.>.7.7.:.*.;.7.9.7.8.4.=.#.s J ] -.-.] J J J J J J J J J J J J J ~ -.-.] K S W 2.:.2.8.7.:.*.1.1.1.;.%.$.;.*.1.8.8.",
"=.=.>.<.1.>.%.%.>.;.;.*.;.,.:.*.$.3.,.1.s J J ] -.] J J J J J J J J J J J J J ] -.-.K J S Q 5.9.7.>.;.,.7.1.1.4.1.1.>.;.>.>.$.%.",
"%.$.=.4.1.>.$.;.%.%.$.%.*.@.*.;.$.$.3.8.s J J -.-.| J 9.9.9.J J J J J 9.9.9.J | -.-.J J S Q 9.7.,.$.*.7.9.7.4.1.1.1.1.;.$.*.@.@.",
"=.>.,.4.1.>.;.;.<.<.%.@.;.<.>.>.3.,.,.<.s J J -.-.| J 9.9.9 J J J J J 9 9.9.K | -.-.K H S E 7.4.5.>.*.,.1.1.4.4.1.1.>.;.>.:.:.>.",
",.5.4.4.1.>.%.%.1.1.;.%.>.8.8.4.4.3.>.%.%.s s -.-.^ J 9.9.  J K J J J   9.9.K  .-.-.D s E *.5.9.5.,.>.>.;.:.1.1.1.;.;.1.4.7.7.7.",
"8.5.,.,.1.<.;.<.4.1.;.%.>.8.8.7.4.3.=.#.=.$.$.-.-.| J 9.9.7 J | | | J 7 9.9.J | -.-.( &.=.*.7.9.7.<.;.;.*.>.1.1.;.;.>.1.7.7.8.9.",
"7.5.:.*.:.2.1.1.<.<.%.%.;.<.>.1.7.7.=.%.3.3.3.-.-.-.| J J J | -.-.-.| J J J | -.-.-.` 2.4.2.7.4.4.>.;.;.;.;.;.;.4.4.3.>.>.3.8.8.",
"5.9.2.O.*.8.8.7.@.%.%.<.;.%.;.,.8.7.>.>.3.4.5.-.-.-.-.| | | -.-.-.-.-.| | | -.-.-.-.[ 2.9.9.9.9.1.*.@.;.;.%.@.@.4.9.8.$.#.4.9.9.",
"9.9.5.*.;.1.7.1.<.<.%.;.;.%.;.4.8.4.,.3.3.3.3.] -.-.-.-.-.-.-.-.-.-.-.-.-.-.-.-.-.] [ :.5.4.8.4.1.>.>.>.;.;.;.;.1.4.4.>.,.3.8.8.",
"9.9.7.2.:.;.%.>.7.4.<.%.%.%.;.4.8.7.7.4.>.%.$.+ ] -.-.-.-.-.-.J J J -.-.-.-.-.-.~ % } 2.:.;.:.@.1.7.7.1.>.1.4.4.;.@.>.8.8.=.#.$.",
"9.9.7.3.1.$.@.1.9.4.:.%.%.%.;.1.9.4.4.7.>.*.*.+ = ] -.-.-.-.-.] ] ] -.-.-.-.-.] 2 @ O.,.&.;.>.;.:.8.8.,.>.:.1.4.;.@.:.7.9.:.$.&.",
"8.9.3.>.,.,.>.:.1.<.%.:.:.;.<.1.7.7.7.7.1.=.+ 1 1 1 ] -.-.-.] -.-.-.] -.-.-.] 2 1 1 @ [ 4.1.<.@.,.7.7.3.7.1.>.>.;.;.%.<.<.;.&.*.",
"8.9.4.#.;.4.4.:.+.*.%.%.:.%.;.<.4.7.9.7.5.C ] 1 1 1 1 ] ] ] =.-.-.-.-.] ] ~ 2 1 1 1 ! C { 7.<.%.3.7.8.8.9.1.>.%.;.$.$.@.$.$.*.;.",
"7.8.,.*.;.1.1.1.$.;.;.;.:.%.;.1.7.9.7.2.a H M ~ 1 = 1 1 1 1 ] -.-.-.] 1 1 1 1 1 1 ! C G f _ 1.;.,.8.8.3.8.1.>.%.;.;.;.;.*.;.>.*.",
">.=.4.8.9.:.;.:.7.7.4.<.1.1.1.7.9.2.:.&.a J G F C + . 1 1 1 1 ] ] ] 1 1 1 1 . + M F F H f / ;.>.,.8.8.>.>.>.;.;.1.1.1.7.7.1.>.:.",
"$.$.3.9.9.;.@.:.9.9.7.1.7.7.7.7.9.:.&.&.&.d F G a ] X . . . 1 1 4 1 1 . . . X ] d F J s Y @.%.<.3.8.8.%.$.$.%.;.1.1.4.9.9.4.>.1.",
">.=.,.7.2.>.:.1.4.4.1.;.>.1.<.:.2.-.=.&.X.] a a a 1 = X X X . 4 5 4 . X X X * 1 d d a P ` +.%.;.,.4.3.4.1.1.>.<.1.<.<.4.7.1.>.>.",
"$.$.*.$.;.1.4.4.4.1.>.$.;.;.;.=.O.=.-.=.] P N z . ] 1 1 = 1 X X 4 X X 1 = 1 < ~ . l Z L / ` +.%.$.>.>.4.8.4.1.4.:.%.;.1.1.>.;.%.",
"=.%.$.$.,.,.<.7.4.4.>.@.>.;.$.:.*.;.:.&.! Z x l . N ` ] ] ] . o o O . ] ] ] ] X . u v Z P ` +.%.;.>.1.4.8.7.1.4.;.%.>.4.4.:.;.;.",
"3.7.,.%.>.>.%.,.8.7.>.$.;.$.*.1.4.7.:.@.Y B l r e . X X X . 6 o o 6 8 . n X X . 8 y v Z T ' ..@.>.7.4.1.1.1.;.;.;.%.:.4.7.1.;.$.",
"8.8.,.#.$.$.%.,.8.7.>.$.;.*.*.4.7.6.<.*.) L z l t r . . . w q 6 8 0 w w . . . w t l v T ) o.+.$.<.8.8.:.<.>.$.;.%.$.<.7.9.1.;.*.",
"7.8.3.>.3.>.$.3.8.7.,.$.>.:.1.1.9.7.1.:...I L L N b x z l l u r e y p p u i v v N V T ) o.$.$.$.;.4.4.:.1.>.$.;.;.@.;.7.7.1.$.$.",
"4.4.8.9.9.>.#.=.9.8.,.*.2.7.4.7.4.4.4.5.*.` ( ` _ Y Z m N m N N B B V V B Z T T ) [ #.#.o.$.$.>.*.>.>.:.4.,.@.#.$.O.*.8.9.1.*.*.",
"4.4.4.9.8.>.#.=.8.7.,.,.1.7.9.4.7.2.4.5.1.*.:.4.9.5.*.*.:.:.:.7.8.9.9.8.,.>.7.8.8.4.8.3.>.<.%.>.>.@.;.:.4.,.$.*.*.$.>.7.7.1.;.;.",
">.;.>.>.,.,.4.<.,.,.1.1.1.2.2.4.7.2.:.:.2.5.2.,.:.:.*.*.4.7.2.2.-.5.8.5.%.=.3.8.4.,.-.3.4.7.,.4.:.*.*.;.>.>.4.8.3.4.,.>.>.4.2.7.",
"@.@.$.+.#.7.9.4.@.;.7.9.7.:.:.7.9.7.:.$.2.9.7.*.&.;.&.*.7.9.9.:.=.3.8.7.=.#.<.8.8.$.#.>.8.8.8.8.4.*.*.$.#.>.9.9.9.9.7.$.$.7.9.9.",
"%.%.%.;.>.4.4.<.%.<.<.4.4.1.1.4.7.7.:.<.:.7.2.:.:.*.*.:.7.7.2.:.>.4.3.4.>.=.,.7.5.,.*.2.7.9.5.4.>.>.=.#.$.,.8.9.7.7.1.<.;.1.9.9.",
"4.>.<.4.4.%.%.%.4.<.<.>.<.4.4.4.:.7.7.6.:.:.:.-.:.2.7.7.7.:.:.4.8.,.>.3.7.8.5.:.,.5.2.9.9.9.:.&.3.7.8.>.*.>.1.7.;.@.;.1.1.>.;.$.",
"<.>.<.7.4.%.%.>.4.4.%.%.>.4.4.>.:.:.7.9.2.*.*.:.:.7.9.9.2.:.<.6.3.,.=.,.8.8.2.:.-.2.5.7.9.9.:.&.=.7.7.,.@.;.1.1.;.@.*.1.4.<.$.;.",
"4.4.4.>.%.>.%.%.<.<.<.>.,.4.7.4.1.1.6.7.4.:.:.:.*.:.2.:.:.7.4.4.4.,.*.,.4.1.:.:.:.:.*.:.9.9.2.:.,.3.>.=.;.>.<.<.%.%.;.;.:.1.1.1.",
"7.8.3.$.$.%.;.$.$.$.%.<.,.3.7.8.9.7.7.:.,.,.:.&.=.&.O.;.5.9.9.7.9.4.$.*.<.1.;.&.*.*.&.2.9.9.7.9.7.%.@.$.;.%.;.;.$.;.>.%.;.1.9.7.",
"7.8.,.%.>.>.%.<.>.>.=.1.<.3.3.3.9.9.7.2.2.,.:.=.-.:.-.:.2.9.7.2.7.>.$.;.:.:.;.;.,.*.*.2.7.5.2.9.3.>.>.,.:.%.%.;.:.;.;.%.;.1.7.8.",
"8.8.3.4.4.$.$.>.8.8.7.3.3.8.8.8.4.7.9.7.2.=.,.2.2.7.6.4.7.7.2.:.>.$.$.;.:.:.:.4.7.;.@.;.:.:.:.:.4.4.8.8.8.4.4.4.;.$.@.%.$.%.1.1.",
"8.8.4.4.4.%.$.>.8.8.7.4.4.8.8.8.9.7.7.9.5.=.,.6.9.7.9.7.9.9.7.*.;.@.@.@.*.*.4.9.4.*.*.;.*.:.:.;.4.7.8.8.7.8.7.1.%.%.%.@.%.>.1.>.",
"4.8.1.>.<.<.%.<.7.3.4.4.4.3.3.4.:.2.7.9.2.:.,.9.9.9.2.2.9.9.2.:.>.>.<.>.%.>.4.1.1.<.<.<.*.:.7.7.2.1.1.4.7.1.1.<.%.:.;.%.@.<.4.1.",
"4.4.<.%.%.%.%.<.$.$.4.8.8.<.<.%.*.;.7.9.2.:.2.9.9.7.;.-.4.9.5.:.<.4.8.8.%.$.>.>.1.1.4.4.$.:.7.7.1.*.@.1.7.>.%.%.%.%.%.@.%.<.8.9.",
"1.4.<.>.<.%.%.%.%.%.4.8.4.4.,.>.@.:.6.7.:.:.2.7.9.5.:.:.2.7.4.:.>.4.8.4.>.$.>.<.<.1.1.1.:.<.4.9.4.*.*.1.4.>.;.>.:.%.%.%.%.<.7.7.",
";.;.<.<.1.<.%.%.%.%.%.%.%.%.%.>.;.*.:.:.:.2.-.-.:.2.9.9.4.2.<.*.;.<.1.>.$.%.1.1.1.:.;.:.:.<.4.4.4.7.5.>.;.>.1.<.;.%.%.%.%.%.>.%.",
"@.@.>.1.1.%.%.%.%.%.%.%.%.%.%.$.@.+.*.*.:.2.:.*.&.,.9.9.4.,.>.*.%.<.3.%.$.$.>.4.1.;.$.<.4.4.1.1.2.9.9.*.#.=.4.4.%.%.%.%.%.%.%.%.",
"=.*.,.4.4.4.1.%.%.%.%.%.>.<.<.<.:.:.:.:.,.6.5.5.2.2.9.5.1.>.:.>.%.,.%.>.>.<.>.<.;.;.;.<.7.4.<.>.2.9.9.:.%.,.4.4.<.<.<.<.%.%.%.%.",
"5.,.7.9.8.4.4.<.%.%.%.%.%.4.4.4.1.1.4.4.7.9.7.9.9.2.*.&.,.4.,.<.3.>.$.>.8.8.<.%.;.$.;.1.7.7.>.*.5.9.9.5.3.3.8.4.4.4.<.%.%.%.%.%.",
"5.,.5.9.4.4.1.<.%.%.%.%.<.4.4.<.7.:.7.2.4.9.9.9.9.5.O.O.4.8.<.4.>.>.%.>.8.8.3.%.;.;.@.1.9.7.;.O.,.9.9.6.,.4.8.8.4.4.1.%.%.%.%.%."
};
