/* XPM */
static char *player_ls1693492154[] = {
/* columns rows colors chars-per-pixel */
"64 64 103 2 ",
"   c #12647B",
".  c gray29",
"X  c #646464",
"o  c #B53939",
"O  c #B93E3E",
"+  c #BC4141",
"@  c #B84A4A",
"#  c #C14646",
"$  c #C84E4E",
"%  c #C35757",
"&  c #CC5454",
"*  c #CB5B5B",
"=  c #D45C5C",
"-  c #CF6060",
";  c #D76060",
":  c #DB6363",
">  c #DD6E6E",
",  c #DE7272",
"<  c #8E8318",
"1  c #EAD61A",
"2  c #7D7E85",
"3  c #1886A5",
"4  c #33BAE0",
"5  c #808187",
"6  c #83848A",
"7  c #87898E",
"8  c #888A8E",
"9  c #8C8D93",
"0  c #8F9195",
"q  c #93949A",
"w  c #96989D",
"e  c #989A9F",
"r  c #BB9985",
"t  c #AA979D",
"y  c #AA989E",
"u  c #9799A1",
"i  c #9B9CA3",
"p  c #AA9CA2",
"a  c #A4A5AD",
"s  c #AFA4AC",
"d  c gray68",
"f  c #B1A5AD",
"g  c #B8ABAE",
"h  c #A5A7B0",
"j  c #A7AAB2",
"k  c #ABACB4",
"l  c #B4A9B0",
"z  c #AFB1B7",
"x  c #AFB2BA",
"c  c #B2B3B6",
"v  c #BCB5BE",
"b  c #C6B5AB",
"n  c #C1B6B7",
"m  c #C2B9BD",
"M  c #E8BFA7",
"N  c #FFD1B6",
"B  c #B4B6C1",
"V  c #B8B7C1",
"C  c #B7B9C4",
"Z  c #BCBCC5",
"A  c #C0BBC5",
"S  c #C0BEC9",
"D  c #BFC1CC",
"F  c #C3C4CC",
"G  c #C6C8CC",
"H  c #CACBCD",
"J  c #C6C6D1",
"K  c #C7C9D3",
"L  c #CBCCD4",
"P  c #CDCEDB",
"I  c #CED0D0",
"U  c #D4D4D4",
"Y  c #D2D3DC",
"T  c #DDDDDD",
"R  c #E9D1C4",
"E  c #D5D6E3",
"W  c #D7DAE5",
"Q  c #DADCE5",
"!  c #D7D9E8",
"~  c #DCDEEB",
"^  c #DEE0E7",
"/  c #DEE1ED",
"(  c #DEE3F1",
")  c #E0E2E6",
"_  c #E2E4EE",
"`  c #E6E8EB",
"'  c #ECECEC",
"]  c #FAEDED",
"[  c #E3E5F2",
"{  c #E8E7F5",
"}  c #E6E9F4",
"|  c #EAEBF5",
" . c #E6E9F8",
".. c #ECEDFA",
"X. c #F0EFF6",
"o. c #EEF1F5",
"O. c #EEF1FC",
"+. c #F1F2F7",
"@. c #FCF3F3",
"#. c #F3F4FD",
"$. c #F8F7FF",
"%. c #F6F9FF",
"&. c #FBFCFF",
/* pixels */
"o.%.&.+.%.%.&.o./ _ / ( } ( [ O.&.+.[ _ X.$.$.{ [ X.#.#.#.$.#.+.O.| _ o.&.&.&.$.#.' ' #.&.&.$.$.+.{ | O.%.O.O.%.( ( ( ( (  .O.O.",
"%.%.&.+.%.%.&.%.^ / ^ / [ / [ O.&.#.` _ { $.$.X.| | ..X.$.$.$.X.O...[ o.&.&.&.$.+.' ` X.&.&.&.$.X.| { X.O.%.%.%.} ( ( ^ ^ ( O.O.",
"o.o.' +.%.o.o.o.} | | o...[ _ | | | | X.....{ { { ..X.#.#.X.+.#.+.O._ | %.&.%.' X.X.X.+.&.$.+.X.O.X...{  ...#.O. .( ( } ..O.O.O.",
"^ ^ / %.O.^ ^ ` %.%.%.%...} / _ ^ { $.%.+.` _ { { +.$.$.{ ` | $.#.O.} o.%.%.+.| X.#.$.+.#.X.{ ` X.%.%.{ ( } O.O.( ( ( %.%.%.%.%.",
"` ^ } o.| / / } %.%.%.%.#.| [ _ { | %.$.X.~ _ ..{ X.#.$.{ { X.#.t t | | #.%.o.| X.$.$.+.X.X.| | ..#.%.[ / ( o.O./ _ } #.%.%.O.%.",
"%.%.o./ ` +.#...[ _ O.%.O.......X.....+.{ _ _ } { _ _ { X.$.p t + + p y | { { ` [ #.$.#.#.%...[ _ { } / / _ ( ( O.#.O.} ` | ` } ",
"&.&.o.Q / %.%.../ / | #.#.%.%.%.X...+.O...[ _ [ { / ! / f g + + & & + + p p ~ _ _ +.$.$.$.%.{ / / _ / / ( ( / ^ O.%.#._ ) ` _ _ ",
"&.&.O./ ( o.#.o._ _ | O...O.#.O.#.%.#.+.{ _ [  .[ { f f + # & & : : & & O O s g | %.$.#.#.O.{ { } [ _ } _ ( `  .O.O...| ..{ ` ' ",
"#.%.o./ / ` ( ( _ }  .O.o.^ / O.&.&.%.%.../ [ ..+.v O O $ : : : : : = : & & # O n $.$.#.O.O...O.O...o. .} O.&.%.o./ } %.&.%.| +.",
"%.#...( ` ( / ( [ _  ... .^ / O.%.%.%.%.O.[ } ..A # $ & o : : : : : o : : : & $ # n #.#.O.O.O.O.O.O.O...} O.%.%.../ } %.&.$.| +.",
"O.O. .( ( O.#.O.....O.%.O.} } %.%.%.o...[ / / Z o : & : o : : : : = o ; : : : & : o m O. . . .} } } | ..O.O... .( / ( #.%.+.+.$.",
"( } ( ^ ( %.%.%...o.#.%.%.O...%.%.+.( / / ^ / o + ; : : o : : : : o O $ : : = : ; # o Y / ( / ( ( ^ / #.%.O./ ^ / / ` } | %.&.%.",
" .( } } ( O.#.O. ...O.O.#.O...O.%.o.} [ { _ H % : $ : $ O = : : : o $ $ ; : & : $ : % V { }  . .` | } O.O.O.( ( ( / ( ......%.O.",
"( / } #.O.` ( } O.O.} } ( ( ( ( ( ( ..o.} _ U &.; & ; $ $ O = ; : o $ $ $ : : ; & ; ] U P ......O.%.%.( / } O.O.} / ( O.#.} [ [ ",
"^ ( ( O.O.( / ( O.O.} ( ( ( ( ( ^ ( | ..} [ U &.- : $ $ $ $ O * , @ $ $ $ ; ; & ; = ] T P ......%.%.%._ ! } O.O.( / ( O.O.} ~ [ ",
"} } } } } ( ( (  . .( (  .O...o...} } ..} W U &.&., : $ $ $ $ U &.T $ $ $ $ & ; > @.&.T K ....#.#.| O.O.} }  . .( ( ( [ } ......",
"O.O. .( ( ( ( ( ^ / / / | %.%.#.%.%.} / _ U ' U &.&.& > $ $ $ &.&.&.$ $ $ $ > = @.&.T U A [ #.#.O.} { ..#...( / [ ~ [ / Q | &.%.",
" .O.( (  . .} ( ( [ ( ` | #.%.%.#.X.} [ } U ' ' U &.&.&.& & & U &.U * & & * @.&.&.U ` T S [ #.$..... .....} [ [ [ { } _ _ | +.#.",
"( ..( / ( O.O.o.%.O.o.#.O.| | | [ { O.+.| U ' U U U U &.&.&.&.&.&.&.&.&.&.&.&.U U T ' U A ` +.$.|  .{ } [ ( _ ( [ ..O...O.%.o.%.",
"( ( ( ( (  .O.%.%.%.%.%.%.| { _ ~ { #.%...I U N N N N U U U U U U U U U U U U ' ' T ' U A { ......} [ } { ~ ~ ~ ....#.$.%.%.O.o.",
" .( ( ( ..( } O.%.O.O.O.X.O.X.| | o.O.o.| r N N N N N N N N U ' ' ' T ' ' ' ' T ' T ' U F | X.X.X.....} _ [ .. .| [ ..O.O.o.#.o.",
"( ( ..O.O.( / } %.%.../ { %.&.$.%.o.[ / _ r N N N N N N N N U ' ' ' T ' ' ' ' T ' T ' T P ..{ ' ..%.%.} ~ } ....} ! / } / o.%.%.",
"( ` } O.O.( / ( #.#. ._ { #.$.%.%.#._ / _ { r N N N N N N N R ' ' T ' ' ' ' ] T ' T ' U I #.{ | +.%.#.} [ | ....[ ( / [ _ O.%.%.",
"( } } ....} ( } } } [ ~ [ | | _ / o.| o.#...r N N N N N N N R ' ] T U U U ' ' T ' T ' U U $.#.$.+.} { | #.O...O.....} [ [ [ / [ ",
"/ / _ O.O.} ~ [ ( ( ( ~ / / / [ / _ o.%.%.%.r N N N &.&.&.N R ' ' N N N N U ' T ' T ' U U $.$.$.o./ / #.$.%.O...O.....{ / / / ~ ",
"` o.| O...} [ [  . .[ ~ [  .{ { ..} | ..o.o.r N N N 4 &.&.N R ' ` R N N N U ' T ' ' U L #.X.#.$.O.` _ | ......O..... .[ [ } | { ",
"| +.O.O...} [ ( ....[ ( } %.%.O.o.o.` ( ` ( r N N N   &.&.N R ' ' R N N N U ' T ' ' U F { _ +.&.O.| } { { } .... .[ { | O.#.#.#.",
"%.+.| | .. .(  ..... .( } %.%.#.O.+.( / ` / b R R N 3 &.&.N R ' ' R N N N U ' T ' ' T S ` _ +.$.o.| [ [ / { ....} [ [ ..#.O.%.&.",
"#.#.{ _ { X..... . . .( [ } } ..%.O.` ( o.o.' ' ' R R R R N R o.' R N N N N U T ' U U | #.X.#.#.#.} [ [ [ [ [ [ O.O.O.} [ O.%.&.",
"+.$.X.Q _ %.%.#.~ ( ( ( [ ( [ | %.#. .` O.O.U I ' ' ' ' ' R ' ' ' N N N N N U T ' U Y X.&.$.&.#.O.( / [ [ ( ~ ~ O.&.%./ / o.&.&.",
"&.&.+./ _ ..#...(  .(  .[ ( [ O.%.O.o...o.o.U U U ' ' ' ' ' ' ' R N N N r I ' ' T ' U P +.#.%.#...} } } [ [ [ / ..O.O.} o.o.%.%.",
"&.&.$.X.| [ ( [ %.O. .( ( ( [ O.%.#.O.O.| / ' ' ' U ' ' ' ' ' b r r r o ' ' U ' ' T U I { _ { ~ ..O.#...} ..#.O.[ ~ [ %.%.} ^ ^ ",
"&.&.#.o.| / ! ..&.#.{ ( ( ( { ..$.O.O.#.} _ ` ' ' U ' ' ' U U $ $ $ $ o U U ` I U U ^ | ^ _ } [ | %.%...| | ..O.[ ~ { #.%.| ~ ) ",
"%.&.o.} ....{ { {  .( [ { (  .O.#.#.$.#.| { | ' ' ' U U U $ : : : : : o / ` } ` ` %.%.+.o...} ( | +.+.o.O...[ } [ ( /  ...[ ) _ ",
"%.&.O.^ _ O... .~ / ( [  .( (  .#.#.$.%.+.| { ' ' ' U : : o : : $ o : $ o ^ ^ ^ ^ o.+.o.+.+. ./ } %.%.%.%.#.[ ( [ ( ( ~ ~ / [ _ ",
"#.%.| / { ......[ [ { ( [ [ [ ..#.$.#.X.#.| ` ` U ' $ : o : : : $ o : $ o K K G I ^ ` / ( ..( ( | %.%.#.%...} [ [ [ [ [ [ [ _ { ",
"[ ` O.%.%.| [ | #.#.O.O.....O.#.$.#.` _ o.o.{ _ ' ' : : l U : : : o : : o h k k x G K G K ! ! ( } %.%.} [ } [ ( ......%.#...| | ",
"_ / o.&.&.} ~ | $.$.#.O.#.#.#.#.$.X._ ) ' | ) T U 1 < r N N U U : o : . o 8 q q u j x z B D P ~ ` %.%.( / / ( [ ....O.%.%.O.} ..",
"} _ | O...{ { ..#.O.{  ... ...| X.X.' X.` ) U D c < N N r N N N c $ . X 5 5 6 7 9 q u u a B D ! / o.o...O...}  ... . ...#...} } ",
"_ _ _ / / ..#...O...} { [ [ / [ ^ ` #.&.` Q H z p 0 @ M N r r r $ X X o 2 5 5 5 6 8 0 q q a C K W / } O.%.%...O. .( [ ....} [ ( ",
"` ( / / | ....O.O.O.} / } [ _ } _ { ..$.{ Q G v p q 9 l Y U U U U U l o 2 2 2 5 6 8 0 0 u k C P E [ ....%.#.O...{ ( { ..#.} ( { ",
"o.%.| / ` } [ } #.#.} _ [ / _ ..#.#.$.$.{ Y F v h p u . d d X X X . 6 6 2 5 6 6 8 9 u u h B D P ~ O.O.......[ } / ( { O.#...[ ( ",
"%.%.../ / [ ( | %.%.| / [ / [ ..$.$.$.#.{ ! P J C B l . . . . . . . w q 9 9 q q e i j x Z K P W { %.%... .} / _ [ / { #.#.../ / ",
"O.%.o.} | ( / o.%.#.} / { | | ..$.#.#.#.{ ~ ! ~ E P S A Z V x j a j z z a a k x C D K D P W ! / _ ....| ..} / [ / / { #.$.../ [ ",
"O.O.%.&.&.} Q _ &.%.| _ | #.$.O.#.O.#.$.X./ ) { X.) P L L K L L H I I L D D L Y T ^ ^ ^ ^ ^ / / / } } | O.} ~ ~ / ^ [ %.%..._ [ ",
"O.O.O.%.&.} ^ } %.#...[ ..$.$.#.#.X...X.{ ` { O.$.X._ _ { { { $.%.%.&.%.| | o.%.O.O.%.O.}  .} ( } ~ / ..O.} _ _ / / [ #.$.| _ { ",
"} [ } | } ..o.o.| | ..O...X.X.O.#.X.{ { X.X.X...{ { _ _ +.#.X.X.' +.%.+.` ` O.%.%.o.| o.O.O...O.| [ / { [ o.O.%.o.O.O.} | O.O.#.",
"~ ~ ^ W / #.&.O./ _ #.%.#.| { O.$.#.{ _ ..$.$._ / _ ) _ $.$.#.{ ` o.%.+./ / o.%.O.^ ^ ' %.%.%.%..._ _ ~ ^ } &.&.&.&.O./ ^ o.&.&.",
"[ ( ( [  .O.O. .(  . .O.O.O. .O.$.X.{ { ..#.X.{ { _ _ { #.#.O.{ } O.#.O.} ` | %.+.| ` ' &.$.#.+.} } ` Q / | #.%.#.#... .} ..%.%.",
"O.}  .O.O.( ( ( O.O. . .O.O.O.O.{ ..#.#.X.{ ` { { X.#.$.X.{ ..X.%.| ` ..#.%.X.` | X.X.$.&.$.{ ) | %.%.} _ { O.#.[ / [ ....} _ [ ",
" .} ..O.O.( / } O. .( ( | O.O.} { ..%.$...` _ { { +.$.$.X.{ { O.o.| [ | %.%.X.{ { +.#.$.&.&.{ ^ } #.%.| ~ [ ....[ ! [ ..#.{ _ [ ",
"O.O.O. .( ( ( (  . . .} | O.O.O.X.X.O.#...{ ` { ` { X.....+.#.+.O.| ` | ....{ { ` | ` { $.&.X.+.o.o.| _ [ { }  .[ / [ [ } ......",
"#.%.o./ / ( } ( ^ ( (  .| o.o.%.%.$.X.X.X.{ { _ _ _ _ ` ..$.$.$.&.../ _  .| [ / _ _ _ | $.$.$.$.O._ ~ _ [ / ( [ ( [ } ( [ ..%.#.",
"#.#...( } ( ( o. .` }  .....o.o.$.$.#.X.X.{ ' ` | ` ` { +.$.$.#.#.} / [ } } { [ { _ _ X.#.X.+.$.O.[ } } } [ [  .[ [ [ ( [ ..#.%.",
"%.%.o...O.( ^ } %.%.#.o.O.%.%.%.#.#.%.$.X.{ ' +.#.#.#.+.$.$.+.[ { / / [ { { { $.O._ / [ { { ..O.O.O.%.%.%...O... .( ~ ~ / ( ..O.",
"%.%.#.O.O.( / } &.%.#.O.o.%.%.%.$.#.$.$.#.` { $.@.$.$.$.$.$.+.[ [ ~ ~ / / [ ..$.O._ [ ` / _ { _ O.#.%.%.#.%.#...( ( ( / ( } ..[ ",
"O.#..... . .(  .#.o.O.#.O.....O.X.{ $.$.X.{ ' $.$.%.X.X.%.$.| { } [  . .( [ o.O... . . .[ { #.O.O.....#.#.O. ...( { ( ( ~  .O...",
"O.O...( ( ( ( ( / ( O.%.%. .` ( _ _ $.$.X.{ X.$.&.$.` { #.&.+.{ ..O.%.#.( / } ......O.../ { #.$.X./ ~ ..#. .( ( ( / ( ~ ( ..$.$.",
"O.O. .(  .( ( ( / ( O.%.O.o...} ~ { #.X.| { ' $.&.$.| | X.$.O.{ } O.#.O.} / } }  .......{ { O.$.O._ / | O.} ( }  .( ( ( ( ..#.#.",
"( [  . .O. .( ( ( ( ( ( ( ( ( } { _ { { | X.| ' ' | %.$.X.X..._ [ .... .( (  .O...} [ {  . .O.O.X.$.+.{ [ } ..O.( ( ( [ ( ( } ( ",
"~ ~ { | O.( ( ( ( ( ( ( ( ( ( ( ~ ~ _ _ ` X.{ ` ) | &.&.O.} } [ ( } ..` ^ ^ ( O...[ / { ..#.......&.&.` ^ _ o.O.( ( ( ( ( ( ( ( ",
"` [ | #.O... . .( ( (  .( O...} { { { { | #.+.X.| +.+.$.| ..} } [ } } }  . . ...[ [ [  .#... .} | %.&.{ / ..O.O.O. . .( ( ( ( ( ",
"+.| #.%.#.O.O. .( ( ( ( ( ..O.......#.O.#.$.$.&.&.X.` _ ..o...} } } / } %.%...( [ [ [ ..%.#.{ _ +.&.&.#.o.o.%.#.O.O. .( ( ( ( ( ",
"+.| $.%.#.O.O. .( ( ( ( ( ..O...O...O.X.#.$.&.&.&.X.Q Q ..#.O...} } ( ( %.%...( [ [ ~ ..%.#.[ ~ ' &.&.+.} O.%.#.O.O.O.( ( ( ( ( "
};
