/* XPM */
static char *ff489a920b284dd1837f43755c48eafeubMpmywIt7k1ebu6[] = {
/* columns rows colors chars-per-pixel */
"64 64 204 2 ",
"   c #0F6478",
".  c #4A4A4A",
"X  c #565656",
"o  c #5A5A5B",
"O  c #745655",
"+  c #5D5E60",
"@  c #666666",
"#  c #79797B",
"$  c #B53937",
"%  c #B53939",
"&  c #B83C3C",
"*  c #875B5A",
"=  c #984847",
"-  c #BC4241",
";  c #BC4B4A",
":  c #BF5C5D",
">  c #B85B54",
",  c #A85756",
"<  c #BF5F61",
"1  c #A26A6D",
"2  c #B76F6F",
"3  c #C04645",
"4  c #C34947",
"5  c #C54B4A",
"6  c #C84E4D",
"7  c #CA504F",
"8  c #C74F50",
"9  c #CC5354",
"0  c #CD5957",
"q  c #CF5758",
"w  c #C35C5D",
"e  c #CC5B5A",
"r  c #D45C5C",
"t  c #D05757",
"y  c #C15E61",
"u  c #D75F60",
"i  c #C36363",
"p  c #C36B6D",
"a  c #C46D63",
"s  c #DB6565",
"d  c #DB6968",
"f  c #C97776",
"g  c #90841C",
"h  c #B8A81D",
"j  c #E5D11A",
"k  c #958D42",
"l  c #BAAE48",
"z  c #AC9464",
"x  c #C0A367",
"c  c #E5D54C",
"v  c #7D7C81",
"b  c #C57D81",
"n  c #1E819E",
"m  c #1887A5",
"M  c #7F8187",
"N  c #32BAE2",
"B  c #828286",
"V  c #85858B",
"C  c #8B8B8D",
"Z  c #8A878D",
"A  c #8B8C93",
"S  c #8D8D99",
"D  c #908F94",
"F  c #8F9094",
"G  c #939296",
"H  c #94959B",
"J  c #9A999E",
"K  c #908C8B",
"L  c #BC9985",
"P  c #A38F91",
"I  c #AF9D9D",
"U  c #AF8285",
"Y  c #9699A1",
"T  c #9C9CA3",
"R  c #9E9EA8",
"E  c #9797A1",
"W  c #A09FA4",
"Q  c #9EA1A7",
"!  c #9DB6BA",
"~  c #A2A2A5",
"^  c #A3A4AC",
"/  c #ABABAE",
"(  c #A7A8AD",
")  c #B7AEAF",
"_  c #A7A7B1",
"`  c #ACACB4",
"'  c #AEAEBA",
"]  c #AEB1BB",
"[  c #AFB0B5",
"{  c #B4B4BB",
"}  c #B7B7BB",
"|  c #B8AFB0",
" . c #C19E8A",
".. c #C99797",
"X. c #D59394",
"o. c #D08989",
"O. c #E09E8E",
"+. c #E48E8D",
"@. c #C4A69D",
"#. c #D2AC96",
"$. c #D7B296",
"%. c #E0B89F",
"&. c #CB9CA1",
"*. c #CAA8A5",
"=. c #D5A5A8",
"-. c #CCB7AD",
";. c #C6B5AB",
":. c #CABAB2",
">. c #D8C3B5",
",. c #EDC3AA",
"<. c #E9C0A7",
"1. c #F4C7AE",
"2. c #E6CDBE",
"3. c #FBCEB4",
"4. c #F2CDB4",
"5. c #EFD3BE",
"6. c #FFD1B7",
"7. c #F4D1BC",
"8. c #FED2B9",
"9. c #BCBCC4",
"0. c #BCBEC9",
"q. c #B8B6C2",
"w. c #D8BDC2",
"e. c #BAD3DA",
"r. c #BDDCE4",
"t. c #C1C2C4",
"y. c #C3C4CC",
"u. c #C9C9CB",
"i. c #D7CAC7",
"p. c #D2D1CF",
"a. c #C3C5D1",
"s. c #C7CAD3",
"d. c #CCCCD4",
"f. c #CDCEDA",
"g. c #C7CAD9",
"h. c #DBCAD5",
"j. c #D7CCD8",
"k. c #D3D3D3",
"l. c #D3D4DC",
"z. c #D6D8DB",
"x. c #DCDCDD",
"c. c #DBD8D4",
"v. c #CDD1D2",
"b. c #EECCCB",
"n. c #EAD2C4",
"m. c #E3D2C9",
"M. c #E7D5CA",
"N. c #FEDECA",
"B. c #F7D6C3",
"V. c #F2CED0",
"C. c #EBDAD3",
"Z. c #E5D8D6",
"A. c #F3CCCB",
"S. c #EBE2DE",
"D. c #F1E3DA",
"F. c #D3D5E1",
"G. c #DBDCE5",
"H. c #DBDEEB",
"J. c #D7DAE7",
"K. c #E4DCE4",
"L. c #EBDAE1",
"P. c #DEE0E5",
"I. c #DEE1ED",
"U. c #DEE2F1",
"Y. c #C5EBF6",
"T. c #E3E3E3",
"R. c #EBE3E1",
"E. c #E2E4ED",
"W. c #E6E8EE",
"Q. c #ECECEC",
"!. c #EBE4EC",
"~. c #F8E8E7",
"^. c #FEF0E6",
"/. c #E3E5F2",
"(. c #E6E9F4",
"). c #EAEBF5",
"_. c #E5E6F8",
"`. c #E6EAF9",
"'. c #EBEDFA",
"]. c #E9E7F3",
"[. c #F0EEF5",
"{. c #F0EEFB",
"}. c #EEF1F6",
"|. c #EDF0F6",
" X c #EEF1FA",
".X c #EEF1FD",
"XX c #EEF1FD",
"oX c #F2F2F5",
"OX c #F1F1FA",
"+X c #F2F5FA",
"@X c #F5F5FA",
"#X c #F1F2FD",
"$X c #F2F5FE",
"%X c #F6F6FF",
"&X c #F5F5FE",
"*X c #F2F4FE",
"=X c #F8F7FE",
"-X c #F6F9FE",
";X c #F6F9FE",
":X c #F9FAFF",
">X c #FAFEFF",
",X c #FDFEFF",
"<X c #FBFDFE",
"1X c #FBF5F5",
/* pixels */
"}.-X-X+X$X>X>X$XI.E.I.U.(.U./.{.:XOX!.E.}.:X%X].E.[.&X%X@X&X&XOXOX).W.|.>X,X:X@X@XQ.!.@X,X,X=X:XoX].).#X$XXX.X>XU.U.U.U.I.U.$XXX",
"@X>X-X+X>X>X>X XP.P.P.I.(.I./.'.>X@XE.I.).%X%X{.).).'.{.=X=X&X). X'.W.|.>X,X,X-X@XQ.E.oX,X,X:X:X[.).).{.$X$X-X-X(.U.I.I.I.(.XX`.",
"}.Q.}.oX$X X}.|.).(.(. X`.(./.).).).).'.).'.).).).).[.OX@X{.OX#X.X|./.).:X>X+X[.oX[.[.oX:X:XoX).OX{.).].|.XX.X.X'.I.U.(.'.XX$XXX",
"P.P.W.+X XP.P./.-X>X>X$X#X_.K.E.K.).=X:XOX!.E.].].{.:X:X].E.Z.L.K. X).|.%X%X}.).).@X=X@X@X).).].OX%X%X(.U.U.XXXXU.I.U.-X>X>X$X>X",
"W.U./.|.).I.I.).-X-X-X>X.X(./.E./.).=X=X'.K./.'.].'.&X&X).].$ $ % '.(.).$X+X).).).=X:X{.). X'.).).$X$X).I.U.|.XXI.E.(.$X-X$X$X-X",
"-X-X XI./.+X$X)././.'.$X#X.X X'.{.'.OXOX)./.E.].).E.E.: w y 5 5 5 : w : ).).].!.E.@X=X@X=X-X).E.E././.I.I.U.U.U.'.$X#X/.E.).).W.",
">X>X XG.I.$X>X XE.I.).$X$X$X-X%XOX}.'.#X'./.E.E.h.h.h.& & & 9 6 9 % & & h.j.h.T.E.OX=X=X:X%X_.G.W.W.I.I.I.I.P.P..X>X$XE.I.!.T.E.",
">X>X XI.E. X.X|.W.E.).#X'. X$X X$X$X$X.X'.K./.(.& % $ 6 6 6 s s s 5 6 6 % % % !.).%X:X%X#X X'.'./././.(.(.U.(.|.XX.X}.).).W.!.).",
"$X-X XI.I.W./.U.E./.'..X|.P.I.XX>X>X-X-X'.y < i 5 4 6 u u u s s s r s r 4 4 5 i i i [.&X#X'.'.$X|.|.XX'./.XX>X>X XI.W.>X,X:X[.).",
"-X$X'.U.U./.I.I.E./.(.XX(.P.I..X-X-X-X).K.% % % 7 7 7 s s s s s s s s s 9 8 9 % & & Z.!.{.{..X'.XXXXXX`.(.XX-X-X'.I.(.>X>X$X[.oX",
".X'.(.I./.XX$XXX(.'.XX$X.X(.(.$X>X$X X=.$ 6 6 6 d s d s s s s s s s s s s s s 6 6 6 & p ]._.]._.(.(.(. X$XXX'.`.U.I.U..X$X+XOX%X",
"/.(.U.H.I.>X>X>X X.X$X-X-XXXXX-X>X.Xy e t 6 9 s s s s s s s s s s s s s s s s s r 6 q u y J.U.U.I.I.I.XX>XXXI.P.I.I.W./.).$X:X:X",
"/.(.(.U.U.XX-X.X'.XXXX.X$X.X|.XX{.K.& 4 s 7 t s s s s s s s s d s s s s s s s s u 6 s q % h.K._./.)./. X$X XU.U.I.I.U.'.'.#X%X#X",
"/.P.(..XXXU.U.(.XXXX(.U.U.U.U.U.&.% % 5 s s s s s s s s s s s s s s s s s s s s s s s q % $ p '..X>X-X/.I./. XXX(.H.U..X$X(.I./.",
"I.I./.XXXXI.I.U.XX'.(.I.U.U.U.U...% r t 9 s r t s s s s s s s s s s s s s s s 9 q s 9 q r & p '.&X:X%X/.I.U.XXXXU.I.U.XXXX(.E.U.",
"U.`.`.(.|.U.U.(.U.`.U.U.'. X'.|.=.; s r 6 s r 7 s s s s s s s s s d s s s s s 8 q s 6 9 s ; f '.&X).OX'.(.`.U.'.U.U.(.U.(.'..X'.",
"XXXX`.(.U./.I.U.G.I.I.I.).-X:Xk.!.,Xs r 6 s s s s r 7 s s s s s s s s s 9 9 s s s s 7 7 s 1XoXk.{._./.'.$X'.U.E./.H./.E.G.).>X$X",
"XXXX`.U.U.(././././.W.U.).OX-Xk.T.,X9 t r 9 r s s s r s u t t t d 9 t s r r s s u 9 u r 9 1X1Xk.).'.'.'.'.`._./././._.E.E.).+X+X",
"U._.U.H.U.'. X X$X.X+X$X#X).).k.T.,Xe t s 9 t s u s s s r 7 7 9 s 6 t s s s s s u 7 s u e 1XoXk.).).]._./.K./.H./.'.'.'.$X$X X$X",
"U.(.U.H./.'..X.X-X-X-X-X%X)./.k.T.,X,XA.s s r 6 6 t s s s s 7 5 6 s s s s r 6 6 9 s s +.<X<XoXk.).)./._._.H.H.H.'.#X-X-X>X-X X.X",
"(.U.U.(.(.U.(..X$X$X.X X).#XOXk.z.Z.,X1XV.9 t u u r 9 9 9 7 5 7 6 9 q 9 9 e r s t 9 V.D.,XS.P.T.x.G.'./././.'.'.'./.'.#X). X.X X",
"U.(.(.XXXXU.I.`.>X$X'.I.).%X:Xk.k.k.<X,X,X0 s d u r 6 6 7 6 7 7 6 6 6 6 6 9 s d d 0 1X,X<Xk.z.Q.k.x.-X/.I.).'.'./.H.I././.|.>X-X",
"I.E.(.XX XU.I.U.-X.X).E./.%X=Xk.x.Q.k.T.,X,X>X>X7 6 6 6 7 6 7 5 6 6 6 6 6 6 7 1X,X>X,XoXk.W.Q.Q.c.G.%X(.E.).'.'./.E.U.E.E.'.$X-X",
"E./.(.'.|.W.U.(._._./.H./.'.).k.x.Q.z.z.S.T.Q.,Xb.b.b.b.b.b.b.b.b.b.b.b.b.b.b.,XoXS.T.x.k.z.S.Q.k.z.E. X$X.X'..X'.'.(./././.E./.",
"E.E./.'..X(.I./.I.U.I.I.E.I.I.k.x.Q.x.x.k.k.T.<X<X<X<X<X<X<X<X<X,X,X,X,X<X,X<X<XoXp.k.p.k.k.z.Q.k.z.E.+X:X$X'.'.'.'.'./.K.I.I.H.",
"W.).'.'.'.(.U./._._.U.I./.'.(.k.x.Q.x.T.Q.Q.T.k.k.k.p.p.k.k.k.k.k.k.k.k.p.k.k.p.m.6.6.6.6.6.7.k.k.z.E. X'.'..X#X'.'.'./.(.`.)._.",
").[.OX'.'.(.U.U.'.XX(.U.(.-X$Xk.x.Q.x.T.Q.P.T.Q.T.R.T.T.S.z.T.T.T.T.x.k.5.7.7.7.7.6.6.6.6.6.6.7.*.:._././.).'.{.'./._.)..X$X$X$X",
"@X@X).'.XX(.(._.XXXX_.I.(.$X-Xk.x.Q.x.T.Q.x.S.Q.Q.Q.Q.Q.Q.x.Q.Q.Q.Q.T.k.3.6.6.8.6.6.8.6.6.6.6.6. .;././././.'.'.(.U./.'.$X$X$X:X",
"@X@X).E.].'.XX'.U.`._.U.U.(.(.k.x.Q.x.T.Q.x.T.Q.Q.Q.Q.Q.Q.x.Q.Q.Q.Q.T.k.8.6.6.6.6.6.6.6.3.6.6.6. .@.E./._./././.'..X.X/.W.).-X>X",
"@X=X[.G.E.%X-X.XU.U.U.(.(.U.E.k.x.Q.x.T.Q.x.T.Q.Q.Q.Q.Q.Q.Q.T.T.Q.Q.R.m.6.8.6.6.6.8.6.6.6.6.1.#.i.c.E././.I.H.H..X>X-XI.I. X>X,X",
"=X:XoXE.E.{.#X'._._.U._./.I./.k.S.Q.x.P.Q.x.T.Q.Q.Q.Q.Q.Q.Q.x.T.Q.Q.R.n.3.6.6.8.6.6.6.6.6.6.,.L E.`.(.(./././.E.'..X X).). X-X$X",
",X:X&X{.)././._.-X.X`.U.U.U.(.k.x.Q.x.T.Q.x.T.Q.Q.T.k.k.k.k.x.T.Q.Q.S.n.6.6.8.3.6.6.6.6.6.6.,.L ).#X$X'.(.'.#X.X/.H./.$X>X(.P.E.",
",X,X+X X'.H.H.'.,X#X_.U.U.I./.k.x.Q.S.T.Q.x.T.Q.z.Z.7.n.5.7.Z.C.Q.Q.R.n.6.N.^.^.^.^.6.6.6.6.,.L W.>X+X|.).).'..X/.H._.:X:X).P.I.",
"%X>X$X/.).'./.(.'.`./._._./._.k.x.Q.x.T.Q.x.T.Q.k.m.8.6.8.6.n.C.Q.Q.R.n.6.N.,X,X<X<X8.6.6.6.,.L !.+X+XXX.X'./.(.(.I.E._.)./.I.E.",
"$X>X XG./.'.'.).H.H.K./._.U./._.I.k.Q.Q.Q.x.T.Q.k.m.6.6.3.6.n.C.Q.Q.R.n.6.N.,X,XY.N 4.6.6.6.,.L W.+X$X-X:X$X(.U./.U.H.H.I.I.E.E.",
"$X-X XE./.'.'.'.I././._.]././.'.W.k.Q.Q.Q.x.T.Q.k.m.6.8.6.6.n.C.Q.Q.R.n.6.N.,X,Xr.n 7.6.6.6.,.L T.>X$X$X$X'.(.K././._././././.W.",
"W./. X>X-X(./.(.%X$X.X'..X'.'.&XW.k.Q.Q.Q.x.T.Q.k.m.6.6.3.8.n.C.Q.Q.R.n.6.N.,X,Xe.  4.6.8.8.1.L W.>X$X(././././.`.'.'.$X$X'.).'.",
"E.I.}.>X,X(.I.).:X-X#X#X#X%X#X%XQ.p.Q.Q.Q.x.T.Q.k.m.6.6.8.8.n.C.Q.Q.R.n.6.N.,X,Xr.m 4.7.n.n.>.;.).-X$X/.E./.U._.'.'.#X:X>X X_.'.",
"/.E.(.$X'.(./.'.#XOX'.(.`.`.'.).Q.T.x.x.Q.x.x.x.B.7.6.6.8.3.n.C.Q.Q.S.n.8.8.D.D.c.! 2.B.S.S.Z.c./.+X.X).'.'._.'.'._.`.#X#X'././.",
"W.E.E.I.E.'.$X'..X X_././.(.K.E.I.W.z.x.Q.x.z.k.6.6.6.6.8.8.n.C.Q.Q.R.n.6.7.n.n.n.n.n.C.Q.Q.Q.Q.E./.).#X,X#X)..X_././.'.'.(./.E.",
"E.U.I.E.(.'.'.$X X.X_.I././.E._.E.).k.x.Q.x.x.k.6.6.6.6.6.6.8.N.Q.Q.Q.Q.M.C.Q.Q.Q.Q.Q.Q.Q.c.k.k.I.(.)..X%X%X'.'._./.(.'.#X_.E.(.",
" X+X(./.(.(./.(.$X$X(.E./.E.E.'.Q.K.T.T.T.T.T.T.m.2.#.6.6.6.8.B.C.Q.Q.Q.S.D.Q.Q.Q.Q.Q.Q.G.k.k.k.(.#X#X'.'.'././.(.K.(.#X$X'./.U.",
">X>X|.P.E.E./.(.-X%X(.I.E.I.E.{.W.k.Q.T.x.Q.Q.Q.k.:.L 8.6.6.6.B.n.Q.Q.Q.Q.Q.Q.Q.Q.Q.Q.T.k.k.k.k.).-X$X'.'./.E.E.U.U._.$X$X'.E.H.",
" X$X'./.)./.I.'.-X-X(.I.(.'.'.'.W.k.x.T.Q.Q.T.k.Q.Q.Q.% > L L z L ;.i.Q.Q.Q.Q.Q.Q.Q.c.z.Q.Q.Q.Q./..X.X(.'.(.I././.H./.%X:X'.E./.",
" X.X$X>X>X/.G./.>X$X).W.).%X%X#X X!.c.z.x.S.G.W.x.x.x.% ; a a a a f ..S.x.P.Q.Q.Q.Q.k.x.Q.Q.Q./.I././.).$X(.G.H.I.G./.$X-X).E.E.",
".X'.$X>X>XE.P.).-X$X|./.'.-X-XOX#X'.k.k.k.k.z. Xk.k.k.% & 6 6 6 5 5 f k.k.x.Q.Q.Q.Q.k.x.Q.Q.Q./._.E.E.)..X(./.U.E.E./.$X$X'./._.",
"(././.'.).(. X X).).'. X|.|. X X%X X)./.).{.).)./.).E.& 5 s s s d s s s 7 f k.p.k.k.Q.Q.Q.Q.Q..X).E.E././.|. X$X X X'.).).}. X$X",
"I.G.H.H.P.$X>X XI.E.#X:X$X(.).'.%XOX!.E.).=X@XE.G.w.b - 7 s 5 6 t s s s - w X.X.#.k.Q.Q.Q.Q.Q.,X'./.E.I.G.(.>X>X>X>X#XH.I..X>X>X",
"(.U.U.U.Y..X$XXXU.`.XX.X'.'.'.'.$X{.Q./.).{.).E.E.=.$ 5 9 s & - 6 s s s % 4 s d o.k.Q.Q.Q.Q.Q.OX/.).E.P.I.).$X:X$X$X'._./.#X:X:X",
"'._.`..XXXU.U.U.XX'.`._.'.#X{.'./.(.).).E.G.J.G.J.=.% 8 t s % - 6 s s s s e % s r 6 R.T.k.oXE.G.).+X$X).E._. X$X/.H._.'.'./.E.E.",
"'.(.'..XXXU.U.(.XX'.U.U./.{.'./.P.!.].).K.k.f.z.f.&.% r r s $ 3 r s s s =...2 d u r R.Q.T.Q.G.l.I.|. X).E.E.'.'.E.H.I.'.#X(./.E.",
" X.XXX(./.W.U.I.U.XX`.U./.'.{.].E.E.K.T.G.d.d.s.a...% u s s $ 4 s s s s p.u.) s s s !.Q.Q.Q.T.E.W.U.W.W.E./._.`./.E././._.'.'.'.",
".X>X.XI.I./.U.U.I.I.W.(./.E.Q.E.T.G.d.s.u.} } [ ` U & . O s $ 3 s k.k.k.3.8.8. .z g j c k.k.l.K.P.l.l.G.I.U.H./.I./.(.I./.'.-X$X",
"$X$X).I.(.U.U.|.(.W.U./.W.T.P.z.z.f.t.0.} [ ` ( ^ P 1 X O * ; w o.n.b.n.3.1.$.%.$.x h l t.y.y.d.l.f.F.I.E.I.U.(./././.U./.'.$X:X",
">X$X.X'.XXU.P.(.>X+X X|./.E.P.l.g.a.} } ` ^ ~ ~ W W J @ o . 6 p | B.6.6.3.<. .3.3.<.g k ^ ` q.t.f.l.I.).).'.XX'._.I.H.U.U.(.'. X",
".X>X$X.X XU.I.`.>X-X X/.P.P.z.t.:.{ ( ~ J A A G A A C $ = @ @ * 6  .z L L #.3.<.O.6 Z A A J R ^ 0.y.z.T.E.).XX`./.U.U.I.I.(.(./.",
"#X$X'.(.`.`.U._.XX(.|.'.P.l.s.} { ~ R Y G Z V C Z Z B % , K ~ ~ X.:.-.:.:.:.n.-.&.1 V V A S R ^ q.9.s.G.E./._._.U.U./.H.H._.{.'.",
".X'.'.I.U.U.U.U.H.I.U.`.I.g.e.` ~ Y J G C B B C C V # $ < ) c.k.k.k.k.c.k.k.k.| _ v V V V S Y ( ' ` q.F.G.I.H.U./.U.U.H.U.{.-X-X",
"'.'._._._.(._._.P.U.U.(.J.f.9._ Q Y H H C B B V V M v v # B . @ / / G @ @ @ @ . + v V V V S Y ^ { ` 9.l.H.H.I././.U.U.U.U.'.#X$X",
"K./.(. X`._.U.U.U.U.U.U.f.s.y.] _ Q J S D Z Z V M V C V B B . o # # @ o X X X . + V V V S Y R _ } t.d.l.l.H.(.(._.U.U.U.U.U.(.U.",
"H.K._.'.'.(.U.U.U.H.J.F.f.g.e.' _ R Y S G D C B B C K K M M . . . . . . . . . . + V A S E W W _ q.d.z.l.d.G.'.`.U.U.U.U.U.U.U.U.",
"/./.).#XXX X_.U.U.Y.U.U.H.H.F.w.w.q.] ` / / ( W T J Q J H A F S A F F S H H H Y E Y R ^ ' q.q.} d.z.T.K.G.W..X X|.`.`.`.U.U.U.U.",
"oX).&X:X$X.X'.`.U.U.U.U.U.U.U.F.j.g.y.9.9.} ) ) [ ( T T Q Q Y Q Y Y Y T ( / Q Q Q _ _ { 0.y.0.e.l.T.Q.).W.|.$X$XXXXX`.U.U.U.U.U.",
"oX).@X:X$XXX'.(.H.U.U.U.U.U.U.J.J.F.d.d.s.u.e.e.>.} ~ Q ` ] _ _ ^ ^ Q Q { ] ' ' ' ] q.0.d.l.a.y.z.W.oXQ.W.XX-X$XXXXX`.U.U.U.U.U."
};
