/* XPM */
static char *player_rs1693492154[] = {
/* columns rows colors chars-per-pixel */
"64 64 107 2 ",
"   c gray29",
".  c #646464",
"X  c #B53939",
"o  c #BA3F3F",
"O  c #BC4141",
"+  c #C84E4E",
"@  c #CC5454",
"#  c #C25858",
"$  c #CC5B5B",
"%  c #CF6060",
"&  c #DA6363",
"*  c #DD6E6E",
"=  c #DE7070",
"-  c #8F831A",
";  c #E7D31A",
":  c #1E6C82",
">  c #7E7E84",
",  c #238CA9",
"<  c #7E8086",
"1  c #3EBEE2",
"2  c #84858B",
"3  c #87888F",
"4  c #89898E",
"5  c #8D8D93",
"6  c #8F9095",
"7  c #919196",
"8  c #93949B",
"9  c #97999D",
"0  c #999A9E",
"q  c #BB9985",
"w  c #AB989E",
"e  c #9B9BA2",
"r  c #9F9EA8",
"t  c #AB9BA2",
"y  c #9FA0A5",
"u  c #A1A1A6",
"i  c #A4A5AB",
"p  c #AEA3AB",
"a  c #A7A9AF",
"s  c #ACACAE",
"d  c #B2A1A7",
"f  c #B1A5AD",
"g  c #B7AFAF",
"h  c #ABACB4",
"j  c #AEB0B5",
"k  c #B2B4B6",
"l  c #B3B3BB",
"z  c #BBB5BF",
"x  c #BABBBF",
"c  c #C5A18C",
"v  c #C6B5AB",
"b  c #CBB9AE",
"n  c #C3B9BB",
"m  c #E8BFA7",
"M  c #EFCBB4",
"N  c #F1CFB9",
"B  c #FFD1B6",
"V  c #FFD4BB",
"C  c #B8B7C3",
"Z  c #B7B9C0",
"A  c #BCBDC5",
"S  c #BEBFC9",
"D  c #C2BDC4",
"F  c #BEC1C7",
"G  c #C3C3CB",
"H  c #CACACC",
"J  c #D4D3CB",
"K  c #D9D3CF",
"L  c #C7CAD0",
"P  c #CBCBD4",
"I  c #CDCED9",
"U  c #CED0D6",
"Y  c #CFD0DD",
"T  c #D3D3D3",
"R  c #D2D4DB",
"E  c #D7D8DA",
"W  c #DCDCDD",
"Q  c #E9D1C4",
"!  c #D6D7E5",
"~  c #D8D7E3",
"^  c #D7D9E3",
"/  c #DBDDE5",
"(  c #D6D7E8",
")  c #DCDEEB",
"_  c #DEE0E7",
"`  c #DEE1ED",
"'  c #DEE3F1",
"]  c #E1E3E6",
"[  c #EBE7E7",
"{  c #E2E4EE",
"}  c #E7E8EC",
"|  c #ECECEC",
" . c #FAEFEF",
".. c #E3E5F2",
"X. c #E8E7F5",
"o. c #E6E9F4",
"O. c #EAEBF5",
"+. c #E7E9F8",
"@. c #ECEDFA",
"#. c #F0EFF6",
"$. c #EEF1F6",
"%. c #EEF1FC",
"&. c #F0F1F7",
"*. c #FCF3F3",
"=. c #F2F4FD",
"-. c #F6F9FF",
";. c #FBFCFF",
/* pixels */
"$.-.;.&.-.;.-.%.` } ` ' o.` ..=.;.#.X.{ O.;.=.X.X.#.=.=.#.=.=.=.%.O.} O.;.;.;.;.&.X.[ =.;.;.=.-.&.O.O.=.%.%.=.-.' ' ' ' ` +.%.=.",
"-.-.;.&.-.-.;.-./ _ _ ` ..' ..@.;.=.{ { O.=.=.#.#.X.#.#.;.;.;.#.%.X.o.$.;.;.;.;.*.#.} #.;.;.;.;.#.O.X.#.=.-.-.-.+.' ' _ ' ' %.+.",
"$.| | &.-.$.$.$.o.o.$.$.X.....X.O.O.O.#.#.O.X.O.X.@.#.=.#.#.#.=.=.O.o.O.-.;.&.&.#.#.O.*.;.-.&.O.%.&.O.X.+.$.%.%.+.` ' +.@.%.%.%.",
"} _ ` -.$._ _ o.-.-.-.-.=.o.` { _ O.=.;.#.X.{ X.X.#.;.=.O.{ @.;.-.@.o.O.-.-.O.| #.=.=.=.=.&.| X.&.-.=.X.` +.%.%.' ` ' -.;.-.-.-.",
"} _ } $.O.` ` o.-.-.-.-.%.o...{ o.O.=.-.O.] ..O.X.#.=.=.@.X.#.w w %.X.@.=.-.@.O.X.;.;.#.&.@.O.O.X.=.%.o.` o.$.%.` ' o.=.-.-.%.-.",
"-.-.$.` } %.=.O.o.o.$.%.=.@.%.@.&.@.&.%.O...{ X.X...' X.#.d d O O t t o.X.O.X.} X.#.=.=.-.-.O.{ { X.o.` _ ' ' ' %.=.%.o.} +.O.} ",
"-.;.%._ ` -.-.%._ ` O.-.=.=.-.-.&.@.&.=.#...` { X.` ) t d O O @ @ O O t t ] ] { { =.-.-.-.=.+.) { { _ _ ` ` ` _ %.;.=.{ { ] { ] ",
";.-.%.` ` $.=.$.} ` O.%.%.%.=.%.=.=.=.%.X.' { +...p d o O @ @ & & @ @ o o p f O.#.=.;.=.=.%.X.@.o.o.o.o.o.` ' @.%.%.$.X.@.| } O.",
"=.-.$.` ` ' ' ` ..o.+.=.O._ _ %.;.;.-.-.@.` ..@.z O O @ @ & & & & & & @ @ o o v ;.=.=.=.=.@.@.=.$.O.%.@.+.%.;.;.%.` } -.;.-.&.#.",
"-.-.@.' o.} ` ' o.` +.%.O._ ' %.-.-.-.-.@.o.+.A O + @ & & & & & & & & & & @ + + n -.=.=.%.@.%.@.%.%.%.O.o.%.-.-.+.` o.-.;.=.O.&.",
"%.@.+.` ` %.-.%.O.O.%.=.%.o.o.-.-.-.$.O...` A X & @ & & & & & & & & & & & & + & X D ;.%.X.X.X.+.o.o.O.@.%.%.+.+.` ` } =.=.=.=.=.",
"' +.' ` ` -.-.-.@.%.=.-.-.%.@.-.-.=.' ` _ ` X o & & & & & & & & & * & & & & & & O X ] #.' ' ' ' ` _ ` =.-.%.` _ ` ` ' +.O.=.;.;.",
"+.' O.o.' %.%.%.@.%.%.%.%.%.+.%.-.$.o.o.o.P + & + & + & & & & & & & & & & + & + & # D %.X...X.+.o.o.O.%.%.%.' ' ' ` ' +.@.=.=.=.",
"` ` o.%.%.' ' o.%.%.o.' o.' ' ' ' ' O.%.O.T ;.& @ & & & + & & & & & & @ & & & @ & *.E I %.%.@.@.%.-.-.` _ o.%.%.o.` ' %.=.X.` { ",
"' _ ' %.%.' ) o.%.%.o.' ' ' ' ' _ ` +.@.o.T ;.% & + & & & & @ + & + & & & & + & %  .E I @.@.%.%.=.-.-...^ o.%.%.' ` ' %.@.o.' ` ",
"' +.O.o.o.' ' ' o.o.' ' +.%.%.$.O.+.O.O.o.T ;.;.= & + + & & & + + & & & + @ & * *.;.E D X.@.@.%.=.O.%.%.+.+.+.+.' ' o.' o.%.%.%.",
"%.%.+.' ' ' ' ' _ _ ` _ O.-.;.=.-.=.o.) { T T ;.;.$ * & + + + + + + + + & * $ *.;.T [ E D { =.;.=.+...@.=.@.' ' ..` ..] ( O.;.-.",
"%.%.' ' +.+.' o.' o.' o.O.%.=.-.%.=.o...o.T | T ;.;.;.@ $ @ $ @ $ @ $ @ @ ;.;.;.E [ | E D X.=.=.@.@.@.O.@.X.....{ ......{ O.=.=.",
"' +.' ` ' @.=.%.-.%.=.=.=.O.O.#.o.o.&.=.O.T | W T T ;.;.;.;.;.;.;.;.;.;.;.;.T T T K } E D +.#.=.O.X.+.+...' ) ' ..%.%.&.=.=.$.=.",
"' ' ' ' ' +.%.-.-.-.-.-.=.O.o.{ / o.=.-.@.T | W | | K E T K T T T K T K T K B B B B K T D { #.#.@.o.......{ ) ) O.%.=.-.-.-.%.%.",
"o.' ' o.O.....%.=.=.%.@.#.%.&.O.O.O.$.=.X.T | W | W | | | | W | | | T B B B B B B B B c D @.@.#.&.@.@.o.{ o.+.@.X.o.@.%.$.%.%.$.",
"' o.+.%.%.' ` o.-.=.@.` X.-.;.-.;.%.{ ` { T | W | W | | | | W | | | T B B B B B B B B c P #.X.X.@.-.-.{ ) o.%.@.o.( ` o.} $.-.-.",
"` ' o.%.%.' ` o.-.=.O.` ..=.-.-.-.%.{ { o.T | W | W | | | | | W | | Q B B B B B B B c T ;.#.X.O.&.-.=.o.{ X.%.@...{ ` ....O.-.-.",
"' o.o.+.+.o.` o.+.+...` ..O.X.o.{ $.O.O.-.T | W | W | | J E T W | | Q B B B B B B B c P =.;.=.;.=.o.{ %.=.%.@.%.@.@.o.' o.o.` ..",
"` ` } %.@.+.) o.` ' ' ` ..) ` { ` ` $.-.-.T | W | W | T B B B Q | | Q B ;.;.;.B B B c P -.-.;.=.@._ ] =.-.=.@.@.%.@.@.+.` ) ] ) ",
"} $.O.%.@.+.' ..o.+.' ) ..X.X.o.O.O.O.%.=.$.T | | W | T B B B Q | | Q B ;.;.1 N B B c P =.&.#.=.=...o.O.%.@.=.@.@.@.o.o.o.o.X.+.",
"O.&.%.%.@.+.' ' @.@.o.) o.-.-.%.$.$.} ` ' ` T | | W | T B B B Q | | Q B ;.;.: M B B c G } { #.;.%.o.o.o.o.o.@.@.+.....X.%.=.=.=.",
"=.%.O.O.@.o.o.+.@.@.+.' +.-.-.=.%.%.` ` } ` T | | W | T B B B Q | | Q B ;.;., M Q Q b D } { =.;.=.o.....{ ..@.@.+.....@.=.%.-.;.",
"=.=.O.{ X.=.%.@.+.+.o.' ' +.X.@.-.=.} ' $.O.$.T | W T V B B B Q | | Q B Q Q Q Q [ | | U =.#.=.=.=.o.{ o.......o.%.%.%.o.o.$.-.;.",
"=.;.O./ { =.-.%.) ' ' +.o.' ..O.-.%.o.o.$.=.&.T | W J V B B B B | | | Q | | | | | E T U ;.;.;.-.O.{ ) ....` ) ) %.-.-.` _ %.;.;.",
";.;.&.] { %.=.@.' +.' ' ' ' ..@.-.=.O.@.O.$.T | W | | T q B B B Q | | | | | | | T T T U #.=.-.%.X.+.+.+.........@.%.%.O.O.%.-.-.",
";.;.*.@.X...' o.-.%.@.' ' ' o.@.-.=.=.$.O.' T W | | T | | X q q q b | | | | | K | | [ U X.{ X.` @.=.=.O.+.@.%.%...) } -.-.} _ ` ",
";.;.%.%.@.` ) O.;.%.X.' ' ' ..@.;.=.=.=.O.{ { T T T =.T U X + + + + T T | | | T | | W o.} ` o...o.-.-.O.o.X.@.%...) ..-.-.X.] _ ",
"-.;.%.o.O.@.o.X.O.+...X.X...+.@.=.=.=.=.#.X.O.O.@.@.#.#.%.X & & & & & + J T T | | | ] -.$.%.o.' O.=.=.$.=.@.o.+.+.) ' +.X.X.{ { ",
"-.;.$./ { %.%.o.) ) ' ' ..' ..+.#.=.-.=.&.X.X.O.#.X._ { X + & X + & & o & & T | | | } -.-.-.+.' o.-.-.-.-.=...' ..` ` ) _ ` { { ",
"=.-.%.{ ..@.@.@.' ..' X.+.....@.=.=.=.#.=.O.} o.| X._ / X + & X + & & & X & + [ T ] -.$.%.%.+.' $.=.-.=.-.@.+.............{ o...",
"o.o.$.-.-.X.{ X.=.=.%.%.%.@.%.=.;.#.} ] X.O.O.| ] _ E U X & & X & & & T g & & [ | / O.` ) +.' +.o.-.-.o.o.o.' ' +.@.@.-.=.@.@.o.",
"{ _ %.;.-.o.{ X.;.-.=.%.=.=.=.=.;.#.{ _ ] ] ] T T H D n X   & X & T T B B q - ; J L E R ! ` ' +.$.-.-.` ` ` ` o.@.@.=.-.-.%.o.@.",
"} } O.=.@.+.X.@.=.=.X.X.X.@.X.X.&.X.[ ] W T G x k s i u t .   + g B B B q B M - i Z G P I ! ' +.O.%.%.$.@.+.o.@.@.+.+.@.=.X.+.o.",
"` ` { ` ..@.=.@.@.@.X.........o._ ] O.} T A k u 0 7 7 5 4 X . . + q q q B m + 5 9 i l A G I ( ) ` o.O.%.-.=.@.%.+.' o.@.@.+...` ",
"} ' ` ` o.O.@.%.@.%.o.` +.{ ` o.{ } { ] H C t 8 5 2 2 2 > X g U T T J T U k 2 2 4 9 y j A I ( ' ` +.@.@.-.=.@.%...' ..%.%.X.....",
"$.-.O.` O.O.} +.-.=.o.` ..{ { @.#.%.#./ D l e 5 3 2 2 2 > < >   s s . . .   < < 2 6 y j S Y ( ) +.=.=.@.@.+.......' X.%.=.O.....",
"-.-.O._ ` ' ' +.-.=.o.` ..{ ..@.=.=.@.{ I C i e 8 5 5 5 3 3 2               < 5 6 e a Z P ( ) ` o.-.-.@.@.o.` ..' ..X.=.=.O...` ",
"%.-.%.o.@.} ` O.-.=.o.` o.X.X.%.;.#.@.X.( D C C h i r t r e 8 5 6 8 9 e 8 e y y h l F P R ` ` ` ..%.@.o.@.o.` ....) ..=.-.O...' ",
"%.%.-.;.;.} ^ o.;.-.O.} O.-.=.#.=.@.%.#.) I P Y H D l f h h f h s j k k j l F F L R _ E _ ` ' ..{ +.o.X.%.o.) _ ` / ..-.;.O.' ..",
"%.%.%.;.;.O._ o.-.=.@.o.@.=.;.=.=.@.%. .X.X.X.#.;.#...` ..X.#.=.-.-.;.-.o.o.%.-.%.-.-.O.+.+.' o.o.) { X.%.O.` { ` _ o.=.-.O.{ X.",
"o...' +.O.O.$.@.O.O.O.=.&.@.#.#.=.#.X.X.@.#.@.O.X.X.{ { %.=.#.@.$.&.-.&.} } =.-.-.$.o.$.=.=.+.$.@.{ { o.o.O.%.-.%.%.@.O.O.@.%.=.",
") ) ` _ ` =.-.%.) ..=.-.=.X.X.@.;.=.X.` @.;.;.{ { { { { =.;.=.X.} $.-.&.` ` O.-.%.` _ $.-.-.-.-.@.{ { ) / O.;.;.;.;.=._ _ =.;.;.",
"' ' ' ..o.%.%.+.' +.+.%.%.+.%.%.=.=.X.X.#.=.#.X.X.{ { X.#.=.#.@.o.$.=.%.o.X.O.=.&.O.} O.;.=.=.#.o.} } _ ) O.-.-.=.=.@.+...@.-.-.",
"%.o.+.%.%.' ' ' %.%.+.o.%.%.%.%.X.#.=.=.X.X.X.X.X.#.=.=.O.#.@.#.=.$.o.O.=.=.&.} O.#.#.;.;.;.X.] O.=.-.O.{ o.=.=...) +.@.@.+.{ { ",
"+.o.+.=.%.' ' o.%.+.+.' +.%.%.' X.@.=.;.#.{ { O.X.#.;.;.@.X.O.=.%.O.o.O.-.-.%.X.X.#.#.=.;.;.X._ o.=.-.O.) ..+.@...( ..@.=.X...` ",
"$.%.%.+.o.' ' ' +.+.+.' O.%.=.=.#.#.@.=.@.X.[ X.X.X.O.@.@.#.=.=.=.O.} X.@.#.O...} O.} X.;.;.#.#.$.O.O.' ..+.+.@...` ....+.@.=.O.",
"=.-.$.` ` ' ' ' ` _ } o.O.$.%.-.;.=.=.#.#.O.X.] [ { _ X.#.;.;.=.;.O.` { O.O...] ..{ ] O.;.;.=.;.%.} ) ` ..' ` ..' ..o.' ` @.-.=.",
"=.-.O.` +.' ' O.o.o.o.+.O.$.$.=.=.;.=.#.#.O.X.} X.{ } X.#.=.=.#.=.o._ ..X.X.X.+.O.{ { @.=.#.=.=.%.o.o.O.o...' o...........@.-.-.",
"-.-.%.%.=.' _ o.-.-.%.%.=.-.-.=.=.=.=.=.#.} #.#.=.=.#.#.=.=.#.X.o.` ' ....X.@.=.#.{ { { X.X.@.@.%.%.-.-.=.=.@.%...' ) ) ) ..@.@.",
"=.-.=.%.$.' ' +.-.-.-.$.$.-.-.=.;.=.;.-.#.X.| =.*.;.;.;.;.;.#.X...) ) ` ) ..@.;.#.{ ` X.) ..X.X.$.%.-.-.-.=.=.@.' ' ` ' ' o.o.+.",
"%.=.@.@.+.+.' +.=.%.%.%.%.%.O.=.#.X.=.;.#.O.O.;.;.=.#.#.;.-.O.o.+...@.+.` o.%.@.@.X.@.@.' ..#.#.%.O.@.@.=.@.@.+.' X...' ) +.%.@.",
"%.=.+.' ' ' ' ' ` ' %.-.-.+.o.' { { =.=.#.X.| ;.;.=.} X.#.;.=.X.o.%.-.=.' _ o.+.@.@.@.@.....=.-.%.{ ) @.=.o.' ..' ' ' ) ' +.-.-.",
"%.%.@.' +.' ' +.` ' %.-.=.%.+.o.) X.#.=.#.X.#.=.;.=.O.X.&.=.=.+.+.%.-.%.o.` o.+.X.@.@.@...X.%.;.%.} ] @.%.o.' o.X.' ' ' ' @.-.=.",
"' o.' +.%.+.' ' ' ' ' ' ' ' ' } { X.X.X.X.#.| X.| #.;.;.%.#.O.{ o.o.@.o.` ' +.%.@.+.....X.@.%.%.%.=.=.o.{ +.@.+...' ' ' ' ' o.' ",
") _ o.@.%.o.' ' ' ' ' ' ' ' ' ' ` ) { { } #.X.} ] #.;.;.%.o.o...' o.O.o.` _ o.%.X.+.` +.@.=.O.@.O.;.;.{ _ } %.%.' ' ' +.' ' ' ' ",
"{ { X.=.%.%.+.' ' ' ' +.' @.@.o...X.X.X.#.=.#.#.O.#.=.=.O.+.X.o.} o.+.o.O.+.+.+.+.....X.=.@.@.X.#.;.;.X.} o.%.%.@.+.+.' ' ' ' ' ",
"&.O.=.-.%.%.%.+.' ' ' ' ' @.%.@.@.@.#.%.=.=.-.;.;.&.[ { @.%.@.+.O...` ' -.-.@.` ..` ..O.-.=.+.` #.-.;.=.o.=.-.-.%.%.+.' ' ' ' ' ",
"&.O.=.;.%.%.%.+.' ' ' ' ' @.%.@.#.@.#.#.=.;.;.;.;.&.~ / $.%.%.%.o.o.` +.-.-.+.` ..' ..@.-.=...) | ;.;.*.o.=.-.%.%.%.+.' ' ' ' ' "
};
