/* XPM */
static char *player_us1693492154[] = {
/* columns rows colors chars-per-pixel */
"64 64 109 2 ",
"   c #4A4A4A",
".  c #504B4B",
"X  c #646464",
"o  c #75767B",
"O  c #77797E",
"+  c #AF3A3A",
"@  c #B53939",
"#  c #BA3E3E",
"$  c #B74545",
"%  c #BC4141",
"&  c #B94C4C",
"*  c #BD5353",
"=  c #C84E4E",
"-  c #C25757",
";  c #CC5454",
":  c #CC5B5B",
">  c #D45C5C",
",  c #CF6262",
"<  c #D66262",
"1  c #DB6464",
"2  c #DC6F6F",
"3  c #DE7171",
"4  c #7C7D82",
"5  c #818287",
"6  c #85868B",
"7  c #8C8D92",
"8  c #929296",
"9  c #95959C",
"0  c #97999E",
"q  c #BD9683",
"w  c #BB9985",
"e  c #A6939A",
"r  c #BFA292",
"t  c #9A9BA1",
"y  c #AB9CA3",
"u  c #ACA0A7",
"i  c #A4A5AB",
"p  c #AFA2AA",
"a  c #ABACAE",
"s  c #B6A5A6",
"d  c #BBA7A7",
"f  c #B7AFAF",
"g  c #A7A6B0",
"h  c #ABACB4",
"j  c #AEADB8",
"k  c #B0A8B1",
"l  c #B8ADB4",
"z  c #B6AFB8",
"x  c #AFB1B8",
"c  c #B2B4B6",
"v  c #B8B0B0",
"b  c #B3B3BB",
"n  c #BBB2BA",
"m  c #C6A28D",
"M  c #CAA590",
"N  c #C6AB9C",
"B  c #C0B6B7",
"V  c #C1B8BD",
"C  c #E4BCA4",
"Z  c #E8BFA7",
"A  c #FCCFB4",
"S  c #FFD1B6",
"D  c #F9D1BB",
"F  c #B7B7C1",
"G  c #B8B7C2",
"H  c #B6B8C0",
"J  c #BBBBC4",
"K  c #C1BFC5",
"L  c #C0C0C4",
"P  c #C3C3CC",
"I  c #C7C9CE",
"U  c #CBCBCF",
"Y  c #D1CCCC",
"T  c #C5C6D0",
"R  c #C7C9D2",
"E  c #CCCCD3",
"W  c #CDCEDA",
"Q  c #CDD0D4",
"!  c #D4D4D4",
"~  c #D3D3DC",
"^  c #D7D8DD",
"/  c #DCDCDC",
"(  c #D5D6E2",
")  c #D7D9E3",
"_  c #DADCE5",
"`  c #D7D9E9",
"'  c #DCDEEB",
"]  c #DEE0E6",
"[  c #DEE1ED",
"{  c #DEE2F1",
"}  c #E3E4E7",
"|  c #E2E4ED",
" . c #E7E9EC",
".. c #ECECEC",
"X. c #FAEDED",
"o. c #E3E5F2",
"O. c #E8E7F5",
"+. c #E6E9F4",
"@. c #EAECF5",
"#. c #E6E9F8",
"$. c #ECEDFA",
"%. c #F0EFF6",
"&. c #EEF1F6",
"*. c #EEF1FC",
"=. c #F0F1F7",
"-. c #FCF3F3",
";. c #F2F4FD",
":. c #F6F9FF",
">. c #FBFCFF",
/* pixels */
"&.:.>.=.:.>.>.;.[ [ [ [ +.| o.*.>.=.o.| %.>.;.O.O.%.;.;.;.;.>.;.*.@.+.&.>.>.>.:.;.....;.>.>.-.>.=.@.@.*.;.*.*.:.{ { { { { #.*.*.",
":.:.>.=.:.:.>.;.] ] ] [ o.[ o.*.>.=.| | O.;.;.%.%.O.$.-.;.;.;.-.$.@. .&.>.>.>.:.-.O.| %.>.>.>.:.$.@.O.%.;.:.:.:.+.{ [ ] ] { *.*.",
"&.&...=.;.*.&.&.+.@.$.$.$.o.o.@.%.@.@.%.%.%.O.O.O.O.%.;.=.=.-.;.;.$.+.@.>.>.-.&.%.%.%.%.>.>.*.$.;.%.$.O.+.&.*.*.#.{ { #.$.*.*.*.",
"] ] [ :.&.] ]  .:.:.:.:.*.o.[ | ] O.;.>.;.| | O.O.*.>.;.O.o.%.;.;.*.+.@.;.:.&.@...;.>.;.-.&.@.| $.:.;.O.{ #.*.*.{ { { :.:.:.:.:.",
" .]  .&.#.[ [ +.:.:.:.:.*.+.o.| | $.;.:.%.' | %.O.=.;.;.%.o.%.;.*.&.@.$.;.;.&.@.O.-.>.;.%.%.$.@.@.;.;.o.[ o.*.*.[ { @.;.:.:.;.:.",
":.:.&.[  .*.;.$.o.o.&.*.;.$.=.$.=.$.=.;.O.o.| O.O.o.| O.;.;.%.e e @.+.+.@.@.@.| O.;.;.;.;.;.@.| | +.o.[ [  .{ { &.;.*.+. .#.+. .",
">.>.*.] [ :.:.&.[ [ @.:.;.;.:.:.*.*.%.;.$.| | o.e e e e y s y % % y y | | | [ | o.=.;.:.:.:.O.' | [ [ [ [ { [ ] *.>.=.| } | } | ",
">.>.&.[ [ *.;.&. . .@.*.*.*.;.*.;.;.;.=.O.o.| p % % % % % % % ; ; # % u y | | @.%.;.>.;.;.*.$.O.+.+. .#.{ {  .#.*.*.$.@.$.@.} @.",
";.:.&.{ [  .{ { { o.$.*.@.] [ *.>.>.:.:.#. .k # ; ; ; ; ; ; ; 1 1 ; ; % # y l >.>.:.;.;.*.$.*.*.*.&.&.$.+.*.>.:.&.[ +.:.>.>.=.@.",
":.;.$.{ { { { [  .o.#.*.#.] [ *.:.:.:.:.G c # ; 1 1 1 > 1 1 1 1 1 1 1 ; ; # # B >.>.;.;.*.$.*.*.*.*.*.#.+.*.:.:.#.[ +.:.>.;.%.=.",
"*.*.+.{  .*.;.*.#.$.*.;.*.+.+.:.:.:.$.$.@ # ; 1 1 > > = 1 1 1 1 1 1 1 1 1 ; = = n :.>.*.O.O.#.O.+.+.$.$.;.*.+.#.{ [  .;.:.=.=.;.",
"#.{ { ] { :.:.:.$.*.;.:.:.*.*.:.:.;.{ [ @ = 1 1 > # # = ; 1 1 1 1 1 1 1 1 1 = 1 # V :.%.{ { { { { ] [ *.:.*.[ [ [ { { +.@.:.>.>.",
"+.{ +.+.+.*.;.*.$.$.*.;.*.*.&.*.;.$.+.+.@ = 1 > @ = = = 1 1 1 1 1 1 1 1 1 > 1 > % @ K %.o.o.O.O.{  .#.&.:.$.{ { [ [ #.#.@.$.:.*.",
"{ [ +.;.*.{ { +.*.*.+.{ { { { { [  .$.&.@ 1 > * - = = = 1 1 1 1 1 1 1 1 1 ; 1 = < ; K J *.;.$.$.;.:.:.o.[ +.*.*.{ [ [ *.;.#.| o.",
"[ [ { *.*.{ [ { *.*.+.{ { { { { ] [ @.&.@ 1 @ ..>.< = = = > 1 1 1 1 1 ; 1 1 > ; < X.^ ! R *.*.*.;.>.:.o.` o.#.*.#.[ { *.*.O.{ [ ",
"{ &.+.+.#.{ [ { +.+.{ { #.*.$.*.@.&.#.&.$ 3 $ ! >.>.= = = = = = 1 ; 1 1 1 1 ; 1 , X.! ! K $.*.*.;.$.$.&.+.+.$.#.{ { o.{ #.$.*.$.",
"*.*.#.{ { { { { ] [ [ [ #.:.>.;.:.:.+.' ! >./ ! >.>.> = = = = = = < 1 1 = = 1 3 -.>./ ! K o.;.:.*.#.O.$.;.@.o.o.o.' o.| _ @.>.:.",
"#.*.{ { #.#.+. .+.{ {  .@.=.;.:.;.$.O.o.>.>.>...! >.>.: : = = = = = = = 1 2 : X.>.!  .! J o.;.:.$.@.@.$.@.O.o.o.o.o.o.| | @.:.=.",
"{ #.{ { { *.*.*.:.*.*.;.*.$.@.=.o.@.%.$.Y >.! ../ ! >.>.>.; ; ; ; ; ; : ; -.>.>.! ..../ J | %.;.$.#.#.O.o.{ o.' o.$.;.$.:.:.*.*.",
"{ { { { { $.*.*.:.:.:.:.:.@.| | ] o.:.:.*.! ..../ ..! ! >.>.>.>.>.>.>.>.>.>.! ! / ....! K | %.%.$.O.o.o.o.' ' { @.$.;.:.:.:.&.*.",
"{ +.{ +.#.+.{ *.:.*.*.&.$.%.%.@.@.#.*.*.@.! ......../ ..! ! ! ! ! ! ! ! ! ! / ......../ K O.%.%.$.*.$.+.| o.#.@.@.o.$.*.&.&.*.*.",
"{ { +.*.*.{ [ +.:.:.$.[ O.:.>.:.>.*. .} [ ! ......../ ....} ..../ ..../ ..../ ........! U %.O.O.$.:.:.+.' +.*.$.O.` [ +.[ &.>.:.",
"{ +.+.*.*.{ [ +.;.;.O.| o.;.>.:.:.*.| [ w ..! ....../ ..../ ..../ ..../ ..../ ......! ..N K %.O.&.:.;.+.o.@.$.$.o.[ [ o.| $.:.:.",
"{  .+.$.$.+.{ { +.O.o.[ o.$.$.o.| &.@.&.w ..! ....../ ..../ ..../ ..../ ..../ ....../ } N P =.:.=.+. .$.;.$.$.*.$.$.+.o.o.+.[ { ",
"{ [ +.*.*.o.[ #.{ { { [ o.[ [ | [ [ &.:.w S ..! ..../ ..../ ..../ ..../ ....} ..../  .D M I >.;.&.[ | =.>.;.$.$.*.*.$.O.[ [ [ [ ",
" .@.@.&.$.O.{ o.o.#.{ [ o.#.+.o.@.@.#.&.w D S ! ....../ ../ ..../ ..../ ../ ......! D A M K ;.;.=.| +.$.$.$.*.*.$.$.#.o.o.+.@.o.",
"$.=.*.*.$.O.{ { $.$.#.' O.;.:.*.*.$. .[  .w w ! ....../ ../ ..../ ..../ ../ ......! m q n | ;.>.*.@.@.o.o.+.$.*.#.o.o.@.*.;.;.;.",
"=.=.$.@.$.#.o.#.$.*.#.[ O.:.:.;.*.&. .[  .[ ] ..! ..../ ../ ..../ X.../ ../ ....~  .P ]  .| ;.>.=.#.o.o.o.o.@.$.o.o.O.$.;.*.:.>.",
";.;.@.| O.%.$.$.{ $.{ { #.o.+.$.;.;. .{ &.&.&...! ....} ......../ ..../ ../ ....! ..U %.;.%.;.;.;.+.{ o.o.o.O.o.*.*.&.@.+.&.:.>.",
"=.>.%._ | ;.:.;.{ { { #.#.{ | @.:.;.#. .&.*.=...! ..............................! ..E %.>.>.>.;.$.| [ o.o.{ ' ' *.:.:.[ [ *.>.>.",
">.>.=.| o.$.;.$.{ #.{ o.{ { o.*.:.*.$.$.&.&.&.! ..........! ! ......! ! ..........! E %.=.;.:.;.@.O.+.+.o.o.o.[ $.*.*.@.@.*.:.:.",
">.>.;.%.@.| o.o.:.*.#.{ { [ +.*.:.;.;.&.#.{ [ + ! ......! ....! ..! ....! ......! & ~ @.O.| o.{ $.;.;.$.+.$.*.*.o.[ [ :.:.@.] ] ",
">.>.=.$.$.{ ' @.>.*.O.{ { { o.$.>.;.*.;.@.| | @ 1 ! ! ! w w q ~ ! ! w w w ! ! ! 2 # ! @.} o.o.o.@.:.:.@.@.@.$.*.o.[ O.:.:.@.' ' ",
">.>.=.@.@.$.o.#.$.#.O.{ O.O.O.*.;.;.;.;.$.| @ 1 1 1 1 1 1 1 1 1 1 1 1 1 1 1 1 1 1 1 # W $.$.#.' @.=.=.*.*.$.o.+.o.{ { O.@.o.| | ",
":.>.$.' o.$.$.@.` [ { O.o.{ { O.*.;.>.:.%.w ! f 1 = 1 1 1 1 1 1 1 1 1 1 1 1 1 = 1 d E r E :.#.{ @.:.:.:.>.*.O.{ o.{ { ' [ [ | | ",
";.:.$.| o.$.$.@.{ o.{ O.#.{ o.$.;.;.=.$.w S S ! v @ 1     X X X X X X X     < # s E S S m I O.o.@.:.:.;.;.*.o.o.o.o.o.o.o.| +.| ",
"o. .*.:.:.@.| @.;.;.*.*.$.$.*.;.;.=.| } w S S Z ! @   1 1 1 1 1 1 1 1 1 1 1 . + Y Z D A m J { { &.:.:.o.o.o.o.{ $.#.$.;.;.$.+.@.",
"| [ *.>.>.O.' @.>.:.*.*.;.*.;.;.>.%.] ^ / w S Z w 1 1 1 1 1 1 1 1 1 1 1 1 1 1 1 q C A m b ` { #.&.:.:.o.[ o.{ o.$.$.;.>.>.*.+.$.",
"#. .@.=.$.O.O.$.;.*.O.O.@.$.@.@.%.%.} / E L w w w 1 1 = 1 1 1 < ; 1 1 1 1 = 1 1 q w w h P W ' { o.*.*.@.&.$.#.$.$.#.#.*.;.@.o.O.",
"[ [  .[ o.$.*.$.*.*.o.{ o.o.o.o.] } O.] U b i 9 @ 1 1 1 = = @ @ @ @ @ = = 1 1 1 @ 8 i x G R ` ' [ o.@.*.:.;.#.*.#.{ o.$.$.+.o.{ ",
" .[ [ [ @.#.&.*.*.*.o.' o.o.| o.| | O.] U z y 9   k ~ ! ! @ 4 o o O 4 @ ! ! ! c   8 i h J W ` { o.+.@.*.:.;.*.*.o.{ O.$.;.#.o.o.",
"*.;.@.[  .+.o.#.:.;.o.[ o.| o.$.;.=.%.} W G g t 9   X X X   5 4 4 5 6   a X X   8 0 h H T ~ ` ' O.;.*.$.$.+.o.o.o.{ O.;.;.@.o.o.",
":.:.&.[ | o.[ #.:.;.+.[ | | o.$.;.;.;.O.` K F j g g   .   t 9 7 7 8 0 0       t i h J I ~ [ [ [ #.:.:.@.@.O.[ o.o.{ O.;.;.$.{ [ ",
"*.:.$.+.@.o.[ &.:.;.+.[ +.@.@.$.;.;.;.%.o.W R W K K G G z z g g i a c c h h b H P Q Q ] [ o.o.{ o.*.$.#.$.+.[ o.{ ' o.;.:.$.{ | ",
"*.*.:.>.>. .) o.>.:.#.| %.;.;.*.;.$.;.;.O.( ( | } ( U K T K K U I U ! Q I R ~ ] ] o.&. .[ +.{ o.[ O.o.@.*.@._ [ [ _ | :.>.$.[ | ",
"*.&.*.>.>.@.[ +.:.;.@.@.$.;.>.;.;.%.%.*.$.[ | O.%.| ( ~ ( ( _ ' ]  . .] ^ ] [ @.&.&.&.+.+.+.#.{ o.| o.@.*.#.[ | | [ +.;.;.$.o.o.",
"+.o.o.#.+.$.*.&.@.@.$.$.$.%.;.%.;.%.O.O.%.%.%.O.O.O.| | *.;.*.$...=.:.;.{  .*.:.*.@. .&.*.*.*.&.+.o.[ o.o.&.*.:.*.&.@.#.@.*.=.;.",
"' ' [ ) [ :.:.&.[ o.;.>.;.O.O.;.;.;.| o.%.>.;.O.| | } | ;.>.-.O. .&.:.&.[ [ &.:.;.[ [ &.:.:.:.:.*.| | [ _ @.>.>.>.>.;.] [ ;.>.>.",
"o.{ { { { *.*.*.{ #.*.*.*.*.#.*.;.=.O.O.%.;.%.O.O.| | O.;.;.*.O.@.&.=.*.@.| $.;.=.@.| %.>.;.-.;.+. . .' [ @.:.:.;.;.$.O.o.*.:.>.",
"*.#.#.*.*.{ { { *.#.#.{ #.*.*.*.O.;.;.;.O.O.| O.O.%.;.;.%.O.O.;.:.#.@.&.;.:.%...@.%.=.>.>.>.O.] @.:.:.@.| +.*.;.o.' o.$.$.O.[ o.",
"#.#.$.*.$.{ { +.*.*.{ { #.*.*.#.O.O.;.;.%.| | ..O.;.>.;.$.O.O.*.*.@.| @.:.:.%.O...%.=.;.>.>.o.]  .;.:.#.[ o.$.$.o.` o.$.*.#.| o.",
"&.*.*.+.+.{ { { #.#.#.+.+.*.:.*.%.%.;.;.;.O.O.O.O.O.%.%.%.-.;.;.*.@.| @.*.$.@.O.o.@.| O.>.>.%.%.&.@.#. .{ O.#.@.o.{ o.o.O.$.*.@.",
";.:.*.[ [ {  .{ ] [ { @.@.&.*.:.>.;.;.*.%.@.O.] } ] '  .=.>.>.;.>.@.[ | $.O.o.' | | | %.>.>.;.>.&.#.[ [ o.o.{ o.{ o.o.{ o.$.:.;.",
";.:.$.{ { +.{ @.+.+. .@.&.@.&.=.;.;.;.-.@.%.O. .O.O.| O.%.>.;.*.;.+.[ o.O.O.O.o.O.| | %.;.-.*.;.&.o.o.@.O.o.{ o.#.o.o.{ o.@.:.:.",
":.:.&.&.&.{ [ +.:.:.*.*.;.:.:.:.;.;.;.;.%...@.=.-.;.;.-.;.;.%.O.o.[ [ o.O.o.O.;.;.| ' o.O.o.O.O.*.*.:.:.;.;.*.*.o.{ ' ' [ o.$.*.",
":.:.*.*.*.{ [ #.>.:.:.*.*.:.:.=.>.;.>.:.%.O...;.:.:.>.;.>.>.*.| o.[ ' [ [ o.*.>.*.o.| | | O.O.O.$.*.:.:.;.;.;.$.o.{ { { [ +.#.o.",
";.;.*.+.#.#.{ #.;.*.*.;.*.*.&.*.%.O.;.>.-.O.O.>.>.:.%.%.:.:.$.O.+.O.$.+.[ #.$.$.$.O.$.@.o.O.*.*.$.@.$.;.;.*.$.#.{ o.{ { ' O.*.$.",
"*.*.#.{ { { { { [ [ *.:.;.$.{ { } | ;.;.%.O.%.>.>.;.O...;.>.;.O.+.*.:.;.{ [ +.#.$.$.$.$.{ o.;.>.*.| ' $.;.#.{ o.{ { { { { $.:.:.",
"*.*.#.#.{ #.{ #.[ { *.:.*.&.$.+.` O.$.-.O.O.%.:.>.;.O.O.%.;.*.O.#.*.:.;.o.{ +.#.O.$.$.$.o.O.*.:.*.| | @.*.+.{ #.O.{ { { { #.;.;.",
"o.{ { #.*.#.{ { { { { { { { { +.O.O.O.O.%.@... . .%.>.>.%.%.@.| #.+.#.+.{ { #.&.$.#.o.O.#.$.*.*.=.;.;.o.o.o.#.$.o.{ { { { { #.{ ",
"' | o.$.*.+.{ { { { { { { { { [ ' ' | | O.%.%.| } %.>.>.*.+.O.o.[ +.*. .[ ] { ;.$.o.[ o.$.;.$.$.%.>.>.| ]  .&.*.{ { { #.#.{ { [ ",
"| | @.;.*.$.#.{ { { { { { *.$.#.O.O.O.O.%.=.%.=.@.%.;.;.$.+.@.o.{ +.+.+.#.$.#.#.O.o.o.O.;.*.@.O.$.>.>.@.[ @.*.*.#.#.#.{ [ { { { ",
"=.@.=.>.;.*.*.#.{ { { { { *.*.$.$.$.*.*.=.:.;.>.>.=.} | $.*.#.#.&.+.[ { :.:.&.{ o.{ { $.:.*.o.| %.>.>.;.&.*.:.;.*.*.#.{ { { { { ",
"=.@.;.>.;.*.*.#.{ { { { #.#.*.$.*.$.$.%.;.>.>.>.>.%._ ] &.;.*.$.+.+.{ +.:.:.#.{ o.{ { @.>.:.o.' ..>.>.=.+.*.:.;.*.*.*.{ ' { { { "
};
