/* XPM */
static char *ea5fa647433a4050a31ff203cf6c8051DcVkUFInD9PN4S5q[] = {
/* columns rows colors chars-per-pixel */
"64 64 203 2 ",
"   c #4A4A4A",
".  c #585858",
"X  c #514B4D",
"o  c #7B4241",
"O  c #734D4D",
"+  c #646464",
"@  c #747274",
"#  c #74747B",
"$  c #7B7A77",
"%  c #746B72",
"&  c #B53937",
"*  c #B53939",
"=  c #B83C3C",
"-  c #BC423F",
";  c #865656",
":  c #89585A",
">  c #9E595A",
",  c #BD4342",
"<  c #B94747",
"1  c #AB4F50",
"2  c #BE5B5D",
"3  c #B35D5C",
"4  c #A85959",
"5  c #BA645B",
"6  c #956565",
"7  c #8B6F72",
"8  c #BF7471",
"9  c #B96A67",
"0  c #C54B4B",
"q  c #C84E4D",
"w  c #C14745",
"e  c #C9504F",
"r  c #C35454",
"t  c #CB5354",
"y  c #CA5957",
"u  c #CF5758",
"i  c #C15D5F",
"p  c #CD5959",
"a  c #D05857",
"s  c #D45C5D",
"d  c #D55A5C",
"f  c #DA605F",
"g  c #C5645E",
"h  c #C25E61",
"j  c #D75F60",
"k  c #C26263",
"l  c #C4686B",
"z  c #D66261",
"x  c #DB6565",
"c  c #DC6C6B",
"v  c #CE7972",
"b  c #C47A7B",
"n  c #C57372",
"m  c #D67677",
"M  c #C76C71",
"N  c #C78577",
"B  c #CA807F",
"V  c #D1817B",
"C  c #7C7C83",
"Z  c #7F8085",
"A  c #828285",
"S  c #858689",
"D  c #8C8C8D",
"F  c #8C8D94",
"G  c #8F9298",
"H  c #979797",
"J  c #94959B",
"K  c #979998",
"L  c #BC9985",
"P  c #BC9985",
"I  c #A99A95",
"U  c #B68382",
"Y  c #AAA09E",
"T  c #BAA093",
"R  c #9C9CA4",
"E  c #9E9FA9",
"W  c #9699A2",
"Q  c #A09FA5",
"!  c #9DA0A9",
"~  c #A4A5AD",
"^  c #A7A6AB",
"/  c #B7AEAF",
"(  c #B7A7A7",
")  c #ACABB2",
"_  c #AFAFBA",
"`  c #A6A7B3",
"'  c #B8AFB0",
"]  c #AEB0BA",
"[  c #B3B3BB",
"{  c #B7B8BC",
"}  c #BBBABC",
"|  c #B2B2B5",
" . c #CA8789",
".. c #D98383",
"X. c #D58889",
"o. c #C29F8B",
"O. c #C79999",
"+. c #D89091",
"@. c #D0979E",
"#. c #E48C8B",
"$. c #C2A28F",
"%. c #C4AA9E",
"&. c #D6B099",
"*. c #E19FA0",
"=. c #C9ABA4",
"-. c #D9A9AF",
";. c #CDB6AA",
":. c #C5B1A5",
">. c #CCBBB3",
",. c #CCBEBC",
"<. c #D6BBB5",
"1. c #DBAAB0",
"2. c #E4BDA4",
"3. c #E9BBBB",
"4. c #CBC3BF",
"5. c #E8C0A7",
"6. c #F3C6AD",
"7. c #F6CAB1",
"8. c #FDCFB5",
"9. c #EDD2BF",
"0. c #FFD1B7",
"q. c #FDD2B8",
"w. c #E9CCBA",
"e. c #B5B6C1",
"r. c #BBBDC4",
"t. c #BCBEC8",
"y. c #C1BFCC",
"u. c #BFC0C5",
"i. c #BEC2CC",
"p. c #C5C4C3",
"a. c #C3C3CB",
"s. c #CACACD",
"d. c #D4CCC7",
"f. c #D7CAC9",
"g. c #C6C6D2",
"h. c #C7CAD3",
"j. c #CBCCD4",
"k. c #CDCEDA",
"l. c #D7CDD4",
"z. c #CFD1DD",
"x. c #D3D3D3",
"c. c #D2D2DC",
"v. c #D7D9DD",
"b. c #DCDCDC",
"n. c #DDD3D1",
"m. c #EECCCB",
"M. c #E8C1C4",
"N. c #ECD3CC",
"B. c #ECD2C1",
"V. c #F8D9C7",
"C. c #E1D6D4",
"Z. c #E3D6DE",
"A. c #E0D8D6",
"S. c #F3D6D6",
"D. c #F0E6DD",
"F. c #D4D6E2",
"G. c #D6D9E4",
"H. c #DBDCE4",
"J. c #D7DBEA",
"K. c #DBDEEB",
"L. c #DFD5E0",
"P. c #E5DAE4",
"I. c #E1DEEC",
"U. c #E6D9E3",
"Y. c #DEE0E6",
"T. c #DEE1ED",
"R. c #DEE3F1",
"E. c #E4E4E4",
"W. c #E2E4ED",
"Q. c #EBE5EB",
"!. c #E6E8EE",
"~. c #ECECEC",
"^. c #F7EBEC",
"/. c #E3E5F2",
"(. c #E8E7F5",
"). c #E6E9F4",
"_. c #EAEBF5",
"`. c #E5E6F9",
"'. c #E6E9F9",
"]. c #EBEDFA",
"[. c #F1EFF5",
"{. c #F1EFFC",
"}. c #EEF1F6",
"|. c #EDF0F4",
" X c #EEF2FA",
".X c #EEF1FD",
"XX c #EEF1FD",
"oX c #F2F2F5",
"OX c #F1F1F9",
"+X c #F1F2FA",
"@X c #F2F5FA",
"#X c #F1F2FD",
"$X c #F2F5FE",
"%X c #F7F7FF",
"&X c #F5F5FE",
"*X c #F2F4FE",
"=X c #F6F9FE",
"-X c #F6F9FE",
";X c #F9FAFF",
":X c #FAFEFF",
">X c #FDFEFF",
",X c #FBFDFE",
"<X c #FBF6FA",
/* pixels */
"}.=X=X@X=X:X:X@XT.W.R././.T./.{.;XOXW.I.].;X%X(.(.[.+X<X+X;X&X+XXX_.).|.:X>X;X-X+X~.Q.%X>X:X@X;X+X(._.+X.X.X$X:XR.R.R.R.T.).XXXX",
"-X=X=XoX=X:X:X.XY.Y.Y.T./././.{.,XoXQ.W._.%X%XOX(._._.OX%X;X%X[.XX].W.|.>X>X,X-X<X~.Q.oX>X>X;X;XoX_.(.OX$X=X=X=X/.R.T.T.T./.XX'.",
"}.|.|.@X@X@X}.|.).).'.]._./.W._._._._.[._._._.(._._.{.&XoXOX+X]. X}.).].;X,XoXoX[.[.[.OX;X>XoX].OX{._._._.XX$XXX'.R.T.).'.XX$XXX",
"E.b.!.@X XY.H.).:X:X:X@X#X(.K./.I.(.&X;X+X!.W.(.(.#X<X&X_.W._.[.Z.Z.Z.|.%X;X_.~._.@X%X+X+X_.).Q.OX%X%X(.R.R.XXXX/.T./.=X:X:X@X:X",
"!.T.).]._.Y.T.).=X@X=X=X.X)././.!._.%X%X_.I.W.].(._.&X&X_.(._.3.* * n _.@X&XOX_.).;X<XOX_.+X_.]._.@X@X).T./.XXXXR./._.@X:X=X@X%X",
"=X=X XT./.@X@X]./.).].@X#X].+X].OX].OX#X_.i 2 i i i 2 2 i h h r 0 0 r 2 h  .(.W.!.XX;X&X;X%X_.W./.(.'.T.T.R.R.R.].@X.X/.W.).)./.",
":X:XXXH.Y.@X:X XW.W._.@X@X@X=X%X#XXX[._.Z.= = = = = = = = = = , q e 0 = = l l.n.Z.OX%X%X;X@X`.K.T.Y.T.Y.T.T.Y.T..X:X%XW.W.Q.E.W.",
":X:X XT./.XX.X XW.W.].#X#X.X@XXX@X#X@X-.* q q q q 0 q q q q q t x x d q q w * * M ;X;X%X#X#X]._.).)./.'./.R.)._..X.X_._._.).E.[.",
"@X=X XT.T.W./.R././.'..X|.Y.T..X;X;Xk r 0 f x s j s x s x f s x x x x j x d 0 0 e h h +.{.].].#XXX|. X].R.XX:X:X XT.).:X>X;X[._.",
"=X@X]./././.T.T.W./.).XX'.Y.W.E.^.Q.* , r x x x x x j x x x x x x x x x x j t e 0 * = l U.{.{.]. X.XXX'.'. X:X:X'.T./.:X>X@X[.oX",
".X]./.R./. X$XXX'.'. X$X.X).).* * * 0 u x x x x x s q x x x x x x x x x x x x x j q 0 0 & I.`.`././.). X.X.X'.'.R.T./.@X@X+X+X%X",
"/.)./.J.T.:X:X:X XXX@X:X:X.X.X* , 0 s x x x a , w w q t u x x x x x x x x x x x j j q e d h  .I.T.T.W. X:X.XT.T.Y.T./.)._.@X;X;X",
"/./.)./.R.$X=XXX'.XX.X.X.X.X'.* , q x x x j t = * , q e a x x x x x x x x x x x x x t u x = 9 L.).).).].@XXXR.R.T.T./.'.]..X%X#X",
"/.T.)..XXXR.R.)..XXX)././.R.T.* , q x x x & - q q q q x x x x x x x x x x x x x x x x x x = & * Q.;X%X!.Y.).XXXX/.T.R..X#X_.W./.",
"T.T.R.$XXXR.T.R..XXX/.T.R././.* w j x u , * , q q q q x x x x x x x x x x x x x j t j j t d e * f.P.;X/.H./.XX.X/.T.R.XX.X/.R.R.",
"R.'.).)._.R.T.R.).).R./.'.].].* 0 x x p < < < q q q q x x x x x x x x x x x x x j t x j q j j < d.v._.OX'.'.'.'.R.R././.).]..X].",
"XXXX'./.R.R.T./.T.T.T.T.].=X;X* 0 x * B ~.>X3.q q q q q a f x x x x x x x s 0 x x x x s q x #.>Xv.x.x.].#X]./././.K./.T.H.].:X@X",
"].XX'.R./.)././././.T.W._.@X@X& 0 x * b v.>X^.S.q q q q e t t t u x s u x x s x x x a a s t ..>Xx.x.x._._.'././.W./.(.W.T.].@X@X",
"R.'.R.K.R. XXX X@X.X#X@X+X_._., y c < b x.>X>X>Xq q q e e q q q 0 x s t x x x x x j t t x a V >Xx.x.x.W./.I.K./.(.]..X.X@X@X X@X",
"R.`.R.K.R.'.XX$X=X%X=X=X%X_.(.x.E.>Xx.x.x.>X>X>Xq q q q e q q q q q u x x x x e q q x x x <X>X>Xn.x.x./././.K.K._..X%X@X=X=X.X@X",
").W.R.)._.R.).XX@X@X.X]._.+X[.oX<X>XoX~.E.E.~.>Xm.*.e e q 0 q q q q q u t u t s j j a m S.<X<Xb.W.E.x.!.W./._.'._./.].#X].}.@X.X",
"/./.'.XXXXR.T.).;X@X]./.(.%X>X>X>X>X>XoX~.x.E.,X>XM.y y t q q q q q q 0 e q q x x c p ..>X,XoXx.~.E.x.!.T.)..X].(.J.T././.].:X=X",
"T.W.)..XXX!.T.R.=X@X).W./.%X;Xx.E.>Xx.b.~.b.n.x.>X>X>X>XM.q q q q q q 0 q q e e ..>X>X>X>Xb.b.~.~.E.x.W./.).].]././.W.R./.].@X=X",
"W./.).'. XR.R.).`././.W./._._.I.E.b.E.~.~.b.Y.E.Y.Z.E.>X^.m.m.B.m.m.m.m.m.m.m.m.S.>Xb.P.b.b.b.~.~.E.x.].#X.X].#X_.].)./././.W./.",
"W.W./.XX#X(.T./.T.R.R.T./.T.W./.b.x.~.~.~.b.E.~.x.x.x.>X>X>X>X,X>X>X>X>X>X>X>X,X>X>Xx.x.x.b.E.~.~.E.x.].;X@X].].].#X_.(.R.T.T.K.",
"!.)._.].].).R././.'.R.T./.'.)./.Y.x.~.~.|.~.~.~.b.E.~.x.x.x.x.x.x.x.x.x.x.x.x.x.x.x.b.E.~.~.~.~.[.E.x._..X]..X.X].].'.(./._.).(.",
"_.OX+X].].).R.R.].XX/.R._.=X=X.XE.x.~.~.~.~.~.~.b.E.~.E.b.A.E.E.E.b.b.E.E.b.n.E.E.E.b.b.~.~.~.~.~.E.x.W./.).]..X'././._.#X@X@X@X",
"+X+X_.OXXX'./.`.]..X).R.'.@X@X@XW.x.~.~.~.~.~.~.b.E.~.~.~.b.~.~.~.b.b.~.~.~.b.~.~.~.b.E.~.~.~.~.~.E.x.W.W./.].].(././.].#X@X@X:X",
"<X@X_.W.(.OX.X].`.`.`.R././.'.L >.~.x.A.~.~.~.~.b.E.~.~.E.b.~.~.~.b.E.~.~.E.b.~.~.~.b.E.~.~.~.~.x.v.~.$.%./.(./.]..XXX)./.].=X:X",
"+X;X[.H.W.%X=X.XR.R.R.R./.R./.P >.~.x.A.~.~.~.~.b.E.~.~.~.b.~.oX~.b.E.~.~.~.b.~.~.~.b.E.~.~.~.~.n.b.~.$.%.T.T.J..X:X%XT.Y.@X:X:X",
"<X,XOXW.W.].#X].`.`.R.`./././.P >.~.x.b.~.~.~.~.b.E.~.~.E.b.~.~.~.b.b.~.~.E.b.~.~.~.b.E.~.~.~.~.x.n.~.T %./././.].XX.X]._.@X=X=X",
">X,X&X]._././.`.@X@X].R.R.R./.P &.0.~.E.x.~.~.~.b.E.~.~.E.b.~.~.~.b.E.~.~.~.b.~.~.~.b.E.~.~.E.x.~.D.0.$.=._.#X.XW.K./.@X=X'.Y.Y.",
">X>X@XXX].T.J._.>X&X`.I.R././.P &.0.V.B.x.~.~.~.~.E.E.~.~.A.~.~.~.b.E.~.~.E.b.~.~.b.~.~.~.~.E.x.V.V.0.$.%.].]..X/.K.(.%X=X].H.Y.",
"%X:X+X!.].].(.)._.`././.`./.`.P &.0.0.9.x.~.~.~.~.E.b.~.E.b.~.~.~.b.E.~.~.~.b.~.E.b.~.~.~.~.E.x.q.0.0.o.=.]./.)./.T./.)._./.T./.",
"@X:XXXH.W.].XX).J.K.R./.(.R./.`.f.L L :.x.~.~.~.~.~.b.~.E.b.~.~.~.b.E.~.~.~.b.~.~.b.~.~.~.~.E.x.P P L ~.=X#X/./././.K.K.Y.T.W.W.",
"@X=XXXW./.].].]././././.(././._.~.C.n.b.E.b.E.~.~.E.b.~.~.b.~.~.~.b.E.~.~.E.b.~.E.b.~.~.~.b.b.E.n.C.C.oX%X{.`.R././.(././.W.)./.",
").).XX:X=X_./.).#X@X.X].].]..X&X=XoX!.!.~.x.b.~.~.E.b.~.~.b.~.~.~.b.E.~.~.~.b.~.~.b.~.~.~.x.v.~.XX:X@X).)././.I.]._..X@X@X.X_.'.",
"W.Y. X:X>X).K._.;X;X#X#X#X#X#X&X;XoXW.E.~.x.b.~.~.E.b.~.~.~.~.~.~.b.b.~.~.E.b.~.E.b.~.~.~.x.b.~.|.=X%XW.W./.R.`.].]..X;X:X.X).].",
").W.).#X].).(.].@X@X].'._.]._._.XX~.~._.~.x.b.~.~.~.~.~.~.~.~.~.~.~.E.~.~.~.E.~.~.~.~.~.~.x.b.~.]..XXX].]._.`.].].`.'.#X#X_./.).",
"W.T./.Y.R.].#X]..X].(./././././.E.~.<X@X~.x.b.~.~.~.~.~.~.~.~.~.~.~.~.~.~.~.~.~.~.~.~.~.~.x.x.~.W./.).XX;X@X].].`././.].].(././.",
"W.W.Y.T.'.].].@X.X.X).T.(./.I.(.W.).#XQ.x.~.~.~.~.~.~.~.E.x.x.v.~.~.~.~.x.x.x.!.~.~.~.~.~.~.E.x./.)._..X%X@X{.].(.R.(..X.X`././.",
" X@X].W.).)./.).%X@X).W./.T./.OX#X&X@XM.8 H.E.~.~.~.~.H.b.E.E.b.b.~.E.b.E.E.E.b.b.~.~.~.~.Z.d.n I.#X@X].]._./././.R.).#X@X]././.",
":X:X XT.W./.W.).;X@X).T./.W./.].;X;X&X1.& x.b.~.~.~.~.x.b.~.~.E.x.~.E.n.~.~.~.x.A.~.~.~.).x.=.* P.;X%X]._.(.T././.I.(.@X%X_.T.W.",
".X@X]./.)./.W.].=X@X].T./.]._.].%X&X{.1.& x +.x.x.x.x.P P P L %.x.x.x.x.P L L L :.x.x.x.x.c d & U.#X]._.].'.W./.W.K./.@X=X_.T./.",
".X#X@X>X:X).H./.:X@X].W.].@X%X{.&X].X.n t x m +.+.+.+.v v v v V +.+.+.+.v v v v N +.+.+.+.c j t b @./._.#X).J.K.W.J./.@X:X_.R./.",
".X].@X:X:X!.Y.).=X@X].!.].=X=X+X&X_.& 0 x x f x x x x x x x x x x x x x x x x x x x x f x z x x = k /.'.XX).W.W.W.Y.(.@X@X]././.",
")./.(.'.!.].XX].]._.].XX|.]._.+Xf.o.x.4./ c s q x x x x x x x z x x x x x x x x x x x f q x v / x.p.L H./.].@X@XXX].].].).XX+X@X",
"K.K.Y.J.Y.@X:XXXW.W.XX:X#X).).<.<.2.9.f.p. .n w x 5 ; : : 6 6 6 6 6 6 6 6 6 6 : ; ; x f ,  .%.p.B.w.2.;.,._.:X:X:X:X#XT.Y..X:X:X",
"/.R././.R.XX$XXXR.'.XXXX].].].L &.q.0.B.x.' U * x 3     . + + + + + + + + + +       g e & ( } x.8.8.q.o.%.!.@X=X@X#X].(.(.].;X;X",
"].).'.XX].R.R.R.XX'.'.R.'.XX].L &.0.0.7.2.x.O.*   O x c x x x x x x x x x x x x x x X O & d.d.5.8.8.q.o.%.W..X#X/.K./.].].(.T./.",
"'./.]..X XR.R.).XXXXR.T.R._./.,.;.&.8.7.2.:. .t > 3 x x x x x x x x x x x x x x x x > 4 e %.;.5.8.7.&.>.y.P.(._./.J./.].#X).W./.",
" X.X.X/.).R.R.T.'.'.'.R./.).).G.,.L q.7.5.o.N x x x x x x x x x x x x x x x x x x x c c c N $.5.8.6.P j.c.J././.T.W././.(.]..X].",
".X=X XT.T.W.R.R.Y.T././.W.Y.Y.v.j.p.L L L L N x x s q x x x x x x q u x x x x x f q f x x L P L L T _ a.g.z.J.K.K././.R.R..X=X@X",
" X.X).T.).R.R.|.).).W./.W.Y.H.j.s.r.Y I I 5 g x x j d y a a q q q , w 0 0 r u p a d x x x g 9 I I I ] a.h.k.G.J.R././././.].@X=X",
"-X@XXX].XXR.Y.).:X@X X|.).!.Y.s.y.{ ^ Q J & 0 x x x x q e q * * * & & & * - e e t x x x x = 1 G ~ ` { j.x.J./.).R.K.J.T.T./.].].",
" X-X#XXXXXR.T.).:X:X X].!.!.E.s.p.{ ^ Q G   % / x.x.x.x.O.= C # # # # # # 6 & d.x.x.x.s.' X . F E ` { j.c.H././.K.R.R.T.T.'.'./.",
"].@X].).'.'.R.'.XX].XXXX).Y.Y.h.y.[ ) ^ Q % $ $ H H H H 7 o C C C C Z C C % o { | H H H $ @ C R ` ) e.k.c.H.R.W.I./.`.K.K.`..X].",
"]..X)./.R.R.R.R.T.T.'.-X'.T.v.a.r.{ | ) Q J @   + + + + +   S A C A S S C %   ^ K + + .   F W ~ ) ^ _ j.F.G.J.J.I.R.R.K.R.].=X=X",
"].].'./.`.R.R.].T.R.'.$XXXR.T.z.g.g.p.y.[ ^ ^ )   X     + R J G G G W W F F G         + E ` [ r.a.{ y.F.H.J.Y./.`.R.R.I.R.].@X@X",
"/./.`.'.].].R.R.R.R.R.'.R.J.Y.J.z.j.a.y.y.} | | A A S A F Q R J W W W W J W ! A Z C C F _ e.t.g.s.c.v.H.F.K.).'./.R.R.R.R.R.`.R.",
"H.K./.]. XR.R.R.R.R.R.R.J.T.T.F.F.k.g.a.s.p.t.{ | { ,.{ ] ` ~ ~ ! ! ~ ! ! ! ` ] _ _ _ e.t.g.g.j.c.E.W.H.c.Y.XX].R.R.R.'.R.R.R.R.",
"/.Q._.&XXX'.'.R.R.R.R.'.R.'.].R.K.I.K.H.H.H.v.v.j.x.c.j.g.a.y.t.e.i.i.u.i.i.i.h.g.g.g.k.J.K.F.G.E._.}.Q.Y.)..XXX'.'.'.R.R.R.R.R.",
"[.[.&X;X$XXXXX'.R.R.R.R.R.].XX`._.(.).)./.Q.~.~.W.v.j.j.z.z.z.h.h.i.i.h.G.v.z.h.h.k.k.F.W.W.G.H.~.oXoXoX|.XX$X$XXXXX'.R.R.R.R.R.",
"oX_.{.;X$XXXXXR.T.R.R.R.R.XXXX].{.(._.)._.+XoXoX~.W.j.j.H.K.H.G.G.G.k.v.Y.Y.J.z.F.F.F.T.[.].H.H.W.@X>XoX!.XX-X-XXXXXXXR.J.R.R.R."
};
