/* XPM */
static char *_d62de323f974ac1b3407ec8ced4840728ZDKQNALbsa5zEf[] = {
/* columns rows colors chars-per-pixel */
"64 64 208 2 ",
"   c #12647A",
".  c #4A4A4A",
"X  c #565656",
"o  c #5B5A5A",
"O  c #6B5051",
"+  c #5D5E60",
"@  c #5F6062",
"#  c #666666",
"$  c #78797C",
"%  c #797977",
"&  c #6C6D71",
"*  c #B53937",
"=  c #B53939",
"-  c #B93C3D",
";  c #B53738",
":  c #9F4E4D",
">  c #8A5756",
",  c #A34D4E",
"<  c #BC4342",
"1  c #B74948",
"2  c #B15457",
"3  c #976065",
"4  c #BE6163",
"5  c #BE6867",
"6  c #AD7779",
"7  c #C14746",
"8  c #C24847",
"9  c #C54C4B",
"0  c #C84E4D",
"q  c #C9504F",
"w  c #C74F50",
"e  c #C94E50",
"r  c #C25353",
"t  c #CC5454",
"y  c #CF5758",
"u  c #C85A5A",
"i  c #D45C5D",
"p  c #D0605F",
"a  c #C25E61",
"s  c #D75F60",
"d  c #C26C6C",
"f  c #C56965",
"g  c #D66161",
"h  c #DB6565",
"j  c #DD6D6C",
"k  c #C47973",
"l  c #CC7272",
"z  c #8F841A",
"x  c #B7A819",
"c  c #BBA737",
"v  c #C6B618",
"b  c #EBD81A",
"n  c #AE9B4F",
"m  c #C0A367",
"M  c #7C7C83",
"N  c #1D809D",
"B  c #1887A5",
"V  c #7F8085",
"C  c #32BAE2",
"Z  c #818286",
"A  c #83848B",
"S  c #88898E",
"D  c #88888E",
"F  c #948889",
"G  c #868990",
"H  c #8B8C93",
"J  c #8C8C98",
"K  c #908F94",
"L  c #8F9095",
"P  c #919295",
"I  c #93949B",
"U  c #9A9A9D",
"Y  c #BC9985",
"T  c #9D9CA2",
"R  c #9E9EAA",
"E  c #9CB5B9",
"W  c #A2A2A3",
"Q  c #A4A4AC",
"!  c #ABAAAD",
"~  c #A6A8AD",
"^  c #B7AEAF",
"/  c #A9B4AE",
"(  c #A6A7B1",
")  c #ABABB3",
"_  c #ABACB6",
"`  c #B0AEB4",
"'  c #AEB1BA",
"]  c #ADB0B5",
"[  c #B1B2B6",
"{  c #B4B5BC",
"}  c #B9BABE",
"|  c #CA8083",
" . c #CA8B8C",
".. c #D98383",
"X. c #D58889",
"o. c #CF989E",
"O. c #CE9697",
"+. c #D89292",
"@. c #E58D8C",
"#. c #C2AC9E",
"$. c #D3AD97",
"%. c #D9B29B",
"&. c #CFA9A8",
"*. c #CAADA7",
"=. c #D6A8A9",
"-. c #D3B8AA",
";. c #D2ABB3",
":. c #C9B8B0",
">. c #C0BCBB",
",. c #DBB2B7",
"<. c #C6B6AA",
"1. c #E4BBA2",
"2. c #E7BAB8",
"3. c #E5A3A4",
"4. c #D6C5B9",
"5. c #E9C0A7",
"6. c #F2C7AE",
"7. c #E7C3B9",
"8. c #EED1BF",
"9. c #FFD1B7",
"0. c #F4D1BD",
"q. c #FED1B9",
"w. c #B6B7C2",
"e. c #BCBCC4",
"r. c #BDBEC9",
"t. c #B8B9C4",
"y. c #C2BEC8",
"u. c #DFBCC2",
"i. c #EBBFC0",
"p. c #BEC0C4",
"a. c #BEC1CB",
"s. c #B2C8C6",
"d. c #C1C1C6",
"f. c #C3C3CB",
"g. c #C9C9CC",
"h. c #DCCECB",
"j. c #D8D1CD",
"k. c #C4C5D1",
"l. c #CACCD3",
"z. c #CDCDD9",
"x. c #C6C8D5",
"c. c #D8CCD4",
"v. c #CFD1DA",
"b. c #D4D3D3",
"n. c #D3D4DB",
"m. c #DAD6DC",
"M. c #D7D8DC",
"N. c #DCDCDD",
"B. c #DCD5D3",
"V. c #EECCCB",
"C. c #ECC6C5",
"Z. c #EAD2C3",
"A. c #E5D5CD",
"S. c #E7D3C7",
"D. c #F8D8C5",
"F. c #E6D9D8",
"G. c #F4D7D7",
"H. c #F1C1C1",
"J. c #DEE0DF",
"K. c #EBE2DD",
"L. c #F4E2D7",
"P. c #D4D6E2",
"I. c #D7D9E4",
"U. c #DBDCE4",
"Y. c #DBDEEB",
"T. c #D7DBEA",
"R. c #E3DCE2",
"E. c #E5DAE4",
"W. c #DEE1ED",
"Q. c #DEE0E5",
"!. c #DEE3F1",
"~. c #E3E3E3",
"^. c #E2E4ED",
"/. c #E6E8ED",
"(. c #ECECEC",
"). c #EBE3E5",
"_. c #FFEFE5",
"`. c #F4E9EA",
"'. c #FFF1E6",
"]. c #E3E5F2",
"[. c #E9E7F4",
"{. c #E6E9F4",
"}. c #EAECF5",
"|. c #E5E7F8",
" X c #E6E9F8",
".X c #EBEDFA",
"XX c #F1EFF5",
"oX c #F1EFFC",
"OX c #EEF1F6",
"+X c #EDF0F6",
"@X c #EEF2FA",
"#X c #EEF1FD",
"$X c #EEF1FC",
"%X c #F2F2F5",
"&X c #F1F1FA",
"*X c #F2F5FA",
"=X c #F1F2FD",
"-X c #F2F5FE",
";X c #F7F7FF",
":X c #F4F5FE",
">X c #F2F4FE",
",X c #F6F9FE",
"<X c #F6F9FF",
"1X c #F9FAFF",
"2X c #FAFDFF",
"3X c #FDFEFF",
"4X c #FCFDFF",
"5X c #FAF6F6",
/* pixels */
"OX,X,X5X,X2X2X-XW.^.W.W.].W.].=X1X%X/.E..X3X;X}.[.}.;X:X:X:X;X&X@X.X].+X2X3X1X,X%XXX/.:X3X1X:X1XXX}.[.:X#X#X-X2X{.!.!.!.W.!.#X$X",
",X,X,X*X,X2X2X@XQ.Q.W.W.].].^.oX1X%X/.^.}.:X;XXX[.[.}.%X:X1X:X&XOX.X/.+X2X3X4X,X%X(./.XX3X3X1X1XXX}.[.}.-X<X<X<X!.!.W.W.W.{.$X+X",
"+X+X(.*X*X*X@X+X}.{.{.@X}.].].}..X}.}.}.oX}.}.[.}.}.&X%X%X%X&X:X@X.X]..X1X2X5X}.XXXXXXoX1X1X&X}.&XoXoX[. X$X-X$X XW.W.{. X$X$X$X",
"Q.Q./.*X@XQ.T./.<X2X2X-X#X[.Y.].~.[.;X1XoX^.^.[.[.XX1X;X[.^.}.XXE.F.F..X:X1X}.(.(.:X:X:X%XXX}./.&X;X:X{.W.!.$X-X{.W.!.<X3X2X-X2X",
"/.W./.@X}.W.W.}.,X,X,X,X#X{.].^.[.}.:X;X}.E.].}.[.}.:X:X}.[..X,.= = l [.:X-X.X}.}.:X;X%XXX}..X}.}.-X-X].W.{.@X$XW.].{.-X,X-X*X1X",
"<X<X@XW.].@X-X.X[.]..X-X=X#X&X.XOXoX&X=X.X^.].}.[.].].|.i.a a r 0 0 1 4 u  .[././.=X;X:X:X:X.X]./.].{.W.W.!.!.W.{.-X#X[.].}.}./.",
"2X2X@XT.W.-X2X+XW.W.}.*X-X-X,X:X&X}.@X=X.X[.^.^.{.U.u.c.o.- - < q t 9 - - f c.c.F..X;X:X1X:X}.Y.^./.W.W.W.W.W.W.-X2X-X^.E./.~.^.",
"2X2X@XW.^.OX#X@X/.^..X=X@X#X-X@X-X-X-X.X{.^.].{.].;.= = < w 0 t h h i 0 0 9 * * l ;X1X:X:X#X.X}.].].].]./.!.!.+X#X#XOX}..X/./.[.",
"-X-X@XW.W./.!.].W.]. X#X+XQ.Q.$X2X2X-X-X.X].,.a 4 4 8 i i g g h h h g s p i 9 8 w f a X.#X.X.X=X+X@X$X+X].#X2X2X@XW.].3X3X1X}.XX",
"2X-X.X].].].W.W.^.].{.$X.XW.W.@X2X,X2X-X.Xm.o.= ; < 9 h h h h h h h h s h i 0 t 0 = = d E..X.X.X.X$X$X X{.#X,X2X XW.].2X3X-X}.%X",
"#X.X{.W.].@X-X$X{.@X$X-X$X{.{.-X2X-X@X{.[.* < 0 0 7 = h h h h h h h y ; h h h h s 0 0 8 ; E.[.]. X{.{.@X-X#X X{.!.W.].#X:X&X%X;X",
"].{.!.W.W.-X2X<X@X#X#X2X<X$X@X<X2X@X^.;.4 y y 9 i q = h h h h h h h y = h h h h h s e e s a | !.W.W.W.$X2X-XW.W.W.W./.{..X:X1X1X",
"].].}.].!.-X<X<X.X.X$X-X-X$X+X$X-X@XR.o.* h i 0 h t = h h h h h h g t = g g h h h h e y h * f E.].}.}.}.-X@XW.!.!.W.{. X.X#X:X=X",
"!.W.{.#X@X!.!.!.$X$X{.].!.!.!.!.W./.; = * h h h h y = h h h h h h = = ; 0 y h h h h h h h - * * ^.3X:X].W.{.#X#X{.T.W.#X-X{.^.].",
"W.W.!.-X$X!.W.{.$X$X].W.!.!.!.!.T.^.; 7 i t i h t 9 * h h h h h h = - 8 0 y h h s t h s t i e * `.1X:X[.T.].$X#X].W.!.$X$X{.W.!.",
"!.{.{.{. X!.W.!. X!.].]. X@X X@X.X}.1 t h 0 y h 0 9 * s h h h h h = < 0 0 t g h s 0 h s 0 h i 1 E.[.oX.X{.{. X X!.!.].!.{.@X#X.X",
"$X$X X].].].W.!.W.W.W.W.{.-X1X:X/.b.3XH.h 0 y h 0 0 0 * 8 h h h h = < 0 0 0 0 h h h h s 0 h @.3XM.m.{.#X-X.X!.^.].Y.].Y.U.}.2X-X",
".X$X X!.!.{.{.].].]././..X=X:X:X^.b.3X2.y i i y 0 0 0 1 8 7 t i h ; < 0 0 0 0 s h h t y i t ..3XB.m..X.X.X X].].W.[.{.^.]..X*X*X",
"!.|.!.T.!..X@X+X-X#X*X-X&X}.}.}.R.b.3X2.y h i 0 0 0 0 0 8 * y i j 1 < 0 0 0 e s h s 0 t h i ..3XM.m.{.].].!.Y.].{..X#X.X-X-X@X*X",
"!.|.!.W.!.+X$X-X,X:X,X,X:X}.[./.m.b.3X3X3Xh h h 0 0 0 0 0 0 b.~.3Xb.=.0 0 0 e 9 0 0 h h h 5X3X3XM.M.].{.|.E.Y.W..X.X,X,X2X:X@X-X",
"].].!.{. X!.{.$X-X-X#X.XoX=X&Xm.Q.~.J.(.3XG.3.t i i 0 0 0 0 %X5X1X%X7.0 e e e 9 t i y j G.3X5XJ.b.M..X].].].}. X.X[..X#X.X@X-X@X",
"].].{.$X$X!.W.{.2X-X.X^.[.:X2Xb.J.(.b.~.3X3X2.y j h 0 0 0 0 2X2X3X3XC.0 e e e e y j i X.3X2X%Xj.b.N.,X].W.}..X.X].T.W.[.W.OX2X,X",
"W.^.{.#X@X{.W.!.,X-X].W.[.=X;Xb.N.(.(.K.b.3X3X3X3X2.0 q 0 9 j.J.3Xb.&.0 t e e y m 3X3X3X3Xj.N.(.b.N.*X{.^.{.#X.X].W.^.!.^..X-X-X",
"^.].{. X@X!.!.{.{.{.].W.].}.[.b.N.(.M.M.b.Q.F.~.3X`.V.V.V.V.%X5X3X%X).V.i.G.i.i.G.3X~.~.J.N.J.(.b.N./.+X=X#X.X#X.X.X{.!.[.].^.].",
"/.^.].#X#X].W.{.W.!.!.W.].Y.^.b.J.(.j.b.b.b.j.b.3X3X3X3X2X2X3X4X3X3X3X3X3X3X3X3X3X3Xb.b.b.N.Q.(.b.M.W.=X1X-X.X.X#X#X}.|.].Y.W.Y.",
"/.]..X.X$X{.!.].!. X].W.].}.{.b.b.b.9.9.9.9.9.9.b.b.j.b.b.b.b.b.b.b.b.b.j.b.b.j.b.b.(.(./.K.Q.(.b.M./.@X=X.X#X#X.X.X{.{.[.{.}.{.",
"}.&X&X.X.X{.!.!..X.X{.W.}.-X:X#.-.0.9.9.q.9.9.9.8.0.8.0.S.b.~.~.~.~.~.M.~.~.~.~.~.~.~.~.(.J.J.(.M.M.].].].{..X#X{.].[.{.#X-X=X-X",
"%X%X}..X@X|.{.|..X$X].!.{.:X:XY %.9.9.9.9.9.9.9.9.q.9.9.0.b.(.(.(.(.).N.(.(.(.(.(.(.J.~.(.N.K.(.b.M.[.].W.[..X.X{.].]..X-X-X-X2X",
";X:X}.^.[..X.X.X|. X].!.].|.{.Y $.9.q.q.9.9.q.9.9.9.9.9.8.b.(.(.(.(.~.N.(.(.(.(.(.(.J.J.(.J.K.(.b.N.^.^.].].].[..X#X@X]./.+X,X2X",
"5X1XXXU.^.:X,X#X!.!.!.|.{.!.^.B.4.$.9.9.9.9.9.q.9.9.9.9.0.S.(.(.(.~.~.(.(.(.(.(.(.(.N.Q.(.J.Q.(.b.M.W.[.[.!.Y.T.#X2X,XW.Y.&X2X2X",
";X1X%X^.^.oX=X.X!.|.!.].!.].].=Xj.m D.9.9.9.9.q.9.9.9.9.0.Z.(.(.(.~.~.(.(.(.(.(.(.(.N.K.(.N.Q.(.M.m.].{.].].].^..X#X#X}..X@X,X-X",
"3X1X:XoX}.].].|.,X-X X!.!.!.]..Xj. .q.q.9.9.9.9.9.9.9.9.0.Z.(.(.(.K.N.b.b.b.b.(.(.(.J.J.(.J.~.(.b.m.-X@X{..X#X#X[.T./.-X,X{.Q.^.",
"3X3X*X&X}.].T.}.1X:X|.!.!.].]..Xj.Y 9.9.9.9.D._._._._.9.0.Z.(.(.(.A.S.Z.Z.0.Z.N.J.(.J.J.(.J.~.(.b.U.,X.X}.}.}.#X].Y.{.;X;X}.Y.W.",
":X2X&X].}.}.{. X}.[.[.].{.].|..Xh.Y 9.9.9.9.L.3X3X3X3X9.0.Z.(.(.(.S.0.9.9.9.9.j.B.(.J.K.(.J.~.(.b.N.*XOX-X.X]. X].^.].|.}.[.W.^.",
",X2X.XY.]..X.X}.Y.Y.!.].|.!.|.|.h.Y 9.9.9.9.s.C 3X3X3X9.0.Z.(.(.(.Z.8.9.9.9.9.b.N.(.J.Q.(.(.~.b.}.*X-X,X1X=X].!.].!.Y.Y.W.W.^.^.",
"-X,X}.].{..X.X}.].].].].].].].}.h.Y 9.9.9.9./ N 3X3X3X9.0.Z.(.(.(.S.8.9.9.9.9.b.M.(.J.J.(.(.~.b.(.,X,X-X:XoX].!.].].{.].].^.]./.",
"[./.@X2X,X}.].{.=X-X=X.X.XoX.X:Xh.Y 9.9.9.9.W   3X3X3X9.0.Z.(.(.(.Z.8.9.9.9.9.j.M.(.J.J.(.(.~.b.{.2X-X].].}.].]..X}..X-X-X.X}.}.",
"W.W.@X2X2X{.Y.}.1X1X=X#XoX:X=X:XK.<.Z.Z.Z.9./ B 3X3X3X9.0.Z.(.(.(.Z.8.9.9.9.9.b.N.(.N.K.(.(.~.b.{.<X-X].^.^.!.]..X.X=X1X2X#X X}.",
"]./.}.#X.X}.{..X=X=X}. X}.}.}.[.~.B.K.K.K.8.4.E L.L.L.9.q.Z.(.(.(.Z.8.9.9.9.9.8.S.N.J.Q.(.J.N.W.+X-X@X.X.X{. X}..X|.|.#X=X}.{.{.",
"W.^.W.W.^..X=X.X#X.X{.].].].].]./.(.(.(.).S.S.S.S.S.Z.9.0.8.(.(.(.Z.8.9.9.9.9.9.8.b.N.K.(.M.M.].!.].{.#X2X-X.X#X|.].|.}..X{.].].",
"/./.W.W.{..X.X=X.X=X].W.[.].^.{.Q.b.b.N.(.(.(.(.(.(.(.Z.A.(.(.(.(.9.9.9.q.9.9.9.0.b.N.J.(.b.M.].].{..X#X:X-X#X.X|.!.].#X=X X].].",
"@X#X+XW.{.{.].{.,X-X}.W.].W.^..X~.b.b.b.J.(.(.(.(.(.(.K.).(.(.(.K.9.9.9.q.6.$.S.A.~.~.~.~.Q.Q.M.{.-X#X.X#X.X].].].^.{.-X-X}.].].",
"<X2X+XW.W.].^.{.,X-X].W.^.W.^..X(.b.b.b.b.(.(.(.(.(.(.(.(.(.(.K.V.D.9.9.q.5.Y j.N.(.OX).J.(.~.b.{.,X-X}.}.[.W.].].E. X-X-X.X^.Y.",
"@X-X@X].}.[.W..X2X-X.XW.{..X.X=XOX(.(.(.(.b.N.(.(.(.(.(.(.(.<.#.Y Y Y m - d (.(.~.b.(.(.(.F.N.b.^..X#X{..X{.W.[.].T.].-X1X}.^.].",
"#X=X:X2X2X].T./.2X,X.X/..X,X:X=X:X%X(.(.(.b.N.(.(.(.(.J.N.F.k l 5 f f f * 5 m.U.Q./.J.N.N.M.M.U.^.[.].}.@X{.T.Y.W.U.].-X,X.X^.^.",
"#X.X-X2X2X/.W.].,X-X}.]..X,X,X&X=X}.(.(.(.b.N.(.(.(.(.b.b.b.0 0 0 0 0 0 = 5 c.c.N.*Xb.b.b.b.M.].{.W.!.}.@X.X^.^.W.W.[.-X-X.X].].",
"{.].{.{./..X@X+X.X].@X}.}.OX@X.X:XXX(.(.(.(.~.b.b.b.b.w y h h h h h h h * d }.oX.X~.]./..X+X{..X}.W.W.[.].+X-X-X@X@X.X}.{.OX@X-X",
"W.T.Y.U.W.-X2X@XW.^.=X4X-X}.}..X1X=X(.(.(.(.~.b.+.+.+.< 9 h h h y 8 t h 1 u m !./.M.M.W.}.OXOX:X{.W.W.T.I.].2X2X2X2X=XW.W.=X2X2X",
"].!.].!.!.$X$X$X!. X$X-X$X.X.X$X:X}.(.}.(.(.F.b.h h h = 8 h h p 0 ; 8 h e 7 ; R.U.m.M.U.}.}.(.(.^.^.Q.I.Y..X:X,X-X-X.X{.]..X1X1X",
"#X{. X#X$X!.!.!.$X X!. X.X#X#X.X/.}.}.E.b.(.,.9 h y = h h h h i 0 ; 8 h e 7 ; y.g.l.b.M.N.R.b.l.U.^.(.^.U.^..X&X].Y.]..X.X{.^.].",
"{.{. X-X@X!.!.{.$X$X!.!.{..X.X].^.^./.~.~.(.2.i s j 6 =.X.h h g i ; 7 h i e ; ` { y.d.g.j.v.f.y.v.I.W.U.P.T.{.{.^.T.].oX=X}.^.].",
"$X#X#X{.{./.!.!. X X X!.}.=X=X}.[.^.E./.(.(.2.i h m ^ j.;.h h h h - 7 h h y ; Q ! ] ] { d.f.d.f.l.l.v.v.n.T.].{.Y.^.].].|..X.X}.",
"-X2X@XW.W.].!.!.Q.!.!.}.}.+X.X(.[.R.z.b.b.b v z Y =.9.9.Z.b.b.=.h = 7 h . O ; F H P U U ~ ` ! { { ' { a.x.v.P.T.Y.].].!.]..X,X-X",
"-X-X{.].{.!.!. X{.{.].+X.X].(.^.~.I.l.y.>.x c m 1.=.%.9.0.Z.Z.2. .7 1 > o + 3 Z H A H P U T T Q ~ ~ _ a.f.x.P.I.Y.].].].].}.-X1X",
",X,X#X.X@X!.Q.{.2X2X#X@X-X@X.XQ.U.n.d.e.` z n 1.9.1. .9.9.9.9.2.^ w : . # & A S D V Z D D K I I T Q ' p.f.v.T.Y.Y.!.Y.Y.W.].@X#X",
"-X2X=X#X@X!.W.{.2X2X-X@X@X*X+XQ.N.l.} ` Q K 6 9 1.6.q.Y Y Y Y m 0 # # @ = , M Z M M $ $ $ V A A P T ~ } e.l.T.T.T.Y.!.!.W.{. X].",
"=X-X.X{. X X!. X$X+X$X<X$X+X!.Q.z.f.} [ Q K F 6 -.4.S.:.:.:.:.*.O.T U F * : V M M M M M M A S H I I R { t.x.P.I.T.].|.E.Y.|.#X.X",
"#X#X}.!.!.!.!.!.T.W.$X<X-X!.W.l.g.y.} ` W K K P ^ } b.j.b.b.b.b.b.b.g.^ * : $ M M M V V M M G J P H I ' t.a.x.v.T.!.!.Y.!..X,X,X",
".X.X X{. X!.!. X!.!.$X<X#X|.W.P.x.k.y.t.) T U U . # ! ! K # # # # . + A V M M V A A G G J G I R W T Q w.a.x.n.P.Y.!.!.!.!. X-X-X",
"].[. X X.X+X!.!.!.!.!.!.!.W.W.I.z.l.y.e.{ ! Q T . o % % & X X X X . + G V V G J H H J J T T R R ! { t.p.a.z.T.W.Y.!.!.!.!.!.{.].",
"U.Y.[.}..X X!.!.!.W.!.!.W.!.Y.P.v.x.y.e.t.{ [ Q . . . . . . . . . . @ G G G J I I I I T Q ( ( _ [ p.g.f.p.n.W.^.W.!.!. X!.!.!.!.",
"^.[.}.=X$X.X X!.!.!.!.|.{. X X!.Y.T.I.n.b.b.g.g.d.y.} } { _ ( Q Q ( Q Q ( ( E _ ( ( _ w.r.a.r.a.l.M.Q.m.n.W..X.X{. X X!.!.!.!.!.",
"5X}.:X1X-X$X$X.X!.!.!.!.|..X#X X[.{.^.^.Q.U.Q.M.n.l.4.w.r.r.w.w.w.' _ ' t.p.{ ' w.w.t.a.l.z.a.k.M.Q./.~.Q.}.-X$X@X$X X!.!.!.!.!.",
"}.[.:X1X-X$X.X!.W.!.!.!.!.#X#X X.X[.[.^.[.(./.~.~.v.p.t.l.z.k.a.a.s.t.p.l.l.a.e.y.r.f.z.m.T.z.x.N.(.%X(.W.+X-X*X$X$X.X!.T.!. X!."
};
