/* XPM */
static char *c45c4ce45c104754cbf7c838baf5aa0eLZM1Gb1fknIxlKP2[] = {
/* columns rows colors chars-per-pixel */
"64 64 218 2 ",
"   c #787228",
".  c #15657B",
"X  c #4A4A4A",
"o  c #494947",
"O  c #555555",
"+  c #5A595A",
"@  c #565658",
"#  c #715657",
"$  c #646464",
"%  c #6A6A6C",
"&  c #666769",
"*  c #6E6E72",
"=  c #717174",
"-  c #7A7A7E",
";  c #77777B",
":  c #767467",
">  c #726E49",
",  c #B53939",
"<  c #B93D3D",
"1  c #B53937",
"2  c #AF3939",
"3  c #B1763B",
"4  c #B73F40",
"5  c #865757",
"6  c #955151",
"7  c #BD4443",
"8  c #B94648",
"9  c #BE5B5C",
"0  c #B65959",
"q  c #A9494A",
"w  c #817D4D",
"e  c #A46A42",
"r  c #BE5F62",
"t  c #BE6163",
"y  c #B06464",
"u  c #C44B4A",
"i  c #C84E4D",
"p  c #CA504F",
"a  c #CA4E50",
"s  c #C34F50",
"d  c #CB5353",
"f  c #CB5959",
"g  c #C65B5C",
"h  c #D45C5D",
"j  c #D05557",
"k  c #C26854",
"l  c #C25F61",
"z  c #D75F60",
"x  c #C16365",
"c  c #C26669",
"v  c #D76161",
"b  c #DB6565",
"n  c #DC6D6C",
"m  c #C07A7A",
"M  c #D87A7A",
"N  c #D3716F",
"B  c #8E8419",
"V  c #ACA01A",
"C  c #B6892C",
"Z  c #C0B118",
"A  c #E9D71B",
"S  c #7C7D83",
"D  c #C87D82",
"F  c #1D809D",
"G  c #22849F",
"H  c #1A87A6",
"J  c #71858C",
"K  c #5A93A6",
"L  c #6D9DA9",
"P  c #5EABBF",
"I  c #66A4B4",
"U  c #39BBDF",
"Y  c #32BAE2",
"T  c #79C3D0",
"R  c #71CFE9",
"E  c #818184",
"W  c #88878D",
"Q  c #8C8D95",
"!  c #908F96",
"~  c #919196",
"^  c #93949B",
"/  c #9A999D",
"(  c #B09584",
")  c #BC9985",
"_  c #B69987",
"`  c #AC8E85",
"'  c #B9A59E",
"]  c #9C9CA3",
"[  c #989AA3",
"{  c #A19FAA",
"}  c #9EA1AA",
"|  c #A1A2A6",
" . c #A4A5AC",
".. c #ACABAE",
"X. c #A7A8AD",
"o. c #B7AEAF",
"O. c #A7A7B1",
"+. c #ACACB4",
"@. c #ADAEB8",
"#. c #A9A7B2",
"$. c #AEB2B8",
"%. c #B3B4BA",
"&. c #BBBBBE",
"*. c #B8B2B2",
"=. c #AAB5AF",
"-. c #C78B8B",
";. c #D88888",
":. c #CB9594",
">. c #D89293",
",. c #D39C9D",
"<. c #D69495",
"1. c #C6A692",
"2. c #CBA895",
"3. c #D3AE99",
"4. c #D3AD96",
"5. c #D79FA0",
"6. c #D6A1A1",
"7. c #D5A6AB",
"8. c #C8B1A8",
"9. c #D4B5A9",
"0. c #D8B8A6",
"q. c #D4AFB3",
"w. c #C3B5B2",
"e. c #C5BBBA",
"r. c #D4B4B4",
"t. c #D4B6BB",
"y. c #E4B6A6",
"u. c #C8C2BC",
"i. c #DEC6B8",
"p. c #E8C0A7",
"a. c #EEC3AA",
"s. c #E6C1A7",
"d. c #E7C7B5",
"f. c #FACEB4",
"g. c #FFD1B7",
"h. c #F2D1BE",
"j. c #FED1B9",
"k. c #BBBBC4",
"l. c #BEBFCA",
"z. c #B7B6C2",
"x. c #C1BFC0",
"c. c #C2C2C5",
"v. c #C2C4CD",
"b. c #CDC8C9",
"n. c #D4CBCB",
"m. c #D8C6C7",
"M. c #C7CAD3",
"N. c #CBCBD3",
"B. c #CCCEDA",
"V. c #C4C6D3",
"C. c #D8CDD6",
"Z. c #D3D3D3",
"A. c #DCD9D5",
"S. c #D3D4DB",
"D. c #D6D8DC",
"F. c #DCDCDC",
"G. c #DAD4D9",
"H. c #DFD2CA",
"J. c #E4D2C6",
"K. c #EAD2C4",
"L. c #E3D2CA",
"P. c #EDD2CD",
"I. c #EAD8CE",
"U. c #F1D2C0",
"Y. c #F7D8CB",
"T. c #E4CAD2",
"R. c #E2D4D6",
"E. c #E5DAD3",
"W. c #EBD8DD",
"Q. c #E9D8D6",
"!. c #F3D4D4",
"~. c #EEC8C9",
"^. c #EBE2DD",
"/. c #E1E1DF",
"(. c #FFE3D3",
"). c #F2E5DD",
"_. c #DBDCE5",
"`. c #DBDEEB",
"'. c #D4D8E5",
"]. c #E9DCE2",
"[. c #DEE0E6",
"{. c #DEE1ED",
"}. c #DEE3F1",
"|. c #E3E3E3",
" X c #EAE9E7",
".X c #E2E3EE",
"XX c #E5E8EF",
"oX c #ECECEC",
"OX c #EAE5E1",
"+X c #FEEFE5",
"@X c #FEF0E5",
"#X c #FFF2EA",
"$X c #E3E5F2",
"%X c #E6E9F4",
"&X c #EAEBF5",
"*X c #E5E7F8",
"=X c #E6EAF9",
"-X c #EBEDFA",
";X c #E9E7F4",
":X c #F1EFF8",
">X c #EEF1F6",
",X c #ECF0F3",
"<X c #EEF2FA",
"1X c #EEF1FD",
"2X c #EEF1FC",
"3X c #F2F2F5",
"4X c #F1F1FA",
"5X c #F1F2FE",
"6X c #F2F5FE",
"7X c #F5F6FE",
"8X c #F2F4FE",
"9X c #F6F9FF",
"0X c #F6F9FE",
"qX c #F9FAFF",
"wX c #FAFDFF",
"eX c #FDFEFF",
"rX c #FCFDFF",
"tX c #FAF7F9",
/* pixels */
">XqXqX3X9XwXwX6X{.|.{.XX$X.X$X5XqX3X.X.X-XqX7X;X;X:X7X7X7X7X7X4X>X&X$X>XrXrXrX7X3XoXXXtXqXqX7XqX3X;X;X7X6X1X6XwX%X}.}.}.{.=X2X2X",
"0XqX9X3X9XwXwX6X_.{.{.{.$X}..X5XwX6X X{.&X7X7X:X;X;X-X3XtXqX7X&X1X&X$X&XrXrXwXtX7XoX X:XrXrXqXqX:X;X;X:X6X6X9X6X%X}.{.{.{.}.2X-X",
",X,X,X3X6X>X>X>X%X%X%X&X;X$X$X;X-X&X&X:X:X&X&X&X;X&X:X7X7X:X4X4X1X9 9 9 tXqX7X,X7X:X:X3XqXqX3X&X4X:X-X;X%X2X6X6X%X}.{.%X=X2X2X2X",
"[.[.XX6X<X{.[.$XwXwXwX6X6X;X`.$X].;X7XqX4X.X.X;X;X:XqX7X;X.XR.].OX< < < W.].Q.T.T.W.W.W.W.Q.].$X:X7X7X%X{.}.2X2X}.{.$X9XrXwX6XwX",
"XX{.$X>X&X{.XX$X6X6X9X9X1X%X$X.X;X&X7X7X-X].$X-X;X-X6X5X-X;X1 , , p i i , , , 1 1 1 1 1 , , c %X-X5X6X;X{.$X<X2X{.$X%X5XwX6X7X9X",
"9X9X2X{.XX6X6X&XXX;X<X6X5X1X<X-X:X-X4X4X;X$X.X;X;X.X].g r g u u u v v v u u u u u u u u u u s g _.$X%X.X{.}.}.}.%X6X5X$XXX$X;XXX",
"wXwX<X_.{.6XwX<X.X{.&X6X6X6X9X7X<X>X-X5X-X;X.X.XR.C.C., < < p d d b b b d a i d p d p d a p i < m.G.{.{.{.{.{.[.6XwX5XXX.X.X X.X",
"wXwX<X{.{.<X6X&XXX.X&X5X<X5X6X<X7X6X6X<X%X.X$X;X1 , 1 i i i b b b b b b v b b b b b b b b b h i , x $X%X$X{.%X=X1X1X3X;X:XXX.XoX",
"6X9X<X{.{.}.$X}.XX$X-X1X>X[.[.<XwX9X9X6X-X$Xt.l u u u b v v b b b b b b b b b b v d b b b b b z u i x t D 2XwXwX<X{.$XrXrXqX:X&X",
"qX6X-X}.$XXX{.{.{.$X%X1X=X{.{.1XwXwX9X6X-XG.,.< u p p b b b b b b b b b b b b b h i z v z b b b d u 1 1 t 1XwXwX=X{.$XwXrX7X:X3X",
"1X-X%X{.$X<X6X2X%X-X2X1X2X%X%X6X9X1X<X%X;X1 u b p d b b b b b b b b b b b b b a i i , , , z b b b v p , x 1X=X=X}.{.$X1X6X4X3X7X",
"%X%X}.`.{.wXwXwX<X1X6XwXwX2X<X9XwX<XXXq.t , u v h v b b b b b b b b b b b b b v h i u u u 7 u b b v p , c 1X}._.{.{.XX%X&X7XqXqX",
"$X$X%X%X}.6X6X6X-X2X2X2X2X2X-X2X6X<X%X7.1 , u b b b b b b b b b b b b b b b b b h i i i i , 7 z b z p , x -X$X}.{.{.$X=X-X5X9X5X",
"{.{.%X2X2X}.}.%X2X2X%X$X}.}.}.}.{.XX-X7., b h p b h p b b b b b b b b b b b b b h i i i i , , , v b b < t %X<X2X%X{.}.1X6X%X{.$X",
"{.{.}.2X2X}.{.%X2X2X$X{.}.}.}.}.{.{.D.F.P.b h u b b h b h d b b b b b b b b b d d i i a i ~.T.T.s u b < t $X1X1X}.{.}.1X2X%X.X}.",
"}.=X=X%X=X}.{.}.%X}.$X$X=X-X<X<X&X;XZ.OXrXv h p b b b b h p b b b b b b b b b a i i i d f tXqX:X8 7 b < t %X=X=X}.}.}.$X%X-X1X-X",
"1X1X=X$X$X$X{.$X[.{.{.{.&X9XqX7XoXZ.Z..XrXi d b i j b b b b b h i b h i i i i i i i p M rXrX3XZ.8 7 b < x -X$X}.$X`.$X`._.&XwX9X",
"-X2X*X}.}.=X$X}.$X}.}.XX&X6X7XF._. XZ. XrX!.y.b h h d j j b b b h f d i i i i i p i p M rXrX3XZ.r.r.!.r.t.%X%X$X.X;X$XXX$X&X6X6X",
"%X=X}.`.}.-X<X2X6X1X6X6X4X&X&XZ.F.oXZ.|.rXrX~.n v h d p j b b v b u i i i i i i i i j ;.rXrX3XZ.A./.rXF.F..X.X}.$X-X5X-X6X6X>X6X",
"}.}.}.`.}.<X1X1X9X9X9XqX7X&X;XZ.F.oXE.D.Z.rXrXqXi f b b h p u p p p i i i i i p i i tXrXrXA.D.oXrXrXrXrX7X}._.`.-X-X7X9XwX9X<X<X",
"$X$X}.%X=X%X$X<X6X6X1X-X:X5X-XZ.F.oX_.E.OX[. XrXP.!.!.d p i i i u i i i i p u ~.P.!.rX3XF.F./.oX/.OXrX|.|.XX=X-X-X$X-X1X&X<X6X<X",
"$X$X%X<X2X}.{.%XwX6X-X{.;X7XrXZ.F.oX/.|.oXZ.|.rXrXrXrXd f f f f j f f f f j f tXrXrXrX3XZ././.oXS.F.rXD.G.%X-X-X$X`.`.;X$X&XwX9X",
"{.XX%X6X<X%X{.}.9X6X;X{.;X5XqXZ.F.&XoXoXoXF.F.Z.Z.|.rXrXrXrXrXrXrXrXwXrXrXrXrXrX3XZ.Z.A. XoXoXoXZ.F.1X%XXX%X-X-X$X.X`.$XXX-X6X9X",
".X$X%X=X-X}.}.%X%X$X$X{.$X-X;XZ.F.oXoX X|. X X|.OX|./././././././././././././././.|. X|.[.oXoXoXZ.F.%X<X1X2X-X1X-X-X%X$X$X$X.X$X",
"{..X;X-X1X$X{.$X{.}.}.{.{..X.XZ./.oXoX XF.oXoXoXoX[.Z.Z.Z.Z.Z.Z.Z.Z.Z.Z.Z.Z.Z.Z.A.oXoX XF.oXoXoXZ.Z.{.6XqX6X-X-X-X-X-X%X`.{.{.{.",
"XX;X&X-X1X=X}.$X%X=X$X{.$X-X%XZ.F.oXoX|.F.oXoXoXZ.L.g.g.g.g.g.g.g.g.g.g.g.g.g.Z.F.oXoXoXF. XoXoXD.D.;X-X1X-X1X1X-X-X;X$X;X;X;X%X",
"&X4X4X<X-X%X}.}.-X-X%X`.%X9X6XZ.F.oXoXoXOXoXoXoXZ.J.g.g.g.g.g.g.g.g.g.g.g.g.g.Z.D.oXoXoX XoXoXoXZ.D.%X%X;X;X-X1X-X$X%X-X1X6X6X6X",
"7X4X&X-X-X%X%X*X-X2X%X}.%X6X9XZ.F.oXoXoXoXoXoXoXZ.J.g.g.g.g.g.g.g.g.g.g.g.g.g.H.D.oXoXoXoXoXoXoXZ.F.$X$X{.XX=X-X%X}.$X-X5X6X9X9X",
"tX3X;X.X;X4X2X-X*X=X$X}.$X=X%XZ.F.oXoXoXoXoX|.Z.g.g.j.g.g.g.j.g.j.g.g.j.g.g.g.g.h.Z.oXoXoXoXoXoXZ._.}.%X$X$X;X$X-X1X-X;XXX&X9XwX",
"7XqX:X_..X7X9X1X}.}.}.*X$XZ.8.h.I.F.oXoXoXF.L.h.g.j.g.g.g.g.j.g.g.g.g.j.g.g.g.g.j.h.A.F.oXoXXXF.U.d.8.{.$X$X`.`.1XwX6XXX{.<XwXrX",
"7XqX3X.X.X1X1X2X}.*X}.$X$Xm.) g.h.Z.oXoXoXZ.J.g.g.j.j.g.g.g.g.g.g.g.g.g.g.g.g.g.g.g.Z.A.oXoXOXZ.f.a.) .X$X$X$X}.-X1X1X$X$X6X9X9X",
"rXqX7X:X;X;X}.*X9X6X=X}.}.e.) g.g.g.Z.F.oXZ.J.g.g.g.g.g.g.g.g.g.g.g.g.g.g.g.g.g.g.g.Z.A.oXoX).g.g.a.) XX%X-X1X<X;X`.XX9XwX%X[.{.",
"rXrX6X<X-X{._.-XrX5X*X}.`.b.) g.j.g.|. XoXH.h.j.+X+X+X+X(.g.g.g.g.g.g.g.@X+X+X+X(.j.L.E.oXoX).j.g.a.)  X%X&X-X6X$X`.%X7X7X%X{.{.",
"7XwX6X$X-X-X%X%X-X;X$X$X;Xm.) g.g.g.oXoXoXK.h.j.eXeXrXrX@Xg.g.g.g.g.j.j.eXrXrXrX#Xg.K.I.oXoX).j.g.a.) oX<X<X$X%X$X{.$X-X;X;X{..X",
"0XwX<X_.$X-X<X%X`.`.{.$X$Xb.) j.g.g.oX,XoXK.h.j.eXeXeXU T g.g.g.g.g.g.g.U R rXrX#Xg.K.I.oXoX).j.g.a.) &XqX1X*X].$X$X`.`._.{.XX.X",
"6X0X-X.X$X-X-X-X.X$X$X;X%XG.n.4.4.4.oXoXoXL.h.j.eXeXeXF I g.g.g.g.g.g.g.G I rXrX#Xg.L.E.oXoXE.4.4.0.E.4X6X1X*X}.$X$X$X$X$X$XXXXX",
"XXXX>XwX9X;X$X;X5X7X5X-X1X-X-X) ) ) oXoXoXH.K.j.eXeXeX. J f.g.g.j.j.j.j.. K rXrX#Xj.L.E.oXoXA.) ) 8.6X%X;X$X$X}.-X-X-X6X6X-X-X%X",
".X{.<XwXwX%X{.%XqXqX5X1X6X6X5X7XwX<XoXoXoXK.h.j.eXeXrXF I f.h.H.K.K.h.j.H P rXrX#Xj.K.I.oXoXoX=X&X9X6X$X{.XX}.$X-X-X5XqXwX1X%X-X",
"XXXX$X6X-X%X;X-X5X5X-X=X-X;X=X;X3X;XoXoXoX^.E.h.(.(.(.=.u.h.^.).^.^.Q.h.=.u.(.(.Y.U.^.OXoXoX;X%X-X<X-X&X-X-X$X-X-X*X-X1X5X-X;X$X",
"{..XXX{..X-X6X-X1X-X%X$X$X$X$X;X{. XoXoXoXoX^.h.g.g.g.g.h.h.oXoXoXoX^.K.g.g.g.g.j.K. XoXoXoXoX$XXX;X;X1XwX6X-X1X*X}.$X=X-X%X$X$X",
"XX{.{..X%X;X-X6X<X5X;X{.$X$X.X;XXX;X&XoXoXoXoXoXK.K.K.K.E.oXoXoXoXoXoXoXK.K.K.K.E.oXoXoXoXoXoX$X$X%X;X1X9X6X-X1X*X$X%X1X5X%X$X$X",
"<X6X%XXX%X%X;X%X6X6X$XXX$X{..X-X5X7XE./.oX,XoXoX^./.^.^.OXoX,XoXoXoXoXoX^.).^.^.^.oXoXoXoXF.[.}.-X6X6X-X1X%X;X$X$X`.%X1X6X-X$X}.",
"9XwX&X{..X$X{.%XqX6X$X{.$X.X$X-X7X7XC.F.oXoXoXoXoXoXoXoXoXoXoXoXoXoXoXoXoXoXoXoXoXoXoXoXoXZ.D.}.%X7X7X-X;X%X{.$X$X].*X6X6X-X.X{.",
"6X6X&X%X%X$X.X-X9X9X&X{.;X%X&X1X7X7X, m Z.oXoXoXoXoXoXoXoXoXg.g.g.g.Y.oXoXoXoXoXoXoXoX XZ.8 c ;X$X1X-X-X-X%X}.$X$X`.$X6X9X-X.X$X",
"-X5X6XwXwX$X_.$XwX6X&XXX&X7X7X5X7X:X1 0 ;.F./.oXoXoXoXoXoXoXH.h.K.J.E.oXoXoXoXoXoXoX/.m.>.4 c $X.X%X;X%X1X%X{._..X_.$X9XqX;XXX{.",
"1X<X6XwXwXXX[.%X9X6X&X%X-X9X7X4X5X:X1 u u Z.F.oXoXoXoXoXoXoXZ.Z.Z.Z.F.oXoXoXoXoXoXoXZ.r.b < t XX;X{.$X&X1X%X.X.XXX{.$X7X6X-X$X%X",
"%X;X$X&X$X&X6X>X&X&X-X<X<X<X<X-X7., b b b b >.Z.oXoXoXoX/.Z.oXoXoXoX|.Z.oXoXoXoX XZ.n b b b h 1 ].$X{.$X$X>X<X6X-X<X-X$X$X<X<X6X",
"`._.{._.{.6XwX1X{.;X5XwX5X;X;XN.r.:.b b b b N >./.F.F./././.oXoXoXoX X/.F.F.F.F.n.>.b v b b N :.b.N.XX{._.%XwXwXwXwX5X.X{.5XwXwX",
"}.}.}.$X=X=X2X2X}.=X2X6X2X-X-Xo.&.Z.b b b b b b Z.Z.Z.Z.A.oXoXoXoXoXoXoXZ.Z.Z.Z.r.b b b b b M Z.*.k.$X_.`.&X9XqX7X5X-X=X%X-XqXqX",
"-X%X=X2X2X}.}.}.2X=X=X}.2Xn.( j.d.o.Z.7.b p d h b b b b >.Z.oXoXoXoX|.Z.n b b b b b b b b Z.b.o.f.a.(  X.X;X5X5X$X`.$X-X-X%X.X$X",
"%X$X=X1X2X}.}.}.2X2X}.}.$Xn.( j.d.0.i.9.-.7 q 5 b b b b N <././.W.F.J.>.b b b b k 5 8 x -.i.i.0.g.a.( .X`.$X-X-X$X_.$X-X1X=X].}.",
"=X2X1X%XXXXX}.}.=X=X=X}.;Xn.( f.f.p.p.9.o.1 6 o b b b b b b Z.Z.Z.Z.q.b b b b b 0 X 2 0 o.s.p.p.g.y.( _..X$X*X-X$X{.$X$X$X-X1X2X",
"<X9X-X{.{.$XXX{.{.{.}.%XXXXXXX( 1.s.j.0._ Z...& X X o X # b b 9 B n b b X o o o O & N.u.( y.a.j._ ' S._.{.{.{.$X}.$X$X}.$X-X9X6X",
"<X1X%XXX%X}.}.=X%XXX$X$X{.{.[.w.8.2.3.1.( <.m 6 + + O + # 6 3 C V C e 5 + O + + # 6 <.:.( 2.2.3.*.e.'.{.$X`.}.$X%X$X$X}.$X-X6X9X",
"0X0X-X-X<X}.{.%XwX6X<X>X$XXX[.Z.w.( ( ( ( b h i $ $ $ $ + X B V A 3   X $ $ $ $ # i b N ( ( ( ( N.S.{.oX%X-X-X-X*X`.`.`.{.%X-X<X",
"<X9X6X<X<X}.{.%XqXqX<X$X[.[.D.c.k.*. .E X Z.7.b b h i b y $ $ > B $ $ & b z p b n b n...X ~ |  .k.v.D..XXX;X1X=X$X}.}.}.{.%X%X$X",
"1X6X-X%X=X=X}.=X<X=X=X,X[.B.M.&.+. .] w @ l.w.5.5.,.<.,.` O * % > : & + ,.2.<.5.5.5./ E X ~ ] #.z.k.V.`.].*X%X%X}.*X}.}.`.=X5X-X",
"-X1X=X}.}.}.}.}.{.[.=X=X[.B.l.+.{ / / ; X #.&.N.Z.Z.Z.C.{ X S S - - = o n.Z.Z.Z.Z.Z.& + o Q [  .@.+.z.'.{.`.`.}.}.}.}.].}.=XqX7X",
"-X-X=X%X=X}.}.=X{.{.}.}.'.B.l.$.{ [ ^ ! W X @ $ $ $ $ X + E S S ; S J E X & +.& $ $ X + W Q [  .%.+.k.S.`.`.{.$X$X}.}.}.}.2X5X6X",
"$X;X%X-X2X=X}.}.}.}.}.}.B.M.v.$.#.] [ ^ Q * & O O @ @ % = E S S - J E - & % - @ @ @ * ; Q [ ] #.%.c.B.S.S._.%X%X$X}.}.}.}.}.%X}.",
"_.].%X-X=X=X}.}.}.'.'.'.B.B.V.z.@.{ [ ^ ~ ! ; X X X X W W S S S w J E J S * X o X X J Q [ ]  .+.k.N.D.G.N._.-X-X}.}.}.=X}.}.}.}.",
".X.X-X5X2X<X=X}.}.}.}.{.}.'.'.l.x.z.@.#..... .| ] ] ] / ^ Q Q Q ^ Q ! Q ^ ^ ^ [ [ [ { X.@.z.z.k.N.D.|.[._.XX1X-X=X=X=X}.}.}.}.}.",
"3X&X5XqX6X2X2X=X}.}.}.}.}.}.}.B.B.N.v.k.k.&.%.%.o...| / [ { [ [ } [ ^ [ X.+. .} }  .+.$.l.v.k.l.S./.oX;XXX>X6X6X6X<X=X}.}.}.}.}.",
"3X&X5XqX2X2X2X}.}.}.}.}.}.=X}.'._.S.B.N.V.b.b.c.c.%.| | O.z.O.O.O.}  . .$.$.$.+.@.@.z.l.Z.B.V.v.D.oX3X&XXX<X9X6X2X2X=X}.}.}.}.}."
};
