/* XPM */
static char *_fbc660220ff4c8ea8487985dfb60b5abW9NbN4J1YmITist[] = {
/* columns rows colors chars-per-pixel */
"64 64 240 2 ",
"   c #011D00",
".  c #0D1E01",
"X  c #061401",
"o  c #171901",
"O  c #231B04",
"+  c #2C1C06",
"@  c #022400",
"#  c #012C00",
"$  c #0A2D03",
"%  c #0C2606",
"&  c #142300",
"*  c #1C2102",
"=  c #132C02",
"-  c #1B2A06",
";  c #033400",
":  c #0B3501",
">  c #053A00",
",  c #0B3C01",
"<  c #0B350B",
"1  c #0C3B0A",
"2  c #123D01",
"3  c #1B3C00",
"4  c #133D0C",
"5  c #163707",
"6  c #163914",
"7  c #163613",
"8  c #262508",
"9  c #25380B",
"0  c #2B2C1A",
"q  c #392815",
"w  c #2D3518",
"e  c #3A331D",
"r  c #362608",
"t  c #253A2B",
"y  c #463417",
"u  c #4B3A27",
"i  c #0D4200",
"p  c #0F4504",
"a  c #124401",
"s  c #1A4502",
"d  c #154A01",
"f  c #1B4D02",
"g  c #14440B",
"h  c #1A450C",
"j  c #17490C",
"k  c #1B4C0A",
"l  c #175000",
"z  c #1D5301",
"x  c #1C5901",
"c  c #1E520B",
"v  c #1B4B14",
"b  c #1A4616",
"n  c #1D5212",
"m  c #1F551B",
"M  c #214E03",
"N  c #224C0C",
"B  c #28470C",
"V  c #225402",
"C  c #245A02",
"Z  c #2A5D02",
"A  c #23540B",
"S  c #2A550D",
"D  c #255A0C",
"F  c #2A5C0B",
"G  c #2A5402",
"H  c #315E0A",
"J  c #214D12",
"K  c #284919",
"L  c #314E17",
"P  c #235413",
"I  c #265A12",
"U  c #2C5D13",
"Y  c #2C5D19",
"T  c #275317",
"R  c #335D13",
"E  c #355917",
"W  c #256204",
"Q  c #2C6302",
"!  c #2D630C",
"~  c #2E6908",
"^  c #316503",
"/  c #336B04",
"(  c #396E04",
")  c #32660C",
"_  c #346B0B",
"`  c #396E0C",
"'  c #3A670D",
"]  c #3A7305",
"[  c #3E7B03",
"{  c #36710D",
"}  c #3C730C",
"|  c #3F7B0D",
" . c #2D6313",
".. c #2E631B",
"X. c #2F6915",
"o. c #336414",
"O. c #356B13",
"+. c #3A6D13",
"@. c #33641B",
"#. c #356A1B",
"$. c #3A6D1C",
"%. c #396417",
"&. c #367013",
"*. c #3C7314",
"=. c #3E7915",
"-. c #3D731B",
";. c #3E7A19",
":. c #324B2B",
">. c #395C25",
",. c #30502D",
"<. c #366A23",
"1. c #396D22",
"2. c #366724",
"3. c #3E7322",
"4. c #3D7B25",
"5. c #42760E",
"6. c #437D0C",
"7. c #417707",
"8. c #417414",
"9. c #437B14",
"0. c #41741A",
"q. c #437B1B",
"w. c #4A7C1B",
"e. c #487F17",
"r. c #406F13",
"t. c #49422D",
"y. c #534835",
"u. c #427624",
"i. c #457C24",
"p. c #497928",
"a. c #496B30",
"s. c #455B47",
"d. c #5C5243",
"f. c #54704E",
"g. c #73685D",
"h. c #687654",
"j. c #5D7261",
"k. c #617762",
"l. c #727770",
"z. c #675D53",
"x. c #877E6E",
"c. c #438105",
"v. c #45830C",
"b. c #4B8A0B",
"n. c #49850C",
"m. c #458313",
"M. c #4B8415",
"N. c #4D8B13",
"B. c #45811A",
"V. c #4B831C",
"C. c #4E8B1B",
"Z. c #528B1C",
"A. c #518C16",
"S. c #54931B",
"D. c #569519",
"F. c #4C8423",
"G. c #4F8A22",
"H. c #4C832A",
"J. c #498325",
"K. c #518623",
"L. c #528C23",
"P. c #50862B",
"I. c #538C2A",
"U. c #588F2A",
"Y. c #5A9323",
"T. c #579227",
"R. c #4D8335",
"E. c #568834",
"W. c #589132",
"Q. c #779859",
"!. c #6B8752",
"~. c #77897A",
"^. c #72896E",
"/. c #7BA07E",
"(. c #83907A",
"). c #8CAE72",
"_. c #7C8E82",
"`. c #8E9487",
"'. c #A59E8E",
"]. c #9AB78E",
"[. c #98AE92",
"{. c #ABA69A",
"}. c #9EAEA4",
"|. c #A9B7A7",
" X c #B5B0A9",
".X c #C7BDB0",
"XX c #C0BAAA",
"oX c #ABCE9A",
"OX c #B4C6B7",
"+X c #ACCDA6",
"@X c #C7C6B9",
"#X c #C2D4BC",
"$X c #C9E2BC",
"%X c #D7E8BC",
"&X c #BDCDC3",
"*X c #C4D5C8",
"=X c #D7DBD8",
"-X c #D2D2CD",
";X c #E2DAD8",
":X c #E5D6CF",
">X c #D7E6D9",
",X c #D7F1D7",
"<X c #CEE2CC",
"1X c #E6E9DE",
"2X c #DCDEE5",
"3X c #DCDEEB",
"4X c #D4DDE5",
"5X c #DCDEF1",
"6X c #E1DFE8",
"7X c #DDE3E4",
"8X c #DDE2EB",
"9X c #DCE8E9",
"0X c #DCF2E5",
"qX c #DEE3F3",
"wX c #E1E4E6",
"eX c #E3E4EC",
"rX c #E3EBEC",
"tX c #EBEBEC",
"yX c #E6E9E6",
"uX c #F4EDE6",
"iX c #E8F2EB",
"pX c #E3E5F3",
"aX c #E5EAF3",
"sX c #EBECF4",
"dX c #E4EAFA",
"fX c #EDEDFB",
"gX c #E5E6F8",
"hX c #F1EFFC",
"jX c #F5EEF5",
"kX c #E6F3F3",
"lX c #EDF3F4",
"zX c #EDF2FC",
"xX c #ECFAFC",
"cX c #F2F3F5",
"vX c #F2F4FC",
"bX c #F9F5FE",
"nX c #F5F9FD",
"mX c #FBFDFF",
"MX c #FFFBF7",
"NX c #F2F4EB",
/* pixels */
"hXvXaX8XeX8XqXgXnXfXnXlXlXiX9XxXxX,X..A ' 0.V Z ] / ^ B.Z ` +.C ' w.K./ Q ^ -.u.k , k A a a s V A p z D p x { ~ x l x <.<.p > c ",
"fXfXaX2X4X8XqXgXbXnXtXmXNXrXkX9X0X+Xg k O.O.! x C C Q G.+.` 8.' Z _ V.w.C d V O.@.g , a d k F 3.D A  .X.z &.;.;.~ x p x m n i > ",
"hXvXfXsXaX8XqXdXzXvXzXwXrXrXkX_.:.,.: a s V A , a ! +.*.G Z 5.w.^ ^ } i.Z a , V I , ; , f @.O.! z Q +.=.{ ;.~ x W X.c p p p j > ",
"bXbXmXmXnXeX3XaXzXgXzX2XrXiX_.:.K B R S 2 s s i c ..o.A G Z e.Z.Z Z Z ' F s , , I V Y U s d z d C ) Q Q } ] W d l #.<.c ; > g > ",
"bXbXbXbXzXaXeXeXfXfXpXeXwX1X(.a.R 8.+.8.F Z o.d D A k A O.Z ( w.V V M G ) V 2 a V H $.$.C d s d Z ) f V 8.Q *.X.l n <.T ; # ; > ",
"eXsXsXeXeXlXvXsXpXaXpX3X>XiX$X!.' 6.8.) Z 9.B._ z l d a F V Z r.V s 2 2 S V f M ^ w.*.) -.*.C d F F a V -.d -.J.X.p p > 1 1 # # ",
"eXeXeX6XeXvXmXvX6X3X5XqX>X*X!.p.5.C / =.} A.C.6.C C a > G V M S N : # : f M V C ^ Z.M.( ` -.3.@.R h , h Y > *.W.4.p ; ; # # # : ",
"sXyXtXjXsXlXlXlXsXgXqXeX*Xs.E R / ^ *.F.e.v.D.[ d d d a A 2 2 M 2 @ : N f G H ^ 6.6.Z.K._ C D j h # @ # g ; W I.;.d ; < ; @ # > ",
"sXcXmXmXmXeXwXsXbXmXzX8X<X[.).p.l l R.4.l } D.N.x d f D S f s f 3 : s M M p.( ^ ] 7.Y.V.O.C i g b     @ > , =.T.C.z ; # # 1 b # ",
"cXsXcXmXmXrX6XsXbXzXxXkX>XoXoXp.i l <.c &.M.Y.[ { C a d a C V f V F S V M q.w.( Z 7.V.8.z A > # # # @ # a ! C.Z.m.} x , g ; ; g ",
"bXcXvXvXvXeX8XeXeXzX4X4X].6 P 2 p l x X.=.m.v.S.M.;.C a O.$.! V Z w.} Z C +.K.9.V d ) F , , g > # < , a ) } v.n.N.m.*.C s : $ # ",
"mXmXvXsXaXpX3X3XqX=Xk.t :.4 N k i l ~ B.m.v.N.D.m.U.F.V ) V C Q 7.A.M.} Q V +.-.F > a a , , i j 1 1 a / M.n.c.S.S.v.Y.B.z , < @ ",
"vXnXzXzXfXpXqXqX8X9XOXk.6 h : a l W | N.n.b.D.S.[ M.L.;.z z Q Q ( 6.Z.C.O.a x #.2.i ; ; p ..a d , h ) 9.b.N.N.S.S.6.A.V.9.M : # ",
"eX8XaXvXzXqX3XgXzXlX}.s.4 b , > X.;.m.v.b.b.b.D.v.m.C.V.*.*.;.{ Z ^ J.I.=.d p I 2.> ; > i <...A , A q.M.c.b.b.n.S.6.n.M.F.+.N # ",
"eXqXaXzXzXpX5XgXzX9X^.7 # 1 j p i W G.[ D.b.N.N.c.N.Z.=.{ Q _ =.C C 3.H.O.a > i I ; p a a x #. .i a ~ 9.N.N.m.m.L.6.C.Z.0.' U 2 ",
"fXvXlXaXdXgXqXqXaXaX0X^.: 4 n > i p { C.S.v.] S.Q ] 9.B.x z x z a p I p.#.a i i a A a v c a d d p > a &.G.Y.9.q.L.Q ^ V.0.V V a ",
"nXmXlX2X6X6X6XsX8X9XkX~.@ b 3 A f > z W.J.&.O.q.a i &.=.p D c i > d ; g 2.d d x C O.F x D f p s C a , a I.I.O.O.p.i p O.p., x z ",
"xXlXeXsXpXgXsX6X8X9X0X^.@ 4 M %.! z a R...f x X.p > x X.> X...c k , # > , > z ! =.=.$.C s z V z ~ _ z d P.~ z A ..p ; A ..> O.~ ",
"nXvXvXmXsXfXbX3X4X>X}.>.N M H r.*.! d #.z ; > d C C C z Q { O.*.O.V , # 1 I l x _ =.0.F d x V Q } 9.D l O.a > > d C ~ x d ! O.) ",
"lXzXnXmXhXnXbXdX|.s.K L R F w.M ! ) x a d i , D *.{ Q _ } v.] Q _ A z 1 n 2.c p z d x f V ! ! =.Q Q ~ z d z i , C -./ / _ -.M.{ ",
"zXvXfXsXvXhX3XdX&X^.K N ' ` ^ Q _ O.F C C C A ! e.9.} } ( 6.6.^ C a D d a c #...a > p c x  .O.Q C Q &.Q V Q C C ) q.9.] ] ] e.9.",
"mXmXzXeXgX3X4XlX0X<XE G ' ` V C +.' Q w.) ! #.C ^ M.K.^ Q Q 5.9.f , D I D s D I d p g k I #.` V ! O./ ^ B.Q ) ` V ) U.0./ Q Z *.",
"vXcXsXeXqX3XdX<X<X+X2 M $.$.o.A V Z ^ L.) ' 9.) C ( V.K.f f C F #.a , > z k d k j j # ; A #.-.! c A C ^ Z.^ ( 5.^ C ^ K.V.C z C ",
"eXrXaXpXpXaXkX_.:.L s > a I I > s ^ ` ` C ^ ] V.' ) ` -.o.2 > A D > i i d ..c > > p > i > , ! D , a ) _ ` C Z 7.Z.Z ) 8.8.F , 2 ",
"7X7X7XgX9X7X~.:.B S G F d , , i V ) ^ C Z Z 7.K.) V H o.R k > , V z F D a f d > d f C x ! d > i a A ! ' V F Q 5.Z.^ M F %.F h : ",
"tXwXzXeXrXrX/.>.E %.$.$.z , i f V C V f H Z ) K.M f A S R k g 2 C Q *.#.D k p p d Q _ } O.V i i f z x f f o.Z ^ w.Z f S S o.k h ",
"lXmXzXvXrX>X$XQ.r.} 8.=.Q z f C C V a a H C F $.A s 2 s G z A s W 9.=.O.O.O.D V C ( [ ] ] Q z z C V V d 2 Y C F +.C s 2 , R N k ",
"mXaXnXzXiX$X!.a.r.^ / } 8.=.) Q Z C s 2 V f f I P : ; , z z C C / G.M._ *.-.$._ =.} / ^ | } =.! Q Q _ ~ f A s z R s : ; : M M M ",
"mXnXsXwXOXf.E @.' Q } m.L.L.} ^ V C f s V a 2 N , # , f f ^ Z ^ =.J.L.M.) C C F O.Q Q } L.L.G.} Q W 9.F.o.A i , N : # : s s Z Z ",
"mXnXlXyX*X[.].a.f Z V.C.Z.M.] ^ V M M C F s a f , , s f V 0.( Q { q.I.V./ x a , k z V F.L.Z.B.{ ^ x =.I.-.z d a s a 2 a V V 8.` ",
"vXmXlX>X1X+XoXf.: V i.9.( ^ ^ _ Z V Z ^ ` Z z V C F F V M i.w.( Q _ F.&.C A a , , a z F.=./ / / / x } I.q.d A A f C F C V G i.p.",
"wX=X>X,X].6 K 4 2 A u.^ C C ^ =.+.! ^ ^ *.+.^ z ) *.8.! V +.K.w.z z o.z , : > n a , k u.O.z Q Q ) x } T.G.z ! A x F *.6.Z C ' E.",
"wX=Xj.:.b p v m k 2 N S d W =.=.q./ / 9.G.| ^ ^ =.K.F.*.~ z +.-.U ; , > : , , c P k g m v f ! ~ z / m.S.c.] x p p d 9.C.] ^ V $.",
"2X>XOXj.b m > > , : 2 : , l 4.W ~ / ] K.V.m./ Q / =.I.P.O.a x 3.1.p > # 1 1 c p > , < ; ; > z x ~ ] v.N.b.m.;.W p  .B.v.M._ d z ",
"tX>X[.,.1 g , i c g 2 ; # g 2.i z C Q I.=.9.} / Q ^ V.P.O.f p C X.> > # ; , c > d A j p > > l ^ J.m.N.N.S.b.S.;.x l C } Y.( f a ",
"aX8X~.7 : 2 f 1.<.I J : ; , 4 ; p z ! I._ _ =.=.z W q.H.O.a > i A > i > ; # i d @.o.P f a d W 9.C.B.C.C.S.| N.C.m.z d / K._ d , ",
"fXgXaX~.% B E o.A f a , : : @ : a x @.3.C x +.*.x z C u.3.p , i l l j v 1 # k @.R A f p p x -.B.v.N.b.C.C.v.b.b.V.=.C C -.3.i , ",
"dXgXxX~.% K Y s : d > d g ; ; g , k ..P , a D A A i ; f ..i j c x ;.c n , # J Y a 2 s , > d X.J.c.D.m.N.G.B.N.N.B.~ U d d  .a d ",
"qXdX9X`.% @ : # , k g c z s s f ; a P , ; > , p > , ; ; i i c  .&.J.<.n ; @ : # # , a i , > i &.N.D.m.=.W.~ { B.q.a P j ; i p d ",
"dX4XOXj.%     ; a k U A d C C l i i c ; ; , # > ; , > ; i c f x &.X.p.T 1 : @ @ # s s p n j > l G.C.~ X.4.p p { ;.p n k i i i k ",
"0X9Xf.7 t 1 < 1 g a k d D p.&.W a i > p i , i ; a a p , c #.c a l l <.i 4 b h # s s s A ..@.l p H.~ z c @.i > z  .,  .#.f d O.x ",
"7X>Xs.< < 1 1 > : ; d D #.-.W p p a D c i P P i c @.<.d d D  .! p i k ; ; # < 2 s f f o.3.u. .l -.i ; , l V ~ C z ! ) _ i._ z Q ",
"wXwXOXOX/.1 g p > : N 1.$. .C x l  .3.x l ! X.C O.q.u.X.x p C X.f > > > g < , 2 S F O.+.Q ~ Q z p x i ; C { ^ / Q q.F.` Q +.o.z ",
"8X9XkX&Xj.< ,.1 J %.1.$.X.X.X.x ! #. .d _ &.} / 9._ W ~ O.f d a j j 1 , 1 ; a c V ) ) Q V / ( Q z D I C ^ 9.w.7.{ ` 9.q.F V f i ",
"pXaX9X|.,.7 K 4 s %.%.N S #.#.a  .1.x x _ ~ ~ } { / z x #.#.c > ; g : 4 , # , z A +.' C C { } ^ w.Q +.+.C ^ A.M.} C Z 0.u.V , a ",
"pXpXvXcX|.7 % @ : : @ ; T 2.T # I I a u.! l x =.W &._ x x I l > # ; ; h k i > > d #.-.~ V C Z Z V.` +.*.) C ( Z.w.Z s V o.Y g > ",
"vXcXuXyXOX0 . . # $ : : : @ @ = I d i 3.! d x $.d ! 3...i d j > ; # # , i , i , > d U D , s ! 0.' C Z 0.P.' ^ ` *.H , , A S : , ",
"mXmXcX{.d.w . . $ b b < @     % h Y ..Y d , a .., , n P ; I X.p # # : , a k D x U p , a 2 A @.%.Z C H r.E.F z ) ' @.s : , A M o.",
"xXmXcX Xz.u . @ 2 v v 1 # % 7 @ < J >.S @   : 6 #   1 j > c J.~ ; < , > p ! -.&.-.z , , s A G M V F H ' w.G M M S U N s , M +.} ",
"qX7XsXuX-Xu - = : 1 1 # # ; < #   @ 2 N @ X   $   X @ 1 i X.G.&.a 1 ; i ! O.{ =.) F V z A S f a s G Z Z 0.G s 3 2 S G M f F 8.] ",
"8X7XuXuX.Xu 8 O & : ; ; > g < ; # # # ; # @ @ @ @ @ # # i X.G.J.a > j ! -.-.~ ^ =.9.} ^ ^ F M s , G M 2 o.s : : 2 V s f G ' n.b.",
"sXvXuX{.d.q o O * % : : g v > ; < , # # ; < # @ < 4 > ; p 4.T.J.c > a C W ~ ~ *.V.T.A.] ^ F A M s V 2 2 M , ; : s s C Q ^ 5.n.A.",
"nXbXNX Xg.y q + O 8 9 h n n i ; > , ; ; > > # # ; < , d X.J.S.B.=.z i i a d x G.M.Z.M.] ^ V s M F A s s f , a s V f 0.8.^ ] 6.A.",
"mXlXNXyX@Xe y y + O 9 B n k i > , g 1 ; , g 1 ; ; > a X.;.m.N.N.m.9.W i p i a F.e.] ^ ^ / Z C V ! ' F V f V F G V V F.V.^ Q ( P.",
"sXfXtX=X Xu q y r O O 9 3 : p i f N < # , N h ; , f  .B.v.c.N.D.7.D.9.x a a f u._ C x ^ 8.` ) ^ / w.+.C C ' 9.5.Z V *.H.q.C d ..",
"sXaXgXyX1X.Xy.u y + o o . : K J L B 5 5 B S N 2 d ! q.L.b.b.D.N.c.N.G.-.z i j j z f C =.w.` ( ( 5.L.=.Z ) *.V.Z.} ^ V _ -.x > 1 ",
"fXzXpX6X6X=Xy.e y r + + o . 9 L L = - - B s 3 > A i.q.m.b.b.c.D.c.v.C.P.-.k i > , ; s u.! ) ' +.M.C.9./ Q ] 6.A.Z.} p C &.#.1 ; ",
"nXbXjX6X6X=X(.x.x.g.u + o O & - - o X . B 3 @ # , +.J.| D.N.v.Y.m.V.V.=. .I k p # > a  .s f C W L.6.] | _ C ^ M.U._ d p x #.> ; ",
"zXzXjX6X6XtXwXeXyX-Xz.d.t.O o o o - o . w 3 : 3 2 a -.G.T.| m.V.W X.J.J.V x k a > 2 2 2 > a V ! K./ Q q.-.V V 0.P.$.f > i D i i ",
"dXdXeX6X6X6XpX5XsXbX;X:Xx.0 o e 0 w 0 * 9 9 3 S s , p W.G._ / J.d i X.;.a x V a , , ; # > , k o.-.C C +.-.A f D $.1.a i p d x a ",
"8X8X8X9XaXsX5XgXgXfX6X;X:X'.q 0 `.@X).e Q.Q.S R o.x i R.O.z z O.i i x ! a _ Q x V a : : g , s ..C p a A D k , > j Y i d x x &.W ",
"8XqXqX8X3XaX5XfXbXfXbXrXyX1X{.`.@X1X<Xa.L E ' +.3.F d 1.a ; p a W W z l x } ) q.$.A a h j > i ..> ; > i , , : ; > i i z  .&.q.| ",
"qXqXqXqXpXhXjXjXbXvXaXlXbXmXMXuX Xf.a.E E o._ Q ~ W l f f > > C O.&.Q / V.M./ F %.A k A d 1 > k ; ; ; , ; : 1 : # , A k c #._ 9.",
"qXqXqXqX5XfXbXjXMXbXxXaXzXmXMXtX Xh.G G %.+.^ C ~ X.X.c c ..A ! ;.;.9.] / 9.q.O.V f A @.A s , ; 4 6 4 : ; , h 1 , A <.z i c C / "
};
