/* XPM */
static char *_8bc2fad95854bc3b1f4364c44212c487bc95t059si1Q2lu[] = {
/* columns rows colors chars-per-pixel */
"64 64 191 2 ",
"   c #2E1A0E",
".  c #301A0F",
"X  c #2F1810",
"o  c #321B11",
"O  c #3A1F14",
"+  c #3C2216",
"@  c #3C261B",
"#  c #372116",
"$  c #113E3B",
"%  c #451F1C",
"&  c #462C1E",
"*  c #492D1F",
"=  c #4E1F22",
"-  c #4A2E22",
";  c #462D22",
":  c #5F212E",
">  c #572E2A",
",  c #4D3529",
"<  c #513326",
"1  c #5D3529",
"2  c #543A2C",
"3  c #5D3E2C",
"4  c #593529",
"5  c #4B3A33",
"6  c #523C31",
"7  c #5B3936",
"8  c #61222F",
"9  c #62322E",
"0  c #772F3D",
"q  c #782E3D",
"w  c #78303E",
"e  c #703B33",
"r  c #6D2934",
"t  c #634533",
"y  c #6F4134",
"u  c #6E4E36",
"i  c #6F4F38",
"p  c #714E38",
"a  c #714235",
"s  c #6E5038",
"d  c #705039",
"f  c #5C3C41",
"g  c #673643",
"h  c #1C594A",
"j  c #1D5749",
"k  c #3B4C46",
"l  c #215D4F",
"z  c #2E5F5E",
"x  c #23634F",
"c  c #2D755D",
"v  c #2D7D58",
"b  c #307A5E",
"n  c #2A6A59",
"m  c #3F7166",
"M  c #376064",
"N  c #5D524C",
"B  c #7D5944",
"V  c #785442",
"C  c #695A54",
"Z  c #634F46",
"A  c #406C5B",
"S  c #6A645C",
"D  c #407267",
"F  c #446377",
"G  c #4A687B",
"H  c #736A64",
"J  c #78726F",
"K  c #7D7A74",
"L  c #696272",
"P  c #883543",
"I  c #9B3D4B",
"U  c #953D48",
"Y  c #92524E",
"T  c #A4494C",
"R  c #A74951",
"E  c #B44D55",
"W  c #8F6654",
"Q  c #906554",
"!  c #86604D",
"~  c #845663",
"^  c #9F6F7D",
"/  c #8A7A77",
"(  c #C55659",
")  c #D25E5E",
"_  c #CF6F5F",
"`  c #C97E5F",
"'  c #CC755F",
"]  c #D2675F",
"[  c #CB6267",
"{  c #D76666",
"}  c #CF7360",
"|  c #CC7B60",
" . c #D57660",
".. c #DE7474",
"X. c #E46E6E",
"o. c #EC7676",
"O. c #F57D7E",
"+. c #34845F",
"@. c #38875B",
"#. c #39915F",
"$. c #378A60",
"%. c #388E61",
"&. c #3A9260",
"*. c #3F9862",
"=. c #7E837F",
"-. c #4DA466",
";. c #57B169",
":. c #59B369",
">. c #59B467",
",. c #82847E",
"<. c #CD8661",
"1. c #C59161",
"2. c #D79462",
"3. c #D68162",
"4. c #DAA964",
"5. c #5F7F94",
"6. c #5B7C8F",
"7. c #A87A84",
"8. c #648499",
"9. c #6F92A6",
"0. c #7497AD",
"q. c #7799AE",
"w. c #7894AA",
"e. c #848582",
"r. c #878883",
"t. c #898B85",
"y. c #8B8C88",
"u. c #948A89",
"i. c #999996",
"p. c #8CA9A6",
"a. c #88A5B8",
"s. c #9EABB4",
"d. c #B8B8BD",
"f. c #B2A4A5",
"g. c #FAAEAE",
"h. c #D68B8F",
"j. c #DFC885",
"k. c #E0C785",
"l. c #EBD7A2",
"z. c #9EB6C2",
"x. c #A2B8C3",
"c. c #A8BECB",
"v. c #ADC1CA",
"b. c #BCCDD4",
"n. c #CCDADD",
"m. c #CECBD1",
"M. c #DBDDE6",
"N. c #DCDEEB",
"B. c #D4DDE4",
"V. c #DCDFF0",
"C. c #E0DFED",
"Z. c #D5E0E2",
"A. c #DEE0E6",
"S. c #DEE1ED",
"D. c #DEE2F1",
"F. c #E2E3EE",
"G. c #E9EAEE",
"H. c #E3E7EB",
"J. c #E3E5F2",
"K. c #E8E7F3",
"L. c #E6E9F4",
"P. c #EAEBF5",
"I. c #E5E7F8",
"U. c #E6E9F8",
"Y. c #EDEEF9",
"T. c #EBEDFA",
"R. c #F0EFF5",
"E. c #F2EFFE",
"W. c #EEF1F6",
"Q. c #EDF0F5",
"!. c #EEF1FA",
"~. c #EEF1FD",
"^. c #EEF1FC",
"/. c #F1F1F6",
"(. c #F1F1FA",
"). c #F2F5FA",
"_. c #F5F6FA",
"`. c #F1F2FD",
"'. c #F2F5FE",
"]. c #F2F5FE",
"[. c #F6F6FF",
"{. c #F4F5FE",
"}. c #F2F4FD",
"|. c #F6F9FE",
" X c #F6F9FF",
".X c #F9FAFF",
"XX c #FBFFFF",
"oX c #FAFCFF",
"OX c #FEFFFF",
"+X c #FAFCFF",
"@X c #F8F7FD",
/* pixels */
"W.|.|.). XXXoX].S.H.S.S.L.S.J.E.@X(.H.C.R.OX{.K.K.R.E._.`.@X{.(.!.P.J.Q.XXOX.X_./.R.G._.OXOX{.{.(.P.P.E.~.~.]. XL.D.D.D.S.L.~.^.",
"_.oX|.). XXXXX~.M.A.S.S.J.J.J.`.OX_.H.F.P.`.{.R.P.P.R.E.{.@X@X(.!.P.G.Q.XXXXOX_._.G.H.R.OXOXOX@XR.P.K.T.].]. XoXD.D.S.S.Z.U.~.U.",
"W.W.W.).).).W.W.L.L.P.P.T.J.F.P.R.G.P.T.E.R.P.P.K.P.E./._.R.(.(.~.Q.L.L..XXX}./.R.R.R./.@X.X/.R.(.E.R.P.T.^.].].U.S.S.U.T.~.~.~.",
"H.Z.H.).!.A.M.L.oXoXoX].`.J.N.J.C.P.`.OXE.F.C.K.J.E.OX@XP.H.P..X].!.L.Q.{..XW.G.P._.@X_./.R.G.G.(.@X{.J.S.D.T.^.L.S.D. XOX X XXX",
"H.H.L.W.P.H.S.L. X]. X XE.J.J.F.G.P.{.{.P.C.J.T.K.E.`.`.Y.K.Y.`.~.T.P.T.).].Y.P.P.@X@XE.(.T.Y.P.P.].].L.S.J.!.].S.J.P.`. X].{. X",
" X_.T.F.J.!.].T.J.L.W.].~.~.(.T.Y.Y.E.(.R.J.C.P.K.F.F.K.(.{.R.P.L.T.P.J.P.P.G.G.H._.@X{.{.{.P.F.F.L.L.S.S.D.D.D.P.].`.J.F.P.K.G.",
"XXXX!.M.S.].oXQ.H.S.P.].].]..X X(.Y.(.(.T.F.C.F.J.F.M.F.E.XXE.N.F.L.L.J.F.C.C.F.f.(.@X X.X{.L.N.F.S.S.S.S.S.A.A.~.XXE.F.H.C.H.H.",
"XXXXT.S.F.Y.~.W.F.F.Y.`.T.!.].!.].].].E.P.C.J.P.J.J.J.K.!.{.!.J.S.U.T.P.J.F.G.F.a R..X{.`.~.T.T.L.G.J.J.J.D.L.U.~.~.R.P.R.G.H.G.",
"]. XT.S.S.J.J.D.F.L.U.~.Q.A.S.!.XX X X].T.J.J.T.~.~. X X`.~.T.N.S.L.~.^.N.F.E.1 1.y }.{.`.T.~.`.^.Q.^.T.J.~.XXXXT.S.J.XXXX{./.R.",
".X{.T.D.J.J.S.S.F.J.P.~.U.S.S.!.XX X X XT.J.J.T.T.~. X{.~.T.T.J.L.U.Q.L.N.F.1 4.l.j.a (.`.T.~.T.T.!.^.P.P.~. XoXP.S.L.oXXX).P.R.",
"~.T.L.D.J.!.].^.L.T.^.~.^.L.L.].XX].P.P.J.S.F.J.J.T.`.`.U.J.J.J.D.L.D.U.W.].1 1.j.4.a T.J.U.T.J.U.L.L.T.~.!.U.U.D.S.J.~.{.(._.}.",
"L.L.J.Z.S.oXoXoXQ.~.].oXoX^.Q.oXXX!.J.F.F.N.N.F.J.J.~.T.I.J.J.D.S.S.Z.D.XXOX/.9 4.e OXT.J.N.D.J.S.A.S.~.XX^.S.N.S.S.J.P.P.].OX.X",
"J.J.L.L.D.]. X].T.T.^.^.^.^.T.^.].!.L.J.J.J.J.D.J.I.T.T.J.J.D.I.L.D.S.D.]. XR.9 1.y !.T.L.J.J.I.L.P.L.T.{.T.J.D.D.S.D.T.T.~.].`.",
"S.S.L.^.!.D.D.D.^.T.L.L.D.D.D.D.S.J.T.~.T.J.D.J.V.J.D.V.J.D.J.T.T.]. X^.D.S.q q 0 w w w ~.T.T.T.]..X{.J.N.L.Q.y L.S.D.].`.P.F.J.",
"Z.S.D.^.].D.S.L.^.T.L.S.D.D.D.D.Z.J.T.T.J.J.V.I.V.I.V.V.D.D.J.~.^. X X].e q O.O.O.O.O.O.w 0 0 ~._..X{.J.M.J.4 1.y S.D.~.U.L.S.J.",
"L.P.U.L.L.D.D.D.D.U.J.D.U.^.Q.Q.T.P.U.L.I.J.I.J.T.T.T.I.L.D.J.].^.T.L.w h.O.l l h $ $ $ ) O.O.0 q Y.E.T.L.4 4.l.j.y D.D.P.T.^.T.",
"^.^.U.J.J.J.S.J.N.S.S.S.P. XOX`..X{.J.N.J.F.J.`.~.{..X].L.S.L._..XL.0 O.T h #.c h h h h $ $ $ ) O.q 0 ^ `.1 1.j.4.a F.S.M.P.XX].",
"T.T.U.D.D.U.J.D.J.J.S.J.P.).`.`.`.(.L.J.L.J.J.T.~.`.{.].P.H.P.}.).q O.) h #.#.c h h h h h h h $ $ ) o.[ q q 1 4.y J.P.F.F.P.).].",
"I.I.D.N.D.T.^.Q.].].(.].(.P.Y.E.J.P.T.`.P.F.F.J.F.P.(.].].(.].).W.0 U h #.#.#.c h h h h h h h h j $ 7 U ) O.1 1.y T.~.T. X].!.].",
"D.D.V.N.D.T.^.]. X X X X{.P.H.H.N.G.{. XT.J.N.J.S.L.!.].{.XX]./.P.0 U h #.#.c c h j h h h h h h h j j k q I O.9 a ~.]. XoX].!.).",
"J.J.D.L.U.L.L.!.].].~.T.R.E._.P.L.P.!.`.T.J.J.J.K.E.`.(.]. X].!.: I h c #.#.c c h $ h h h $ h h h j h k 0 ) O.q y J.T.~.P.Q.].~.",
"J.J.L.^.^.D.Z.L.XX].T.F.K.@X@X.XOX~.F.S.N.F.J.J.J.E.]. XoXoX X: O.h c c #.c c c h $ h h h $ h h h j f R O.O.I q J.M.S.L.F.Q.oX X",
"S.F.L.^.~.D.S.L.].].L.F.J.{.@X{..X!.F.H.J.J.J.T.K.T.].@X7.0 0 O.h c c c c c h h $ $ h h $ $ h h h 0 [ o.) ) I q J.J.J.S.F.P.].].",
"F.J.L.T.Q.U.D.D.L.J.J.S.J.T.T.H.J.P.P.Y.{.!.T.XXOX@Xg P [ 3.O.h c c c c h 0.0.0.0.$ $ h $ $ h h 0 O.{ ) ) ) ) g T.T.L.J.J.L.F.J.",
"F.F.J.T.~.J.S.J.S.D.S.S.q q 0 F.H.J.W. X X].oXoXXXw O.O.S h h c c c h q.0.x.Z.Z.x.q.w.$ $ $ h 0 O.) ) [ ` ] O.0 ~.T.T.J.J.N.F.N.",
"H.P.T.T.~.U.D.J.L.I.D.w O.g.g.0 L.L.P.P.Q.Q.~.oX: O.I h +.+.c c c h q.x.Z.Z.x.x.Z.Z.x.q.0.$ $ 0 I ) _ } ) ) O.0 T.T.P.J.J.L.T.J.",
"P./.E.T.T.L.D.D.T.~.: ] U c >.;.h h L.F.J.S.L.~.: ) h #.#.#.c c h F 0.x.Z.Z.Z.x.x.x.x.Z.x.0.0.0 I ) 2.2.) ) O.0 T.J.J.T.~.].`.].",
"_./.P.E.T.L.L.I.T.~.8 o.m c *.*.-.-.m m G.S.H.Q.: R h #.+.m c l h F 0.q.a.v.Z.n.n.x.x.c.x.0.g U ( ) <.<.) ' ) 0 J.J.J.T.].].{..X",
"_._.K.F.P.E.~.T.I.U.8 X.b c $.+.-.-.@.@.p.p.Q.).: I h +.b c x z z 6.8.0.0.a.v.b.Z.b.x.x.a.L T E ) _ ' ` 3._ X.0 T.~.!.L.H.!. XXX",
"_.@XR.M.F.}. X`.V.D.g ( n c c c %.#.;.;.l x A.J.: I j c c n l G G q.G 9.9.0.0.z.n.n.x.s.9.r O.) ) ' ]  .4.) O.0 ~.XX{.S.S.(.XXXX",
"@XOXE.F.F.E.`.T.I.I.D.8 $ h c c c c #.#.>.:.h h : I j h M F F 0.x.x.q.F F 0.0.0.0.x.w.q q O.) ) ) ) )  .4.) ) : T.~.~.P.P.!. X].",
"OX@X_.Y.P.J.D.J.oX~.U.D.: $ h h c c c c #.#.:.:.h h F F 8.a.z.x.Z.Z.z.x.0.F F 0.0.q q O.O.) ) 4.<.) ) _ 1.) I 8 J.N.F. X XL.A.F.",
"XXOX).Y.T.S.M.I.OX`.J.S.: : $ $ h h c c c c #.#.#.l q q w ~ x.Z.Z.Z.Z.Z.x.x.0.F 0 O.O.) ) ` 4.) ) ) 2.2.` ) : `.J.N.J.{..XP.S.S.",
"{.XX).L.T.T.J.P.T.T.J.- : 0 : : $ $ h h b c c b j w O.g.g.h.q x.Z.Z.Z.Z.Z.Z.x.: O.I ) ) ) ) 4.` ` 4.<.' ) I : J.J.J.J.L.L.J.S.H.",
"].OX!.N.J.T.T.L.M.N.. 2 : 0 0 q 8 8 $ $ h h c j 8 ) I q E ..g.w x.x.Z.Z.Z.Z.x.: ) ) ) 4.4.1.1.4.1.) ) ( I 8 J.J.- - - N.N.F.F.F.",
"]. X!.F.J.T.P.P.D.J.X   : 0 I I w q : : $ $ j $ : O.q I g T O.w x.x.x.x.Z.Z.0.: I ) 4.<.) ) ) ` ) ) R P : r.,.C.. p W - J.F.L.F.",
"F.L.W.XX.XL.J.J.].{.~.T.: 0 I I I I 0 0 : : $ $ : ) q q q U ) q x.x.x.x.x.x.0.: I ) 1.) )  .) ) I 8 : - X ,.,.e.e.. i - {.T.P.L.",
"F.S.!.XXXXL.S.m.- - ].- i : 0 I I I I I 0 q : : : : I q P E O.q x.x.x.x.x.0.0.: I 1.' 4.1.) I 8 : . , 2 - ,.=.e.- . i X .X~.L.T.",
"L.F.L.].T.L./ + i W - - 6 . 8 8 0 I I I I I 0 q 8 8 8 8 P R ) 0 x.x.z.x.w.a.: 3.I ) ) ) T : 8 ,.,.. 3 d Q - - * W p o `.`.T.J.L.",
"H.F.F.S.D.# ; 6 6 0.p Q - - J.H.: : 0 I I I I I q q q U { o.) 0 x.x.z.w.q g O.R ) ) U : : =.,.,.,.e.5 & p - Q p X o J.T.T.J.J.J.",
"F.F.S.S.L.@   # 6 6 6 2 i W - - H.P.: : 0 I I I I - - - T ] ) 0 x.a.q q O.O.) ) I : : X ,.e.8.,.e.- # < W i o   J.F.J.~.`.J.J.J.",
"!.].P.F.L.P.J . o . 6 6 6 F d W - - -   : : 0 I . W W s 4 e ) I g q O.o.) ] I : : X 2 * e.e.,.* - Q B 3   X J.J.J.J.L.`.].T.J.J.",
" XXXP.S.J.J./ , 6       5 6 6 6 i W - -   X : :   . . W t 9 I ) O.O.) ) I 8 8 ,.,.. i Q - - - W p X o C P.J.F.J.J.F.J.{.`.T.F.N.",
"].].P.L.Y.H./ < i . L.F.. . 6 6 2 6 i W - - e.t.: : - p 2 > 0 ) ) ) I 8 8 ,.,.r.r.r.  p - W i   o ~.T.P.T.L.N.J.S.N.J.{..XT.J.J.",
"T.`.].XXXXJ.H & s 6 . - - -   o 6 6 6 F i W - - y.- d 6 % = g I I 8 8 . ,.,.t.t.y.- o W i   X J.S.J.J.T.`.L.N.N.S.M.J.)..XT.S.F.",
"~.T.].OX.XL.S.d.. d W Q W i   o o   6 2 6 6 i W - - 6   = 8 8 8 : X p * t.,.t.- - W i X   P.J.J.J.F.J.P.~.P.J.F.F.F.J.].].P.J.L.",
"P.J.J.P.L.P./.P.P.o .   . . r.r.t.r.X X 6 6 6 0.i W * * S t.t.t.7.. p Q < * * Q i o   P.!.`.T.~.T.J.S.J.H.P.].].!.!.T.P.L.Y.!.].",
"N.N.N.M.S.].OX~.S.F.!.y.y.e.e.t.y.t.e.,.o   6 6 6 W p   S u.r.e.K 8.. p * Q p . . H.A.P. X.X{.OXT.F.F.S.M.L.XXXXoXXX`.S.S.`.XXXX",
"J.D.D.J.D.^.^.^.D.U.^.^.^.e.r.r.t.t.r.e.r.. o X W d . r.r.y.r.r.,.*   W a . . `.R.P.H.P..X.X/./.L.L.H.A.N.Y.{..X].`.T.J.J.T..X.X",
"T.L.U.^.^.D.D.D.^.U.D.U.T.U.J.r.r.r.t.t.r.& , o # # K t.r.e.r.2 2 ! t + O C.n.G.P.R./.OXOX@XG.C.P._. XP.F.J.~.{.J.N.J.T.T.T.F.J.",
"U.L.U.].^.D.D.L.^.^.D.Z.K.`.~.c.d.,.y.t.r.- t X N N y.y.H C C p t 9 < u.u.OXE.G.G./._.`.OX@XG.N.L.!.].P.J.J.T.T.J.M.J.T.T.T.F.J.",
"Q.~.~.L.H.L.D.S.U.U.U.L.P.E._.R.E.i.i.t.r.& p O J K K ,.Z , < B t 5 5 P.Y./.P.P.G.P.G.G.@X@XR.E.Q.Q.P.J.J.J.J.T.J.S.J.J.J.T.T.P.",
"].oX^.S.S.D.D.D.Z.D.D.Q.P.Y.W.{.OX`.`.r.,.. d 2   * * - V ! p . . W.F.F.T.T.J.C.F.H.C.R.@X@X{.OX).J.S.F.J.J.S.J.D.J.J.D.J.`.{.{.",
"].].P.F.L.J.D.T.P.G.L.U.T.Y./.}.{.@X{.E.Y.r.. p W W W d &   . (. XL.S.J.P.L.J.J.K.F.C.R.{._.E.@XT.L.J.L.P.S.J.J.J.J.J.D.J.T.]. X",
"oX].~.T.T.D.A.L.oX X~.!.`. X_.}.`.{.@X`./.P.P..     . . f.].(.K.J.C.D.J.J.J.T.{.E.F.C.G.F.K.P.T.!.`.{..X].`.T.E.I.V.N.N.S.J.Q.~.",
"].XX].~.!.D.A.U.oXoX].~.(. XXX_..X{.@X.X/.G.G.@X_.XX_..XXX.XT.F.J.N.N.N.S.J.T..XE.K.C.F.C.J.P.J.T.{..X X].].].T.J.J.D.D.S.L.U.L.",
"~.].T.L.U.U.D.U.~.^.^.].].!.!.!.R.P._.@X_.K.G.OX.X@XR.P..X.XE.K.P.J.U.U.S.J.~.Q.T.I.T.P.V.K.E.E.E.Y.T.`.`.T.T.U.D.J.J.V.N.K.`.T.",
"~.~.P.D.D.D.D.D.S.S.U. X].U.L.D.F.K.`.@XR.K.G.OXOX@XH.G.(..X(.P.T.~.oX].D.S.I.T.T.T.E.T.J.J.`..XY.C.C.T.{.L.D.J.J.D.D.V.D.T. XoX",
"T.~.U.L.U.D.D.U.S.D.T. X~.Q.P.L.C.F._._.P.P.P.@X.X}.P.P.R.{.E.K.L.~.].].J.S.L.U.T.T.T.T.J.I.`..X(.F.C.T.~.J.J.J.J.D.D.C.D.T.].].",
"J.J.U.U.^.U.D.D.D.D.D.U.D.D.J.J.J.F.K.K.P.R.G.G.G./..X.XE.R.P.J.J.U.Q.U.D.D.T.T.T.J.J.J.I.T.E.~.R.@X_.K.J.L.T.T.I.D.D.D.D.D.L.D.",
"N.C.K.P.T.L.D.D.D.D.D.D.D.D.D.N.N.N.C.F.G.R.G.G.H.R.OXOXE.P.J.J.D.L.Q.L.S.S.D.~.T.J.N.J.T.~.T.T.P..X.XH.A.L.!.T.D.D.D.U.D.D.D.D.",
"H.F.P.`.^.T.U.D.D.D.D.D.L.T.T.I.J.J.K.K.P.}././.G.P._./.P.P.K.J.D.L.L.D.P.P.P.U.J.J.J.T.{.E.T.J.Y..XOXP.H.U.`.~.L.U.U.D.D.D.D.D.",
"/.P.`.OX].^.^.U.D.D.U.D.D.T.^.T.T.E.`.R._.@X@X@X@XR.F.F.P.~.Q.L.Q.D.S.G. XoXT.D.J.F.J.T.{.`.J.F.P..XOX/.Q.Q. X].^.^.T.D.D.D.D.D.",
"/.P.E.OX].^.T.U.D.D.D.D.D.T.^.T.E.T.E.E.`.@X@XOXOXR.M.C.!.~.^.!.L.L.D.J. X|.U.D.J.J.S.T.XX].J.F.G.OXOX/.L.]. X].^.^.T.D.V.D.D.D."
};
