/* XPM */
static char *_23d5b7ef1004b15dd4497e87b2be9e73nAxhCnSkS8ZDPJF[] = {
/* columns rows colors chars-per-pixel */
"64 64 237 2 ",
"   c #011300",
".  c #021C00",
"X  c #0C1C00",
"o  c #081500",
"O  c #141500",
"+  c #1B1601",
"@  c #121C00",
"#  c #1B1B00",
"$  c #000E00",
"%  c #231504",
"&  c #221C00",
"*  c #271D0A",
"=  c #012400",
"-  c #0C2401",
";  c #022C00",
":  c #0A2C01",
">  c #0C2B0C",
",  c #132300",
"<  c #1B2401",
"1  c #122B01",
"2  c #1B2C02",
"3  c #18270C",
"4  c #033300",
"5  c #0A3401",
"6  c #053A01",
"7  c #0C3C01",
"8  c #0C340B",
"9  c #0D3909",
"0  c #063008",
"q  c #133400",
"w  c #1D3201",
"e  c #123D01",
"r  c #1A3901",
"t  c #13350C",
"y  c #143C0B",
"u  c #1C3C0D",
"i  c #173C11",
"p  c #0D3E11",
"a  c #232302",
"s  c #232D03",
"d  c #2B240C",
"f  c #282608",
"g  c #312B0B",
"h  c #362709",
"j  c #253708",
"k  c #36350D",
"l  c #352B1A",
"z  c #3A2B1A",
"x  c #362914",
"c  c #3C321B",
"v  c #353617",
"b  c #2A3015",
"n  c #372A24",
"m  c #393726",
"M  c #43331C",
"N  c #463517",
"B  c #433422",
"V  c #483B2A",
"C  c #0D4200",
"Z  c #0C4507",
"A  c #134401",
"S  c #194602",
"D  c #154A01",
"F  c #1B4C02",
"G  c #14430B",
"H  c #1B450B",
"J  c #164A0B",
"K  c #1C4B0B",
"L  c #1D5201",
"P  c #1E5801",
"I  c #1E510B",
"U  c #175200",
"Y  c #1E4511",
"T  c #1D4C12",
"R  c #1B5211",
"E  c #214E02",
"W  c #224C0C",
"Q  c #254508",
"!  c #235401",
"~  c #295606",
"^  c #245B02",
"/  c #2A5C03",
"(  c #24540B",
")  c #2B560E",
"_  c #255A0A",
"`  c #2A5C0B",
"'  c #315E0C",
"]  c #305F01",
"[  c #234C14",
"{  c #284813",
"}  c #344717",
"|  c #235312",
" . c #2A5414",
".. c #2B5C14",
"X. c #2C5D18",
"o. c #265717",
"O. c #325A19",
"+. c #354708",
"@. c #2C6302",
"#. c #2D6902",
"$. c #2D630B",
"%. c #2E690B",
"&. c #276208",
"*. c #316603",
"=. c #336B03",
"-. c #396E03",
";. c #32640C",
":. c #346B0C",
">. c #396D0C",
",. c #357104",
"<. c #3B7304",
"1. c #36710D",
"2. c #3B730C",
"3. c #3D7A0C",
"4. c #3A7904",
"5. c #2C6214",
"6. c #2F621F",
"7. c #326413",
"8. c #356B13",
"9. c #3B6D13",
"0. c #32641B",
"q. c #356B1A",
"w. c #3B6C1A",
"e. c #377213",
"r. c #3C7313",
"t. c #3D721A",
"y. c #3E791B",
"u. c #3F4B25",
"i. c #396A21",
"p. c #386723",
"a. c #3E7221",
"s. c #41770D",
"d. c #427B0B",
"f. c #437A07",
"g. c #427514",
"h. c #437B13",
"j. c #42751A",
"k. c #457B1A",
"l. c #4B7D1B",
"z. c #544C3B",
"x. c #534637",
"c. c #514B35",
"v. c #457A24",
"b. c #544C41",
"n. c #5E5649",
"m. c #655A4C",
"M. c #4C6444",
"N. c #736455",
"B. c #7D7468",
"V. c #7A6E60",
"C. c #8A7A6B",
"Z. c #867B73",
"A. c #4B850D",
"S. c #488509",
"D. c #518E0B",
"F. c #4C8415",
"G. c #4E8915",
"H. c #4C841B",
"J. c #488218",
"K. c #518D13",
"L. c #51871C",
"P. c #528B1B",
"I. c #548717",
"U. c #56911B",
"Y. c #559314",
"T. c #4D8222",
"R. c #4F852A",
"E. c #538B23",
"W. c #518727",
"Q. c #589322",
"!. c #508630",
"~. c #94877D",
"^. c #898575",
"/. c #A39C7F",
"(. c #968B85",
"). c #9E9294",
"_. c #959185",
"`. c #A59D98",
"'. c #A0938B",
"]. c #9DA19A",
"[. c #ACA19B",
"{. c #B0A893",
"}. c #A9A7A2",
"|. c #B8ADA4",
" X c #BAB3AD",
".X c #C7BDB1",
"XX c #C7C5BB",
"oX c #D4C5BB",
"OX c #D6CAC6",
"+X c #DFD9DB",
"@X c #D7D6D4",
"#X c #D1D2C6",
"$X c #E3D8CC",
"%X c #E5DBD9",
"&X c #DEE0DD",
"*X c #EBE2DD",
"=X c #E3E2DE",
"-X c #DBDDE5",
";X c #DCDEEB",
":X c #D6DCE7",
">X c #DCDFF0",
",X c #E2DEE2",
"<X c #E5DEEA",
"1X c #DDE2ED",
"2X c #DCE6E9",
"3X c #DEE3F2",
"4X c #DDE3F9",
"5X c #E4E2E3",
"6X c #EBE4E4",
"7X c #E3E4ED",
"8X c #EAE6EC",
"9X c #E3EAED",
"0X c #ECEBEC",
"qX c #EDEBE7",
"wX c #F3EDED",
"eX c #F7EBEA",
"rX c #F6F2EC",
"tX c #E2E4F3",
"yX c #E9E6F5",
"uX c #E5EAF4",
"iX c #EBECF3",
"pX c #E4E7F9",
"aX c #E5EBFA",
"sX c #EBEDFB",
"dX c #F4ECF4",
"fX c #F2EEFC",
"gX c #F1E6F1",
"hX c #EDF1F5",
"jX c #EDF2FD",
"kX c #E7F1F0",
"lX c #F3F3F5",
"zX c #FAF5F4",
"xX c #F3F4FC",
"cX c #F9F5FE",
"vX c #F5FAFF",
"bX c #FBFBFE",
"nX c #FCF9F5",
/* pixels */
"q.U K 0.R.C P :.:.! <.d.g.;.` / E S r ; e Q e e W A K ~ ^ *.f.F.T.L / :.$.` F L 8.' A 7.I 4 C 0. .W O.v.A L ! =.1.L C R.q.F F p.",
"F 6 4 D 8.! @.r.:.,./ L ~ 9.7.g.! S S e e F S F ) ) ! A ^ =.-.s.L :.J.L L &.9.j.>.>./ F L 7._ F 4 5 F ` F ^ / 2.r.^ ! 8.D 4 7 E ",
"_ 7 C F C ! ` ;.#.>.=.@.! F F g.^ E ' / ! E E ` 9.;./ ! / =.#.1.=.P.E.C D @.9./ >.L.3.=.=.#.:./ 5 7 F E / >.:.*.=.@.! A F e 5 _ ",
"$.L ( _ ! *.9.` / @.-.>.F ! ` ;.! / s.h.=.^ / r.k.@.#.=.%.e.5.P d.P.E.P A A ^ *.<.l.-.<.d.3.J.@.! F ! ! ;.>.;.^ &.r.%.L _ ^ ! $.",
"! 9.7.' l.;.:.j./ ~ :.:.^ ` q.! ` g.L.F.2.@.#.h.F.4.,.4.e.R.6.Z S.Q.1.C C C L k.j.@./ -.A.I.*.L w.7.L / j.:.^ / 9.:.:.v.*.:.9.! ",
"*.h.s.;.T.] ` ` F ;.j.;.F 6 D A 8.W.E.d.,.=.=.d.G.Y.#.@.&.&.P P G.Q.1.C 6 D ` ` $.A ^ F.F.-.^ ;.q.$.C D ;.w.@.F / ' ] l.*.>.h.*.",
"I.f.~ / 9.g.' A 7 ' ` F 7 C A C &.H.J.#.@.-.3.4.4.Q.^ D Z C P 3.3.P.E.8.C C X.I 5 e ~ j.g./ ;.;.D C 6 C D &.' e r :.g.>./ / <.G.",
"I.f.] / ! 9.' E A A 6 F _ _ L F A :.r.@.L 1.J.=.=.W.@.U C P J.3.K.G.y.r.q.D F 7 7 S i.' ] ! F F L P P _ F 5 A A ! ' 9.F / @.d.P.",
"l.-.] ] E ! ^ ~ F e 7 ! t.:.t./ ! ^ ;.F ^ 9.9.L ! q.L D L J.Q.4.K.Y.S.3.E.%.F 7 7 ) X.( ~ E S / &.e.8.t.! 7 e E ~ ~ ! E / / -.l.",
"s.! ! ;.E e F ~ ^ F L $.r.:.r.r.:.! 4 7 F ( ) F 6 F L ! 3.G.A.S.Y.D.S.D.P.h.$.L F L  .S e S ' ;.1.r.1.r.@.L F ^ ~ E A F ;.^ ! 9.",
"' Q E ~ e e ` ` *.;.g.h.s.=.=.:.l.7.5 7 A A e 5 4 C ..r.P.G.d.A.Y.S.D.D.4.J.r._ F E F 5 ; S g.l.1.#.=.4.g.r.;.;.~ ' A 5 ) F F ..",
"E e A E A F ~ ^ *.>.E.E.G.4.#.=./ ~ F e ; 5 5 4 6 A $.=.h.P.J.J.Q.S.S.Y.A.L.:.D C _ K S q S Q ;.=.#.s.P.E.E.>.:.~ ~ E r E A A F ",
"S e A ` ) ! D L *.=.H.L.P.G.! L ^ A S S e 5 A 5 7 A _ U y.P.1.@.E.J.F.Q.E.:.A 6 C L S K K S E E L / J.E.L.J.=.*.L F E ~ ) A A F ",
"E ^ / 9.q./ L @.=.#.#.=.h.J.L 6 J F ( i._ 6 R C 7 ! _ 7 v.8.C C g.1.1.W.W.D 6 F ( A S F W S ) S 5 L l.k.,.#.#.>./ ! / :.9.~ ! E ",
"! @.-.r.;.@.*.<.4.-.! ^ :.r.L D A F C _ 7.I $.D L &.$.C 5.U 6 C e.! D 5.!.D L 8.8.L ! ! ` A W e S ~ a.:.! ^ =.4.,.#.*.*.g.s.] ! ",
"#.#.s.E.3.=.-.s.h.r._ F U _ A J T | C C A A ! g.y.t.:.&.D _ ^ &.D 6 4 D a.A $.t.t.;.! F ! 7 ~ | S A ( F U / r.g.3.<.-.s.L.s.*.*.",
"#.-.A.A.P.,.#.=.@.v.F 4 7 6 C 7 4 A D D S J 7.;.*.;.L.h.1.=.=.e.&.6 A L A ^ ` %./ g.*./ _ C 7 6 C 5 6 7 6 A k.@.=.@.<.G.F.h.1.*.",
"1.3.4.s.P.#.! L A X.G ; 4 C F K A 6 K 7 7 | A ^ :.h.h.-.-.3.H.r.&.! ( L ! @.t.;.@.@.<.#.! ( C D F A 7 4 ; F 5.D L ^ =.P.4.3.s.2.",
"3.g.=.:.W.&.! A 4 y e 5 6 F ` 7.6.J C 7 6 e 7 F g.g.*.^ =.h.E.=.P 1.8.:.k./ >.:.^ L r.:.L L F 5.q.O.[ 7 4 A e ; C ! @.L.=.=.s.4.",
":.9./ L a.0.| e 4 ; 4 7 e A L _ 5.i.D D 7 4 F 7.` ^ S / H.G.>.! =.s.*.:.E.@.@.~ ! ' t.8.D C _ $.( F A G 5 4 ; 0 C ( $.y.! / <.-.",
"_ _ D 7 ( 0.H 7 H ; 4 y H 6 A 6 A p.o.L e 5 5 5.! e 7 ~ g.f.*.*.H.k./ ! >.9.' S 5 X.( F C 4 U C 7 e 5 K S ; 4 T 5 F 0.! 7 A / ^ ",
"A C 6 ; e ..e 5 K S S F | S ( 5 ; C D A ) ..F ! 7 5 F 7.>.*.! / E.g./ ^ ! 9.' W C A 7 A o._ L L A S S ( ! 7 A K 5 e ..e ; 6 C A ",
"6 4 4 4 5 D 7 C F ~ / ! L ( K C C D F ~ w.j.9.! A S ! ' E E E / l.=./ ;.E ! ~ ~ S 7 6 ! t.e.%.:.F F F L ! / ` F C C D 6 4 4 6 6 ",
"6 6 G C C 6 A A / g.j.&.D ( C D F L :.r.>.-.h.^ E E E ) S r E E g./ E ] F A F E ^ ^ F #.2.2.r.#.$.F ! F / k.y.! D C 6 C 9 G 5 6 ",
"C P P C P _ D C U @.y.8._ C 4 4 L r.g.=.-.A.I.-.E E E E 5 ; 5 E ' S E ^ 5 F / / *.-.-.h.s.*.#.1.k.:.D / =.3./ D C D _ I C I _ Z ",
"^ %.%.P ^ t._ L L ! $.t.q._ C C L L / 1.A.K.F.h.:./ ] E H : : 7 E 5 A ! S F ! / *.<.F.U.P.d.@.:.@.P L 8.1.#.&.U U ..q.^ P 8.%.&.",
"1.1.e.&.U 5.8.$._ q.$.8.e.t.&.D F L ` :.F.Y.3.1.=.=.j.! W S e A F e F ( ) E F ^ *.-.G.P.H.T.L L ^ @.5.0.8.&.e._ 5.q.5.U #.1.#.,.",
"y.%.%.:.L L 8.7.C q.q.! D %.8.L 7 F | U 1.H.:.@.-.l.L.L ! ~ / ! E ^ ;.7.7.~ ~ ~ =.#.=.=.h.J.D C D &.I F ` 8.q.C 5.q.L P #.#.#.3.",
"q.P D &.r.D $.$.6 ( p.| ; = 5 6 7 A 5 7 ` $.L L g.L.1.! #.s.g.*.! / 1.g.;.@.=.-.s.=.^ ! :.r.L D C L 6 ; U 0.( 6 5.$.F >.%.D P 1.",
"a._ D _ y.A L F 7 = = ; 7 5 A 5 H J 5 e J 7 7 ! r.2.L @.s.I.L.s.@.#.s.P.g.=.-.g.h.h.! F L L D A ( | e 9 5 ; = 4 F F A g.&.C _ v.",
"X.A 6 D q.` .. .: = . = 9 G H K A ( _ A 6 ; C 8.9./ D 1.G.G.g.>.=.,.f.G.E.:.=.:.;.t.I 6 6 7 7 A 7 7 K G 5 = . 6 ( ../ w.A 6 A ..",
"Y ; = ; ( O.W : ; 5 ; ; 9 T C S ( ' 9.A 4 6 7 q._ C C t.P.H.=./ =.3.s.4.E.=.^ F A 5.H ; 4 A D K D 5 W 5 ; 4 8 = 5 E 0.| = = ; Y ",
"3 X   = T y . . - t 5 ; 4 Z 7 A ' w.( D A 6 6 _ 7 6 E q.E.f./ ! 2.J.=.=.P.@.L A ; H G 4 5 ( ! 8.5.U A 4 ; 0 9 : . = G Y = $ . > ",
"o . = ; 4 ; > > : y e 6 4 9 J K E E S F L U _ C A 4 A i.j./ F ^ t.8.P ! k.;.! e ; ; ; 7 e A L ^ 5.5.K ; ; Z 9 ; ; ; ; 0 : - .   ",
". = 9 6 ; ; 8 0 ; e S S 6 5 q : : e F ~ _ L r./ L D A 7.E 5 7 F _ _ A A ! ` F 7 T 6 4 G J 4 A C K O.W ; ; T 9 ; 4 0 0 ; 8 8 = = ",
"4 4 7 6 4 4 p 4 4 C ! ( H q - . = E 7.C L r.s.1.%.! A e ; ; 9 7 A A 6 ; 7  .A 5 H 7 A U K K J 4 = : ; = 5 | Z 4 4 Z 6 0 9 7 4 5 ",
"0 7 A 7 ; 7 G Z 4 Z U I  .r 1 w Q ) A A :.h.2.:.! D E A 6 4 6 4 4 6 5 ; 5 H C 7 L / @.L U 5.I K 4 . = e H e 6 6 Z Z 6 4 6 A 7 ; ",
"4 H W r ; e T R C C C 7 r , , j Q F e 8.y.@.^ ! A ! w.F C Z Z C 6 5 G Z A 5 6 D ^ 1.3.&.Z I C J y : y G y 5 A A R J 7 4 C R H 5 ",
"y W ) Q r e W | ..K 5 - , , < j ; ; ;.! F ( 6 7 ;.;...A U %.1.P F L U H I _ D C D @.2.8.&.Z 4 ; 5 G 7 5 : : [ [ o.K r r W  .{ s ",
"8 : Q +.w - r W  .r - @ # f j 2 = 7 A F J 4 9 K ` ^ C ! e.y.3.#.L 8.5.I ! w.$.L L @.=.r.q.I S 4 A T ; ; = X u } { r , w } Q < 2 ",
"X X s +.< @ - w 2 @ f # b m c.{ H 8 4 J 6 4 | A D D L %.&.@.4.4.4.#.e.%.U #.:.@.! 1.#.=.:.w.;.F S [ 4 : 2 < @ j s 2 O @ } 2 @ # ",
"O O g h + # @ < < O * m b.c.i t [ 8 ; y 7 6 A 4 6 D 8.e.P U #.3.3.#.%.8.P P t.&.C 8.:.^ E 7.7.E e [ u - s & + + + a % + v v O O ",
"% z M N + l l v x + z Z.}.u.> p = : H [ G 6 6 4 6 _ i._ P 8.e.P r.^ U %.r.C ..X.4 X.p.W ; . 5 q : , , < d d % c x * x % m m # 3 ",
"V (.OX[.n ).OX~.l z '.OX6XXX#XM.. : H W 9 ; 4 6 5 C J 7 5.a._ U e.^ C _ k.C D | 5 = . ; i : 5 = X @ j k /.C.h h x Z.(.m ].#X_.m ",
"[.+XrX6X X-X+XOX`.[.@X,XeXeX^.} j 1 t 1 5 6 = ; ; 4 ; ;  .[ 5 A 0.A 7 H X.) X.T 5 = = ; y Y W 1 - # v c.{.$X~.N.(.OX+X[.9XqX#X).",
"kXlXvXbXxXiX-X8XzXzXwX0XdX*Xx.g s 1 - : 5 q ; = ; 0 ; ; Y 7 = = H ; . ; | i.W 5 ; ; 4 = 5 o.[ w X + V n. X*X*X*X,X5X9XlXbXwX9X2X",
"lX-XtXuXkX0XxXdXaXhXhXjXsX,XN.k < , X . = q y 7 8 = . 8 i =     t =   . { Y . . ; 8 7 ; ; i 8 5 < a c.XX=XlXlXcX0XbXkX9X8XgXlXbX",
"-X:X1X:X2XxXvXjX3X1XjXvXfX%Xz.h + O o - 3 t y 4 ; ; ; i : = > .     : - ; ; ; ; 4 e e 5 ; 8 ; : s k c |.=X9XbXbXbXvXkX9X2XdXbXbX",
"7X7X1X3X3XjXjXaX4X4XaXvXlX+Xb.l d O # 3 3 1 = ; 5 G H 4 ; 4 t p = = ; 9 = ; 5 8 ; G J J 4 ; y : & % h x.}.yXcXvXcXjXhX9X7XfXbXbX",
"hXuXuXjXjX4X4X4XjXjXtX7X0XeX`.b.d a # < 3 - = 9 H I J 6 6 7 9 0 4 6 9 y ; 5 8 5 ; 0 o.o.W u 1 2 f N h C..X8XcXvXtX-X7XiXhXuXtX3X",
"9XuXiXvXjX4X4X4XjXjX1X7X8XzXwXB.d a O X o . : { K K A A J G 7 4 ; 7 G 5 ; 5 A Z 6 6 H W { v X a h N B .X6X8X7XaXtX-X7XxXxXuX7X>X",
"hXjXhXuXuX3X3X3XaXaXuXkX8X0XzXB.* & + # @ 2 1 : e e C R R J 6 7 4 J R 7 4 Z R K C S e r w , # h N d V .X5X8XsXjXtX7X1X7XtXsXxXsX",
"vXbXjX1X1XtX1X1X1X7X7XiX0XrXwXZ.z x V N + @ < - : q S ( J C 4 Z 7 [  .[ 5 7 K  .( W q , @ # d M V x..X*X5X<XtXtX1XtX7X7XtXsXvXvX",
"xXcXiX7XtXuX3XuX3XuX9XiXiXvXxXXXC.B z * % + < # 1 j Q e ; 4 4 5 q q Q } q : r W O.w , X # h N M B x.%X6X8XuXtX>XuXtXtXtX7XsXcXvX",
"cXcXxXsXhX1X1XuXvXvXhXjXhXdXxXbXoXC.V.m d d g a a k k < @ , , @ @ O s v , X 1 2 w @ < < d B N.C.C._.wXbXvXsXjXjXtX3X;X;X-XuXsXsX",
"vXcXxXsXjX7X2XuXvXvXxXhXvXcXcXnXnXrXnXZ.b.n.z.x a g g # & + & + + & g v # + a @ # # a m x.V.OXeXeXzXcXbXxXxXjXsXtX>X3X;X7XuXaXtX",
"fXcXsXuXyXuX1XuXvXaXjXvXjXjXjXxXyX0XzXrX*X*XOXn.V x.c c M B V z * * V n % l c c z * * ^.%X%XdXdXdXiXiXxXxXsXaXaXtXtXtX<X>XyXjXjX",
"fXfXyXtX7X3X1XtX1X1XjXvXjXaXtXtX8X7XcXbXwX*XzXOX$XoXoX|.x.Z.OX|.m ~.$X[.n '.OX~.z n ).%X<X<XcXcXdX5X5XiXxXaX3XtX4XtX>X<X3XsXvXvX",
"sXfXyXpXuX3X3XtX1X3XjXvXxXaXaXpXtXyXfXfXgXqXdXnXzXzXqX6X}.@XlX&X].@XnX,X`.+X5XOX).).<XcX<XyXsXbXxX7X7XiXjXuX3XuXtXtX<X4X7XaXxXvX",
"tXtXuXaXsXaXtXtX3X3X4X4X4XtXpXpX<XyXyX7XiXxXqX8XqXrXcXvXhXuX0X2XiXuXkXhX;X8X8XfXgXgXgX<XfXfXsXjXfXvXvXuX3X3XsXsXuX>X4X<X3XuX3X3X",
";X;XuXsXjXuX3X3X3X>X>X3X>XtXtX>X3X:X3X1XuXhX9X0X2XhXbXbXfX8XuX7X2X3XjX2X:X1XuXjXyXdX<XyXjXjXjXaXiXbXbXtX-X9XjXsXtX>XpXtXtXtX1X1X",
"7X7XiXxXjXaXaXtXpX3X4XtXtXaXaXpXaXtXuXaX9XhXhXhX8XiXhXcXfXfXyXtX2XkXuX2XjXaX3XaXyXtXtXyXsXvX3XaXsXbXcXiX9XaXjXjXyXyXyXtX1X3X3X1X",
"hXiXxXvXxXjXhXsX3X3X3X3XtXjXfXsXsXsXxXhXxXbXbXvXbXyXuXsXtXsXfXyXaX8X7XyXjXjXjX3XtXtX;XiXbXvX1XtXhXbXbXxXhXhXxXxXfXfXsXpX1X3X3X1X",
"hXhXhXbXxXjXsXaX;X;X3XpXtXsXxXsXsXfXsXxXlXvXzXbXbXfX,X-XfXcXsXdXgXiX7XuXvXvXaX3XtXsX-XxXvXhX7X:XiXbXbXxXiXhXvXvXfXfXsX3X1X3X3X3X"
};
