/* XPM */
static char *ur_corner1693428977[] = {
/* columns rows colors chars-per-pixel */
"64 64 158 2 ",
"   c #020703",
".  c #030C03",
"X  c #031503",
"o  c #0C1604",
"O  c #041C02",
"+  c #0C1C02",
"@  c #131600",
"#  c #1B1500",
"$  c #161B00",
"%  c #1B1B01",
"&  c #211701",
"*  c #231901",
"=  c #2F1D03",
"-  c #321F03",
";  c #032401",
":  c #0B2402",
">  c #022D00",
",  c #0A2C02",
"<  c #132302",
"1  c #1B2202",
"2  c #122C02",
"3  c #1C2A02",
"4  c #053401",
"5  c #0A3501",
"6  c #073802",
"7  c #0C3C02",
"8  c #0C3208",
"9  c #133202",
"0  c #1C3501",
"q  c #123D00",
"w  c #1D3F07",
"e  c #202002",
"r  c #212901",
"t  c #252D09",
"y  c #342104",
"u  c #3C2505",
"i  c #372C07",
"p  c #352B0C",
"a  c #3C290D",
"s  c #35350C",
"d  c #3E3211",
"f  c #412706",
"g  c #442906",
"h  c #472D0B",
"j  c #4B2E09",
"k  c #40320B",
"l  c #4F300B",
"z  c #53330C",
"x  c #5D390E",
"c  c #432D11",
"v  c #4E3512",
"b  c #4C371A",
"n  c #543510",
"m  c #503B21",
"M  c #0E4103",
"N  c #134302",
"B  c #1B4500",
"V  c #154A04",
"C  c #1B4C02",
"Z  c #175005",
"A  c #1D5204",
"S  c #1F5805",
"D  c #224201",
"F  c #234C00",
"G  c #284E00",
"H  c #245302",
"J  c #285501",
"K  c #255A03",
"L  c #2B5C03",
"P  c #2E540D",
"I  c #2A5F0A",
"U  c #315E04",
"Y  c #345D0D",
"T  c #266206",
"R  c #2D6304",
"E  c #2D6B06",
"W  c #276108",
"Q  c #2B6708",
"!  c #316504",
"~  c #336C05",
"^  c #396B07",
"/  c #306608",
"(  c #356B0A",
")  c #3A6C08",
"_  c #367306",
"`  c #387607",
"'  c #377807",
"]  c #397A07",
"[  c #377708",
"{  c #3B730A",
"}  c #367908",
"|  c #3B7D08",
" . c #274F28",
".. c #3C653B",
"X. c #624219",
"o. c #42760B",
"O. c #437C0C",
"+. c #5B4428",
"@. c #62492A",
"#. c #634E34",
"$. c #66543C",
"%. c #6E583F",
"&. c #4E6730",
"*. c #4A6447",
"=. c #436B41",
"-. c #776147",
";. c #786754",
":. c #7F6C57",
">. c #867666",
",. c #8A7A6B",
"<. c #3E8108",
"1. c #43830B",
"2. c #4B850E",
"3. c #4D8A0E",
"4. c #508D0F",
"5. c #4B8310",
"6. c #4F8810",
"7. c #508710",
"8. c #548D11",
"9. c #569111",
"0. c #599313",
"q. c #638460",
"w. c #8F8276",
"e. c #94887E",
"r. c #869377",
"t. c #9E9489",
"y. c #A49A8B",
"u. c #ACA39E",
"i. c #B0A193",
"p. c #ACA6A3",
"a. c #AFAAAA",
"s. c #A3B3A9",
"d. c #AFBBB7",
"f. c #B8B4B8",
"g. c #B5BFBF",
"h. c #BEBABB",
"j. c #C3BCBA",
"k. c #C7C3C6",
"l. c #CDC5C4",
"z. c #CECCD2",
"x. c #D0CDD4",
"c. c #D7D5D9",
"v. c #D8DBDF",
"b. c #DADBE5",
"n. c #DADEEC",
"m. c #DDE1EF",
"M. c #DEE3F1",
"N. c #E9E6E5",
"B. c #E1E3EF",
"V. c #E2E6F3",
"C. c #E5E9F6",
"Z. c #EAECF4",
"A. c #EBEDFA",
"S. c #EEF0F6",
"D. c #EEF1FD",
"F. c #F2F4FD",
"G. c #F7FAFF",
"H. c #FBFDFF",
/* pixels */
"K H B N R V 4 q F J L B 7 J ! B 7 B 4 7 N M 5 G o.O.L L ^ 2.2.~ L _ ~ ! 1.! ~ _ L H ` ~ H H 6 6 4 4 4 4 B N M V H R ~ 7 E A 4 6 ",
"_ R C M N > > 6 q N q 4 > 7 L N 6 C B B q 6 F R R J D J 2.3.~ J ! ] ~ ^ 7.U L L F R ` ~ F 6 7 4 7 M M M 6 7 H _ | ` ! L V K R L ",
"_ H Z Z 7 4 6 6 4 6 4 4 4 4 B M 6 A R C 7 6 6 L H 7 7 L O.` ! / 7.o.L J ~ ] U B 6 H H N 6 7 M M V A M K C V R ! L ) 7.| _ E ~ ` ",
"H N A ` H 6 M V V M 7 M 7 N 6 6 N V C N K Q F H 7 6 B / ~ L H U 8.o.L L J ! R G N V N C K K K C B C H K E C B H ~ o.O.` _ o.1.| ",
"M Q ~ K N A T V E Q H H N H H V M N Z L ~ ` ~ G q q H R K F F J 2.( L L G H H J M E T H ` _ _ R K A Q C L A 7 G o.o.L L ~ 2.2.~ ",
"C R K N A ~ <._ 2.| ~ E A L _ C B L ^ ] _ _ O.L F G G L N q D H _ L J L C N C J _ 2.O.L ~ ] ] _ ~ ~ E G q 6 F L / J F J 5.3.~ J ",
"N V B A ~ K S | 8.3._ _ R A E ~ E | ] ~ _ 1.4.^ J G G F 6 > 5 G R V A K 5 B H K | 4.2.1.| ! / ` <._ R V 7 6 5 L A 7 q L | ` ! ! ",
"4 6 Z ~ _ V M <.0.O.K T _ Z A A C J L _ 3.8.1.| ! U L F B 5 > 5 G 7 q G B B B V O.0.2.o.3.| R ( R H H V K T H H 7 5 B ! ~ U H U ",
"> 6 S E H Z A 3.0.{ V V T ] V S A N L ~ 2.9.1._ / ) o.G G B q q F q C J K F B Z 6.0.{ S 1.5.A F H B F K ~ ` ~ G q q J ! K H F J ",
"6 6 7 M M S } 1.9.6.E M K ] M V H 7 H H { 3.~ L ~ 2.2.G G J L J F G L V M M S | <.9.6.( V | V q B K K _ _ _ O.L G G G L q q B G ",
"O , 6 6 I O.<.3.3.1.<.E V K T K V M 7 4 A _ C F O.8.~ J L | | / H L ( E M W 1.<.6.3.<.| E Z A M q H 6 K ~ O.8.~ J F G F 6 > 5 G ",
": 6 6 A 1.9.1.0.9.<.<.3.E Z M M B C 6 N B M 6 L | ~ J ! ` 3.4.] ! K K ( K 1.0.1.9.9.1.<.3.Q V M B H M M 7 A 1.| / L L F D 5 > 6 ",
"M M Z | 4.3.<.0.9.3.3.9.1.T V M V C T N 4 4 M _ ` K q _ 3.3.1.~ / I V A | 3.2.<.0.9.6.1.8.<.W V 7 M A N A O.| ` ! ) o.G F B q q ",
"4 7 [ 8.3.<.1.9.3.3.6.<.<.| T N H T _ M 4 4 7 ~ L q N _ 8.2.! L ~ ] ' | 8.3.<.1.9.3.6.9.<.<.<.Q M 6 C 7 V ( ) L ^ 2.2.G G L J J ",
"q I ( | 3.3.1.0.1.3.9.<.8.( 7 6 L _ H V M 6 6 H q 5 F ~ 3.o.J J | ` ! ^ | 3.6.1.9.5.3.9.<.8.( M 7 V M 4 > N C G O.8.~ J L | | / ",
"B H A O.2.( I 8.| 1.0.6.( N 4 q N V M H V V H V M 6 7 ] | L N V A A H A 1.2._ W 8.| 1.0.8.( M 6 N Z 7 6 q 7 6 L | ~ J ! ` 3.4.` ",
"A K 7 O.( 7 M 2.^ ^ 4.0.B 6 C J B 7 C L H K _ K H V N R V 6 7 M M H H 7 O.^ M M 1.^ ^ 8.0.V 6 C H B N : O 4 7 ~ ` K q _ 3.6.1.~ ",
"! ~ 7 Q A 6 7 E H F ! 7.N C ~ / J C J N H ` <._ R C M N > 4 6 V H ! ~ 7 Q A 4 7 E H F / 7.N C ~ ! H 0 : > 4 7 ~ K q B _ 9.2.! L ",
"_ / R V A R L V 6 > N ` V W | ] ! J F F T | ' _ H Z A 7 > 7 H _ ] ` / R V A R L V 4 > N ` V T | ` ! H F C 6 6 H M 6 F ~ 4.o.L H ",
") 6.] _ ! ~ ' K 6 7 A N H Q / L ` / L H Z V A H M A ` H 6 V U ^ L ( 2.] _ E ~ ` I 6 7 H 7 K / / L ` / L K 7 N M M 6 7 ] | L F H ",
"O.O.` ^ O.1.| L H K J A R ^ ~ J ! _ ! J A V 6 M E ~ K N C Z B H ^ O.O.` _ o.1.| L H K L H R ~ ! L ! _ / J A S H H N V R N 6 q F ",
"o.L L ) 2.2.! L ` ~ ! 1./ ~ _ L J ` ~ H H 7 7 C R K N A R K 7 F o.o.L U ^ 2.2.~ J _ ~ U 1.! ~ _ L J ` ~ H K ] _ ! C 7 N 4 > 5 q ",
"J F J 2.3.~ J / ` _ ^ 7.U L L F R ` ~ A 4 4 C N B V A H q 5 F U / J F G 2.3.~ J / ` _ ~ 4.U L J F R ` ! F 6 T _ H C A 7 > 6 6 4 ",
"6 q L | ` ! ! 4.` L J ^ ` ! B 5 L L B 6 6 M N 6 6 A R B 7 6 6 L A 6 q L O.` ! ! 7.o.L J ^ _ ! B 7 L L B 6 7 N M M A ` H 6 7 V 7 ",
"5 D ! ~ R H U 8.o.L L J ( E H q q 5 B T H K C q 7 V V B K Q C J q 6 B ! ~ L H U 8.o.L L J ! / H q q 6 C T H H C V A H N A E _ A ",
"q J ! K F F J 2.^ L L G C A J F 7 5 H ` _ _ ! C 7 V C K ~ ` ~ H q q J R K G F J 2.( L U G K J J F q 5 H ` _ _ R H V V A ~ <.| _ ",
"F G L N q D H _ L H L B V C H G H J R ~ | | _ K A L ( ] _ _ O.L G F G L N q B J _ L H L B N C J G H J R ~ | ] _ R A A ~ E T _ <.",
"F F F 6 > 6 G R V A H M ! ~ ! ! ! ` <.] ! R ` <._ ] ] ~ _ 2.4.~ J F G F 6 > 5 F R C A K 4 B J ! R ! ` <.] ! ~ ` | _ E _ C A ~ _ ",
"L L F B 6 > 5 G 7 q H E 6.o.J / ` 3.0.3.] ~ ! ! J H J _ 2.4.1.| ~ L L F D 6 > 5 F 5 q G B F G L / ] 4.0.3.] ~ ! ! J J H K ~ _ L ",
") o.G G B q q C N B A | 8.o.H Q _ 2.3.4.3.C F G q B J ~ 3.9.| ` ! ) o.G G B q q F q F J J H D J ! ~ 1.3.3.3.C F G q C 7 E ` K V ",
"2.2.G G J L J G J H M <.0.o.H ( ! ~ ~ | 2.V q q 7 7 K A { 2._ L ^ 2.2.J G L J J F J L ~ / J H L ~ ! ^ _ O.2.V q q M > > K H 7 7 ",
"4._ J L ` | L G J I A 6.0.{ Z _ / J J ~ ` L 7 q G 4 6 4 A ~ F F O.3.~ J U ` | / J L ` | ^ ! ! ~ ] ~ J H E ` L q q H 4 4 V 5 X ; ",
"~ J ! ` 6.O.Z M M S <.<.8.3.E V ~ L F G H N C K H M 7 6 6 M 6 K | ^ H R ` 3.4.] R R O.4.| ~ _ | | | L F G H N C H H M 7 6 >   . ",
"K N _ 2.6.<.W M W 1.<.4.3.<.<.E A N 5 6 6 7 7 6 q C N 7 > 4 7 _ ` H N ` 3.3.O.~ R _ | 3.3.^ ~ / ! | B 4 5 6 7 7 6 q A N 4 > > ; ",
"q N _ 0.| S C K 5.9.1.0.4.<.<.3.Q V 4 6 q B C N 6 C 7 6 > 6 7 ~ K N B ` 0.2.~ L ~ <.| O.0.! J G B ! N > 4 7 B Z N 6 C 7 4 4 6 6 ",
"5 F / 6.Q V A ] 6.6.<.9.0.3.3.8.1.T V 7 A L _ E V M 4 > 6 6 6 K 7 5 F ! 2.o.J H ] | ~ ^ 4.U G q > N M 4 6 H L ~ E V M 4 > 4 7 6 ",
"6 7 _ <.L J | 8.3.<.<.0.2.3.9.<.<.<.W M M H H R _ N > 7 C V H N 7 6 7 } | L F J ` ~ J J | ! J q > > > 6 M M H H R ( V > 6 N 6 4 ",
"B V R V N I ! <.6.3.<.9.1.2.9.<.9.E M 4 4 M 6 V R A + 9 H R _ K H V V R V 6 q F J L B 7 J R B q B > 6 V B 4 N 7 V R F + 2 V 7 7 ",
"C M M 6 N H A O.6.( Q 9.O.1.0.6.( M 4 q M N 7 ; < < O , A ` <._ ! C 7 N > > 6 q N q 4 > 7 L N 6 C B M V K N C 6 ; < < O 4 6 4 M ",
"C M 7 M H K 7 O.( M M 1.^ ^ 8.8.V 6 B H B N N , X X 5 N S <._ _ H C A q > 6 6 > 6 4 4 4 4 C M 6 Z R K A H K H V > X X q 6 > > 4 ",
"A E V H R E 7 E A 6 7 E H F ! 8.V C ~ ^ H B B N 4 7 A 7 N ( H H N A ` H 7 7 V M 4 7 M M M 6 6 N K ` <.T V A M B B > 7 A q > : + ",
"R K ` | ` / R V A R L V 6 > N ' V W | ] ! H F B 7 M 6 > 6 C 6 M Q ~ K N A E ~ H M K A N H H V M V L ` _ K M 4 4 6 7 7 6 > : * & ",
"V L ( L ) 2.] _ R ~ ` R 6 7 A N K / / L ` / L K M 7 7 V N 6 7 F R K V Z ~ <.| _ K ~ E A L _ R A A L ~ ` _ K 7 6 N C 6 t i k v a ",
"V B H ^ O.O._ _ o.1.| L H K J A W ~ ~ J ! _ ! J H M > q 7 4 B N N V A ~ T E _ <.~ _ _ R C E ~ R H _ ! R _ ` Q V C H 6 *.b >.k.p.",
"q 5 G o.o.L U ^ 2.3.~ J ` ~ U 1./ ~ _ L J ` ~ H H N 4 6 6 7 V 4 6 C ~ _ Z H E ` <.R R _ Z A _ E M _ _ K F R ( V N C 7  .q.k.B.n.",
"6 F R R J F J 2.3.~ H ! ` _ ^ 7.U L J G R ` _ F > > 7 C V 6 > > 6 Z T H K ~ _ L ' S V R ' V T T 4 F _ A ; o 6 6 > > 8 d.H.A.B.V.",
"6 6 L A 7 7 L O.` / ! 7.` L J ~ ` ! B 6 L L N 6 6 q M M 7 > > 6 6 V V 6 E _ K V ' A V R ' M C A 6 O o , 6 6 4 + @ # p h.Z.S.F.F.",
"T F H q 5 B R ~ L G U 0.o.U L H ^ ! F B q 6 C K K K C w 7 6 > : M E K 4 K K 7 7 R N 6 V R T R C > O X ; 7 A B 9 + & h $.p.F.H.H.",
"` ~ H q q J ! K F F J 2.^ L ! G H K J D 7 5 K ` _ _ U B 6 6 4 : E 6.Y 6 B 8 X ; B , X : K E F 8 > 6 > > 6 C H 6 ; 1 n %.a.D.G.G.",
"_ O.J G F G L N q B J _ H H L B N C G J G J L ~ | | _ J 6 6 7 V } 8.Y 7 M ;   . 4 O   + C M O X > 7 6 > 4 7 7 4 > 3 X.l.D.C.V.B.",
"1.8.^ J F G G 5 > 5 G R C C K 6 B J L ! ! ` | ] ~ ! ` | ( M 7 V | 0.( 6 4 > > ; . ; > ; > > > > 4 7 7 6 4 7 1 , 0 u n j.F.C.B.B.",
"9.1.] ~ L L F B 6 > 5 F 7 q G B F G L ! ] 3.0.4.] ! ! L J B 8 Z 8.0.{ M > 4 M 6 ; ; 4 6 > > 4 6 > 7 C V 6 > 5 2 % * f @.u.A.D.A.",
"9.<._ / ) o.G F B q q D B C L L G F H ! ` 1.3.3.2.A C N M 7 S } <.9.6.E M 7 M 4 > 4 7 7 > 4 7 6 > 7 H H C N 9 e - u h :.j.D.G.F.",
"3.~ L ^ 2.7.G J L L J F G L ~ ! J H L ~ / ! _ 1.6.B 7 q 5 Q 1.<.6.2.<.<.E V 6 4 > 7 M 7 > 7 V 7 4 M V K H C $ - g j j h.V.A.F.G.",
"~ F G O.3._ H L ` | ! H L { | ! R ! _ | ! J H ! ' H M M K O.0.<.0.4.<.<.3.Q V 7 6 C A 7 4 7 C H M 7 7 7 6 > # f j f m f.n.V.A.D.",
"M 6 K ] ^ J ! ` 2.4.` ! ! o.8.| ~ _ | | | L F G H M M A | 6.6.<.0.0.3.3.4.1.T V 7 C L Z 7 M C J K H 3 : > # = z x @.h.b.M.Z.Z.V.",
"4 M _ ` H N ` 3.4.O.~ ! _ O.3.3.) ! ~ ! | C 6 5 6 7 V ] 8.3.<.1.0.1.2.9.<.<.} T 3 1 D G r 1 q A H N $ @ $ u u l z +.b.n.n.C.D.A.",
"4 7 ~ K q B _ 8.2.~ L ~ | ] | 0.! J F N R N > 4 q H R ( | 3.3.1.9.3.2.8.1.9.E M : # 0 G & # < 9 0 : * * y z ;.,.:.t.b.n.M.A.G.G.",
"6 6 H 7 6 F ~ 3.o.J H ] | ~ ^ 4.U G N > B 7 7 7 N Z H C 1.2.~ W 9.O.1.0.6.( N 4 q 9 q D # # & & * # - b #.-.x.C.M.M.M.M.m.A.F.F.",
"V K V M 6 7 ' | R F J _ _ J J ] ! J N 4 > 4 7 7 7 H K 7 O.) N 7 1.( ^ 8.9.B 6 V H B B s # a c h g % u w.b.b.C.A.V.M.M.M.M.V.C.M.",
"L _ K H B V R N 5 q G H L B 7 J ! N q B 4 6 B V H ! E 7 Q S 4 7 E H F ! 7.N C ( ! J r.e.d u.x.e.f g y.c.b.Z.A.A.M.M.M.M.M.M.M.n.",
"` <._ R C M N 4 > 6 7 N q 6 > q L N 6 B N N H _ ] ` ! R V A R I V 6 > N [ Z W | ` ! Y P &.v.V.z.t.i.N.Z.B.Z.F.S.A.C.A.M.M.M.M.M.",
"<._ _ K C Z 7 > 6 6 4 6 4 4 > 4 C M 6 C A C L ~ U ) 3.| _ R ! ] T 6 7 H N H Q / L ` / L / =...s.S.H.H.F.Z.S.G.F.D.A.A.M.M.M.M.M.",
"~ H H M A ` H 6 7 V 7 4 7 M M M 6 6 V K E K B J ^ O.O._ _ O.1.| L H K H A R ~ ~ L ! ~ / K H q.g.N.H.H.F.Z.D.G.G.D.D.A.M.n.M.M.M."
};
