/* XPM */
static char *_4a13e6b54854123db39aa87be715d10yQlkXavu8qj46IBg[] = {
/* columns rows colors chars-per-pixel */
"64 64 237 2 ",
"   c #000F00",
".  c #001600",
"X  c #001C00",
"o  c #0B1A00",
"O  c #141601",
"+  c #131D00",
"@  c #1B1900",
"#  c #241C02",
"$  c #281906",
"%  c #311D05",
"&  c #012400",
"*  c #0A2400",
"=  c #022C00",
"-  c #0A2C01",
";  c #1C2300",
":  c #142B00",
">  c #1D2D00",
",  c #162403",
"<  c #043400",
"1  c #0A3501",
"2  c #053A00",
"3  c #0B3C01",
"4  c #0B350C",
"5  c #0D3A0B",
"6  c #123402",
"7  c #113D00",
"8  c #1B3B00",
"9  c #13340B",
"0  c #133C0A",
"q  c #193607",
"w  c #0C3C11",
"e  c #113F10",
"r  c #232202",
"t  c #2A2605",
"y  c #352908",
"u  c #213A04",
"i  c #283909",
"p  c #312D1B",
"a  c #3A2816",
"s  c #293316",
"d  c #35371A",
"f  c #2E2715",
"g  c #443617",
"h  c #4C3717",
"j  c #493A28",
"k  c #412D22",
"l  c #0E4200",
"z  c #0B4600",
"x  c #134401",
"c  c #194501",
"v  c #154A01",
"b  c #1B4C01",
"n  c #13430A",
"m  c #1A450B",
"M  c #1B4C0B",
"N  c #144E0A",
"B  c #1D5301",
"V  c #1E5800",
"C  c #1E5209",
"Z  c #175205",
"A  c #1B4310",
"S  c #1E4C12",
"D  c #1A4716",
"F  c #0E4410",
"G  c #214E03",
"H  c #214D0C",
"J  c #2B490B",
"K  c #225402",
"L  c #2A5602",
"P  c #245A01",
"I  c #2A5D02",
"U  c #24540B",
"Y  c #2A550C",
"T  c #255A0A",
"R  c #2B5C0B",
"E  c #305E0D",
"W  c #315C04",
"Q  c #254A16",
"!  c #324E14",
"~  c #235512",
"^  c #2A5513",
"/  c #265A12",
"(  c #2C5C13",
")  c #29581B",
"_  c #315C13",
"`  c #355A16",
"'  c #31490D",
"]  c #256100",
"[  c #2D6302",
"{  c #2F6A02",
"}  c #2D630B",
"|  c #2E6A0C",
" . c #27610A",
".. c #316503",
"X. c #346B03",
"o. c #396E05",
"O. c #32650B",
"+. c #346B0B",
"@. c #396D0C",
"#. c #39670E",
"$. c #367205",
"%. c #3B7304",
"&. c #3E7A03",
"*. c #35710C",
"=. c #3C730C",
"-. c #3E7A0B",
";. c #2D6313",
":. c #2F621A",
">. c #2F6915",
",. c #326413",
"<. c #386416",
"1. c #356A14",
"2. c #3A6D13",
"3. c #32651B",
"4. c #3A651C",
"5. c #366C1B",
"6. c #3B6C1B",
"7. c #377012",
"8. c #3C7313",
"9. c #3E7A13",
"0. c #3D741A",
"q. c #3F781A",
"w. c #3A5231",
"e. c #376A23",
"r. c #3A6C20",
"t. c #376521",
"y. c #3E7220",
"u. c #427C07",
"i. c #41750C",
"p. c #437C0C",
"a. c #43790A",
"s. c #417414",
"d. c #437B13",
"f. c #497D13",
"g. c #42751B",
"h. c #447B1B",
"j. c #4A7D1A",
"k. c #416F17",
"l. c #4B412C",
"z. c #53452B",
"x. c #514A37",
"c. c #604F3D",
"v. c #427522",
"b. c #4A7C22",
"n. c #447A25",
"m. c #4B652C",
"M. c #5A5344",
"N. c #695D51",
"B. c #73695A",
"V. c #6B7358",
"C. c #7D7B6C",
"Z. c #55674D",
"A. c #887E6B",
"S. c #3F8105",
"D. c #438205",
"F. c #498906",
"G. c #45830C",
"H. c #4A850D",
"J. c #4B8A0D",
"K. c #508C0D",
"L. c #4D900F",
"P. c #50910F",
"I. c #468212",
"U. c #4B8414",
"Y. c #4D8A13",
"T. c #4C841B",
"R. c #4F8A1A",
"E. c #46841B",
"W. c #538C15",
"Q. c #51841B",
"!. c #528B1C",
"~. c #508517",
"^. c #4F9012",
"/. c #549314",
"(. c #54921B",
"). c #59941C",
"_. c #579818",
"`. c #4C8422",
"'. c #4E832A",
"]. c #4B8622",
"[. c #528623",
"{. c #548C23",
"}. c #538B2A",
"|. c #54872B",
" X c #599223",
".X c #579424",
"XX c #558932",
"oX c #599130",
"OX c #7E9C5E",
"+X c #7D9362",
"@X c #868676",
"#X c #97938C",
"$X c #9A878D",
"%X c #A59994",
"&X c #9AA386",
"*X c #A9A79C",
"=X c #ACB99C",
"-X c #BBBAAC",
";X c #ACABA5",
":X c #C7BCB2",
">X c #C0BBA8",
",X c #B6C1B3",
"<X c #CFC1B6",
"1X c #C9C9C4",
"2X c #DBD3CD",
"3X c #D7D6D4",
"4X c #E2DAD9",
"5X c #E5D7CC",
"6X c #DBE9CE",
"7X c #E8E8DE",
"8X c #DCDEEE",
"9X c #D9DDE4",
"0X c #E2DDE8",
"qX c #DCE3EE",
"wX c #DEE3E7",
"eX c #DDE4F3",
"rX c #DFE9F5",
"tX c #E2E2E6",
"yX c #E7E6EA",
"uX c #F3ECEA",
"iX c #F8ECEC",
"pX c #EEF0EF",
"aX c #F2F4EC",
"sX c #E3E6F5",
"dX c #E5E9F5",
"fX c #EAEBF3",
"gX c #E5E9FB",
"hX c #EDEDFB",
"jX c #EAE4F6",
"kX c #F2EEF8",
"lX c #EEF3FD",
"zX c #EDF9FF",
"xX c #F4F4FC",
"cX c #FDF7FD",
"vX c #F5FAFF",
"bX c #FCFBFE",
"nX c #F4F4F5",
/* pixels */
"C < 2 3.r.V v V { | V z T Z l V K v x c ~ H 7 K g.0.O.I X.W.j.+.P =.@.] U...X.k.) ~ 6.#.P b B +.1.z ;.Z 2 2 1.P Z ;.XX2 v 8.] I ",
"2 l C :.C z V +.9.9.*.V >.;.P T s.R G x x 3 x ,.1.B v P f.H.+.P O.=.7.@.~...I Y U ` v.R B 7.h.@.} P B Z 3.;.v 2 < v 1.B | h.X.X.",
"2 m l x v V 1.] V { 9.+.9.7. .B } 1.,.G 3 2 3 U B 3 3 I T.i.[ ..U.a.I K o.i.R x 2 G b B [ X.I @.T.i.X.o.X.1.R 2 x v b K } [ O.2.",
"3 n 2 2 C 3.1.Z Z ] $.-.X.] X.P v K v v ( _ K Y 3 1 b } O.I I I {.d.I K K O.1.K x b x v b K +.p.p.=.$.9.d.d.} K P V K  .#.O.I O.",
"5 = = < ~ e.V v +.7.] q.V b X.I v b v I 2.6.R K x x K #.G G G K j.X.W O.K K K U v +.R x 3 G k.g.] P o.d.!.@.K #.#.O.f.W X.s.I L ",
"= = w 4 5 z v 1.`.q.b 0.B x I T x K 7.8.+.s.j.W G b G T x 7 G K k.L K R x b v B O.].+.l b R <.W G K Q.~...L o.i.@.X.[...I K b O.",
"1 = = = < < l g.oX2.3 / n 1 M ( 3.v.g.o.X.~.!.X.K K G G 6 & 1 G _ G K U 1 N C P I.!.+.2 3 ^ ^ < 3 L d.i.[ ..~.i.I K i.i.W c 7 ^ ",
"1 < & = 2 = v q.}.] < n 1 & & S M T K o.W.K.f.a.....I G Q 1 - 3 J 1 x U n N v v &. Xs.b U ^ 1 7 b O.O...I I !.i.W L K 2.` G c 7 ",
"= D 0 = = < V T. Xd.3 2 & . X D n 3 K +.Y.).a.o.X.o.f.K H c 6 c G c b Y ) x x V L._.-.v _ U 7 8 G <.G K G W b.@.W ..G K Y Y G 6 ",
"A 1 = n 2 K =.p.!.R.} x = & = = = 2 U B %.U.s.] o.f.g.K G R E G b G L x v l P $.&.P.!.| K b G m K Y c c b G <.L L I c c b G K G ",
"& < 1 x P s.I.Y.J.D.-.+.x 1 4 - 2 n 2 3 R [ v K f.Q.@.K I @.f...P O.s.O.l T h.I._.F.&.-.{ K b K L b 1 - 1 H ` M G Y 7 x L ....X.",
"& 9 7 B f. XD.(./.D.D.T.O.x 3 e M x 3 x x x 2 T s.@.G ..i.~.W.%.[ P P [ V ]..XI.W.K.F.u.T.{ B b b G M 1 - 1 b 2 7 K x b L I ..%.",
"= 7 G s.~.W.u.(./.L.F.J.p.| M 3 N x :.x < < v 3.6.B v @.T.W.a.$.{ ] V V 9.R.U.u.(./.F.D.).I.{ B L G b x 3 x G c b T K K b b { o.",
"- m k.!.U.D.u.).G.J.J.D.R.g.U l T :.e.3 2 2 2 e.^ x v 8.!.U.{ I =.d.7.9.R.Y.u.H.W.J.J./.u.d.q.2.k.I K I R K B K E 2.} ] V I +.O.",
"6 E #.f.!.Y.S.(.J.G.^.J.I. .x 3 T 6.B v n 3 < T l 2 x 1.].d.P K 0.1. .+.-./.J.u.W.H.J./.G.].5.z x b R g.j.I P I @.d.X.[ { =.=.| ",
"c G K s.].{ | '.S.-..XR.7.v 2 l v x v C M x P v l 2 v 1.n.R l b C Z V V p.G.$.] {.p.G.(.{.| z 2 x b K @.`.8.X.[ =.(.%.o.X.d.g.g.",
"K K l y.1.l l '.1.+.R.}.z 3 v K v l B T V  .@.P V v v e.x < x 2 l M T l q.@.l l E.o.7.'.}.Z < B K x P 7.n.1.] *.d.U./.o...X.O.v.",
"O.O.3 ;.C < l :.C V { |.N C +.X.B K b v K =.9.9.[ b 2 2 < < 7 b C :.>.2 } V 2 x } P v :.XXl B +.} I @.g.} } g.8.s.a.W.{ I G n ` ",
"+.2.I B P [ T Z 2 < v 2.b R d.%...K B b ] g.=.+.V b / 3 = l K 2.0.@.=.{ b P L P v 2 < B 3.v O.8.s...P P b B =.9.@.O.!.[ K x = 0 ",
"@.E.8.o.X.X.0.K 3 3 B v B } ..] s.} R P B B b V v Z e.~ 3 Z T O.] %.d.=.=.[ o.i./ 2 3 Z x P O.[ X.+.[ { V l V [ P B q.[ K x 1 = ",
"f.p.o.%.%.f.v.,.L I I V [ 7.O.P O.#.} K C x < v 3.3.C x b T x P ..p.f.o.i.i.a.f.R Y P P K I o.o.K ..i.X.I b v U N 3 U } b l x 2 ",
"s.I ..X.p. XO.K o.X.[ j.X.X.1.O.P 2.1.T M x l v / U b T T K 3 b f.p.I ..X.!.j.X.K 2.O.O.j.W #.0.I I @.O.K K x n 2 = 3 / x < b c ",
"K b P Q.Q...I ..a.X...[...I K b } 8.5.~ < = m N b v M U 3 3 v ,.} L b b [.j.o.L X.i.@.X.!...W K G ( g.1.b 1 < 1 < < 2 M l 3 b I ",
"7 3 W k.s.X.I ~.u.] I +.o.O.x 3 I R 3 2 7 2 x 2 2 K :.v l 3 3 T K 1 x _ k.i...X.~.i.W K @.o...c 1 ` Y x 3 3 3 7 3 n l < l v P 0.",
"1 m E #.R G ..W.i.[ P K O.O.K 7 3 3 v | B P b v 2 c M v T R B K 7 < M _ ,.} K W }.i.W I L O...K 7 7 3 x R P K b x l C U v l v T ",
"n G ,.R Y b I f.O.W ,.b K B K b l 3 K o.=.=.] v x x b R 1.8.O.P x c G _ Y Y b K b.o.I ..G K K K M 7 7 K i.=.@. .V b P 5. .K V R ",
"G G _ 3 7 c L 2.R U _ x b B K P B V ] =.%.%.o.I K R ,.1.+.s.p.P c K G R x 7 c Y r.R L E c x K I L b K I a.%.%.=.*.X.B O.+.I G r.",
"G K G 1 < 1 b O.b c U b } @.] [ O.8.=.i.X.o.%.s.O.0.0.8.@.E.R.X.P K G K 3 = 1 U Y b b K 7 x L I W X.%.u.&.o.{ =.s.7.B P 0.;.x r.",
"I I b b 6 = 2 G 3 x K +.`.d.] { =.!.!.(.%.{ ..6.I K P o.I.!.T.d...I I G b 3 = 1 G 7 x K c b K L ..a.W.W.H.%.} 1... .K v R R 1 b ",
"i.s.K G x 3 x b x c B q.{.=.V { $.I.!.!.j.V b b 3 x V ..R.{.q.=...o.f.K b b 3 7 G x c R K K G K ..o.H.W.W.U.P v K K } c b U 1 = ",
"j.j.L K K I I b K K v v.{.%.V O.X.X.$.=.b.b 7 3 x x K I =.T.X.] X.f.b.K K I R L G K L @.X.I K R X.{ ..o.d.j.V 2 x B T ( U H 1 X ",
"|.@.K I a.i.I K K ;.V [. X&.V +.[ ] V 1.n.U l x H < 2 2 b ,.V B f.[.@.K R s.s...K O.2.s.X.....2.8.X.P P [ v.K x l C 2 M H 1 & 4 ",
"6.B ..%.!.d.v l z ] &.S._.E.{ V X.] v S ) n M U C 3 l 3 2 3 2 I s.@.B [ =.].!.=.[ { =.!.d.+.X.p.S.9.] v K H x M ~ U l l 2 & 1 4 ",
"b v $.W.G.d. .x  .q.G.F.L.S.&.{ P b 2 < < 2 l 2 l C F 4 < 1 l 5.q.K v *.{.!.-.$.{ X.G.U.[.X.X.X.[ q.Z 2 3 3 1 3 3 3 S x < < = 9 ",
"x b $.{.%.P B V E.{.I.^.L.E.I.E.{ v 2 2 3 m C x 2 C 3 4 = < 2 1.K x B @.{.I.X.] o.=.G.d.}.O.I b x 3.l < < x v C v 3 N 7 - < - 5 ",
"2 v o.!.X.z V -.Y.Y.S.(.^.Y.I.R.d.[ v v M / ,.1.x x < < < l 2 P l 2 x 1.[.d.I B i.d.+.O.|. .V x - 0 7 < 2 C T 6.( M 3 = < < = 5 ",
"3 x 0.g.P P 8.R.J.F.-.!.Y.Y.J.G.E.q.P z x b Y ,.4.M < 2 C M Z v l 3 3 v.h.I B V 8.@.K U v.,.K x 6 & 1 1 7 l M U <.<.G - 1 1 < w ",
"N x ;.v v ;.| I.Y.Y.I..XE.J._.D.].>.v < 3 x 7 x ` S = 3 C T 8.V C M l :.b < 3 B T T x l U ,.M 3 m - 1 n N < c 3 G Y Q & < Q F F ",
"N x x = m ~ v h.U.%.{ }.-.-.).Y.5.l 2 2 x 7 1 = = - & 1 C 5.`.7.;.C l x = < 3 2 x 3 2 < 3 T x < M m z Z K x K 6 * * * & 6 ) ~ N ",
"b l l x C ~ l 0.@.z 2 n.1.*.R.{.Z < N U c c x - X & 1 3 U n.>.2.K b b l = 2 7 2 2 = 1 = 2 M l l M / T B K R G c - X X 6 0 n U x ",
"K O.b b 1.>.3 } B 2 l 1.C B | '.z Z 3.,.K c M 8 - m A n l 5.V V x C 1.K 2 x x x < 3 5 x x < 2 v ] 7.E.P v B 7 N m = 9 ! 9 - 8 * ",
"} B +.b.+.O. .b P O.V v 2 < l 0.B ;.v.0.O.K b m 0 3 = 1 2 b l l ;.>.I v v e.,.K l ^ / l T K v z z ] 7.o.P v < < 2 n e - * : + + ",
"B O.7.] o.T.j.O.X.X.$.I 2 l B x Z [ X.] @.+.E Y 7 3 7 m 2 1 2 M :.P v V O.n.d.=.P >.;.B T y.R B V ] { 7.*.P l 2 N F 4 4 s s f # ",
"x v K [ g.d.o.=.%.f.p...K T K B [ X.X.V ..O.O.K H 7 1 7 3 3 m M v v v +.}  .$.d.o.2.7.+.v  .2.} P +.O.| @.7.1.N l ) 4 w.=X@Xa k ",
"c 2 K v.q.I P %.U.W.X.K 8.#...j...o.%.P I +.2.T G l < 2 0 3 0 < 2 U 1.5.V V X.%.7.+.[ +.V B 8. .x 4.6.Y C 3.3.x x A 6 w.*X2X%X$X",
"< M _ ,.K b I f.~.o.P ..8.#.@.Q.W I T B } 0.1.v 2 2 2 S A - < < < v / K P O.7.] q.P B  .0.v T R = Y t.^ = & 1 3 = - > =XaXaX0XjX",
"3 3 Y U 3 7 O.0.@...#.b.s.I P o.s.W b 7 T / b 2 3 l 3 x 3 2 = 1 2 v N 3 | 7. .v 7.V v T y.3 v T 1 & X 1 9 - - - o , s -XaXpXlXvX",
"_ G K 3 1 x ,.O...K E XXs.I P I #.<.K 3 x 3 x  .V T b n 3 1 = = v >./ < T U 3 3 ( x 3 v :.>.;.M 1 & X & 4 Q Q : o + d M.*XnXvXvX",
"=.2.G 3 c G E Y G G L j.#.E I K G T Y c 3 2 K q.*.8. .v 2 1 1 = O.].T 2 m 0 X X e 6 X & ^ 4.Q 4 & 4 = = 5 D S 7 o , j N.;XkXbXzX",
"%.i.R G G T Y 8 8 b L s.I W W c x G L K K K ] X.d.$.+. .l < 5 x =.!.,.l 3 & . X 9 X   * J 7 & X = 4 < = < 2 l 1 6 r l.<XiXuXqXrX",
"K.H.X.I G b G 7 - 1 b _ c b K 7 c U R [ X.=.d.=.{ { q.0.;.N 1 v b.{.1.l < = & = X X & = = = = = < 3 F 2 < 1 6 : t t l.:XuXpXwXqX",
"K.H.a...I L b b 1 < 7 G 7 x G c H K R ..%.W.{.R.=.{ X.I P v 2 B ].}.7.x < < n 1 & - 3 < & = 4 2 < 2 N N 2 1 : ; r @ f M.*XpXnXfX",
"~.f.%.[ a.s.G G c x 7 b c x R K G b K ..%.H.W.R.T.K v v l z Z 8.S.].E.| z 3 5 < = < 4 2 < 2 2 2 < 2 Z U b u r # $ a g B.>XaXxXvX",
"[.o.] { Q.j.K K I R G G K R <.O.L K I ..X.{ %.i.`.z l l z P I.H.L.L.E.S.} v 2 < < w F 3 < 3 x l 2 z M G J i % % a j k -XyXaXhXbX",
"3.b P s.[.=.B P i.a.O.T P =.d.@.W X.=.i.X.V P +.v.B l v B j.(.&.^.L.S.S.I.| b 2 < m U 3 = 3 M K l x 3 6 u @ # y g g j -X4XjXhXhX",
"5 3 V q.1.P ..a.~.H.0...{ i.{.=.X.o.s.h.s.P b B b v l C q.!.Y.D.L._.L.R.(.d. .b x G Y H 9 9 J ^ U Q 6 , ; @ t h h j :X4XsXhXgXgX",
"< l 6.7.P l =.!.~.u.o.{ X.p.W.U.%.O.O...n.c < 2 1 3 b 6.}.R.p.G._.G.F.J.G.f.j.L < 7 G J > , > ' ! u + O # y y g h x.4XyX0XgXxXhX",
"4 2 1.V l v +.{.U.X.I X.=.=.G.!.R K K x ( c 2 = x C T | g.T.].I.(.J./.).i.].k.3 & - > J + o @ u r , r # $ j N.A.A.@X3X0X0XhXvXvX",
"2 l P l 2 v 7.[.g.P K 8.h.X.o.T.} K x 2 x 7 3 2 x C V V ].].| ] E.F.a.!.}.1.7 7 8 > u i + O ; @ , O $ j M.B.1XfXsX8XyXtXwXhXlXlX",
"z V v z l v 0.2.T b P 0.8.K P q.,.G 7 1 = < 7 7 x V V l 0.1.l z ].o.X.'.oXb 1 c Y 8 u J + p p p p # % A.5X4XxXhXeXeX9XtXtXsXgXrX",
"] *.V P v 3 ;.M 2 7 b R U x v K :.x 7 n < 1 x K K [ X.v P V 2 l O.V V 3.'.l K 1.W Y @X@X! @X1X#Xp f %X5X4XyXhXdXgX8XdXdXsXqX8X9X",
"-.d.6. .B l l < = 1 3 7 l < < 2 ( x 3 m m x Y 2.s.+.@.V Z V }  .v l = l 6.b } g.i...#.Y m.6XwX,X#X*X7XyXyXvXhXxXhX8XdXeX9XeXrXqX",
"u.*.5.U b U 3 = 3 7 1 < 1 2 = < M 2 1 b U M U 1.I +.E.T.$.{ *.7.P 2 2 Z v Z | ] { #.E _ <.m.Z.*XiXcXbXxXfXdXxXxXhXhXhXeXeXeXsXqX",
"o.P C l K 5.H 7 3 m 7 < 3 n w F 2 3 v Y <.U G K O.h.a.o.%.9.d.g.} V ;.V C ;.>.X.P ..2.,.W Y +X,XuXcXbXnXgXlXcXcXkXcXgXqX8XeXrXrX"
};
