/* XPM */
static char *_57f83b183dc4f11d51a043929b87320tIoyPHc4YvyDpV1T[] = {
/* columns rows colors chars-per-pixel */
"64 64 229 2 ",
"   c #021300",
".  c #001D00",
"X  c #0D1D01",
"o  c #0F1604",
"O  c #141D00",
"+  c #191701",
"@  c #231B04",
"#  c #291B05",
"$  c #002400",
"%  c #0A2500",
"&  c #012C00",
"*  c #0A2C02",
"=  c #152400",
"-  c #1C2102",
";  c #132B01",
":  c #1B2A06",
">  c #033300",
",  c #0A3501",
"<  c #053A00",
"1  c #0B3C01",
"2  c #0D350A",
"3  c #0C3B0A",
"4  c #07370E",
"5  c #143303",
"6  c #113D01",
"7  c #1B3B01",
"8  c #13350A",
"9  c #133D0C",
"0  c #1B3A07",
"q  c #0E3612",
"w  c #113E11",
"e  c #262509",
"r  c #362608",
"t  c #25380B",
"y  c #2D2C1B",
"u  c #372916",
"i  c #2A3518",
"p  c #3A341D",
"a  c #463417",
"s  c #4B3A27",
"d  c #402E24",
"f  c #0E4200",
"g  c #0D4606",
"h  c #124401",
"j  c #1A4402",
"k  c #154A01",
"l  c #1B4C02",
"z  c #14440A",
"x  c #1B460C",
"c  c #17490C",
"v  c #1B4C0A",
"b  c #175000",
"n  c #1D5301",
"m  c #1D5800",
"M  c #1D520B",
"N  c #0F4512",
"B  c #1A4412",
"V  c #1C4C13",
"C  c #174616",
"Z  c #1E5311",
"A  c #214E04",
"S  c #224C0C",
"D  c #2C4B0E",
"F  c #254509",
"G  c #225402",
"H  c #245A02",
"J  c #2A5D02",
"K  c #23540B",
"L  c #2A560C",
"P  c #255A0C",
"I  c #2A5D0B",
"U  c #2C5501",
"Y  c #315F0B",
"T  c #224D12",
"R  c #254917",
"E  c #314E17",
"W  c #235413",
"Q  c #2A5413",
"!  c #265A12",
"~  c #2B5D13",
"^  c #24541A",
"/  c #2D5C1A",
"(  c #335D14",
")  c #365A12",
"_  c #246002",
"`  c #2C6302",
"'  c #2F6802",
"]  c #2D630C",
"[  c #2F6A0B",
"{  c #27620A",
"}  c #316503",
"|  c #336B04",
" . c #386E04",
".. c #32660B",
"X. c #346B0B",
"o. c #396E0C",
"O. c #3B7304",
"+. c #3D7A04",
"@. c #37710C",
"#. c #3C730C",
"$. c #3F7A0C",
"%. c #367203",
"&. c #2D6213",
"*. c #2E631B",
"=. c #2F6918",
"-. c #326414",
";. c #356B13",
":. c #396D13",
">. c #32641C",
",. c #356A1B",
"<. c #3B6D1C",
"1. c #396417",
"2. c #357012",
"3. c #3C7314",
"4. c #3E7915",
"5. c #3D731B",
"6. c #3E7A19",
"7. c #2F5429",
"8. c #2E6021",
"9. c #346623",
"0. c #366B24",
"q. c #3A6C21",
"w. c #396A28",
"e. c #3E7322",
"r. c #41770E",
"t. c #427D0B",
"y. c #417707",
"u. c #417414",
"i. c #427B14",
"p. c #41751B",
"a. c #447B1B",
"s. c #497C1B",
"d. c #487F17",
"f. c #4B422D",
"g. c #424027",
"h. c #534834",
"j. c #417623",
"k. c #447C23",
"l. c #4A7C22",
"z. c #44792C",
"x. c #496B2C",
"c. c #5F4F42",
"v. c #595341",
"b. c #675D53",
"n. c #74695D",
"m. c #6B7257",
"M. c #7D7B6E",
"N. c #55684A",
"B. c #877E6E",
"V. c #438205",
"C. c #45820D",
"Z. c #4A850C",
"A. c #4B890C",
"S. c #468314",
"D. c #4A8414",
"F. c #4D8B13",
"G. c #458119",
"H. c #4C841C",
"J. c #4E8B1C",
"K. c #528D15",
"L. c #50851E",
"P. c #538B1C",
"I. c #539215",
"U. c #55931B",
"Y. c #57971B",
"T. c #4C8423",
"R. c #4E8924",
"E. c #4C832A",
"W. c #498325",
"Q. c #518523",
"!. c #528B23",
"~. c #50862B",
"^. c #538C2A",
"/. c #588F2A",
"(. c #579323",
"). c #5A9324",
"_. c #589328",
"`. c #4E8435",
"'. c #558936",
"]. c #589132",
"[. c #7C9B5F",
"{. c #7C9460",
"}. c #868579",
"|. c #959488",
" X c #9A868F",
".X c #A59A93",
"XX c #99A484",
"oX c #A8A89A",
"OX c #ADBC9D",
"+X c #A9B3A3",
"@X c #BABBAA",
"#X c #AFA5A4",
"$X c #C7BDB0",
"%X c #C0BAAA",
"&X c #B6C1B3",
"*X c #C9C7BB",
"=X c #D7E8BC",
"-X c #DAD4CB",
";X c #DBD9D6",
":X c #D0C8C6",
">X c #E2DAD8",
",X c #E5D6CF",
"<X c #DEEAD4",
"1X c #E8E8DE",
"2X c #DCDEEB",
"3X c #D9DDE8",
"4X c #DCDFF1",
"5X c #E2DEE6",
"6X c #DDE3EC",
"7X c #DEE3E6",
"8X c #DDE4F4",
"9X c #E3E3E9",
"0X c #E8E8E9",
"qX c #F4EDE6",
"wX c #EDF1EB",
"eX c #F1F5E8",
"rX c #E3E6F4",
"tX c #E5EAF4",
"yX c #ECECF4",
"uX c #EEEDFB",
"iX c #E7E6F8",
"pX c #F3EEF7",
"aX c #EEF3FE",
"sX c #EDF4F9",
"dX c #F3F4F5",
"fX c #F4F4FD",
"gX c #F5FBFE",
"hX c #FBFCFE",
"jX c #FCF6FB",
/* pixels */
"H ` 3.k f '.*.b P ,.< < Z =.f ;.;.b l H ;.<.S / <.X.} D.` X.;.H o.G.Q.| J } 5.p.v 1 M W j f j G K f M P g m [ [ m b m 0.8.g < M ",
"'  .6.] l ,.k > < k &.,.k b H [ X.a.3.k J j./ S L J } D.o.:.@.| H o.H.d.H k G ,.>.h 1 h j M I e.P G &.*.m 2.6.6.[ m g M *.M f < ",
":.] ` ] G k k h 1 P :.] X.X.4.D.o.J X.' n k A 1 h ] r.o.G J y.H.} } o.l.J f 1 H ! , < 1 M *.;...b H @.4.@.6.' m _ =.Z b f g c < ",
"] J ..;.J H G L H { a.a.4. .O.4.i.| G b l h l f G -.X.G H ` u.).` H J o.` j 1 , W G / / h k n k H X.` | #.@._ k b =.=.Z < > z < ",
"H J u.| } s...-.:.G o.L.d.@.H ` p.p.n , f I [ k K G M n X.` } l.A U A G -.G h 6 G I <.,.H k j k J X.l G u.` 2.;.b M w.^ < & & 1 ",
"I l H J } Q.} o.u.o.H } T.Q.G n I 1.I l f :.W.[ n l l f I G H p.G l 6 h I A l G } s.p...3.5.H k I J h G 5.k 5.W.;.g f < 2 3 & & ",
"/ 6 h J u.u.G J o.L.} } o.a.U 1 & Q Q 1 < ;.J.S.H M z < K L A Q F , & , l l A U } P.H.| :.p.e.>./ l , z / 1 2.].e.g > > & & & 2 ",
"6 j A -.1.G U } u.!.J U } Y ..j 5 , W L b 4._.+.k k c z S h , D 6 & , F l L } } y.Z.K.Q.X.G ! c R $ $ * z > ` ^.6.b > 4 & & & < ",
", A L A G A Y J u.l.J A A A 1.A 6 7 W &.j 4.Y.F.m k z ^ I j h A 6 6 j l A l.o.} O.y.).H.3.K f z C $   & < 1 4._.J.b > > > 4 V & ",
"A G A l j 6 I H A 1.A j j j L A S l l G | J.I.+.%.H f c h L A j A Y J A A a.s. .J y.H.3.b M < & $ & $ & h ] H.J.S.#.b 1 z > > 9 ",
"| } J I h 6 L j A 8.R , * , A A G j G | O.+.Z.Y.S.6.H h ;.3.} H J s.o.J H :.Q.a.n l ..U 1 1 6 < & 2 1 h X.#.C.Z.F.S.$.H h 1 * & ",
"O.} J H l h K f , j 6 $ , A A l n l ` H.C.F.A.F.C.^.W.n ' H H ` y.P.D.y.} n :.5.I > h h 1 1 z c 3 3 h } D.Z.V.Y.U.C.(.s.G 1 2 $ ",
" .` n k G K P j j l h , h l G H n ' G.U.Z.Z.I.U.$.S.J.4.m b ' '  .y.P.H.3.k m :.9.k > > g 8.f c 6 x ] t.A.A.F.I.U.t.P.P.u.G , * ",
"} o.H G ` { :.&.G A G I J G J <.2.6.a.$.I.A.F.U.C.C.F.J.4.2.4.@.` } T.!.3.k f ! 9.< < > f 9.=.P 1 ! p.F.C.A.F.C.(.t.C.D.Q.:.x & ",
"] 3.#.} ` ' i.:.J H ` a.p.I l h f ,.R.C.I.Z.Z.D.$.F.F.$.2.{ =.5.H H 6.`.;.f < f ! > g z h n <.! f f ] S.Z.I.S.S.P.i.F.P.s...~ 6 ",
"j.p.4.%.| +.!.#.` } p.T.:.l l h < g [ R.(.Z.i.(._ O.C.S.b M m M k f ! z.,.h 1 f f ! h v M k k k f 1 f :.R.(.S.i.R.` } s.p.G G h ",
"j.( ..} O.I.D.i. .` ;.k.5.n k G b < b '.E.2.:.W.f f 2.6.f Z M f 1 z > h w.k k m H :.] M P l f k H k 1 f ^.^.[ ;.z.f f ;.z.f M b ",
"8.h l J ` K.r.u.3.5.] &.6.o.H ] ;.b f `.=.b m &.f 1 m ;.f ;.=.M k 1 & < < < n ] 4.6.:.m k n G n [ X.b k ~.] b L =.f > H 8.1 ;.| ",
"z & h G ` !.X.;.3.3.G b H H ` i.3.-.k ,.b > < k H J H k _ @.:.4.:.M 1 & 3 ^ b m [ 5.a.J l n G ] #.i.I k :.k < < l H ` m b ] :.[ ",
"& , h G ` p.n K ] b h m ` ' | } ` ] G k l f 1 K 3.@.' o.#.S. ._ X.H M 1 W 0.M f b b n l H I J 4.` ` [ n k n f , K 5.| | X.5.G. .",
"< h f k &.M 1 c K k n J } #.| H ;...` G H H K ] i.i.r.#.O.r.t.} H h P l h M ,.*.k > h M M &.o.` H ' o.` n J H H I p.u.y.O.O.i.i.",
"j h < f ~ 1 & < h h M G ..o.U J :.:.` l.] ] ,.H | H.L.} ` ` r.i.l 1 K ! P k P ! k g z v ! :.;.H ] ;.X.} S.` X.o.H X._.u.| ` J 3.",
"~ l 1 f v < > > < < 1 l ,.j.( S G J ` !.} X.u.| J | H.Q.j l H I ,.f 1 1 M M k k c c & > Z ,.5.] l G H } !.}  .r.} H } Q.H.J n H ",
"e.P k f > 1 z 1 1 1 1 1 h Q / , j } o.o.U ` O.L.} } :.p.-.h , K P < f f j *.Z < < f 1 f < f ] P g h ..X.o.H J y.L.` X.<.u.J 1 6 ",
"H k f k K M f k l K H I h 6 , h G ....G J J y.^.Y G Y -.*.v > 1 H b I K k v k 1 k l H n ] k 1 f h H ....H L J r.P.} G I 1.( j , ",
"P G G I <.P l b &.;.3.3.n 6 6 l G H G A ] J } Q.A l L L ( A h h H ' 2.,.! l f f k J @.@.:.H 1 f j n n n l -.J X.d.U l K L -.S z ",
",.n J ;.-.b ] :.o.#.O.O.J G l H H G h h J U I <.L h 1 h L l H j H i.4.:.;.;.P n J O.O.+.| ` b b H H n k 6 / H J :.L j 1 , ( S v ",
"w.f &.5.H b 3.6.3.} | +.y.r.} ` J H j 6 G l l ! W , > 6 G l H H X.J.G.o.3.5.5.X.3.#.| ' $.#.4.X.` ` o.] l K k l -.j 1 * , A G l ",
"T , ~ ] h H ` ' X.` +.Z.P.P.#.} G H l j G h 6 S , > , l n ` J } 4.T.!.G.X.H H I :.] ` #.P.(.R.#.` _ i.W.1.K f 1 K , & , j j J J ",
"$ 1 W j j ~ n n b H D.K.P.D.O.` G A A H I h h l 1 1 j l G a.| } @.6./.H.} n h f l l G T.!.!.G.@.' m u.^.p.b k k h h 6 6 G G u.o.",
"$ , v K ! ! M k 1 n a.i.| ' ` | J G H } o.J A G I I I G A l.s.| ` ;.T.:.H K h 1 1 h b l.4.| %.' %.b #./.a.k G K l H I H G U l.l.",
"2 $ , K v < l f f M j.] H H ' 4.:...} } u.3.} n } 3.u.I H :.Q.a.n b ;.l 1 1 > Z z 1 K j.:.b _ ` X.M O._.!.b ] K G I 4.r.J G :.'.",
"2 > & < < f Z Z V h S K b _ 4.4.G.| } i.Q.$.` ' u.T.R.3.X.n 2.5.~ > 1 > 1 1 f M W c z Z Z v { ' n %.S.U.V.%._ g f k a.J. .} G <.",
"8 & & > g c f 1 1 1 , 1 1 b e.` [ |  .H.H.i.%.` %.4.~.~.:.k n 5.q.f < & 3 3 M f < f 2 > > < b m X.%.S.F.A.C.6.{ f &.i.C.D.o.k M ",
"2 & > > f z < k v k h > > f 9.h b H X./.i.d.O.| ` ' G.~.;.k f K ,.1 < & > 1 v 1 k M c f < < k [ W.S.S.F.I.F.U.6.m n H $.(.| l h ",
"3 & * > > 1 M / ,.! K 1 < 1 8 , h n { E.X.X.4.4.b H a.E.;.k 1 f m < f < > & f k >.-.W M h k ` i.J.S.J.U.U.$.F.F.d.b k | Q.o.k 1 ",
"4 > > , > F 1.( K n f g 1 > $ 2 h M >.j.H n 3.3.H b { j.e.f 1 f k b l V 1 & x ,.( K l h f M 6.6.C.F.A.J.J.C.A.F.J.2.J K 5.5.f 1 ",
"N N V > $ D Q S , h > z g > * z 1 v *.K f f P K G f > l >.f c n m 6.Z Z 3 & T / h 6 h 1 < k ;.W.V.I.A.S.R.G.F.F.S.] &.l k &.h c ",
"M W ^ 8 . * % & 5 A h G M g c N < z ! 1 & 1 1 f < 1 > > f f M &.2.W.0.Z < $ > * > , h f f < g 2.J.Y.C.4.^.[ [ S.G.f Z c > h f k ",
"h Q z 8 8 . . & j G ] M b { ! M 1 f v > > < > < > 1 < > f M k M 2.[ z.W 2 2 $ $ * h l f Z c < b R.J.[ =.W.g g 2.e.f Z v f f f l ",
"$ 0 % 8 7.8 & B c f l k _ e.2.m k < < f f f 1 > h g f 1 M ,.M k b m 0.f 9 C B * h x j K >.>.b f E.[ b M =.f < n [ f &.,.l k :.n ",
"O O ; & & 9 w > < > k P 2.4._ k k f K Z f ! ! f M >.,.l k P ;.{ f f c > < & , 6 j l l &.e.e.&.b 5.f > 1 k H ..H b P ..X.k.X.b ` ",
"@ y y i q 4 N N < g m :.2.] H H b { e.{ b [ [ H 2.6.e.] n k m &.l 1 < < C , , 1 K Y ;.:.` ] ` n k n 1 < H @.} | X.a.G.o.J 3.;.b ",
"d u }.+X7.q ^ g M >.q.:.;.[ ;.G &.,.&.f X.2.@.X.4.@.' [ :.k k z v C 1 1 1 > h M G I X.} H |  .` b K ! H } i.s.y.#.o.a.a.` H j h ",
" X.X-XoX7.2 C z h 9.8.M L q.q.h ~ e.m m X.` [ #.@.o.b M ,.,.M < > 3 , 9 1 & f n L :.X.J H @.#.` H.' 1.3.G } P.D.o.H J p.j.G 1 h ",
"iX7XeXeX@X: % $ 6 2 $ & R w.R & / { z e.] k m 4._ 2.X.H m ! b < > > > x c f < < k ,.5.] l H J J H.o.:.3.} H  .P.s.J l G >./ z > ",
"hXdXwXeX@Xt = X % * , 2 , $ $ 3 ! k 1 e.{ k m 5.k { q.=.f z z 1 > & * 1 h f f f < l ! P h l Y p.o.H U p.~.X.} o.u.Y 6 , K L 1 , ",
"gXgXsXoXv.p O X ; C R q $ . $ > c / >./ k 1 h / 1 1 Z ! > ! =.f & & < , h l K M ~ f 1 k , K 1.1.U J J u.'.I G } 1.-.h < 1 L A -.",
"aXgXdX#Xb.s = % , Z C 4 & $ q & 2 R >.Q $ . 5 9 $ $ 3 z < M R.[ & 2 < < k { 5.2.e.n 1 , j K L A G U J :.s.A A A L ( A h 6 A :.r.",
"8X7XyXqX*Xf.: ; , 3 3 > > 4 4 $ . $ j x $   . * .   & 8 g [ R.2.z 3 > f P ;.:.5.X.` G n K H l h j I Y U p.U j 7 6 L L l l I u. .",
"9X9XwXqX$Xs y e ; 2 > & < z 3 > & $ & > * $ $ $ $ $ & > g =.^.W.k 1 c ] 5.6.' ' 3.i.r.} J Y A j 6 G l j ( l , * 6 G l A U  .Z.A.",
"tXdXeXoXc.r + # + ; 5 < z c 1 > 4 < > & , 4 & $ 4 q > > g 2._.W.b < k H J [ [ $.T.(.L.O.} J L A j G 6 6 H , > , j j H J } y.d.K.",
"hXdXeX@Xn.d u # @ e t x Z Z f > > 1 > > 2 < & * 2 1 1 k ] W.R.S.4.b f f k k H T.H.K.D.O.} G j A I H h j l 1 h j A A p.#.} O.t.L.",
"hXdXeX1X$Xp s r # @ t F V v f < 1 h 3 > 1 z 1 > > < k &.6.G.F.F.S.i.` f f f f W.i.O.' } | J H G I 1.I G l G Y J H H l.T.} ` X.Q.",
"uXdXtX;X@Xs u a r # - t 5 , g 1 l S 8 $ , K z > 1 l ] G.C.V.F.I.+.Y.a.b h f l j.o.H n } u.o.} } | s.:.H H ..u.r.J n 3.R.i.m k *.",
"tXtXtX9X>X$Xh.s a # + - = 5 R T ) F 8 8 S L S h k { a.(.A.A.Y.I.V.F.!.6.M g k c n k J 4.p.r.o.| r.!.u.` ..u.L.P.#.} n :.p.n f 3 ",
"uXfXiX2X9X;Xh.p a r r @ o o t 7.E ; = : T j 6 , K k.a.S.F.A.V.Y.V.C.J.R.q.l 1 < 1 > h l.I X...u.H.J.t.[ } | r.F.P.#.f H 2.,.f & ",
"gXgXuX5X5X;X}.M.B.m.d # + @ = : : = o X t 7 $ & , 3.T.O.Y.F.A.U.S.H.T.4.] &.v g & < h &.j l H J P.t.$.#.o.J | D./.o.k f H ,.< 4 ",
"aXaXiX9X9X0X9X0X0X:Xn.c.h.# O O : - o - i t 5 7 h h 3.^.!.$.S.G._ [ E.W.H M l h < 1 6 6 < h M ] T.| ` s.5.n G a.E.,.j < g m 1 f ",
"tXtX9X9X9X2X4XrXyXjX>X,XB.e + p y y y + t F 6 L j , f ].^.X.X.W.k f =.5.f m G h h 1 & & < 6 l -.4.H H <.<.H l P ,.j.k f f k m k ",
"3X8X6X6XtXyX2XiXiXuX0X;X-X.Xu y |.*X}.E [.}.Q Y -.M f `.;.b n ;.f f m { k X.' n G h > , z 3 k &.K f f K P l 6 < l *.f l m m 2._ ",
"8X8X6X6X6XiX4XuXhXpXfX0X0X1XoX|.*X<X=Xl.U ) -.:.j.{ k <.f > h k { ] b b m #.o.p.:.K h x c 1 f / 1 > < h 1 1 < & > f f b &.5.s.#.",
"8X8X8X8XiXuXpXpXfXfXtXsXjXhXjXqX+XN.x.) Y -.X.` [ { b b v 1 f H ;.[ ` %.D.D.| J >.L l Q h 1 1 x < & < , > < 3 , & 1 K k M ,.@.4.",
"8X8X8X8X4XiXjXpXjXhXsXtXsXhXhX1X&Xm.D U 1.:.' m [ ;.&.M M &.M ] 6.6.a.O.| 4.k.-.H j K >.L k 1 < w q w 1 > 1 x 9 , Z q.M f M H | "
};
