/* XPM */
static char *ur_corner1693431314[] = {
/* columns rows colors chars-per-pixel */
"64 64 159 2 ",
"   c #020703",
".  c #030C03",
"X  c #031503",
"o  c #0C1604",
"O  c #031D02",
"+  c #0C1D02",
"@  c #151600",
"#  c #1A1500",
"$  c #111C00",
"%  c #1E1A01",
"&  c #211701",
"*  c #231902",
"=  c #2B1D02",
"-  c #321F03",
";  c #042401",
":  c #0A2201",
">  c #022D00",
",  c #0A2C02",
"<  c #142301",
"1  c #122C03",
"2  c #1D2901",
"3  c #053401",
"4  c #0A3501",
"5  c #073803",
"6  c #0C3C02",
"7  c #0B3309",
"8  c #123202",
"9  c #1D3600",
"0  c #123D00",
"q  c #143A13",
"w  c #232402",
"e  c #212901",
"r  c #292E04",
"t  c #322104",
"y  c #3B2405",
"u  c #372807",
"i  c #39280C",
"p  c #283301",
"a  c #203B03",
"s  c #2E320F",
"d  c #3A2E17",
"f  c #442906",
"g  c #452C0C",
"h  c #4B2D09",
"j  c #422E12",
"k  c #493516",
"l  c #543B15",
"z  c #593810",
"x  c #603D16",
"c  c #443724",
"v  c #0E4103",
"b  c #134402",
"n  c #1B4500",
"m  c #164A04",
"M  c #1B4B02",
"N  c #1F4009",
"B  c #1D5204",
"V  c #1E5905",
"C  c #1F4E14",
"Z  c #234200",
"A  c #2B4301",
"S  c #234C01",
"D  c #284E00",
"F  c #254308",
"G  c #245302",
"H  c #285501",
"J  c #255A04",
"K  c #2B5C03",
"L  c #2F550D",
"P  c #245C08",
"I  c #2A5E0A",
"U  c #315E04",
"Y  c #345C10",
"T  c #305A18",
"R  c #266206",
"E  c #2D6304",
"W  c #2D6B06",
"Q  c #276108",
"!  c #2B6608",
"~  c #316504",
"^  c #336C05",
"/  c #396B07",
"(  c #35630C",
")  c #356C0A",
"_  c #3A6D09",
"`  c #367306",
"'  c #387607",
"]  c #377807",
"[  c #397A07",
"{  c #3C730A",
"}  c #367908",
"|  c #3B7D08",
" . c #316011",
".. c #3F673D",
"X. c #41760B",
"o. c #437C0B",
"O. c #50422A",
"+. c #654D2F",
"@. c #6C5233",
"#. c #6F563A",
"$. c #7F5E3B",
"%. c #436A3D",
"&. c #575E4F",
"*. c #446B41",
"=. c #4D6D45",
"-. c #617D4B",
";. c #7F715F",
":. c #7E7161",
">. c #847565",
",. c #897C6C",
"<. c #3E8108",
"1. c #43830B",
"2. c #4B850E",
"3. c #4D8A0E",
"4. c #508D0F",
"5. c #4A8110",
"6. c #4F8810",
"7. c #508710",
"8. c #538D11",
"9. c #569111",
"0. c #599213",
"q. c #4A8222",
"w. c #608B3F",
"e. c #678663",
"r. c #82827E",
"t. c #94887E",
"y. c #958D81",
"u. c #8D9B86",
"i. c #9C9591",
"p. c #A59B8D",
"a. c #A19892",
"s. c #9DAD93",
"d. c #AAA19C",
"f. c #B1A89C",
"g. c #A9B8AD",
"h. c #ACBBB4",
"j. c #B4BCB6",
"k. c #C4C0C4",
"l. c #CCCDCE",
"z. c #D1CECD",
"x. c #CBD1CE",
"c. c #C6CFD1",
"v. c #DAD7DB",
"b. c #DADBE4",
"n. c #DCDEEB",
"m. c #DDE1ED",
"M. c #DEE3F1",
"N. c #E3E4EE",
"B. c #ECECEA",
"V. c #E2E5F3",
"C. c #E6E9F5",
"Z. c #EAECF5",
"A. c #E7EAF9",
"S. c #EAEDFB",
"D. c #EEF1FC",
"F. c #F0F1F7",
"G. c #F2F4FE",
"H. c #F6F9FF",
"J. c #FAFDFF",
/* pixels */
"W J S ~ 3.b M ^ ~ J S K ^ ' ^ G 9 b H ~ J S S D 2./ K K S G M S S 6 3 J ' ` ` ~ T C K ^ K _ 7.| ` W ^ ' R 4 6 B b G ~ ~ K } E K ",
"m 3 > b } m Q | ' ~ H S J / o.J S S S K b 0 S H ` J H K M b m B G D H R / [ ' / w.-.M J / X.X.' ` { 1.| K G J H B R ` ^ G G ` ^ ",
"K 3 6 G b G E ~ K ' ~ K J B B K H S S S 4 > 4 S E m B P 4 b W { E ~ { <.' ^ ^ ` | q.b S X.X.K U / 2.2./ H ' ^ ~ 1.~ ^ E B M ` / ",
"K G J J B E ` ^ K E ` ~ J B P ` ^ K K S n 4 > 4 S 0 0 S M W 6.o.~ [ 6.0.3.' ~ ^ ~ H S U ~ H S H 2.2.^ J ~ [ / / 4.U H m W ` ' ` ",
"J ' / U 1.~ ^ / K J ' ^ G P [ ' ~ { X.D S n 0 0 S 0 n G B [ 9.o.~ / 1.3.3.2.B G G 0 n J B 4 6 K o.' ~ ~ 7.X.K H ) [ ! ) 3.o.J n ",
"~ [ ` / 4.U K J S E ' ^ S 4 R K ~ 2.2.D D K J J S H E P m | 0.{ K ~ ^ ` 1.2.b 0 m K b S 0 4 n U / E G U 8.X.K K H E B | 6.{ 4 M ",
"7.X.J H / ' ~ n 4 K K n 5 6 6 b I 3.` G U ' | E S P ^ Q B 6.0.{ B R G H ^ ' K 6 0 G 3 n 0 b H ~ J S S H 2./ K U S m m | 0.) 4 G ",
"8.X.U J H ^ ~ S b 0 4 m R G J M n B H ~ ' 3.4.^ b b b P ] <.0.6.W m G S G G b M J G v 0 6 4 D K v b n G ` J S J n b B 7.0.{ m P ",
"2./ K K S G H H S 8 4 J ' ` ` ~ G b b ' 3.3.o./ P v Q 1.<.3.3.1.<.W m 3 4 4 6 4 4 v M b b n S S 4 > 4 D E m v v 6 B | <.9.6.W B ",
"' J J K n b M D G G H K / } [ / ^ m b ' 8.2.R M V Q o.9.1.0.4.1.<.3.W v 3 v m B m 3 M v b S J S S 4 > 4 S 6 b v Q 1.<.6.3.<.<.W ",
"K M G J 4 n J ~ ~ ~ ' | ' ^ ^ ` | ^ G ^ 7.o.S b B [ 9.3.<.0.0.6.2.4.<.! m m G ^ W m v 3 > M X.S S 0 0 0 n 0 b B o.0.<.0.4.<.<.1.",
"S 6 0 S n S D H ~ ' 4.0.3.' ~ ^ ~ H M ^ | E S J [ 8.3.<.<.0.1.3.9.<.<.<.R 6 G J W ` v > n 2.2.S D K J H M b B | 9.6.<.0.0.3.3.4.",
"S 0 S H H S S H ~ ` 1.3.3.2.B S H M M E m 4 n U ^ | 6.4.1.0.1.2.9.<.8.) 6 3 6 6 b R J + F 3./ J U | | ~ S ~ [ 8.3.<.<.0.3.3.4.<.",
"S G U ^ ~ H H K ^ ~ ^ ` 1.2.m 0 M M 4 b 4 3 m G B o.6.` I 8.o.1.0.3.) v 3 0 b 6 3 < < O S / H U ' 3.4.' ~ ~ ) | 4.6.1.0.1.3.9.<.",
"H K ' | ^ ~ ~ ` [ ^ H H ^ ' J 0 b G 5 4 v v B J 6 o.) v 0 1./ ^ 8.8.m 4 m H n b , . O 4 M m b ' o.P G B B G M 1.3.) Q 8.| 5.0.4.",
"~ K o.8.| ~ ` | | [ H S G G b M G G v b m B ^ ^ 6 R B 3 6 W J S ^ 6.v B ) ~ G M n 4 6 M v 3 b ' 5.B v 6 S P 6 | / v v 5._ ) 6.0.",
"~ / <.2.3./ ^ ^ ~ | m 4 4 4 6 6 4 b M G ' | ` ~ E m G K K m 4 > b } m R | [ ~ G S m v 3 > 3 M ^ 6.) m G ~ ^ 6 R G 3 6 W J S ^ 6.",
"` | ' X.0.^ H S b E b > 3 0 m M v 5 M E ^ K / 3.[ ^ W ^ ] P 4 6 B v G ^ ~ K ' ~ K J 6 6 6 3 6 ' ` J ` [ ' ^ E m B E P m 4 > b } ",
"[ <.^ / 4.U S b > n v 3 4 G J ^ W m v m H / o.o.' ' | 1.| K J J J B K / ^ J E / ~ H B b m n b P m K ^ K _ 7.[ ` ^ / } K 4 6 M b ",
"' ^ J J ' ^ H 0 > > > 5 v v G J E E 5 4 D X.X.K K / 2.2.^ J ' ^ ~ 1.~ ^ ' K H ' / G G v B M 6 0 6 M G / X.X.' ` | o.| K J J J B ",
"H J n 6 H ~ n 6 m > 4 m m 3 b 6 S 0 3 M U E H S G 2.3./ H ~ ' ` / 7.U K H S ~ ' ` B 3 G J m B 6 > 6 S X.X.K K _ 2.2./ H ` / K 1.",
"b b 3 > 0 K b 3 m m v M H b G J m v 4 4 K B 4 6 K | ' ~ ~ 7.{ K H ^ ' ~ n 6 K K b 4 6 6 6 m H 0 3 S E E H S H 5.2.^ J ~ ' ` / 4.",
"4 3 3 3 3 M 0 4 M E J B G G b M n P R G H 0 4 n U / U H U 8.X.K K H ^ ~ S 0 b 4 M P G P M m v v 4 4 J B 6 6 K | [ ~ ~ 7.X.K H / ",
"3 6 v v v 3 4 m J ] <.R m b b M K ^ ' / S 0 b H ~ P S S H 2./ K K S G H H S 6 4 G ' ` ` E B v J R G H 0 4 n ~ / K G U 9.X.K J H ",
"v J B b J G b v b J ' ` m m J ^ } ` ` o.H S S D K b b n H ` J G K S 0 S S S H H E ^ [ [ ` R E / ' ^ G 0 0 H ~ P G S H 2./ K K D ",
"G ^ W B J ` E S G R ^ ' ) Q | | ^ ` 1.4./ G S D S 4 > 4 S U m G J 3 n H ~ ~ E { <.[ ^ ~ ' | [ ` ` o.G n D S K b 0 S G ' H J K n ",
"^ ` ` E M W ` R B ^ ~ ~ G B K J ` 2.4.1.| ^ U J S Z 4 > 3 S 6 0 S S S S H ~ [ 3.0.3.' ^ ^ ~ H H | 8.P M S S S 4 > 4 S U m B J 4 ",
"<.W E ` B B ^ W v ` ` K M G K H ^ 3.0.<.` ^ / X.S S n 0 0 S n n H K S S H ~ ' 1.3.3.2.B S H K { 2.1.<.W b H S n 3 > 4 S 6 0 D n ",
"' V m E } m R R 4 G ) V ; X v P B { 2.` K ^ 2.2.H S J K H S H U ^ ~ H D K ^ ~ ^ ` o.3.n 0 M E _ 8.<.2.2.` X.G S n 0 0 S n n K H ",
"` V n E [ v m J 3 o o , 6 6 b 6 3 B ^ S D o.3./ G U [ | ~ H J ' | ^ ~ ~ ` [ ~ H H ^ ' J 6 b G 3 ) ~ o.8.| Q F G H H H S S ~ ^ ~ ",
"R b 4 m E R K M 3 O O 3 6 m M 3 n M 6 4 J | / J ~ ' 3.4.' ~ U o.4.| ~ ' | | | J S D G b M G G v v 5 _ 0.| m M U | | ~ G K ' o.^ ",
"m , O ; J W S 8 > 3 > 3 m M M R b > 3 v ) ' G b ' 3.3.o.^ ~ / <.2.4.^ ^ ^ ~ | M 4 4 4 6 6 4 6 B m b { 0.6.B G ` o.o.' ~ U o.4.[ ",
", X   O M v O X 3 v 3 > n J R ^ v 3 3 v ^ J b b ' 8.2.~ K ^ | ] o.0.~ K S n ~ b > 3 6 m B b 5 m v W 6.4.<.[ B m m m R ^ / <.3.3.",
"X O > > 3 > > > > 6 6 3 b E ` G m v 5 4 G b 4 S ^ 4.X.H J [ <./ / 3.U S 0 > n 0 5 4 G J ^ W v m W <.<.3.4.<.1.I m P K ^ | } o.0.",
"; ; 3 5 > > 3 3 > 6 M G G H G b G M m B b v 5 6 ' | K S G ' / J H [ ~ G 0 3 > > 4 v v G M B V W 3.<.1.4.0.1.9.1.V m m ) | / / 3.",
"> 3 6 4 > 3 6 5 3 5 4 3 + + 4 G J J K ] J G m b ~ b 3 0 S H K b 6 H ~ n 0 m > 3 b m 3 b 6 m R <.4.3.6.0.9.1.3.4.| B b ! ` H J [ ",
"> 6 b 6 > 5 m v 3 5 v b : : M J b G ' <.` E B 5 b > 3 4 4 b b 3 > 0 E b 3 m b v m J b M 5 Q | <.<.9.3.1.0.<.<.3.6.{ H H J n 6 H ",
"3 m B 6 3 6 M B v v 6 6 6 m J m b W <.` ` G M V 6 > 5 4 3 5 3 3 3 3 m v 4 B E K B G J G 3 5 ) 8.<.9.3.1.0.1.4.3.<.^ E S b 3 > 0 ",
"6 B J M 6 v S J G J 2 > b S M 6 E | ^ B G v V ' G 4 6 m v 3 6 v 6 v 3 4 b J ' <.R b b v 0 3 b ) 6.0.1.o.9.Q ) 2.1.B G b 5 5 4 5 ",
"2 w Z H w < 0 M J 0 $ o , : < W V B B 3 v E W J b B W ` G v J G b G G m v m J } ` B v n H m 5 m 9.6._ _ 1.v b ) o.6 J B v v 6 6 ",
"& # 9 D * # $ 8 9 : 2 * < ; 7 b M b 4 6 M E J b B ^ <.<.` B ^ W B J ` E B G K ^ / ^ G G ~ / M b 7.~ S J W 6 3 B ! 6 ) ^ M m m G ",
"# # p A # & & & * # - s F b 5 > b 6 3 M m m m G ^ R E ` [ ` ` ' E B W / E B ^ ~ J S H ~ [ | R m ] b > 3 m K E B M R ~ ` | ' G J ",
"& i k g * i j g f % e 7 b m 4 3 v 6 6 m 3 3 M ^ ` B B W ' <.W E W V B ^ ! v m m J K ~ ' K ~ E G b B 6 4 R ' ^ E ` | 6._ K ^ K m ",
"k y.l.a.j a.k.t.f u q q 3 > , v B m 4 > > 3 V ` J J ^ ` R ' B m E ] m R Q 5 m B H ~ ` E J ^ ` E B H J J K | 1.o.` ` o.X./ H m m ",
"d.v.G.B.f.b.b.l.p.p.j.k.&.@ < G m 5 > > 5 3 6 m 4 W ' K m ' B b E [ 6 m J 4 + G G / ' G K ' / ~ 1.~ / ' H ^ 2.2./ K K o.X.S 6 G ",
"D.Z.G.J.J.C.n.C.J.G.N.r.c w 8 6 5 5 3 > O , 3 3 > P G 6 6 P v 5 m E R K m 3 ; 3 B ` ' E S H K U 7./ ` } ~ H / 3.2.D S H ~ U S 4 ",
"C.V.V.Z.C.Z.D.F.Z.C.n.O.y r 3 : ; 3 5 3 O , > ; 3 m 4 X ; m m ; , H W D 0 6 6 5 3 n K K 6 n U ' / H J ' 7.~ E ' o.K 4 6 B K 4 3 ",
"m.n.m.b.m.G.J.D.m.N.N.$.h w ; @ : > 3 v 5 3 O X 6 6 :   X P W 6 : M v 3 0 S G P R m 4 0 0 G ~ ^ H J U X.8.U G E / ~ M 4 6 H B R ",
"V.V.m.V.V.D.D.S.M.A.m.@.t # $ # # 1 v 6 > > > > 6 3 > ; > L 6.! 3 > > 3 m E ` ' ' J 4 6 S H J G D ~ K / 2.H S S P ~ H 0 9 H ^ ' ",
"S.C.A.D.D.V.M.M.D.S.m.O.u t @ # 1 4 > < > 3 b m 3 > 3 5 6  .8.] b > > v K / [ [ / K H H S G n 0 n K H J ' H n 0 b K D S S J o.' ",
"A.V.S.D.F.M.m.C.D.S.m.i.+.y = # , > + # 0 M M m 5 3 5 v 5 ) 0.<.m 3 6 ^ | ' ~ ~ [ <.{ E ~ ~ J S 3 J B m E S 4 > 3 S S S H ^ 4.2.",
"D.G.D.C.V.V.M.M.A.A.V.M.>.y = @ + + # < n G M v m m v v v { 0.6.B 5 M G K W ^ [ 3.9.7.[ ~ H D S S S 0 6 S 4 ; 4 S S H U ~ | 1.4.",
"G.J.D.m.m.N.M.M.m.m.N.Z.;.t & * % # $ 6 > 6 v b G G m v W 3.9.<.] B 6 v b M G 2.3.2.1.' E H S S H H S 0 S 0 0 n S D X.{ ~ ' <.0.",
"G.G.Z.N.C.V.M.Z.C.C.C.C.:.y h z f * $ , $ ; 3 b J v m W <.<.1.4.<.1.I v m 0 b 3.1.` ^ ~ ^ K G H ~ / K H S H K K S D 2.2.^ K ` 2.",
"J.H.D.S.S.M.m.C.J.H.D.F.z.>.f h - # % w # , b m 6 m ! 3.<.<.9.0.<.9.5.V 6 6 J ' ~ H H ^ } ` ~ ~ ^ | ' K H ~ | ' ~ H ` 3.o.S S ^ ",
"G.H.G.D.D.N.m.C.J.J.H.D.D.z.,.>.d = t y = < a 0 m R <.4.1.6.0.0.<.6.6.} B v b S H S J [ <.| / ^ | 4.X.U ~ ' 4.2.' K H / | J 4 6 ",
"G.G.S.V.A.C.M.C.D.S.D.G.D.D.D.Z.>.+.#.+.f - u u J | <.<.4.3.2.0.<.<.6.4.} m v 4 4 3 M | E ^ ^ _ 4.2.| ` E / o.3.3.' b G ' ^ v 3 ",
"G.D.S.M.V.M.M.M.m.m.S.H.G.S.C.m.b.b.Z.v.@.x l 1 6 ) 9.1.9.3.2.8.<.4.6.| W E G v > 3 b E b S H ~ 0.| | | ` J ^ 2.8.' b b J ^ 6 3 ",
"S.S.A.V.C.M.V.C.m.M.D.G.D.D.Z.C.n.N.G.F.u.=.=.N 4 v ( 7.0.1.o.8.! ) 6.5.M G M m 6 5 0 n > n S U 4.^ / | [ J H X.7.^ S 4 v G 4 5 ",
"N.V.A.A.S.A.M.M.M.M.A.C.M.V.V.N.N.N.Z.C.g.%.n D n 6 m 8.8./ ^ 2.v v ` o.6 P M v 6 6 3 > 3 0 H ~ | H H ^ ' G S E | [ 6 4 v m J m ",
"n.n.Z.Z.D.C.M.M.M.M.M.M.m.M.M.n.n.n.N.l.x.s.H ~ ) M b 6.^ S G W 6 3 B R 6 ^ ^ G m m 5 > m 0 n ~ H 6 n J H S 0 3 m E b m B J ` K ",
"N.N.Z.G.D.S.C.M.M.M.M.C.C.A.S.C.M.n.n.-.L Y ~ [ | R m ] b > 3 m K E V m E ~ ` } ` H b b m 3 b R 8 > 3 b b 6 4 > 3 v 6 B E ` <.] ",
"F.Z.G.H.G.G.S.S.M.M.M.M.C.S.D.S.h...*.Y K ^ { K ~ E G v B 6 4 K [ ^ E ` | 4._ K ^ K M G M 4 v M 3 3 3 3 3 3 6 3 > 6 B M J ` ` <.",
"F.Z.G.H.G.D.S.M.m.M.M.M.C.S.D.S.c.e.G J ^ ) ~ J ^ ` E V J G P K | 1.o./ ' o.X./ J m V W J m 4 3 6 v b 6 3 v m 6 4 J ` B v B G ` "
};
