/* XPM */
static char *efcc8eef76b440a2c802302e4ddc62f7HtHfVkn9lcTvRvk4[] = {
/* columns rows colors chars-per-pixel */
"64 64 219 2 ",
"   c #030B03",
".  c #031503",
"X  c #0B1603",
"o  c #031C02",
"O  c #0C1C01",
"+  c #141600",
"@  c #1B1500",
"#  c #151A00",
"$  c #1C1A01",
"%  c #211701",
"&  c #231901",
"*  c #2E1E03",
"=  c #321F03",
"-  c #042401",
";  c #0A2301",
":  c #022D00",
">  c #0A2C02",
",  c #142301",
"<  c #1D2301",
"1  c #122C02",
"2  c #1D2B02",
"3  c #053301",
"4  c #0A3501",
"5  c #073802",
"6  c #0B3C02",
"7  c #0E3709",
"8  c #123301",
"9  c #123D00",
"0  c #1A3903",
"q  c #143C14",
"w  c #242203",
"e  c #252C03",
"r  c #342205",
"t  c #3B2505",
"y  c #362709",
"u  c #3C2A0B",
"i  c #243802",
"p  c #3A2D15",
"a  c #432906",
"s  c #452B0A",
"d  c #482B08",
"f  c #4A310B",
"g  c #53330C",
"h  c #5D390E",
"j  c #442E12",
"k  c #4C3516",
"l  c #553917",
"z  c #603E16",
"x  c #493922",
"c  c #0E4103",
"v  c #134402",
"b  c #1A4500",
"n  c #164903",
"m  c #1B4C02",
"M  c #18460A",
"N  c #1D5203",
"B  c #1D5606",
"V  c #1D4A16",
"C  c #1F5211",
"Z  c #284601",
"A  c #234D01",
"S  c #314103",
"D  c #245302",
"F  c #295502",
"G  c #245A04",
"H  c #2B5C03",
"J  c #2B5B0C",
"K  c #315D09",
"L  c #264D15",
"P  c #25541A",
"I  c #335F11",
"U  c #266206",
"Y  c #2D6304",
"T  c #2D6906",
"R  c #2A6508",
"E  c #316504",
"W  c #336C05",
"Q  c #396B07",
"!  c #356409",
"~  c #356C0A",
"^  c #3A6C09",
"/  c #367206",
"(  c #387507",
")  c #377807",
"_  c #397A07",
"`  c #377608",
"'  c #3B740A",
"]  c #367808",
"[  c #3B7C08",
"{  c #2D6216",
"}  c #38661A",
"|  c #2D4C2F",
" . c #2A5824",
".. c #335D29",
"X. c #396727",
"o. c #3C6638",
"O. c #624219",
"+. c #41750A",
"@. c #437C0B",
"#. c #487D0D",
"$. c #5A4428",
"%. c #564731",
"&. c #664E31",
"*. c #6A5539",
"=. c #477625",
"-. c #456B38",
";. c #4D7336",
":. c #3F6241",
">. c #4A5A45",
",. c #665641",
"<. c #705A41",
"1. c #466947",
"2. c #4E714E",
"3. c #547649",
"4. c #567558",
"5. c #5B7C5B",
"6. c #776754",
"7. c #7A6953",
"8. c #7C6D5C",
"9. c #647E69",
"0. c #846A4E",
"q. c #83715D",
"w. c #857666",
"e. c #3E8108",
"r. c #44830B",
"t. c #4A850D",
"y. c #4C8A0E",
"u. c #508D0F",
"i. c #448213",
"p. c #508710",
"a. c #548D11",
"s. c #569112",
"d. c #599213",
"f. c #5B941A",
"g. c #508431",
"h. c #61953C",
"j. c #5F815E",
"k. c #678958",
"l. c #6D9850",
"z. c #78A053",
"x. c #628363",
"c. c #69896B",
"v. c #71926A",
"b. c #718B73",
"n. c #779279",
"m. c #8D837A",
"M. c #968B7E",
"N. c #87AA74",
"B. c #9FC07D",
"V. c #797D81",
"C. c #7B8784",
"Z. c #948D85",
"A. c #859C87",
"S. c #A79A8D",
"D. c #A59C97",
"F. c #89A18B",
"G. c #91A488",
"H. c #8DA194",
"J. c #99AB9B",
"K. c #9AB19E",
"L. c #ACAA9B",
"P. c #9FAEA3",
"I. c #9CB0A3",
"U. c #ACA5A3",
"Y. c #B6ADA8",
"T. c #A6B7A9",
"R. c #AAB6B4",
"E. c #ABBAB4",
"W. c #B9B9BA",
"Q. c #C3BEBB",
"!. c #A8C683",
"~. c #AFC4AB",
"^. c #B1C3A9",
"/. c #AFC0B8",
"(. c #B5C4BA",
"). c #C8C2BB",
"_. c #B5BEC0",
"`. c #C3BFC3",
"'. c #BBC5C4",
"]. c #BDC8C6",
"[. c #C6C8CA",
"{. c #D1CBC8",
"}. c #C6D1CD",
"|. c #C8CCD2",
" X c #D2CFD6",
".X c #CCD3D5",
"XX c #CED9D4",
"oX c #CED3DB",
"OX c #D3D5DD",
"+X c #D5DAD9",
"@X c #D9E2DF",
"#X c #D5DAE3",
"$X c #DBDDE4",
"%X c #D6DAE8",
"&X c #DBDEEA",
"*X c #DCE2E4",
"=X c #DEE1ED",
"-X c #DEE3F1",
";X c #E2E4EE",
":X c #E6E9EB",
">X c #E2E5F2",
",X c #E6E9F4",
"<X c #EAECF5",
"1X c #E7EAF9",
"2X c #EBEEFA",
"3X c #F0EFF6",
"4X c #EEF1F5",
"5X c #EEF1FC",
"6X c #F0F0F6",
"7X c #F1F1FA",
"8X c #F2F4FD",
"9X c #F2F5FE",
"0X c #F5F6FF",
"qX c #F6F9FE",
"wX c #F6F9FF",
"eX c #F9FAFF",
"rX c #FAFDFF",
"tX c #FBFDFF",
"yX c #FDFFFF",
/* pixels */
"4XqXqX6XqXtXtX8X=X;X=X;X>X>X>X2XtX6X*X&X3XeX0X,X<X<X7X0X0X0X0X7X7X<X;X6XyXyXeXqX6X6X:X6XyXyXqXqX7X<X<X7X8X5X5XqX,X-X-X-X-X,X5X5X",
"qXqXqXqXqXyXtX8X$X*X=X=X>X;X>X7XqX:XA.T.<XqX0X3X<X<X3X3X0X0X0X7X3X<X,X<XyXyXeXqXqX:X:X3XyXyXeXqX3X<X,X2X8X8XqXqX>X-X-X&X%X,X5X1X",
"4X4X4X4X8X4X4X4X,X,X<X2X2X>X>X<X*Xn.} G.3X3X1X,X<X3X7X7X7X3X7X7X8X2X>X<XeXyX6X6X6X4X4XT.(.yX3X3X3X3X3X1X<X5X5X5X1X=X-X,X2X5X5X5X",
":X@X:X4X5X*X&X:XtXtXqXqX7X,X&X;XXX=.y.K.7X;X;X,X>X7X0X0X<X;X<X0X0X3X<X<X0XqX6X<X<X4X}.-.v.6X:X:X7X0X8X1X=X,X5X5X,X=X-XqXyXqXqXtX",
":X*X:X5X<X;X=X,XqX8XqXqX7X1X>X[.v.i.f.^.<X;X=X2X>X3X7X7X3X<X<X0X7X2X<X<X8XqX<X<X<X*XX.T N.5X<X2X1X0X0X>X&X>X2X5X=X>X>X0XqX8X8XqX",
"qXqX<X;X:X4X8X2X,X,X4X8X7X2X5XR.M @.f.N..X>X;X<X1X>X;X<X3X7X3X<X,X1X<X>X<X<X>X:X:X@Xg.r.B.8X<X-X:X>X>X;X;X>X,X-X<X0X7X>X;X<X:X,X",
"tXtX5X$X=XqXqX4X=X=X<X8X-X+X*XK.B y.d.} N.#X-X-X>X;X&X;X3X0X7X=X>X,X<X>X;X;X=X;X].x.i.s.!.qX<X*X;X;X=X;X=X=X&X&X8XqX0X;X;X;X;X;X",
"tXtX5X=X=X5X8X4X:X=X1X4XT. .P { _ r.s.i.P H.*X,X>X>X>X>X3X0X7X>X=X1X1X1X>X:X:X<XT.M e.d.z.(.1X1X1X>X;X>X>X;X>X<X5X5X3X<X<X:X:X3X",
"8XqX2X=X=X=X=X,X-X,X<X-X].j.R t.r.u.t.e.[ X.F..XOX2X0X0X8X7X2X&X=X,X5X5X%X].oX*XJ.B t.f.] o.].5X4X4X5X1X,X5XtXtX4X=X,XeXtX0X6X3X",
"qXqX<X>X;X,X=X=X-X:X,X/.j.X.i.u.e.d.s.t.y.[ X.o.n.>XqX0X2X2X2X-X>X1X2X,X'...P  .{ ] e.s.y.] o.].5X5X5X<X<X5XqXqX1X=X,XtXyX8X<X3X",
"5X2X,X=X,X4X8X5X<X1X5X*XN.r.u.e.e.d.y.y.y.e.) k.R.>X7X7X1X1X,X>X-X-X-X,X1X/. .J r.e.y.y.e.e.T -.E.-X,X4X5X5X2X1X>X*X>X8X0X7X6XqX",
",X,X-X&X-XqXtXqX4X5X8X~.=.] y.u.r.s.t.y.r.u.` C 4.%X7X2X1X-X-X-X=X=X%X'.N.F.X.i.s.r.d.u.r.e.y.R 3.n.A.,XqX5X*X&X=X=X>X,X<X0XeXeX",
",X>X1X>X,X5XqXoXc.j.x.-.D R t./ U a.@.t.s.' v 4 M 5.b.[.>X>X>X1X-X,X-XI.o.B ) a.y.r.s.s.y.t.s.e.R C j.*X8X5X-X-X-X-X,X1X2X8X8X8X",
"-X*X,X5X5X-X=X.Xc.M 9 N N J ' v c t.~ ' a.J 6 m D M 5.].>X-X>X2X1XqXqX4X~.e.a.t.e.e.s.t.y.s.e.e.e.l.*X-X=X,X5X5X,X%X-X5X8X,X;X>X",
"*X=X-X5X5X=X&X=X/...D W U B G 5 v R D D +.D n / E I J.].%X=X>X5X5X8XqX~.=.~ [ a.u.e.d.t.t.s.e.s.~ M 1.#X%X,X5X5X,X%X-X5X5X>X=X-X",
"-X1X1X,X<X-X#XJ.} / / / W J D Y Y M 3 5 G B Y ' W E K -.I./.oX}.j.j.x.o.G N r.t./ U s.@.r.s.y.~ c 3 c j.4.I.1X,X>X-X>X>X,X2X5X2X",
"5X5X1X>X>X-X].4.F K E +.#./ / ' _ H b m N G W E H W W H  .3.(.XXj.c c D G 6 @./ v c t.W Q a.s.M 5 n D b -.R.>X=X>X&X;X;X$X<XtXqX",
"2X5X1X>X-X-X'.A.M D +.+.E W #.t./ H W E W W W W H H W E I T.*X6X(...A E W 6 R N 3 6 T D m ~ y.v B T E J J. X.X>X>X>X>X;X;X<X4X8X",
"1X1X-X%X>X/...8 b H E H A ^ t.( D E ( W @.Q H H A E / Y M E.*XT.} ( [ ( E Y n N Y H n 5 : v / n U [ ( E I J 3.#X;X2X7X5XqX8X4XqX",
"-X>X-X%X'.=.v 6 4 H D 6 v W ' E E p.' H K ( E b 6 H D 6 6  .C P Y W H ^ t._ / T W ` H 4 6 A v D E E H ( E H ! :.o.E.0X0XqXqX4X5X",
">X>X-X'.-.n D U D D 9 4 A W E D K a.+.H F E E D 9 6 9 G G G n M m D Q #.@.( / +.#.[ Y D G H N Y / W F E ( E D D x.].2X5X4X4X5X5X",
">X>XR.2.n D Y ` Q D 9 b F H A A D t.W H F D F D A 9 9 Y ' W H L 4 A #.+.H K Q t.t.W G / W H r.E W / H D ( W D } .X$X=X>X-X4XtXqX",
"=X;XJ.;.Y / / ' r.K D Z D m 6 b A Q D D D v A F H F H W / D 9 4 A E E D A A t.y.W F E _ / Q p.K H H A Y ( W D q R.oXOX>X;X2XqXqX",
";X>XR.k.W W _ t.y.( H F D b 4 4 b H v m b b F H E W r.t.E n 6 5 4 H m 6 6 H @.( E E p.' H F Q ( Y 9 8 Y H b 5 6  . .n.>X>X>X=X>X",
";X;XJ.c.k.K [ a.e.' Y Q ! A b 8 9 A 9 m F D A D E ( ' G n m G Y m D 9 5 b E W K D K a.+.K H F W E D 9 9 6 n U D D n P b.OX;X&X;X",
";X<X;X#XF.J Y t.' H W y.+.D F F A A A E T H D H E H N v n H W _ Q A 9 b D E G A A D t.Q K H A D F F A 9 4 D _ / / E X.n.$X<X<X>X",
"<X$X$XA.c 6 v Y A A #.t.E H / [ E D H ( ` Y G W [ N m H W _ / / r.F A Z D H v 9 A A / H D Y b v A A D A D K W _ _ / l.XX5X8X8X8X",
":X5. .J m 6 b c 4 H [ W H W r.y._ ! E r.t.H U [ [ ' H [ _ T / t.a.W F A A A 4 : 4 A Y n N D 4 b H E Y E ( e._ W E / _ h.*X8X0XeX",
"4X'.;.m N G 6 3 6 / / N N r.a.@.Q E / r.t.( t.Y Y G n H H W t.s.r._ Q K H A A 4 : 4 A 4 9 A b A A F E _ y.d.y._ Q Q E H ;.}.qXtX",
"<XA...H T H 6 3 6 Y N 9 m @.t.E F / _ _ ~ R s.n 6 N 9 v H W t.s.e.( Y ^ +.A A b 9 9 Z b A F H A A D E ( r.y.y.y.m A ;.G.G.+XyXtX",
":XX.A H Y m m v b N c 4 D _ ' A D _ U m D ` d.B 5 4 5 6 D D ' t./ H Q r.p.D A F H F A D H W ! F D H E E W / @.y.m 9 3.E.R.:XqX8X",
"n.L 1 1 v m D G T N m v n H v 9 A K G v r.t.y.[ G 3 6 c 6 5 B W A A #.y.Q D K _ _ E D H ( @.E E E / _ W F F E ( G 9 v D 7 J.}.}.",
"T.A.| ; m D m T e./ Y m c 4 3 6 9 v n _ y.y.s.t.y.U v m 4 9 n c 4 G _ / D E ( t.u._ E Y @.u.[ Q / e.e._ H A A D v m D D c C V 4.",
"qX[.1.m D m B ) ( ( D m n 3 3 6 3 5 Y t.r.t.t.a.e.` v n U v 3 3 c W / D v ( y.u.[ Q E W [ y.p.Q E E Y _ m 4 4 4 6 6 6 6 m b 2._.",
":X5.M A b n / / D D c B T m 6 c c v N i./ [ @.d.r.c v n G v 3 3 6 W G v b / s.t.Q H / [ _ @.s.E H A b Y v : 3 6 n N v 5 n 7 :.P.",
"8X,X4.- 1 Y N m 5 c Y T N m Y T n Y N R 4 D G ~ ' n E D N b c 6 6 D c 4 A W p.+.F D _ [ W Q p.E A v : b 6 3 6 D G W T n c : q 9.",
";X.X4.: 4 v b 6 c m G D n Y T H ` ' E B E D 5 b J Y / Y D A n n G v c 5 6 ] e.Y A A ( Q F F _ E D 9 : : : 6 6 c D D Y / c : C.,X",
"[.4.L v 5 3 6 5 m 6 6 n Y R B m H +.' ` t.W D G G / H W T D m G / D D m v Y b 3 9 A D H m 6 F E b 9 m : 3 b m 3 c 6 n H D ; V.1X",
"5.q 7 4 3 v n 6 5 : 5 B W D v v H K D #.( H ' W #.Y D Y W c N / e.( Y m c 6 3 : 5 6 v 9 4 : 6 H v 5 m v c n D m m 6 - , , o C.,X",
"_.R.>.O , m v 3 : 5 5 c m D v 6 H 4 D [ Y @.' F W Y 8 F b c v G / / G n N 6 3 3 5 3 5 3 3 : 3 m 6 6 m Y G B D G N b > . . 4 2.E.",
">XZ.x w 8 6 5 3 - o > 5 v D W / A v H F A Q Q H A F A 9 D / W D m N c B ( D 6 6 v c 3 c c c c 4 5 v G / e.U n D c n b 3 6 m 6 1.",
"-X,.t e 5 - : 5 3 - 3 - W ` / t.E A A 6 9 H m H 9 D H Y ( W W / n c U / G v m W / B c G N c D G n c n H ` / G c 3 : 5 c c 5 : 1.",
">X0.d & ; # - 3 6 6 3 : D K y.t.( E A Z : b 9 A A A E e.s.@.T Y A m Y G v N / _ _ / D T T D G / Y N D H W / / D 6 5 v m 7 A.R.E.",
":X*.a % + @ , 4 4 : : 5 6 D ' ` K r.! D H A D W Y D E E / t.b v m v m n N W U T ( e.W ( ( Y m T W Y B W W E / ` R n n D 7 4._.-X",
">X8.l t @ # > ; # 4 c v n 6 m v F @.H W r.E H t.W W [ W A Y m m v 3 3 n E / m N T ) e.Y T T N N / T c / / H A Y / n 9 m 7 | H.=X",
"2X#X8.t * # ; # < b m m n D 4 6 / N Y y.@.W / t.#.W E W 4 4 6 6 b v 5 B ( G G / / H _ B n T ) n U U 3 N ~ B - . 5 3 : : 7 R.=X,X",
"2X>X8.= $ & @ # 4 > 4 b W N c 6 N 4 Y y.H Y _ W @.A 3 b 5 m G T c 3 : 6 v 5 T / G n ) B n Y ) c m N 4 X X > 6 4 3 O + $ u (.4X8X",
"&X&X8.a f g r # : # 4 b m m N Y n 6 H T b Y E A W A 6 : 6 6 m G B : > 5 3 3 G D 6 6 Y v 5 b Y Y H m 3 o o - 6 m m 8 O & s *.Q.tX",
">X-X`.8.s u & @ w # : - b m D e./ m c 3 4 9 c : b v v v m m m - , o : : o 5 b 4 . - m > . > D T D 4 : 3 : : 5 N N 6 - < g *.Q.0X",
"2X1X2X|.m.6.y y t * , v A b ) G G N G 4 v 5 6 c 6 6 D / U N v 9 4 m : . . 6 6 -   . : .   O m c o . : 6 3 : : 6 6 3 : 2 O.[.;X;X",
"1X>X2X2X5X|.w.8.w.k a 2 ; U m 6 v T m G / N G n D N n Y / m 5 6 6 3 : : 3 6 3 : - -   - - : : : : : : 6 c 5 3 6 # 1 0 t l Y.;X;X",
"5X8X2X1X,X-X=X*X#XM.8.L 6 3 6 b b n Y R / ) / T G / G W T / H n v : 3 v n 3 : 3 6 5 - - 3 5 : : 3 5 : c m n 4 : 4 1 $ & a &.Y.2X",
"8XtX5X=X=X-X-X-X=XE.| 8 3 v b 5 : B Y G / T G R U T 6 H G > M : : 8 m N n 5 3 6 6 3 3 3 5 6 3 5 5 5 3 6 B D m v 1 & = t d q.{.7X",
"qX8X<X;X,X,X-X1X<X=X].>., m 5 : 4 5 6 T D U B H U n 6 . > 6 3 + w i D m c n b c 5 3 : 6 n 6 : 5 v c 3 6 m D D b # = a d f [.0XqX",
"qXqX5X2X<X-X*X,XtXqXD.a 4 - 3 3 - : : b . 6 > ; Y A : 3 : b N - u y 5 6 c G G v c 6 3 m m 6 3 5 N m v c 6 6 6 : $ t g a x W.<X7X",
"8XqX8X5X5X-X=X<XtXqXY.t # + > 5 3 - 5 5 o o o - 6 - : 6 : 5 1 8 f w - 3 v D n 5 3 6 6 N H m 6 6 m H D D 2 ; : # r g h $.Q.;X2X,X",
"7X8X2X>X1X>X-X1X5X5XU.s # # 4 ; : v 6 : 6 : : 5 : 5 3 c n 3 1 @ r t > v m 6 5 3 : 3 < < Z A e , 9 D D 9 , + $ t t g g $.OX1X5X2X",
"7X7X1X>X-X-X-X-X=X=X5Xw.* # O < m n v n 5 3 6 6 3 c 5 c D m $ s d r 1 i S ; - o O # % @ 0 Z % @ # 8 0 ; $ & r g 7.w.w.m.#X2XqXqX",
"2X2X1X>X1X-X-X1X-X-X5X8.r y @ > ; 6 A m 5 5 m b 5 m n m 7 ; & g f u r t a % % & % % @ @ i S @ @ $ % & @ = k &.<. X-X-X&X-X2X8X8X",
">X>X1X2X1X1X1X-X-X-X-X[.k a @ w # v v 3 3 1 2 A < 9 D 8 + r a g M.*.z l j s f g k p @ y k f $ u j f a & r m.;X;X>X-X-X>X-X-X,X-X",
"=X=X>X3X5X,X-X-X-X-X-X-XOXW.z %.= u = % $ @ @ S @ @ & $ k <.{. X$X[.[.Q.W.Y.$.w.{.U.j m. XD.j D.[.Z.d d M.OX5X2X-X-X-X-X-X-X-X-X",
";X;X1X8X5X1X1X-X-X-X-X>X,X1X>X%Xq.0.,.k 7.x %.*.p 6.s r D.;X1X>X;X,X,X,X<X<XU.[.1X=XD. X8X;XD.$X2X@XS.S.XX<X8X2X1X1X1X1X-X-X-X-X",
"3X<X0XeX8X5X2X1X-X-X-X-X1X2X7X1X7X2X7XY.3X{.$X3X).3XD.L.2X7X2X2X<X,X=X,XqXqX1X-X>X;X>X1X0X7X>X;X<XyXyX3X4X4XqXqX5X5X1X-X-X-X-X-X",
"3X<X7XeX8X5X2X1X&X-X-X>X>X2X7X2X7X2X2X3X0XeXeXeXyX3X$X$X2X7X2X2X,X,X-X,XqXqX1X=X;X-X;X2XeX0X>X=X:XyXyX6X,X5XqX0X5X5X1X-X-X-X-X-X"
};
