/* XPM */
static char *aefb13b5cac04ba0f28d7fbb586f61a8TtSMbpdZIo9nzBib[] = {
/* columns rows colors chars-per-pixel */
"64 64 214 2 ",
"   c #040B03",
".  c #031403",
"X  c #041D03",
"o  c #0D1D01",
"O  c #0C1604",
"+  c #171500",
"@  c #1B1501",
"#  c #141A01",
"$  c #1B1B01",
"%  c #231A01",
"&  c #2D1E03",
"*  c #241500",
"=  c #301F04",
"-  c #042302",
";  c #0B2301",
":  c #022D00",
">  c #0A2C02",
",  c #142401",
"<  c #112D03",
"1  c #1A2C02",
"2  c #1A2502",
"3  c #053302",
"4  c #0A3502",
"5  c #063901",
"6  c #0B3C03",
"7  c #0B360B",
"8  c #123D00",
"9  c #1C3C00",
"0  c #193302",
"q  c #222402",
"w  c #2F2203",
"e  c #242B02",
"r  c #332103",
"t  c #3B2405",
"y  c #3C2807",
"u  c #253501",
"i  c #402605",
"p  c #442906",
"a  c #4A2C07",
"s  c #4C2E09",
"d  c #432A0B",
"f  c #52320B",
"g  c #5C3A0E",
"h  c #47341A",
"j  c #5E3B11",
"k  c #483B28",
"l  c #0E4103",
"z  c #134402",
"x  c #1A4500",
"c  c #164903",
"v  c #1B4C02",
"b  c #194A08",
"n  c #1D5204",
"m  c #1E5408",
"M  c #1C4C15",
"N  c #244D00",
"B  c #264704",
"V  c #245401",
"C  c #295502",
"Z  c #255903",
"A  c #2B5C02",
"S  c #2B5A0B",
"D  c #29590A",
"F  c #315D07",
"G  c #214D1C",
"H  c #255618",
"J  c #266205",
"K  c #2D6304",
"L  c #2D6A05",
"P  c #2C6709",
"I  c #316505",
"U  c #336B05",
"Y  c #396C07",
"T  c #346A0A",
"R  c #3A6D08",
"E  c #346708",
"W  c #357206",
"Q  c #387507",
"!  c #3A7B06",
"~  c #337209",
"^  c #3C730A",
"/  c #3B7D08",
"(  c #367A06",
")  c #326113",
"_  c #1F4520",
"`  c #2B5824",
"'  c #335E27",
"]  c #325234",
"[  c #3D6734",
"{  c #376824",
"}  c #41740A",
"|  c #427C0B",
" . c #5B4932",
".. c #624B32",
"X. c #695235",
"o. c #6E5031",
"O. c #476A38",
"+. c #4D713B",
"@. c #4B732D",
"#. c #585F4F",
"$. c #745D45",
"%. c #6D5B43",
"&. c #456846",
"*. c #4B7345",
"=. c #557644",
"-. c #5B7C59",
";. c #567558",
":. c #7E6D5D",
">. c #5C7961",
",. c #7A7C7C",
"<. c #84725E",
"1. c #857665",
"2. c #8B7C6D",
"3. c #86786A",
"4. c #3D8106",
"5. c #3E8109",
"6. c #45830B",
"7. c #4A840D",
"8. c #4B890E",
"9. c #4E8A10",
"0. c #418111",
"q. c #528D11",
"w. c #588E12",
"e. c #569112",
"r. c #5A9213",
"t. c #528D0F",
"y. c #528A2B",
"u. c #5E805F",
"i. c #5C824F",
"p. c #678E55",
"a. c #77A258",
"s. c #5F8160",
"d. c #658564",
"f. c #6F8A73",
"g. c #748B7A",
"h. c #7A967A",
"j. c #948579",
"k. c #878E76",
"l. c #95B778",
"z. c #7B8D82",
"x. c #958B83",
"c. c #829B84",
"v. c #899C87",
"b. c #9D948C",
"n. c #899D93",
"m. c #9F9892",
"M. c #A09287",
"N. c #90A88D",
"B. c #8EA493",
"V. c #99AB97",
"C. c #8EA68E",
"Z. c #ABA29A",
"A. c #A3B79E",
"S. c #9CACA4",
"D. c #ADA8A4",
"F. c #A4B4AB",
"G. c #A6B6A8",
"H. c #ADBCB4",
"J. c #ACB8B8",
"K. c #B8B9B7",
"L. c #B0A7A2",
"P. c #C2BBB8",
"I. c #A7C39A",
"U. c #B6C1B9",
"Y. c #B8C9B9",
"T. c #C6C2BE",
"R. c #B6C2C1",
"E. c #BCC7C6",
"W. c #C3CDCC",
"Q. c #CACDCE",
"!. c #CBC6C4",
"~. c #C9D4CC",
"^. c #CECDD3",
"/. c #CBD4D6",
"(. c #D1D5DC",
"). c #D3DCDD",
"_. c #DAD7D9",
"`. c #D9E2DF",
"'. c #D4DAE0",
"]. c #DADDE5",
"[. c #DBDEEB",
"{. c #D7DDEB",
"}. c #DEE1ED",
"|. c #DAE1E5",
" X c #DEE3F1",
".X c #E2E3EE",
"XX c #E4E8EF",
"oX c #E9E9EE",
"OX c #E3E5F2",
"+X c #E9E7F3",
"@X c #E6E9F4",
"#X c #EAEBF5",
"$X c #E4E6F8",
"%X c #E6E9F9",
"&X c #EBEDFA",
"*X c #F1EFF8",
"=X c #EEF1F5",
"-X c #EEF1FD",
";X c #EEF1FC",
":X c #F0F1F6",
">X c #F1F1F9",
",X c #F2F5FA",
"<X c #F1F1FD",
"1X c #F2F5FE",
"2X c #F6F6FF",
"3X c #F4F5FE",
"4X c #F2F4FE",
"5X c #F8F7FF",
"6X c #F6F9FE",
"7X c #F6F9FF",
"8X c #F9FAFF",
"9X c #FAFDFF",
"0X c #FDFFFF",
"qX c #FAFCFF",
/* pixels */
"=X6XqX,X7X9X9X1X}..X}..X@X.XOX<X0X*X.X.X*X0X5X+X+X#X5X<X,X5X,X,X>X&XXX=X9X0X8X6X,XoXoX5X0X0X>X0X*X#X#X<X1X-X;X6X@X X X X}.%X;X&X",
"6XqXqX=X7X9X9X1X].|.].}.OX.XOX&X0X,XoX[.#X<X5X*X+X#X*X,X3X8X<X>X;X&XXX=X9X0X6X6X5XoXoX:X0X0X8X8X*X+X+X*X1X,X7X7X@X X}.}.[.%X;X%X",
"=X=X=X=X7X=X=X=X#X@X&X&X#XOXOX#X*XoX#X#X*X#X+X+X+X#X*X*X,X:X>X,X=XF.U.#X8X0X,X:X:X:X*X:X5X0X:X#X*X<X*X+X%X;X1X;X@X X}.@X&X-X1X;X",
"|.|.XX,X=X}.].XX6X9X6X6X<X+X}..X[.+X5X0X*XoX.X+X+X*X0X5XoX.X&X:X~.*.h.@X3X6X:XoXoX,X5X,X:X:XoXoX<X3X1X+X}.%X-X;XOX}.OX1X9X7X7X9X",
"oXXXXX=X&X.X}.@X7X3X7X7X&X+XOXOX+X#X,X5X*X[..X&X+X&X<X5X#X+X=X|.` L l.&X,X3X#X#X+X5X0X*X#X>X#X&X#X1X1X@X}.XX%X;X}.OX#X1X7X3X3X3X",
"6X,X&X.XOX=X1X&X@XOX=X1X<X-X;X&X>X&X<X<X+XOX.X#X+XOX.X+X<X5X:X).@.7.l.+X#X#X@XoXoX*X<X5X8X3X&X.X.X@X@X}.}.}.%X X%X3X&XOXXX@X+XoX",
"9X9X;X].}.1X9X=X}..X#X1X1X1X8X1X<X#X*X<X*XOX.X.X+X X[..X*X8XW.s.4.8.l..XOX}..X.XXX,X5X8X8X1X@X[..X.X}.}.}.}.|.|.1X9X1XXX.XoX.X.X",
"9X9X;X}..X=X1X&XXX.X&X<X=X>X1X;X1X1X1X*X#X}.OX#XOXOXOXOX&X3XG.c 5.e.a.H.+XXXoX+X#X3X5X3X<X>X&X#X@XXXOX@XOX}.@X&X;X;X:XoX+XoXoXoX",
"1X7X;X}.}.OXOXOX.XOX=X;X&X}.|.,X9X9X7X1X&XOXOX&X-X-X=X`.).'.B.n 8.r.Q [ E.|.;X9X0X8X3X<X<X&X&X<X;X;X=X%XOX-X9X9X;X}.@X9X0X8X*X#X",
"6X1X&XOX.XXX}.}..X.X%X;X%X|..X<X6X9X7X7X&XOXOX&X;X-X~.M M M D / 5.t.9.~ H R.-X9X8X8X7X<X-X&X<X-X;X;X;X%X%X;X6X6X%X}.OX9X0X,X:X:X",
";X&X@X}.OX;X1X-X%X=X;X1X;X%X@X1X6X1X=X#XOX[..X+X X&XXXU.' H | 5.q.9.6./ L *.U.6X<X8X8X&X+X@X%X%X@XXX%X=X1X-X%X@XXX}.OX1X3X>X:X3X",
"OX@X X}.}.1X9X6X;X;X;X6X6X=X;X1X9X;X.X}.}.}.}.[. XR.C.z.{ 5.q.4.e.q.6.5.8.L i.z.B.=X8X&XOX}. X XOX|.XX;X6X-X}.}.}.}.}.@X&X3X6X8X",
"@XOX@XOX X-X7X-X&X&X-X-X1X;X#X-X1X;X@XXXOXOXOX X XF.[ m / 8.8.5.e.e.9.6.q.6.J H d..X&X&X+XOXOX+X@X+X@X&X1X;X}. X X}.OX%X#X-X3X<X",
"}.}.@X1X,X X X@X-X-X@XOXOX X X X}.XX&X;X#XOXOX$X%X}.Y.5.q.8.6.5.e.6.9.q.4.4.5.a.XX.X.X+X-X-X-X&X;X9X5XOX}.OX-X-XOX}.}.-X1X#X.XOX",
"|.}. X=X-X X|.@X-X;XOX}. X X X X{..X&X;X%X X X$X XA.@.L | 8.9.5.e.8.9.e.4.9.T M &.'.}.OX&X&X&X<X<X0X3XXX{.OX-X-X X}. X;X&X%X}. X",
" X&X@X%X%X X X X%X XOXOX%X&X=X;X=X%X%X%X%XE.s.s.s.+.V n | 6.~ D e./ 6.e.9.T c 5 b -.d.G.#X#X&X<X<X#X<X*X@X@X@XOX%X XOXOX@X;X-X&X",
"-X-X$XOXOX X}.OX}.}.}.}.#X7X0X<X8X3X@X}..XE.-.M z n C 5 / T c l 7.R R 8.r.b 6 v N x *.G..XOX,X5X<X+X+X&X<X&XOX XOX[.OX}.].#X6X7X",
"&X;X$X XOX%XOXXXOXOX}.XX&X>X<X5X<X<X+XOX@X].U.` V I L 4 P n 5 6 L V N I q.z V U I N V.Q.Q.+X,X5X*X%X&X&X#X+XOXOXOXOX@X.X.X&X,X,X",
"$X%X X[. X&X;X;X1X;X,X1X>X&X+X#X+X&X&X<X#XG.D Q ! Q I K c n K A c 3 : z / c J / Q U F S =.oX#X3X&X%X$X+XOX X[.OX+X&X-X&X1X1X=X1X",
" X X X[. X&X-X;X7X7X7X7X3X#XXXXX].OX3X8XV.[ K U F Y 8.Q ~ U U Q K 6 z n l V K I A Q I F ) &.*.H.&XOXOX+X+X}.[.}.#X-X3X7X9X1X=X1X",
"OXXX X@X#X X@X,X1X1X-X&X*X*X<X#X&X+X;X,XH.-.x C Y } } W W ^ 6./ A Z V Z n K U U A K W I V D f.W.;X;X&X+X XOX@X@X#XOX&X-X;X;X1X;X",
".XOX%X-X-X X X X7X1X&X.X+X5X0X5X9X>XXXU.F.g.6 N } } F A Y 7.7.T C ~ U K 6.E U W A C W U V S ~.XX#X8X7X@X}.@X-X&X+X{.}.+X}.=X9X7X",
"}.OX%X;X,X X|.@X7X1X@X.XOX<X8X3X6X=X].+.8 4 N A I C N N 7.8.U N E Q W R q.F A C N L W U V 7 U.'.oX1X1X@X.X@X-X&XOX X.X}..X&X,X1X",
".XXX@X#X&X%X X X@XOXOX.XOX&X#XXX.X/.@.m l 5 4 A v 6 6 F / Q I E 9.} A C Y Q K x 4 A A x 3 6 ` ' h.XXXX=X<X-X&X-X&X&X@XOXOX@X.XOX",
".X.XOX;X-X+X}.OX}.}. X}.}.}..XOXH.*.m x Z J v C 6 4 x I U K V A w.} A C A I K C 8 8 6 x J V Z v { f.].1X8X3X-X&X&X-X&X%X X}.[.}.",
"XX+X#X&X-X@X XOX%X%X X}.XX%X@XH.-.v v A Y W U C 9 x C I V N N C 7.E K A N C Z V N 8 8 V ~ ~ U K O.k.|.&X-X&X&X&X&X&X$XOX@X#X#XOX",
"#X*X>X&X&X@X X X&X;X%X}.@XqX6Xz.' A U Q W W 5.C N N N A z x v N W Z C A x x v N C N C K U Q ! W p.~.@X@XOX@X&X-X#XOX+X#X-X1X<X1X",
",X>X*X&X&X@X%X$X&X-XOX}.%X1XqX,XI.4.4.U Q 6.e.U C N N N 4 : 4 C I v n C : x A E I I Q / Q U E Q 8.y.|.OX.XOX#X&X+X XOX&X1X1X3X9X",
",X,X+XoX+X&X&X&X$X$X$X XOX%X%Xc.{ C A ~ 7.9.6./ I A F N N 4 > 4 N 6 8 N x N N C Y ( 8.q.8.Q I U L F +.Y.OXOXOX+X&X-X;X@XXX=X7X9X",
">X8X*X]..X3X7X-X X X X$X@X}.}.H.N.k.F L 6.e.4.W U Q } N N x 8 8 N x N Z C N N C I W 6.8.8.9.n v @.N.v.^.OX X[.[.-X9X7X.X[.>X9X9X",
"8X0X*X.XOX<X<X&X$X%X X X@X XOX;X`.N.J V R 7.U K Y 6.| N C A C C N N K Y I A C A U K U W / q.x x +.G.S.).+XOXOXOX&X-X-X+X@X>X7X7X",
"0X8X>X*X#XOXOX$X1X;X%X X X}.(.|.N.l 6 3 n U v N } 8.Q B A Q / I C C W / I K I R ! I C C U Q Z 8 z N 3 S./.].<X&XXX{.OX7X7X#X|.}.",
"0X0X,X;X&X}.{.#X0X<X$X[.}.{.&.` H n : x x l 3 A Q W C F Q 8.8./ I I | t.! U Q / / / A N N C z n C C 6 M _ >.#X<XOX[.+X3X8X&X|.}.",
"3X9X>XXX#X&X+X@X#X#XOXOXOX XJ.=.v v J z 5 3 4 W W n x W 8.8.6.U I U | 8.q.U U I I / v 4 4 4 6 6 4 l n l ;.R.$X@XOX XOX+X%XOX.X.X",
"7X9X;X].OX&X&X#X{.[.OXOXOX Xn.O.V J U z 5 5 l L Z x x W q.7.U A U ! / / r.Y C C c K z 3 3 8 c v c 5 v l &.F.+X}.OXOX[.[.}..X.X.X",
"1X7X-X.XOX&X&X&XOX+XOXOXOX{.` x A W V c l 6 4 Z l 4 N I 8.^ C N ! / U Y t.F N 8 : x 6 5 6 V C U P z l 3 _ f.+X XOXOXOXOXOX.XOXXX",
"OXXX;X9X7X#XOX@X<X1X<X&X&X X@.C Z V l V v z Z l l 5 6 4./ K N C Q U A Z / Y C 8 3 : : 5 l 6 V C L W l 3 g.+XOXOX&X#X-X1X1X&X#X#X",
".X}.=X9X9X@X[.#X8X8X<X<XE.] 4 o ; 6 n C C J W Z V c z L c 3 8 N C A x 6 C I x 8 x : 5 z x 3 l 6 x J C ; ,. X X$X&X&X<X8X8X-X%X#X",
"XX.X%X1X&X@X@X&X<X<X&X@X'.n.n.] > v C x Z W ! W K n l z 3 3 4 6 x l 3 > 8 A z 3 c x l v V c v 6 : , < X z.%XOX&X&X$X%X<X<X&X+XOX",
".X.X.X}..X&X1X&X-X&X@XOX X{.S.&.c V x c P ! W W V v n 6 3 5 l 3 5 3 3 3 3 c z 6 v K Z n V A n z > . O 4 ;.R.&X&X$XOXOX&X&X@XOX X",
"XX.X}.}.@X&X&X>X-X<XOX}.+X{.&.B N v 6 P ( U V C l n W C 6 l z l 3 6 l l l 5 5 z A ( ! J c V l c z 3 6 n 8 &.<X&X$X XOX-X<X%XOXOX",
"=X,X&X.X@X@XOX@X3X1X#X}.OX.X(.;.- # ~ m n v 3 l L W V l V L W V l V n z C C c l l A W W Z l 3 : 3 l l 3 : &.OXOXOX.X@X<X1X#XOXOX",
"7X6X=X}..X.X.X@X8X1X@X.XOX.X.X>.: 4 z v x 6 5 v A n c n U ( ! W V U L V A U J V V K U W ~ Z l 6 z v : z.F.R.}..XOX}.+X<X3X&X.X[.",
";X7X&X@X#XOX.X&X8X1X@X}.@XOXn.[ l 6 : z 6 3 v z v v n U J P W 4.W U U L v K U J v U U U U ~ J c c V 5 >.R.$X.XOXOX{.+X1X7X#X.XOX",
";X>X1X0X9X@X].@X6X6X#XXX].H._ 8 c 5 3 z 6 4 v 3 5 n L W n V U Q ! L L U m n L P z W U A V K U n z x 6 ] S.@X].[..X].OX,X9X#X}.OX",
";X&X1X9X9X.X}.XX7X1X=XOXJ.7 7 3 : : 6 v v 5 : : 5 m W C Z U W J ! m x K 4.c J J 3 V U V -   4 3 : : : J.;X#X.XOX.X}.@X1X1X&XOXOX",
"@XOXOX&XXX&X=X&X&X+X=X;XXX~./.#.+ , V c 5 : : 5 3 6 l 4 L W D c ( m v K 4.l c n 4 . O > 6 7 : o + $ w H.@X#X1X1X=X&X&X@X+X;X>X1X",
"[.[.[.].}.1X9X;X}.OX-X8X<X.X,.k q < 8 3 5 5 : - > 5 3 : Z n 6 5 K l 5 c K J Z v : X X : 6 v x 4 o % p %.D.@X9X9X9X9X1X}.}.-X9X9X",
"OX XOXOX@X;X-X;X X X;X-X-XOX .t e 4 ; : 3 3 3 X > : - 3 c 4 X - x > X > Z L N 4 : 3 : : 4 n n 4 - 2 f $.D.&X7X8X1X<X&X+XOX&X8X8X",
"&X@X%X;X-X X X X;X;X%X X&X%X$.d q ; @ - > 3 l 6 3 X . 6 6 X     4 .   X V 6 - . : l 3 : 3 l 6 4 3 1 j T.}.+X-X1XOX[.OX&X&X+X.XOX",
"@X%X%X;X-X X X X;X%X X}.@X+Xo.r @ + + @ > 6 l : : : 3 l 3 : : :   - : : : : : : : l l 5 3 6 $ > 9 i f P.[.OX%X&XOX{..X<X<X@X}.OX",
";X1X-X@XXX X X X%X%X&XXX&XXX..p = + + < 4 : , : 3 8 c 3 : 3 6 7 - : : 5 : : 3 5 3 6 v z 5 : 4 < $ % t o.D.+X#X#XOX}.OXOX+X&X-X&X",
"1X6X;X}.}.XXXX X}.}.OX%X&XoXZ.X.t % + > > o $ 8 c b z 5 5 6 6 3 : 3 6 6 : 3 6 5 : l n n c z < % = t p <.P..X XOX XOXOX X X-X7X1X",
"1X1X%XOX@X X X#X@X@XXX=X&X#X=X1.t & @ o O + , x n c l z c l 5 3 : 6 l 6 : 6 l l 3 6 v n V v $ = a p a P.+X.X X+X+XOXOX XOX&X3X7X",
"9X7X&X&X=X X|.@X9X7X=X;X1X7X1X1.= @ @ $ @ , 6 : 4 6 z A C c 6 6 3 x v 6 : 6 v V l z 6 6 4 : $ t s p h !.3X<X-X-XOX X}.}.}.OX&X-X",
"1X9X1X-X;X X}.%X9X6X1X;X;X9X6X1.i f j p % # : # > 3 z A c 5 3 l 5 v C n 6 l v Z V Z 1 ; - $ = f g .._.oX1X3X<X&XOX X}.}.}.%X%XOX",
"<X1X&X@X&X X X%X;X;X-X1X-X&X&X!.<.p s = * @ q @ > z x 8 3 3 : 3 1 e u N e , 0 n C 6 , $ 2 t t s f ...X<X<X&X&X$X X+X$X[. X%X<X&X",
"-X-X#X}. X X X%X|.}.&X7X1X&X@X XK.1.2.h & = t & 2 u B ; ; ; ; o % $ u B * @ , 0 u ; $ % = f :.j.2.j.].&X<X%X XOX X X X[. X&X7X8X",
"&X&X%X%X%X X X%X X X-X7X;X&X%X@X[.+X<X3.X.X. .a r t p % $ % * % + @ u B + $ @ % % @ = h ..$._.8X*X.X.X&X<X@XOX+X$X X X[. X&X1X1X",
"OXOX%X&X&X%X X X X X X%XOX X@XXX+X.X+X+X+X#X_...j f t t p f a = @ = p p @ r t i p @ = j.+X#X&X<X*X5X>X+XOX+X#X&XOX X X X X X%X X",
"[.[.+X&X;X X X X X X X X}. X X X[.[.}.}.oX*XoXT.P.T.!.!...3.P.L.y x.T.m.r b.K.x.i p x.^.-X-X&X%X#X0X8X.X].XX;X&X X X X%X X X X}.",
"oX.X#X<X=X&X%X X X X X$XOX&X&XOXOX+X+X+X+X:X*X*X#X=X5X,XL.!.%X[.m.Q.OX(.b.].+X^.x.b.^.#X1X-X&X+X#X0X0X+X.X#X,X<X&X&X X X X X X X",
"*X#X<X0X1X-X;X%X X X X X X&X-X&X<X&X<X>X,X5X5X8X8X,XoX.X#X>X#X%X&X$X}.OX7X7X#XOXOXOX X#X3X<X+X.X:X8X0X,X=X;X7X1X-X-X%X X X X X X",
":X*X*X8X1X-X&X%X}. X X X X;X;X&X<X&X<X*X<X8X8X0X0X:X_.].&X3X&X&X%X%X.X@X3X7X#X[.OXOX}.&X0X1X+X].+X0X0X:X#X;X7X7X-X-X%X X X X X X"
};
